<?xml version="1.0" encoding="UTF-8" standalone="no"?>
<!-- Created with Inkscape (http://www.inkscape.org/) -->

<svg
   xmlns:dc="http://purl.org/dc/elements/1.1/"
   xmlns:cc="http://creativecommons.org/ns#"
   xmlns:rdf="http://www.w3.org/1999/02/22-rdf-syntax-ns#"
   xmlns:svg="http://www.w3.org/2000/svg"
   xmlns="http://www.w3.org/2000/svg"
   xmlns:sodipodi="http://sodipodi.sourceforge.net/DTD/sodipodi-0.dtd"
   xmlns:inkscape="http://www.inkscape.org/namespaces/inkscape"
   width="44.37117mm"
   height="44.180199mm"
   viewBox="0 0 44.37117 44.180199"
   version="1.1"
   id="svg10379"
   inkscape:version="0.92.5 (2060ec1f9f, 2020-04-08)"
   sodipodi:docname="Eye1.svg">
  <defs
     id="defs10373" />
  <sodipodi:namedview
     id="base"
     pagecolor="#ffffff"
     bordercolor="#666666"
     borderopacity="1.0"
     inkscape:pageopacity="0.0"
     inkscape:pageshadow="2"
     inkscape:zoom="0.35"
     inkscape:cx="-559.00613"
     inkscape:cy="-233.65272"
     inkscape:document-units="mm"
     inkscape:current-layer="layer1"
     showgrid="false"
     inkscape:window-width="1920"
     inkscape:window-height="1055"
     inkscape:window-x="0"
     inkscape:window-y="0"
     inkscape:window-maximized="1" />
  <metadata
     id="metadata10376">
    <rdf:RDF>
      <cc:Work
         rdf:about="">
        <dc:format>image/svg+xml</dc:format>
        <dc:type
           rdf:resource="http://purl.org/dc/dcmitype/StillImage" />
        <dc:title></dc:title>
      </cc:Work>
    </rdf:RDF>
  </metadata>
  <g
     inkscape:label="Layer 1"
     inkscape:groupmode="layer"
     id="layer1"
     transform="translate(-121.44537,-42.832519)">
    <path
       style="fill:#000000;stroke-width:0.26458332"
       d="m 143.63918,42.832519 v 5.3e-4 c -0.61596,-4e-4 -1.1704,0.006 -1.68672,0.0212 -8.97629,0.64677 -16.88794,6.80145 -19.73833,15.84089 -0.79353,2.51653 -1.02313,7.93078 -0.4501,10.617441 1.93607,9.077349 9.70644,16.28902 18.9451,17.582409 1.943,0.272021 5.77776,0.0537 8.08942,-0.45993 5.20546,-1.15678 10.59507,-4.95871 13.58315,-9.581859 2.56364,-3.966441 3.62545,-7.975751 3.40703,-12.866391 -0.16047,-3.59312 -0.60028,-5.50429 -1.90325,-8.2672 -3.40071,-7.21098 -9.81238,-11.82164 -17.75756,-12.77027 -0.31708,-0.0379 -0.63346,-0.068 -0.9493,-0.092 -0.48324,-0.0163 -0.99326,-0.0244 -1.53944,-0.0248 z m -5.3e-4,1.73014 c 0.50341,3.71e-4 0.97364,0.007 1.41904,0.0222 0.29111,0.0221 0.58263,0.0498 0.87488,0.0847 7.32304,0.87434 13.23253,5.1245 16.36695,11.770861 1.20095,2.546539 1.6065,4.307389 1.75441,7.619149 0.20133,4.50768 -0.77746,8.203361 -3.14036,11.859241 -2.75409,4.261088 -7.72181,7.76528 -12.51966,8.831498 -2.13064,0.47344 -5.66501,0.674452 -7.45587,0.423752 -8.5152,-1.192102 -15.67699,-7.8387 -17.46145,-16.205221 -0.52816,-2.47626 -0.31643,-7.46702 0.41496,-9.78649 2.62719,-8.3316 9.9193,-14.004 18.19269,-14.60013 0.47588,-0.0138 0.9867,-0.02 1.55442,-0.0196 z m 0.19431,7.16235 c -0.17215,-0.003 -0.34439,-0.003 -0.51677,5.03e-4 -3.30962,0.0666 -6.64254,1.35123 -9.27385,4.01733 -7.08895,7.18275 -3.67643,19.33966 6.17223,21.98833 3.03313,0.81571 6.9033,0.331311 9.83247,-1.229889 5.57214,-2.969922 8.2979,-9.810041 6.26423,-15.721011 -1.96459,-5.710223 -7.14178,-8.958743 -12.4783,-9.055263 z m 4.87102,4.99298 c 1.72379,0 2.63162,0.36726 3.70105,1.49756 1.94544,2.05619 1.55569,5.28048 -0.82889,6.85851 -2.42647,1.60578 -5.71728,0.76808 -7.05072,-1.79473 -0.59496,-1.1435 -0.47794,-3.41489 0.22996,-4.46534 0.99762,-1.48037 2.15734,-2.096 3.9486,-2.096 z m 0.26045,13.793471 c 0.4953,0.01 0.99847,0.19386 1.41903,0.614439 0.29668,0.296651 0.4836,0.579962 0.56533,0.862992 0.0279,0.126727 0.0456,0.255688 0.0465,0.386529 -0.0234,0.408358 -0.26765,0.827829 -0.73587,1.296059 -1.03837,1.03836 -2.18624,0.94075 -3.12073,-0.265639 -1.07758,-1.391002 0.33984,-2.924342 1.82572,-2.89438 z"
       id="path6575"
       inkscape:connector-curvature="0" />
  </g>
</svg>
