<?xml version="1.0" encoding="UTF-8" standalone="no"?>
<!-- Created with Inkscape (http://www.inkscape.org/) -->

<svg
   xmlns:dc="http://purl.org/dc/elements/1.1/"
   xmlns:cc="http://creativecommons.org/ns#"
   xmlns:rdf="http://www.w3.org/1999/02/22-rdf-syntax-ns#"
   xmlns:svg="http://www.w3.org/2000/svg"
   xmlns="http://www.w3.org/2000/svg"
   xmlns:sodipodi="http://sodipodi.sourceforge.net/DTD/sodipodi-0.dtd"
   xmlns:inkscape="http://www.inkscape.org/namespaces/inkscape"
   width="39.786812mm"
   height="40.145493mm"
   viewBox="0 0 39.786812 40.145493"
   version="1.1"
   id="svg10930"
   inkscape:version="0.92.5 (2060ec1f9f, 2020-04-08)"
   sodipodi:docname="Eye2.svg">
  <defs
     id="defs10924" />
  <sodipodi:namedview
     id="base"
     pagecolor="#ffffff"
     bordercolor="#666666"
     borderopacity="1.0"
     inkscape:pageopacity="0.0"
     inkscape:pageshadow="2"
     inkscape:zoom="0.35"
     inkscape:cx="-339.09804"
     inkscape:cy="-49.848793"
     inkscape:document-units="mm"
     inkscape:current-layer="layer1"
     showgrid="false"
     inkscape:window-width="1920"
     inkscape:window-height="1055"
     inkscape:window-x="0"
     inkscape:window-y="0"
     inkscape:window-maximized="1" />
  <metadata
     id="metadata10927">
    <rdf:RDF>
      <cc:Work
         rdf:about="">
        <dc:format>image/svg+xml</dc:format>
        <dc:type
           rdf:resource="http://purl.org/dc/dcmitype/StillImage" />
        <dc:title></dc:title>
      </cc:Work>
    </rdf:RDF>
  </metadata>
  <g
     inkscape:label="Layer 1"
     inkscape:groupmode="layer"
     id="layer1"
     transform="translate(-63.261357,-95.498682)">
    <path
       style="fill:#000000;stroke-width:0.80439597"
       d="m 82.938219,95.498682 c -5.3423,0 -9.09587,1.42581 -13.17824,5.010178 -4.64509,4.07845 -6.46099,8.23251 -6.49799,14.85776 -0.0371,6.6566 1.55256,10.47122 6.27493,15.0541 5.61918,5.45334 15.60091,6.84671 22.78539,3.18149 0.16904,-0.0863 0.34114,-0.18424 0.51225,-0.28122 1.41155,-0.90858 2.91689,-2.10084 4.3126,-3.45794 1.97582,-1.92116 3.482781,-3.92057 4.542031,-6.0173 0.0879,-0.18515 0.17633,-0.36939 0.25294,-0.5514 0.6083,-1.45588 1.10604,-4.94085 1.10604,-7.74391 0,-11.63496 -8.441491,-20.051758 -20.109891,-20.051758 z m 0.0274,2.55927 c 10.18054,0 17.544301,7.344298 17.544301,17.495618 0,2.44559 -0.4339,5.4855 -0.964641,6.75571 -0.0666,0.1587 -0.14289,0.3191 -0.21981,0.48072 -0.92417,1.82934 -2.23998,3.57441 -3.96389,5.25061 -1.2177,1.18399 -2.53118,2.22375 -3.76272,3.01646 -0.14927,0.0845 -0.29855,0.17117 -0.44621,0.24657 -6.26833,3.19787 -14.97785,1.98187 -19.88048,-2.77613 -4.12019,-3.99852 -5.50602,-7.32646 -5.47367,-13.13428 0.0322,-5.78047 1.6157,-9.40467 5.66849,-12.963 3.56179,-3.127338 6.83762,-4.372368 11.49876,-4.372368 z m -0.58913,9.142198 c -0.20948,0.0122 -0.41667,0.0383 -0.61744,0.0784 -2.50297,0.49842 -4.80893,2.31666 -6.00627,4.45878 v 0.009 c -0.46293,0.63958 -0.68542,1.23066 -0.74157,1.97336 -0.0708,0.35039 -0.11462,0.69998 -0.11462,1.04788 0,0.12982 0.009,0.25355 0.0122,0.38024 0,0.0748 -0.0122,0.14593 -0.0122,0.22163 0,0.89779 0.11219,1.65617 0.35668,2.36291 0.72315,2.66841 2.56408,4.39505 5.67631,5.39034 5.42281,1.73403 11.16773,-4.27908 9.53336,-9.97797 -0.93478,-3.25935 -4.93908,-6.12371 -8.0832,-5.94184 z m 2.52315,3.86794 c 0.0806,0 0.16326,0.0122 0.24991,0.0274 0.77429,0.14897 1.40769,0.77912 1.40769,1.39981 0,0.3064 -0.086,0.57947 -0.22316,0.80752 -0.37324,0.42384 -0.89538,0.649 -1.40303,0.67086 -0.22589,-0.0426 -0.44613,-0.14289 -0.63626,-0.33309 -0.33239,-0.33239 -0.49763,-0.71601 -0.54989,-1.08713 0.009,-0.54377 0.1359,-0.94503 0.39906,-1.20822 0.0572,-0.0572 0.12374,-0.10306 0.19336,-0.14775 0.16143,-0.0839 0.34844,-0.13377 0.56241,-0.12891 z"
       id="path6883"
       inkscape:connector-curvature="0" />
  </g>
</svg>
