<?xml version="1.0" encoding="UTF-8" standalone="no"?>
<!-- Created with Inkscape (http://www.inkscape.org/) -->

<svg
   xmlns:dc="http://purl.org/dc/elements/1.1/"
   xmlns:cc="http://creativecommons.org/ns#"
   xmlns:rdf="http://www.w3.org/1999/02/22-rdf-syntax-ns#"
   xmlns:svg="http://www.w3.org/2000/svg"
   xmlns="http://www.w3.org/2000/svg"
   xmlns:sodipodi="http://sodipodi.sourceforge.net/DTD/sodipodi-0.dtd"
   xmlns:inkscape="http://www.inkscape.org/namespaces/inkscape"
   width="23.934919mm"
   height="23.912678mm"
   viewBox="0 0 23.934919 23.912678"
   version="1.1"
   id="svg13685"
   inkscape:version="0.92.5 (2060ec1f9f, 2020-04-08)"
   sodipodi:docname="Eye5.svg">
  <defs
     id="defs13679" />
  <sodipodi:namedview
     id="base"
     pagecolor="#ffffff"
     bordercolor="#666666"
     borderopacity="1.0"
     inkscape:pageopacity="0.0"
     inkscape:pageshadow="2"
     inkscape:zoom="0.35"
     inkscape:cx="-249.05437"
     inkscape:cy="196.61788"
     inkscape:document-units="mm"
     inkscape:current-layer="layer1"
     showgrid="false"
     inkscape:window-width="1920"
     inkscape:window-height="1055"
     inkscape:window-x="0"
     inkscape:window-y="0"
     inkscape:window-maximized="1" />
  <metadata
     id="metadata13682">
    <rdf:RDF>
      <cc:Work
         rdf:about="">
        <dc:format>image/svg+xml</dc:format>
        <dc:type
           rdf:resource="http://purl.org/dc/dcmitype/StillImage" />
        <dc:title></dc:title>
      </cc:Work>
    </rdf:RDF>
  </metadata>
  <g
     inkscape:label="Layer 1"
     inkscape:groupmode="layer"
     id="layer1"
     transform="translate(-39.437302,-176.94247)">
    <path
       inkscape:connector-curvature="0"
       style="fill:#000000;stroke-width:0.53853458"
       d="m 51.615316,176.94294 c -10.108668,-0.0858 -15.97474,11.58275 -9.390639,19.57039 3.82129,4.63589 10.271652,5.68984 15.478641,2.52955 1.438389,-0.873 3.065939,-2.5245 4.039029,-4.09845 1.392279,-2.25195 1.629875,-3.16511 1.629875,-6.26682 0,-0.9325 -0.01921,-1.65272 -0.08062,-2.26084 -0.192366,-0.93699 -0.491972,-1.83718 -0.886762,-2.68612 -0.18496,-0.30745 -0.403556,-0.63418 -0.663525,-1.00407 -2.457151,-3.49613 -5.553245,-5.44113 -9.134843,-5.73815 -0.33465,-0.0278 -0.665065,-0.0425 -0.991156,-0.0455 z m -0.01963,1.12189 c 0.295505,0.003 0.594879,0.0156 0.898139,0.0408 3.245649,0.26916 6.051381,2.03202 8.278045,5.2002 0.235585,0.3352 0.433904,0.6314 0.601515,0.91003 0.357759,0.7693 0.629242,1.58486 0.803568,2.43396 0.05564,0.55107 0.07286,1.2039 0.07286,2.04896 0,2.81077 -0.215225,3.63802 -1.476912,5.67872 -0.881813,1.42632 -2.356767,2.92288 -3.660237,3.71398 -4.718582,2.86385 -10.563683,1.90871 -14.026533,-2.29235 -5.966521,-7.23841 -0.650934,-17.81212 8.509555,-17.73433 z m -0.02119,1.21491 c -8.1333,-0.0691 -12.853091,9.31908 -7.555614,15.74581 3.074554,3.72999 8.264549,4.57824 12.45402,2.03554 1.157308,-0.70239 2.466477,-2.0316 3.249414,-3.298 1.120209,-1.81187 1.311547,-2.54646 1.311547,-5.04206 0,-0.75028 -0.01572,-1.32972 -0.06511,-1.81901 -0.15478,-0.75388 -0.395495,-1.47807 -0.713138,-2.16112 -0.148815,-0.24736 -0.324654,-0.51059 -0.533815,-0.80822 -1.976991,-2.81284 -4.468233,-4.37779 -7.34994,-4.61677 -0.269256,-0.0225 -0.535001,-0.0332 -0.797367,-0.0362 z m 2.079458,2.98122 v 0 c 0.205,0 0.423157,0.058 0.644406,0.15349 0.6412,0.18976 1.253051,0.61508 1.774053,1.27743 2.469928,3.14003 -1.323295,6.93322 -4.463293,4.46331 -0.725935,-0.57102 -1.167268,-1.25116 -1.324989,-1.95958 -0.06604,-0.17362 -0.105937,-0.33189 -0.105937,-0.45836 0,-0.08 0.01643,-0.16899 0.04134,-0.262 0.03695,-0.73969 0.379688,-1.48145 1.035598,-2.13733 0.441309,-0.44135 0.921695,-0.73644 1.413865,-0.89659 0.031,-0.0111 0.06192,-0.0225 0.09302,-0.0326 0.0071,-0.003 0.01418,-0.004 0.02119,-0.006 0.09264,-0.0278 0.186084,-0.0473 0.280086,-0.0625 0.0245,-0.005 0.04888,-0.007 0.07338,-0.0109 0.04466,-0.006 0.08936,-0.0114 0.134361,-0.0145 0.04088,-0.004 0.08157,-0.0109 0.122473,-0.013 0.09245,-0.0246 0.180948,-0.0413 0.260448,-0.0413 z"
       id="path7280" />
  </g>
</svg>
