<?xml version="1.0" encoding="UTF-8" standalone="no"?>
<!-- Created with Inkscape (http://www.inkscape.org/) -->

<svg
   xmlns:dc="http://purl.org/dc/elements/1.1/"
   xmlns:cc="http://creativecommons.org/ns#"
   xmlns:rdf="http://www.w3.org/1999/02/22-rdf-syntax-ns#"
   xmlns:svg="http://www.w3.org/2000/svg"
   xmlns="http://www.w3.org/2000/svg"
   xmlns:sodipodi="http://sodipodi.sourceforge.net/DTD/sodipodi-0.dtd"
   xmlns:inkscape="http://www.inkscape.org/namespaces/inkscape"
   width="128.20506mm"
   height="90.848152mm"
   viewBox="0 0 128.20506 90.848152"
   version="1.1"
   id="svg5780"
   inkscape:version="0.92.5 (2060ec1f9f, 2020-04-08)"
   sodipodi:docname="FancyWing.svg">
  <defs
     id="defs5774" />
  <sodipodi:namedview
     id="base"
     pagecolor="#ffffff"
     bordercolor="#666666"
     borderopacity="1.0"
     inkscape:pageopacity="0.0"
     inkscape:pageshadow="2"
     inkscape:zoom="0.35"
     inkscape:cx="-32.008418"
     inkscape:cy="-114.03274"
     inkscape:document-units="mm"
     inkscape:current-layer="layer1"
     showgrid="false"
     inkscape:window-width="1920"
     inkscape:window-height="1055"
     inkscape:window-x="0"
     inkscape:window-y="0"
     inkscape:window-maximized="1" />
  <metadata
     id="metadata5777">
    <rdf:RDF>
      <cc:Work
         rdf:about="">
        <dc:format>image/svg+xml</dc:format>
        <dc:type
           rdf:resource="http://purl.org/dc/dcmitype/StillImage" />
        <dc:title></dc:title>
      </cc:Work>
    </rdf:RDF>
  </metadata>
  <g
     inkscape:label="Layer 1"
     inkscape:groupmode="layer"
     id="layer1"
     transform="translate(17.989439,-27.814016)">
    <path
       style="fill:#000000;stroke-width:0.35277778"
       d="m 15.287015,27.816524 c -0.0643,0.0643 0.174051,1.06263 0.52968,2.21847 0.95585,3.10676 1.199452,5.85985 0.725022,8.18606 -0.35597,1.74544 -0.671502,2.27664 -2.25412,3.79357 -1.012151,0.97014 -1.82708,1.79238 -1.81075,1.82779 0.0163,0.0354 2.249688,0.8843 4.963009,1.88619 2.71331,1.00189 5.72712,2.12104 6.69726,2.48719 0.97014,0.36616 5.097981,1.87157 9.17257,3.34501 6.31254,2.28272 15.800411,5.8234 17.903301,6.68125 1.248489,0.50931 0.554789,-0.471421 -1.856732,-2.625161 -2.454508,-2.192139 -12.271338,-10.512349 -14.80013,-12.543939 -0.724538,-0.58209 -2.809478,-2.27317 -4.63331,-3.75791 -6.090528,-4.95816 -7.528059,-6.11415 -11.034469,-8.87336 -1.91661,-1.50819 -3.536989,-2.68949 -3.601331,-2.62516 z m 10.112042,5.26841 c -0.0182,0.002 -0.0269,0.0111 -0.0269,0.0264 0,0.0825 1.229979,1.17823 2.73368,2.434479 1.50372,1.256231 5.512499,4.587021 8.907989,7.402131 18.897711,15.667591 20.56134,17.58336 25.00054,28.784799 1.852189,4.673643 4.05375,8.913101 4.62711,8.910582 0.100111,-2.64e-4 0.181901,-3.53246 0.181901,-7.84914 0,-7.456892 -0.0393,-7.922511 -0.79117,-9.32915 -1.53493,-2.8717 -16.46105,-14.530271 -31.13505,-24.318931 -6.82843,-4.55507 -9.225222,-6.08797 -9.498132,-6.06061 z m -43.213381,1.69757 c -0.48924,0 -0.0487,0.56872 2.54713,3.2892 6.1227996,6.41688 7.1503998,9.95509 3.91191,13.46843 -0.77307,0.83868 -1.27902,1.60003 -1.12448,1.69189 0.15454,0.0919 1.1539,0.27565 2.22105,0.40876 12.4935802,1.558369 26.370409,3.826819 38.27622,6.256469 9.321681,1.902302 11.412191,2.264752 11.091831,1.923392 -0.291222,-0.310301 -13.951591,-7.073022 -21.674651,-10.730091 -17.70685076,-8.38463 -20.9612808,-9.90817 -27.75231,-12.99456 -4.01003,-1.82247 -7.38363,-3.31349 -7.4967,-3.31349 z m 25.3803602,9.32449 c -0.0953,-0.006 -0.10624,0.0353 -0.01,0.12661 0.19402,0.18302 3.1307308,1.64619 6.5262208,3.252 9.35863,4.42593 35.006129,17.14331 35.807121,17.754989 0.538319,0.411081 0.60805,0.637842 0.29455,0.956011 -0.315701,0.320379 -1.623782,0.124259 -5.644621,-0.84542 -10.684441,-2.57669 -21.479391,-4.820679 -31.51592,-6.55206 -8.2115708,-1.416571 -16.8146808,-2.512671 -15.3458308,-1.954919 0.194029,0.0737 7.5759,1.950649 16.4041688,4.17081 8.828263,2.220158 18.670593,4.778039 21.872041,5.684398 8.094522,2.291641 17.71764,5.45765 18.313622,6.024962 0.87725,0.83502 -0.79616,1.134578 -8.61188,1.543058 -13.2328,0.691602 -22.11106,1.895131 -31.415141,4.258651 -5.4166898,1.376011 -11.6042608,3.53526 -10.8510108,3.786341 0.22961,0.0765 2.53076,-0.26316 5.113892,-0.75448 7.8128678,-1.486001 12.0593878,-2.109272 23.3939178,-3.4339 4.221782,-0.493379 20.56687,-0.646732 22.13664,-0.207741 1.61163,0.45071 1.163931,1.28664 -1.234548,2.30477 -6.096011,2.587691 -14.397152,6.952041 -19.490801,10.246921 -4.61155,2.98301 -11.290319,8.107468 -10.976081,8.421709 0.0773,0.0773 2.666812,-1.124951 5.75469,-2.67116 7.56068,-3.785899 16.063822,-7.345389 22.683891,-9.49657 7.07472,-2.29893 7.695311,-2.42642 7.996409,-1.641758 0.170572,0.444489 -0.143338,0.907489 -1.146699,1.690849 -2.946241,2.30029 -7.99188,7.53111 -10.053129,10.42262 -2.01956,2.833005 -6.608461,11.503095 -6.26835,11.843195 0.0845,0.0845 1.611498,-1.54647 3.39307,-3.62458 4.379319,-5.10823 7.563889,-8.387374 12.661238,-13.036416 6.216312,-5.669571 6.976833,-5.87498 5.711801,-1.54305 -1.034259,3.541691 -2.299599,9.019389 -2.909379,12.597156 -0.5891,3.45619 -1.15851,11.38665 -0.79375,11.05359 0.122208,-0.1116 1.003908,-3.06295 1.95957,-6.55877 2.804229,-10.257825 5.109081,-16.345256 6.18825,-16.345256 1.062389,0 4.7763,6.692289 6.40529,11.541926 0.50723,1.51008 1.45157,4.78726 2.09858,7.28277 0.647009,2.49548 1.2643,4.62534 1.37201,4.73303 0.349599,0.3496 0.201469,-9.20243 -0.179322,-11.56311 -0.203409,-1.26118 -0.836969,-3.691395 -1.408178,-5.400186 -0.571209,-1.708779 -1.038702,-3.256589 -1.038702,-3.43958 0,-1.880799 6.930861,4.6423 11.758984,11.067016 1.57666,2.09803 2.92004,3.6526 2.98586,3.45509 0.20543,-0.61624 -3.01445,-7.81756 -5.03483,-11.260296 -2.593002,-4.418439 -2.596244,-4.492311 -0.18501,-4.411099 4.00233,0.1348 13.33905,4.142189 19.91713,8.548315 1.73818,1.16426 3.23774,2.03897 3.33262,1.94407 0.28963,-0.28963 -5.64148,-6.082205 -8.08065,-7.892026 -2.75669,-2.045449 -7.09641,-4.26475 -10.23038,-5.231199 -2.15307,-0.663972 -5.35689,-1.34738 -12.876224,-2.7466 -4.538609,-0.844571 -7.023859,-2.121011 -9.743069,-5.00435 -2.585191,-2.741231 -4.080971,-5.435621 -6.623881,-11.93002 -2.443028,-6.23932 -3.267109,-7.44828 -6.540688,-9.59735 -2.664801,-1.74942 -5.12313,-2.761721 -19.073262,-7.854301 -3.29846,-1.20413 -8.060449,-2.94521 -10.582809,-3.86953 -2.522371,-0.92431 -6.88833,-2.49803 -9.701732,-3.49695 -2.813409,-0.99892 -5.5119788,-1.98237 -5.9970578,-2.18539 -0.24224,-0.1014 -0.42283,-0.15608 -0.51883,-0.16279 z m -13.10049,13.97073 c -0.8798,0.0021 -0.25115,0.722199 1.51567,2.54558 1.36304,1.4067 3.02449004,3.430771 3.69228004,4.49792 2.95928996,4.72907 3.81339996,9.180319 2.56728996,13.376441 -0.30424,1.024499 -0.48609,1.929268 -0.40463,2.010731 0.0815,0.0815 1.56064,-0.396513 3.28714,-1.062472 8.5727798,-3.30672 22.9493808,-5.938559 37.0054888,-6.774259 2.134312,-0.126892 4.103201,-0.349631 4.375442,-0.495062 1.037748,-0.55435 -12.326991,-4.363929 -35.243321,-10.04538 -5.9178398,-1.467159 -11.99426976,-2.98228 -13.5030498,-3.36672 -1.69347,-0.431498 -2.76442,-0.688229 -3.29231,-0.686779 z m 51.5120988,21.19715 c -4.048948,-0.004 -11.245509,0.33624 -15.842959,0.8382 -8.14704,0.889489 -22.7546798,3.155809 -22.7546798,3.530531 0,0.0534 1.151289,0.648308 2.557981,1.32189 4.8648488,2.329479 9.2228478,7.3519 9.6722778,11.1466 0.11843,0.999968 0.370501,1.817981 0.559652,1.817981 0.189169,0 1.238149,-0.75465 2.331648,-1.6769 6.004581,-5.064221 12.891,-9.505162 21.283451,-13.726301 2.87274,-1.44491 5.222941,-2.801871 5.222941,-3.015321 0,-0.161589 -1.189871,-0.234699 -3.030312,-0.23668 z m 6.83111,8.777771 c -1.35046,0 -10.550998,3.507979 -17.59272,6.708109 -5.693018,2.587209 -13.018849,6.382436 -13.018849,6.744286 0,0.16815 0.77965,0.30593 1.732711,0.30593 2.326839,0 6.731188,0.86815 8.601549,1.6955 1.96152,0.86768 3.833529,2.52428 5.078751,4.49534 0.54505,0.86274 1.083299,1.56906 1.196308,1.56941 0.113012,2.7e-4 0.808022,-1.38838 1.544611,-3.08612 2.70791,-6.24139 5.598581,-10.648535 10.11101,-15.415596 1.570881,-1.659541 2.62677,-3.016859 2.346629,-3.016859 z m 7.703921,4.017839 c -0.651701,0.164459 -7.41602,6.56191 -10.55233,10.001456 -3.4852,3.82219 -7.654829,8.9088 -7.654829,9.33844 0,0.15289 1.688438,0.27752 3.751709,0.27752 4.91245,0 6.126919,0.40044 8.79792,2.89903 1.199549,1.12212 2.27956,2.04071 2.400371,2.04071 0.120788,0 0.222809,-1.54782 0.226859,-3.43959 0.008,-3.95286 0.943819,-10.82819 2.288749,-16.824805 0.511242,-2.279571 0.864722,-4.209899 0.785482,-4.289139 -0.008,-0.008 -0.02289,-0.009 -0.0439,-0.004 z m 7.252271,2.776571 v 5.3e-4 c -0.545441,0.10673 -2.14884,4.27437 -3.547581,9.256285 -2.17646,7.75178 -2.810639,10.24818 -2.83601,11.16521 l -0.0258,0.93482 2.557989,-0.89038 c 2.17919,-0.75845 2.97489,-0.86326 5.379511,-0.70901 1.552231,0.0996 3.503501,0.45649 4.336169,0.79325 0.83267,0.33673 1.598411,0.52805 1.70171,0.42477 0.291891,-0.2919 -1.83732,-8.49839 -3.22358,-12.42405 -1.314339,-3.722054 -3.626628,-8.326105 -4.29328,-8.548316 -0.01529,-0.005 -0.0315,-0.006 -0.0491,-0.003 z m 17.724503,0.607719 v 5.29e-4 c -0.27167,0.0011 -0.10392,0.285859 2.18592,4.776457 1.18483,2.32356 2.5962,5.45764 3.13624,6.96443 0.956,2.66746 1.03447,2.76768 2.98638,3.80803 1.10257,0.58768 2.7646,1.69649 3.69331,2.46394 0.92874,0.76744 1.7661,1.39475 1.86087,1.39475 0.0948,0 0.11917,-1.62651 0.0543,-3.61529 -0.13658,-4.18125 -0.46107,-3.95532 3.92999,-2.73988 1.67437,0.46345 3.42302,0.69608 4.7625,0.63355 l 2.11667,-0.0987 -2.7311,-2.25258 c -3.78375,-3.12116 -6.79334,-5.02808 -11.73313,-7.435198 -3.71576,-1.81065 -9.13158,-3.89382 -10.12342,-3.89382 -0.0519,0 -0.0997,-0.006 -0.13849,-0.006 z m -7.131864,4.02662 c -0.0419,0.005 -0.0629,0.0367 -0.0615,0.0977 0.004,0.160271 0.236292,1.561286 0.516761,3.113506 0.321331,1.77848 0.514699,5.25335 0.522448,9.39581 l 0.01191,6.57376 2.205029,-0.90641 c 2.695566,-1.10832 6.708196,-1.25745 8.164356,-0.30333 0.49213,0.32244 0.97982,0.586 1.08366,0.586 0.85133,0 -1.51072,-5.32305 -3.92793,-8.85216 -2.61784,-3.82205 -7.885594,-9.778515 -8.514715,-9.704844 z"
       id="path2381"
       inkscape:connector-curvature="0" />
  </g>
</svg>
