<?xml version="1.0" encoding="UTF-8" standalone="no"?>
<!-- Created with Inkscape (http://www.inkscape.org/) -->

<svg
   xmlns:dc="http://purl.org/dc/elements/1.1/"
   xmlns:cc="http://creativecommons.org/ns#"
   xmlns:rdf="http://www.w3.org/1999/02/22-rdf-syntax-ns#"
   xmlns:svg="http://www.w3.org/2000/svg"
   xmlns="http://www.w3.org/2000/svg"
   xmlns:sodipodi="http://sodipodi.sourceforge.net/DTD/sodipodi-0.dtd"
   xmlns:inkscape="http://www.inkscape.org/namespaces/inkscape"
   width="210mm"
   height="297mm"
   viewBox="0 0 210 297"
   version="1.1"
   id="svg21250"
   inkscape:version="0.92.5 (2060ec1f9f, 2020-04-08)"
   sodipodi:docname="Tentacle2.svg">
  <defs
     id="defs21244" />
  <sodipodi:namedview
     id="base"
     pagecolor="#ffffff"
     bordercolor="#666666"
     borderopacity="1.0"
     inkscape:pageopacity="0.0"
     inkscape:pageshadow="2"
     inkscape:zoom="0.35"
     inkscape:cx="-100"
     inkscape:cy="560"
     inkscape:document-units="mm"
     inkscape:current-layer="layer1"
     showgrid="false"
     inkscape:window-width="1920"
     inkscape:window-height="1055"
     inkscape:window-x="0"
     inkscape:window-y="0"
     inkscape:window-maximized="1" />
  <metadata
     id="metadata21247">
    <rdf:RDF>
      <cc:Work
         rdf:about="">
        <dc:format>image/svg+xml</dc:format>
        <dc:type
           rdf:resource="http://purl.org/dc/dcmitype/StillImage" />
        <dc:title></dc:title>
      </cc:Work>
    </rdf:RDF>
  </metadata>
  <g
     inkscape:label="Layer 1"
     inkscape:groupmode="layer"
     id="layer1">
    <path
       style="fill:#000000;stroke-width:0.26458332"
       d="m 98.080017,56.040764 c -0.337185,0.0032 -0.662623,0.01349 -0.970492,0.03098 -6.163892,0.348112 -11.839019,3.572483 -14.247204,8.094609 -1.004464,1.886241 -1.623457,3.572404 -2.81686,7.674478 -0.524007,1.801045 -1.260237,3.884665 -1.636078,4.630208 -0.990361,1.964425 -3.025616,4.422219 -4.724796,5.705052 -2.039223,1.539636 -5.227796,3.013576 -6.573758,3.03858 l -0.881592,0.01614 -1.41904,27.461877 c 0.18468,-0.0641 1.507146,0.008 3.177593,0.18862 4.127527,0.44704 8.32784,0.24153 10.612279,-0.51882 2.297535,-0.76473 5.124952,-2.72733 6.646624,-4.61368 0.678736,-0.84142 1.831023,-2.73888 2.560029,-4.21679 1.272434,-2.57951 2.016442,-4.764224 5.601732,-16.445525 4.13295,-13.465518 5.277511,-16.456845 7.604706,-19.876293 1.35877,-1.864307 3.41863,-3.707235 4.95784,-5.073068 1.86182,-1.866026 2.95725,-0.613357 3.08729,-2.463429 0.0474,-1.718231 -2.95293,-2.592097 -2.95293,-2.592097 l -0.99219,-0.274902 c -1.72394,-0.477811 -4.67283,-0.788802 -7.033153,-0.765836 z m -0.291465,4.98057 v 0 c 1.099634,-0.01297 1.990301,0.514773 2.18694,1.373028 0.01931,0.09742 0.0335,0.197247 0.03979,0.301281 2.1e-4,0.0071 0,0.01296 0.003,0.01958 v 0.07131 c -0.02381,1.503972 -1.82176,3.873871 -3.581187,4.708763 v 0 c -1.100587,0.521997 -2.224325,0.520753 -2.972408,-0.0032 -0.702548,-0.492072 -0.805551,-2.104231 -0.208254,-3.259243 0.470721,-0.910272 2.33172,-2.616306 3.223551,-2.955369 0.447411,-0.170127 0.892228,-0.251857 1.307942,-0.256831 z m -5.094764,10.329597 c 1.886479,0.06599 3.180159,1.848432 1.599882,3.31298 -0.822642,0.762424 -2.793074,0.899769 -3.708823,0.258366 -1.209675,-0.847302 -0.991896,-2.440914 0.434605,-3.178598 0.571129,-0.295328 1.146095,-0.411242 1.674336,-0.392748 z m -2.365243,7.93078 c 2.735368,0 3.356557,4.529613 0.952394,6.945311 -1.445154,1.452087 -2.974578,1.31998 -3.828177,-0.330729 -1.251214,-2.419588 0.572717,-6.614582 2.875783,-6.614582 z M 86.27452,90.529094 c 0.06331,-0.0029 0.126656,-0.0026 0.189653,0 0.208545,0.01085 0.415105,0.0558 0.616003,0.139013 1.980909,0.820525 2.000356,4.21296 0.367401,6.221333 -0.07789,0.0925 -0.155549,0.185446 -0.240295,0.27387 -0.02408,0.02513 -0.04337,0.0436 -0.06665,0.06771 -0.185737,0.186002 -0.386979,0.356473 -0.60616,0.504878 -1.71233,1.159272 -3.434239,0.437832 -3.816324,-1.598877 -0.476567,-2.540397 1.593771,-5.519553 3.556371,-5.608426 z m -5.81877,8.845445 c 0.678683,-0.035 1.352418,0.270827 1.996784,0.915191 1.220312,1.22029 1.269577,2.7395 0.126101,3.88297 -0.606558,0.60659 -1.010814,0.77359 -1.872748,0.77359 -0.861959,0 -1.265687,-0.167 -1.872244,-0.77359 -0.648071,-0.64807 -0.773589,-0.987 -0.773589,-2.0929 0,-1.1489 0.105754,-1.40875 0.814414,-2.00504 0.522631,-0.439766 1.053439,-0.672996 1.581282,-0.700221 z m -8.385015,4.558901 c 0.16846,0 0.334645,0.004 0.498157,0.0151 0.318505,0.0413 0.670481,0.11682 1.134322,0.23358 3.556184,0.89545 3.23543,4.28876 -0.510567,5.40123 -2.250202,0.66823 -4.284556,0.38026 -5.541274,-0.78447 -1.557311,-1.44325 -0.342186,-3.65381 2.467028,-4.48807 0.609335,-0.18098 1.043649,-0.29655 1.424728,-0.35452 0.177959,-0.0143 0.353748,-0.0217 0.527606,-0.0228 z"
       id="path6632"
       inkscape:connector-curvature="0"
       sodipodi:nodetypes="ccccccccccccccccccccccccccccccccccsccsscsccccccccccccccscccccccccccccc" />
  </g>
</svg>
