<?xml version="1.0" encoding="UTF-8" standalone="no"?>
<!-- Created with Inkscape (http://www.inkscape.org/) -->

<svg
   xmlns:dc="http://purl.org/dc/elements/1.1/"
   xmlns:cc="http://creativecommons.org/ns#"
   xmlns:rdf="http://www.w3.org/1999/02/22-rdf-syntax-ns#"
   xmlns:svg="http://www.w3.org/2000/svg"
   xmlns="http://www.w3.org/2000/svg"
   xmlns:sodipodi="http://sodipodi.sourceforge.net/DTD/sodipodi-0.dtd"
   xmlns:inkscape="http://www.inkscape.org/namespaces/inkscape"
   width="47.525459mm"
   height="18.36791mm"
   viewBox="0 0 47.525459 18.36791"
   version="1.1"
   id="svg16962"
   inkscape:version="0.92.5 (2060ec1f9f, 2020-04-08)"
   sodipodi:docname="Maw1.svg">
  <defs
     id="defs16956" />
  <sodipodi:namedview
     id="base"
     pagecolor="#ffffff"
     bordercolor="#666666"
     borderopacity="1.0"
     inkscape:pageopacity="0.0"
     inkscape:pageshadow="2"
     inkscape:zoom="0.35"
     inkscape:cx="-204.47391"
     inkscape:cy="411.85375"
     inkscape:document-units="mm"
     inkscape:current-layer="layer1"
     showgrid="false"
     inkscape:window-width="1920"
     inkscape:window-height="1055"
     inkscape:window-x="0"
     inkscape:window-y="0"
     inkscape:window-maximized="1" />
  <metadata
     id="metadata16959">
    <rdf:RDF>
      <cc:Work
         rdf:about="">
        <dc:format>image/svg+xml</dc:format>
        <dc:type
           rdf:resource="http://purl.org/dc/dcmitype/StillImage" />
        <dc:title></dc:title>
      </cc:Work>
    </rdf:RDF>
  </metadata>
  <g
     inkscape:label="Layer 1"
     inkscape:groupmode="layer"
     id="layer1"
     transform="translate(-27.642056,-239.43506)">
    <g
       id="g6945"
       transform="matrix(3.4794772,0,0,3.4794772,1384.0848,-1848.1621)">
      <path
         sodipodi:nodetypes="czczc"
         inkscape:connector-curvature="0"
         id="path6900"
         d="m -389.6651,605.07421 c 0.92546,-4.11595 4.23626,-5.05783 6.56498,-4.96094 2.32872,0.0969 5.4901,-0.2811 6.74687,4.61368 -2.74505,-0.033 -4.20366,-0.84096 -6.44922,-0.81025 -2.24555,0.0307 -6.86263,1.15751 -6.86263,1.15751 z"
         style="fill:none;stroke:#000000;stroke-width:0.26458332px;stroke-linecap:butt;stroke-linejoin:miter;stroke-opacity:1" />
      <path
         id="path6914"
         d="m -384.0477,600.04657 c 0.37084,0 0.59696,0.063 0.70435,0.24442 0.0568,0.17005 0.0644,0.41095 0.031,0.72401 -0.0285,0.16108 -0.0665,0.33832 -0.12401,0.55293 -0.21328,0.79581 -0.48069,0.75057 -1.15498,-0.19638 -0.33182,-0.46601 -0.46038,-0.79507 -0.37828,-1.00872 0.003,-0.004 0.003,-0.009 0.005,-0.013 0.003,-0.008 0.009,-0.0143 0.013,-0.0217 0.041,-0.0673 0.10499,-0.12422 0.19431,-0.17262 0.15708,-0.0739 0.39188,-0.10903 0.70951,-0.10903 z"
         style="fill:#000000;stroke-width:0.26458332"
         inkscape:connector-curvature="0" />
      <path
         id="path6912"
         d="m -379.89186,600.39124 c 0.094,-0.01 0.22445,0.0132 0.39272,0.0641 0.32909,0.0994 0.55846,0.19863 0.70385,0.31369 0.0868,0.0837 0.14708,0.17256 0.18343,0.26922 0.032,0.15197 -0.0201,0.33451 -0.14467,0.56742 -0.39254,0.73345 -0.65739,0.70364 -1.03095,-0.11628 -0.18629,-0.40881 -0.28266,-0.68906 -0.28681,-0.86506 0.0238,-0.1 0.0727,-0.17481 0.14211,-0.22479 0.013,-0.003 0.0254,-0.007 0.0403,-0.008 z"
         style="fill:#000000;stroke-width:0.26458332"
         inkscape:connector-curvature="0" />
      <path
         id="path6910"
         d="m -388.0428,601.93998 c 0.0785,-0.008 0.14603,0.006 0.18397,0.0439 0.0759,0.0759 0.0978,0.34452 0.0486,0.59685 -0.0185,0.0949 -0.0355,0.16229 -0.0537,0.21447 -0.0169,0.0354 -0.0355,0.0659 -0.0558,0.0904 -0.0596,0.0367 -0.14812,-0.0494 -0.32351,-0.26098 -0.24659,-0.29753 -0.26035,-0.46596 -0.0486,-0.59685 0.0811,-0.0502 0.17058,-0.0798 0.24908,-0.0879 z"
         style="fill:#000000;stroke-width:0.26458332"
         inkscape:connector-curvature="0" />
      <path
         id="path6908"
         d="m -381.61477,602.77249 c 0.22508,0.0175 0.4836,0.25937 0.72038,0.70178 0.29019,0.54224 -0.0502,0.78362 -0.85371,0.60513 -0.0905,-0.0201 -0.16261,-0.0526 -0.22582,-0.091 -0.1189,-0.13496 -0.16166,-0.41251 -0.15089,-0.69659 0.0369,-0.0951 0.0841,-0.195 0.15245,-0.30282 0.0993,-0.15676 0.22254,-0.22696 0.35759,-0.21653 z"
         style="fill:#000000;stroke-width:0.26458332"
         inkscape:connector-curvature="0" />
      <path
         id="path6906"
         d="m -377.45481,602.97765 c 0.0551,0.0217 0.11666,0.0617 0.18137,0.11369 0.32806,0.33436 0.86577,1.23923 0.88162,1.55702 -1.3e-4,0.008 0,0.0148 0,0.0222 -0.0243,0.21519 -1.15001,0.15505 -1.52961,-0.0858 -0.23156,-0.14689 -0.18544,-0.68831 -0.0164,-1.10741 0.0286,-0.0428 0.0513,-0.0847 0.0852,-0.12867 0.18719,-0.24238 0.28954,-0.36576 0.39844,-0.37105 z"
         style="fill:#000000;stroke-width:0.26458332"
         inkscape:connector-curvature="0" />
      <path
         id="path6904"
         d="m -385.92613,603.55283 c 0.26887,0.004 0.54001,0.21003 0.54001,0.478 0,0.32228 -0.71607,0.32392 -0.91466,0.003 -0.0837,-0.1355 -0.0316,-0.321 0.11628,-0.41238 0.0789,-0.0488 0.16875,-0.0696 0.25837,-0.0682 z"
         style="fill:#000000;stroke-width:0.26458332"
         inkscape:connector-curvature="0" />
      <path
         id="path6734-7"
         d="m -388.94455,604.16881 c 0.2808,-0.0135 0.46564,0.29323 0.25114,0.64026 -0.0983,0.15912 -0.32099,0.24498 -0.52348,0.2558 -0.16547,-0.027 -0.27969,-0.11475 -0.34054,-0.22789 0,-0.0513 0.0148,-0.11131 0.0419,-0.1819 0.0145,-0.0381 0.0243,-0.0709 0.0377,-0.10853 0.0643,-0.0859 0.14263,-0.17325 0.23151,-0.24701 0.10366,-0.086 0.2082,-0.12624 0.30178,-0.13073 z"
         style="fill:#000000;stroke-width:0.26458332"
         inkscape:connector-curvature="0" />
    </g>
  </g>
</svg>
