<?xml version="1.0" encoding="UTF-8" standalone="no"?>
<!-- Created with Inkscape (http://www.inkscape.org/) -->

<svg
   xmlns:dc="http://purl.org/dc/elements/1.1/"
   xmlns:cc="http://creativecommons.org/ns#"
   xmlns:rdf="http://www.w3.org/1999/02/22-rdf-syntax-ns#"
   xmlns:svg="http://www.w3.org/2000/svg"
   xmlns="http://www.w3.org/2000/svg"
   xmlns:sodipodi="http://sodipodi.sourceforge.net/DTD/sodipodi-0.dtd"
   xmlns:inkscape="http://www.inkscape.org/namespaces/inkscape"
   width="35.94223mm"
   height="24.515404mm"
   viewBox="0 0 35.94223 24.515404"
   version="1.1"
   id="svg17563"
   inkscape:version="0.92.5 (2060ec1f9f, 2020-04-08)"
   sodipodi:docname="Maw2.svg">
  <defs
     id="defs17557" />
  <sodipodi:namedview
     id="base"
     pagecolor="#ffffff"
     bordercolor="#666666"
     borderopacity="1.0"
     inkscape:pageopacity="0.0"
     inkscape:pageshadow="2"
     inkscape:zoom="0.35"
     inkscape:cx="-363.50624"
     inkscape:cy="123.47118"
     inkscape:document-units="mm"
     inkscape:current-layer="layer1"
     showgrid="false"
     inkscape:window-width="1920"
     inkscape:window-height="1055"
     inkscape:window-x="0"
     inkscape:window-y="0"
     inkscape:window-maximized="1" />
  <metadata
     id="metadata17560">
    <rdf:RDF>
      <cc:Work
         rdf:about="">
        <dc:format>image/svg+xml</dc:format>
        <dc:type
           rdf:resource="http://purl.org/dc/dcmitype/StillImage" />
        <dc:title></dc:title>
      </cc:Work>
    </rdf:RDF>
  </metadata>
  <g
     inkscape:label="Layer 1"
     inkscape:groupmode="layer"
     id="layer1"
     transform="translate(-69.719361,-156.98635)">
    <path
       inkscape:connector-curvature="0"
       style="fill:#000000;stroke-width:0.46340823"
       d="m 101.85024,156.98923 c 1.71732,0.0598 3.21638,1.07519 3.71863,3.07631 0.44988,1.79242 -0.83762,13.23332 -1.70739,15.79488 -0.47272,0.77343 -1.19943,1.57809 -1.90841,2.14768 -0.65805,0.43384 -1.31554,0.65281 -1.79265,0.5452 -0.185056,-0.0817 -0.374686,-0.19706 -0.571028,-0.34623 -0.518885,-0.45649 -1.282284,-1.33149 -1.951818,-2.26343 -1.645312,-2.29016 -3.358949,-3.37667 -4.584733,-2.90629 -0.359535,0.13798 -1.521059,1.27907 -2.580721,2.53576 -1.059658,1.25669 -2.309433,2.28463 -2.777608,2.28463 -0.468175,0 -1.517593,-0.78158 -2.332157,-1.73736 -3.125327,-3.66715 -3.823351,-4.28657 -4.829681,-4.28657 -1.609853,0 -2.949572,1.82388 -3.698998,5.03637 -0.232009,0.99454 -0.574122,2.02626 -0.90537,2.78641 -0.220612,0.48633 -0.427251,0.85775 -0.589113,1.04023 -1.649399,1.80896 -2.901272,0.60037 -4.083986,-3.94496 -1.71554,-6.59305 -2.021832,-13.35495 -0.777733,-15.63005 0.02753,-0.0396 0.05542,-0.0791 0.08423,-0.11576 0.416502,-0.52951 0.827982,-0.87704 1.259872,-1.04698 0.171503,-0.042 0.34993,-0.0762 0.542602,-0.0946 0.08558,-0.008 0.157425,-0.01 0.236162,-0.015 0.119332,0.011 0.240924,0.0333 0.365352,0.0687 0.766694,0.24318 1.646219,0.95718 2.759004,2.18384 1.156061,1.27439 2.35735,2.3172 2.669606,2.3172 0.235938,0 0.654401,-0.27729 1.166337,-0.7333 0.624404,-0.31054 1.232494,-0.98507 1.888256,-2.01591 0.58957,-0.71165 1.181513,-1.49119 1.702222,-2.27944 0.360809,-0.5462 0.649272,-0.93956 0.923975,-1.22473 0.615115,-0.48442 1.236257,-0.67598 2.004012,-0.69403 1.25372,0.019 1.964614,0.4798 3.953247,2.54455 3.230394,3.35407 4.49705,3.43641 6.271967,0.40773 1.373187,-2.34315 3.599621,-3.50266 5.545912,-3.43493 z"
       id="path7391" />
  </g>
</svg>
