<?xml version="1.0" encoding="UTF-8" standalone="no"?>
<!-- Created with Inkscape (http://www.inkscape.org/) -->

<svg
   xmlns:dc="http://purl.org/dc/elements/1.1/"
   xmlns:cc="http://creativecommons.org/ns#"
   xmlns:rdf="http://www.w3.org/1999/02/22-rdf-syntax-ns#"
   xmlns:svg="http://www.w3.org/2000/svg"
   xmlns="http://www.w3.org/2000/svg"
   xmlns:sodipodi="http://sodipodi.sourceforge.net/DTD/sodipodi-0.dtd"
   xmlns:inkscape="http://www.inkscape.org/namespaces/inkscape"
   width="39.639751mm"
   height="19.070282mm"
   viewBox="0 0 39.639751 19.070282"
   version="1.1"
   id="svg18148"
   inkscape:version="0.92.5 (2060ec1f9f, 2020-04-08)"
   sodipodi:docname="Maw3.svg">
  <defs
     id="defs18142" />
  <sodipodi:namedview
     id="base"
     pagecolor="#ffffff"
     bordercolor="#666666"
     borderopacity="1.0"
     inkscape:pageopacity="0.0"
     inkscape:pageshadow="2"
     inkscape:zoom="0.35"
     inkscape:cx="-327.94738"
     inkscape:cy="-18.247397"
     inkscape:document-units="mm"
     inkscape:current-layer="layer1"
     showgrid="false"
     inkscape:window-width="1920"
     inkscape:window-height="1055"
     inkscape:window-x="0"
     inkscape:window-y="0"
     inkscape:window-maximized="1" />
  <metadata
     id="metadata18145">
    <rdf:RDF>
      <cc:Work
         rdf:about="">
        <dc:format>image/svg+xml</dc:format>
        <dc:type
           rdf:resource="http://purl.org/dc/dcmitype/StillImage" />
        <dc:title></dc:title>
      </cc:Work>
    </rdf:RDF>
  </metadata>
  <g
     inkscape:label="Layer 1"
     inkscape:groupmode="layer"
     id="layer1"
     transform="translate(-60.311077,-124.93509)">
    <path
       style="fill:#000000;stroke:#000000;stroke-width:0.26458332px;stroke-linecap:butt;stroke-linejoin:miter;stroke-opacity:1"
       d="m 96.68262,134.6542 -9.54151,-0.0468 c 0,0 -0.327419,-5.98683 -0.561259,-6.68842 -0.23387,-0.70157 -0.51451,-0.93544 -3.78857,-0.42096 -3.27403,0.51451 -5.28524,0.42096 -5.09815,3.13376 0.18709,2.71277 -2.19829,3.13372 -5.94008,2.89986 -3.74177,-0.23387 -4.443341,-0.0935 -4.58367,-3.60146 -0.14031,-3.5079 0.46773,-7.24969 -4.39658,-2.89986 -4.86431,4.3498 -0.60804,9.58829 -0.60804,9.58829 0,0 7.40626,7.46987 16.69767,7.24969 9.86892,-0.23386 21.141029,-4.2095 20.953941,-4.34983 -0.18709,-0.14031 -3.133752,-4.86429 -3.133752,-4.86429 z"
       id="path7058"
       inkscape:connector-curvature="0"
       sodipodi:nodetypes="ccccsccccsccc" />
  </g>
</svg>
