<?xml version="1.0" encoding="UTF-8" standalone="no"?>
<!-- Created with Inkscape (http://www.inkscape.org/) -->

<svg
   xmlns:dc="http://purl.org/dc/elements/1.1/"
   xmlns:cc="http://creativecommons.org/ns#"
   xmlns:rdf="http://www.w3.org/1999/02/22-rdf-syntax-ns#"
   xmlns:svg="http://www.w3.org/2000/svg"
   xmlns="http://www.w3.org/2000/svg"
   xmlns:sodipodi="http://sodipodi.sourceforge.net/DTD/sodipodi-0.dtd"
   xmlns:inkscape="http://www.inkscape.org/namespaces/inkscape"
   width="20.811178mm"
   height="17.734344mm"
   viewBox="0 0 20.811178 17.734344"
   version="1.1"
   id="svg19495"
   inkscape:version="0.92.5 (2060ec1f9f, 2020-04-08)"
   sodipodi:docname="Maw5B.svg">
  <defs
     id="defs19489" />
  <sodipodi:namedview
     id="base"
     pagecolor="#ffffff"
     bordercolor="#666666"
     borderopacity="1.0"
     inkscape:pageopacity="0.0"
     inkscape:pageshadow="2"
     inkscape:zoom="0.35"
     inkscape:cx="-392.10035"
     inkscape:cy="-29.343433"
     inkscape:document-units="mm"
     inkscape:current-layer="layer1"
     showgrid="false"
     inkscape:window-width="1920"
     inkscape:window-height="1055"
     inkscape:window-x="0"
     inkscape:window-y="0"
     inkscape:window-maximized="1" />
  <metadata
     id="metadata19492">
    <rdf:RDF>
      <cc:Work
         rdf:about="">
        <dc:format>image/svg+xml</dc:format>
        <dc:type
           rdf:resource="http://purl.org/dc/dcmitype/StillImage" />
        <dc:title></dc:title>
      </cc:Work>
    </rdf:RDF>
  </metadata>
  <g
     inkscape:label="Layer 1"
     inkscape:groupmode="layer"
     id="layer1"
     transform="translate(-77.284885,-123.3352)">
    <path
       style="fill:#ffffff;stroke:#000000;stroke-width:0.26458332px;stroke-linecap:butt;stroke-linejoin:miter;stroke-opacity:1"
       d="m 77.424357,137.07536 c 0,0 0,0 0,0 0.13044,0.17838 0.25535,0.28496 0.37052,0.32401 0.11515,0.039 0.22048,0.0109 0.31004,-0.0791 0.0896,-0.09 0.16386,-0.2419 0.21757,-0.45061 0.0537,-0.20871 0.0865,-0.47458 0.0941,-0.79169 0.0106,-0.44172 0.0516,-0.8635 0.10903,-1.21645 0.0575,-0.35298 0.13187,-0.63715 0.20826,-0.80203 0.0328,-0.13539 0.0623,-0.2276 0.0832,-0.2067 0.007,0.007 0.0167,0.0311 0.0268,0.0599 0.0513,-0.0262 0.10076,0.009 0.14367,0.13023 0.0773,0.21828 0.28014,1.38962 0.45061,2.60294 0.16553,1.17801 0.27684,1.87262 0.39947,2.30116 0.036,0.11237 0.0716,0.2126 0.10697,0.30232 0.0807,0.15637 0.16912,0.24183 0.27594,0.28265 0.10683,0.0408 0.23201,0.037 0.38655,0.0151 0.19164,-0.0274 0.35163,-0.12197 0.49453,-0.30128 0.14291,-0.17931 0.26872,-0.44328 0.39069,-0.80875 0.0164,-0.071 0.0335,-0.13793 0.0496,-0.21704 0.0445,-0.21764 0.0944,-0.38507 0.1483,-0.50435 0.0539,-0.11927 0.11186,-0.19042 0.17208,-0.21497 0.0365,-0.0726 0.0732,-0.11726 0.1106,-0.13436 0.0374,-0.0172 0.0754,-0.007 0.11266,0.0315 0.0774,-0.006 0.14255,0.061 0.18965,0.2005 0.0471,0.13946 0.0761,0.35102 0.0806,0.63304 0.005,0.0271 0.01,0.0497 0.0151,0.078 0.0534,0.18769 0.10628,0.39605 0.15658,0.64698 0.072,0.35962 0.15513,0.66604 0.24649,0.92035 0.0914,0.25435 0.19113,0.45668 0.29559,0.60825 0.10448,0.15158 0.2137,0.25244 0.32504,0.30385 0.11136,0.0514 0.22489,0.0534 0.33695,0.007 0.11202,-0.0462 0.22267,-0.14042 0.32916,-0.28165 0.10653,-0.14124 0.20858,-0.32954 0.30335,-0.56327 0.18952,-0.46744 0.34949,-1.11742 0.45474,-1.93943 0.0324,-0.25259 0.0685,-0.35787 0.1256,-0.29919 0.0571,0.0587 0.13528,0.28128 0.25267,0.68472 0.0656,0.13806 0.13057,0.34909 0.19278,0.6232 0.1719,0.50863 0.36205,0.92181 0.56015,1.23248 0.19812,0.31067 0.40433,0.51898 0.60772,0.61807 0.10171,0.0495 0.2027,0.0715 0.30178,0.0656 0.0991,-0.006 0.19606,-0.0398 0.28991,-0.10284 0.187749,-0.1261 0.3625,-0.36833 0.51366,-0.73327 l 0.34004,-0.82219 0.451649,0.59841 c 0.125751,0.16671 0.26299,0.29231 0.399461,0.37052 0.136479,0.0782 0.27221,0.10909 0.39378,0.0868 0.12332,-0.0653 0.241959,-0.17846 0.35449,-0.33695 0.11256,-0.15846 0.219,-0.36224 0.31729,-0.60822 0.11078,-0.31758 0.20458,-0.69295 0.2708,-1.09554 0.0662,-0.40259 0.10491,-0.83238 0.10491,-1.25833 0,-0.42495 0.0488,-0.75882 0.12091,-0.97875 0.0361,-0.10996 0.0778,-0.19129 0.12298,-0.24132 0.0452,-0.05 0.0937,-0.0689 0.14214,-0.0532 0.0164,-0.0433 0.0313,-0.0679 0.0423,-0.0568 0.0119,0.0119 0.0313,0.0653 0.0527,0.1328 0.0687,0.0909 0.133851,0.25574 0.186051,0.50953 0.22125,1.07431 0.39365,1.75517 0.57153,2.16731 0.089,0.20606 0.1792,0.34512 0.2775,0.43254 0.0983,0.0874 0.20492,0.12298 0.3261,0.12298 0.0872,0 0.16901,-0.0209 0.24648,-0.0646 0.0775,-0.0437 0.1505,-0.10985 0.22117,-0.20103 0.14136,-0.18235 0.27217,-0.46384 0.40412,-0.85886 0.0699,-0.20918 0.15534,-0.4037 0.24495,-0.57256 0.0838,-0.22143 0.17923,-0.36396 0.31004,-0.44545 0.0712,-0.0696 0.13814,-0.11319 0.19484,-0.11319 0.0397,0 0.0775,-0.004 0.11472,-0.007 0.008,0 0.0177,-0.003 0.0269,-0.003 0.15912,-0.018 0.29805,-0.0655 0.43254,-0.16743 0.13449,-0.10192 0.26437,-0.25826 0.40669,-0.49403 0.28464,-0.47151 0.61764,-1.26069 1.12861,-2.56728 0.44735,-1.1439 0.85235,-2.38789 1.18443,-3.60288 0.33208,-1.215 0.59124,-2.40102 0.74724,-3.42874 0.035,-0.30131 0.0659,-0.60177 0.0878,-0.90175 0.0376,-0.512 0.0638,-0.903 0.0755,-1.20354 -0.006,-0.35242 -0.0294,-0.58433 -0.0847,-0.73329 -0.0553,-0.14896 -0.14282,-0.215 -0.27699,-0.23617 -0.12822,-0.008 -0.27355,0.0161 -0.42376,0.0713 -0.004,0 -0.007,0 -0.0108,0.004 -0.0567,0.0214 -0.11393,0.0508 -0.17106,0.0806 -0.11787,0.064 -0.23352,0.14382 -0.33848,0.23201 -0.0574,0.0496 -0.11451,0.0997 -0.16743,0.15814 -0.27688,0.30594 -0.81745,0.71895 -1.20094,0.91726 -0.19175,0.0991 -0.38521,0.26429 -0.54211,0.45114 -0.15687,0.18682 -0.27717,0.39534 -0.32348,0.57981 -0.0521,0.20764 -0.1212,0.36634 -0.19534,0.4754 -0.0741,0.10909 -0.15332,0.16825 -0.22635,0.17624 -0.073,0.008 -0.1398,-0.0351 -0.18862,-0.13076 -0.0488,-0.0957 -0.0796,-0.2436 -0.0811,-0.44545 0,-0.0682 -0.007,-0.13039 -0.0119,-0.19378 -0.0114,-0.0636 -0.0236,-0.12441 -0.0326,-0.2005 -0.007,-0.0591 -0.0159,-0.11234 -0.0259,-0.16486 -0.0567,-0.20958 -0.145409,-0.37214 -0.256329,-0.47387 -0.11091,-0.10173 -0.24405,-0.14261 -0.39015,-0.11007 -0.0635,0.0225 -0.1298,0.0522 -0.201,0.0977 0,0 -0.004,0.003 -0.004,0.003 -0.22497,0.17127 -0.62672,0.60569 -1.02886,1.10382 -0.22291,0.31025 -0.42603,0.5602 -0.62013,0.7674 -0.25537,0.2954 -0.47556,0.50212 -0.68109,0.63457 -0.20553,0.13248 -0.39645,0.19069 -0.59377,0.19069 -0.0529,0 -0.10018,0.006 -0.14777,0.0119 -0.1577,0.0566 -0.29549,0.13109 -0.42479,0.23876 -0.10724,0.1002 -0.214,0.22609 -0.32817,0.39585 -0.18899,0.31824 -0.41243,0.78578 -0.72088,1.47018 -0.26233,0.58209 -0.5261,1.11137 -0.73999,1.49501 -0.21391,0.38364 -0.377949,0.62167 -0.440289,0.62167 -0.0623,0 -0.11906,-0.19091 -0.1602,-0.49867 -0.0411,-0.30778 -0.0667,-0.73242 -0.0667,-1.19941 0,-0.69096 -0.0311,-1.23694 -0.0967,-1.64436 -0.0655,-0.40741 -0.165471,-0.67625 -0.302811,-0.81235 -0.003,0 -0.003,-0.003 -0.003,-0.003 -0.0148,-0.0111 -0.0314,-0.0177 -0.047,-0.0259 -0.134329,-0.0701 -0.301359,-0.0455 -0.50385,0.0708 -0.123689,0.0726 -0.259529,0.17481 -0.412379,0.31314 0,0.003 -0.003,0.003 -0.003,0.003 -0.0254,0.0265 -0.0493,0.0492 -0.0755,0.078 -0.129251,0.14285 -0.35304,0.28054 -0.611321,0.38809 -0.25831,0.10753 -0.5511,0.18491 -0.81857,0.20722 -0.239609,0.0201 -0.419519,0.0356 -0.55605,0.0682 -0.1365,0.0326 -0.22979,0.0823 -0.29506,0.17053 -0.0653,0.0883 -0.102789,0.21508 -0.128669,0.40206 -0.0259,0.18698 -0.04,0.43394 -0.0584,0.76274 -0.0407,0.72763 -0.13825,1.50151 -0.21654,1.71979 -0.0535,0.1492 -0.112264,0.22056 -0.178274,0.20979 -0.066,-0.0109 -0.13923,-0.10348 -0.2212,-0.28162 -0.1639,-0.35629 -0.36316,-1.05487 -0.61131,-2.12495 -0.12192,-0.52565 -0.26861,-1.03624 -0.42736,-1.50429 -0.15875,-0.46805 -0.32938,-0.89374 -0.49869,-1.24902 -0.169299,-0.35528 -0.337309,-0.64 -0.490929,-0.82735 -0.15359,-0.18732 -0.293,-0.27712 -0.40463,-0.24133 -0.0871,0.0279 -0.22532,0.22273 -0.37774,0.51367 -0.15243,0.29093 -0.31899,0.67799 -0.46302,1.0914 -0.13042,0.37431 -0.26522,0.70766 -0.38603,0.97153 -0.66765,0.0533 -0.0813,0.88294 -0.32764,0.53176 -0.15583,2.58773 -0.39041,5.79979 -0.91879,8.05791 z"
       id="path7627"
       inkscape:connector-curvature="0"
       sodipodi:nodetypes="ccccscccccccccccsccccccscccccccccccccccsccccccccscssccccccsccccccccsccscccsccccccccccccccccsccccccscccccscscccccccccccccccsccssccscccc" />
  </g>
</svg>
