<?xml version="1.0" encoding="UTF-8" standalone="no"?>
<!-- Created with Inkscape (http://www.inkscape.org/) -->

<svg
   xmlns:dc="http://purl.org/dc/elements/1.1/"
   xmlns:cc="http://creativecommons.org/ns#"
   xmlns:rdf="http://www.w3.org/1999/02/22-rdf-syntax-ns#"
   xmlns:svg="http://www.w3.org/2000/svg"
   xmlns="http://www.w3.org/2000/svg"
   xmlns:sodipodi="http://sodipodi.sourceforge.net/DTD/sodipodi-0.dtd"
   xmlns:inkscape="http://www.inkscape.org/namespaces/inkscape"
   width="173.43272mm"
   height="119.07088mm"
   viewBox="0 0 173.43272 119.07088"
   version="1.1"
   id="svg3025"
   inkscape:version="0.92.5 (2060ec1f9f, 2020-04-08)"
   sodipodi:docname="Dog.svg">
  <defs
     id="defs3019" />
  <sodipodi:namedview
     id="base"
     pagecolor="#ffffff"
     bordercolor="#666666"
     borderopacity="1.0"
     inkscape:pageopacity="0.0"
     inkscape:pageshadow="2"
     inkscape:zoom="0.35"
     inkscape:cx="536.31854"
     inkscape:cy="-17.841269"
     inkscape:document-units="mm"
     inkscape:current-layer="layer1"
     showgrid="false"
     inkscape:window-width="1920"
     inkscape:window-height="1055"
     inkscape:window-x="0"
     inkscape:window-y="0"
     inkscape:window-maximized="1" />
  <metadata
     id="metadata3022">
    <rdf:RDF>
      <cc:Work
         rdf:about="">
        <dc:format>image/svg+xml</dc:format>
        <dc:type
           rdf:resource="http://purl.org/dc/dcmitype/StillImage" />
        <dc:title></dc:title>
      </cc:Work>
    </rdf:RDF>
  </metadata>
  <g
     inkscape:label="Layer 1"
     inkscape:groupmode="layer"
     id="layer1"
     transform="translate(168.35928,-25.041946)">
    <path
       style="fill:#000000;stroke-width:0.07238781"
       d="m -141.03126,25.041946 c -0.0638,3.2e-4 -0.15185,0.003 -0.22395,0.005 -0.0616,9.99e-4 -0.12955,0.002 -0.19508,0.005 -0.0603,0.002 -0.1079,0.002 -0.17204,0.003 -1.22029,0.0164 -2.76618,0.0856 -3.80598,0.1843 -2.08427,0.19778 -4.53634,0.93758 -6.95587,2.09894 -1.33097,0.638859 -1.48142,0.83023 -1.87411,2.38413 -0.2096,0.82941 -0.41177,1.29909 -0.70859,1.56502 -0.14261,0.1048 -0.32145,0.18997 -0.55143,0.27266 -0.17869,0.0492 -0.64133,0.17643 -1.1247,0.30938 -0.51457,0.14153 -2.062,0.62774 -3.43856,1.08039 -3.01863,0.99259 -3.94586,1.26089 -5.50601,1.5933 -1.35618,0.28897 -1.99048,0.48348 -2.32232,0.7118 -0.16959,0.11668 -0.28592,0.29408 -0.35138,0.52781 -0.009,0.0242 -0.0183,0.0487 -0.026,0.074 -0.004,0.01 -0.009,0.0199 -0.012,0.03 l -0.004,0.003 2.9e-4,0.01 c -9e-5,2.91e-4 -2.1e-4,5.55e-4 -2.9e-4,10e-4 l -0.056,0.0557 0.023,0.22628 c -0.001,0.0278 -0.003,0.055 -0.003,0.084 -5e-5,0.004 -5.7e-4,0.008 -5.7e-4,0.0122 0,5.56e-4 0,0.001 0,0.002 1.3e-4,0.0134 2.3e-4,0.0269 5.7e-4,0.0405 -0.005,0.25129 0.0272,0.52834 0.0883,0.80453 0.0728,0.5802 0.15807,0.79482 0.39978,1.14512 0.24572,0.35608 0.31151,0.52767 0.38114,0.99377 0.0463,0.30989 0.21224,1.06836 0.36887,1.68546 0.30971,1.22029 0.69348,2.10137 1.01972,2.34068 0.10752,0.0789 0.64502,0.29707 1.1944,0.48464 0.54941,0.18757 1.12933,0.39261 1.28859,0.45578 0.38188,0.15139 1.28461,0.15263 2.59088,0.004 1.29341,-0.14738 2.63911,-0.16136 3.16387,-0.0329 1.03854,0.25417 1.71571,0.89877 1.32008,1.2568 -0.27361,0.24761 -0.78555,0.29842 -2.87198,0.28432 -2.03572,-0.0138 -2.47106,0.0263 -2.6527,0.24523 -0.0797,0.096 -0.0757,0.14662 0.0239,0.30706 0.0656,0.10568 0.21936,0.38412 0.34175,0.61879 0.77787,1.49138 1.90699,2.18878 4.1285,2.54945 0.48469,0.0787 1.5959,0.12945 3.76428,0.17176 3.77859,0.0738 4.47095,0.17422 5.44186,0.78995 0.6606,0.41893 1.78802,2.58291 3.2464,6.231231 1.24742,3.120588 1.68161,4.117289 2.21354,5.07969 1.00757,1.822998 1.5011,3.108989 1.89832,4.9476 0.44209,2.046168 0.61873,3.498948 0.88035,7.238698 0.25334,3.62145 0.4991,5.520262 0.94275,7.278971 0.51808,2.053849 1.25273,3.69148 2.32523,5.184381 1.48324,2.06466 2.91548,5.94601 3.78848,10.266389 0.50602,2.504249 0.88907,5.117574 0.93896,6.406494 0.0582,1.50514 0.17347,2.97943 0.57766,7.38364 0.1772,1.93093 0.36241,4.09711 0.41145,4.81375 0.0851,1.24353 0.12815,4.93735 0.0764,6.55111 -0.0134,0.41803 -0.001,1.19958 0.0277,1.73706 0.003,0.055 0.003,0.11074 0.005,0.16594 -0.006,0.59405 -0.0159,1.07699 -0.0362,1.46005 -0.19717,2.25933 -1.02857,4.59979 -2.39929,6.68757 l -0.44381,0.67594 c -0.0482,0.0568 -0.086,0.0967 -0.1108,0.11635 -0.003,0.002 -0.006,0.003 -0.009,0.005 l -0.4377,0.0467 c -2.44518,0.26159 -4.39437,1.81552 -4.82454,3.84594 -0.11454,0.54048 -0.13868,1.1694 -0.0502,1.3087 0.0787,0.1238 0.78823,0.42682 1.32969,0.56774 0.70141,0.18256 1.71667,0.12004 2.21383,-0.13618 0.33988,-0.17514 0.37988,-0.22051 0.37967,-0.42982 -1.5e-4,-0.12872 -0.0671,-0.34392 -0.149,-0.47822 -0.12544,-0.20574 -0.17114,-0.23398 -0.39221,-0.21403 -0.0183,2.2e-4 -0.0367,10e-4 -0.0574,0.005 -0.007,5.3e-4 -0.0102,5.3e-4 -0.0175,0.002 l -0.31813,0.0358 0.14842,-0.29072 c 0.19898,-0.39004 0.74497,-0.96355 1.13492,-1.19206 0.19031,-0.11155 0.56922,-0.2449 0.87422,-0.32019 0.0276,-0.003 0.0556,-0.006 0.0828,-0.008 l 0.31989,-0.014 c 0.0234,0.0359 0.0394,0.0936 0.0394,0.16474 0,0.13696 -0.14682,0.40067 -0.44702,0.80307 -0.34693,0.46506 -0.43412,0.61878 -0.46832,0.8821 -0.031,0.10828 -0.0374,0.20338 -0.0204,0.29101 -5.3e-4,0.17286 0.0365,0.24299 0.1493,0.34993 0.85931,0.81413 2.41503,1.34552 3.44148,1.17544 0.26783,-0.0444 0.68878,-0.17992 0.93517,-0.30121 0.94431,-0.46489 1.37578,-1.22738 2.52118,-4.45393 0.26853,-0.75646 0.63199,-1.68101 0.80773,-2.05462 0.13497,-0.2869 0.24936,-0.56312 0.29599,-0.70801 l 0.0487,-0.10409 -0.0388,-0.0359 c -0.0368,-0.0803 -0.14997,-0.20878 -0.28461,-0.31696 -0.28401,-0.22826 -0.58814,-0.75846 -0.62811,-1.06232 -10e-4,-0.0284 -0.003,-0.0573 -5.3e-4,-0.0846 0.002,-0.0255 0.006,-0.0408 0.008,-0.0618 0.0568,-0.26035 0.25608,-0.28631 0.6322,-0.0779 0.15598,0.0865 0.27411,0.1408 0.38228,0.16679 l 0.12189,0.0682 0.11723,-0.0612 c 0.12123,-0.0232 0.25293,-0.0847 0.43419,-0.18867 0.9705,-0.55664 1.69917,-1.83418 2.16981,-3.80365 0.16647,-0.69657 0.1715,-0.70589 0.12947,-0.25311 -0.065,0.70005 -0.41176,1.99993 -0.69635,2.6107 -0.31778,0.682 -0.8226,1.3497 -1.28888,1.70529 -0.43298,0.33028 -0.58041,0.68112 -0.43449,1.03343 0.16065,0.38784 0.64295,0.58736 1.84875,0.76459 0.70504,0.10361 0.73251,0.10212 1.04978,-0.0499 0.47742,-0.22871 1.1637,-0.94798 1.43467,-1.50379 0.43141,-0.88486 0.5973,-1.88263 0.70451,-4.23464 0.0321,-0.70467 0.0374,-0.92389 -0.0198,-1.0655 l 0.001,-0.0286 -0.026,-0.0215 c -0.0185,-0.0323 -0.0397,-0.0635 -0.0674,-0.0986 -0.087,-0.11036 -0.2774,-0.26248 -0.42312,-0.33796 -0.23611,-0.12233 -0.24917,-0.14308 -0.12014,-0.19014 0.0796,-0.0291 0.24244,-0.12405 0.36188,-0.21111 0.11945,-0.0871 0.46143,-0.28561 0.75991,-0.4415 0.29848,-0.15588 0.66188,-0.40276 0.80774,-0.54849 0.3435,-0.34321 0.40655,-0.68044 0.41698,-2.2325 0.0171,-2.53488 0.38418,-5.45676 1.13697,-9.04839 0.38429,-1.83354 1.96453,-8.62059 2.24999,-9.66367 0.32268,-1.17905 0.23752,-1.9121 -0.25136,-2.161636 -0.33212,-0.16953 -1.2103,-0.335921 -1.77352,-0.335921 -1.01418,0 -1.65584,0.329872 -2.19197,1.126447 -0.54954,0.81652 -0.80848,1.9178 -1.01155,4.30258 -0.0627,0.73654 -0.22428,1.92556 -0.35927,2.6422 -0.45365,2.40865 -0.76423,4.79439 -1.15854,8.90376 -0.35361,3.68542 -0.73759,7.16858 -0.75232,6.82346 -0.0137,-0.32025 0.26813,-4.12397 0.4654,-6.28051 0.80745,-8.82755 1.8608,-15.29863 2.80345,-17.222545 l 0.22921,-0.467432 c 0.005,-0.003 0.009,-0.006 0.0137,-0.009 l 5.67309,-0.003 c 6.1813,-0.003 7.33921,-0.0533 11.0027,-0.474451 2.40595,-0.27659 3.663339,-0.526558 5.31676,-1.056479 2.057821,-0.659479 3.289729,-1.19748 7.966549,-3.48025 3.675541,-1.794031 5.17027,-2.434262 7.285651,-3.11954 1.94192,-0.62909 4.22379,-1.10263 5.780421,-1.199661 0.418039,-0.02609 1.290529,-0.127108 1.938869,-0.224808 1.364269,-0.205621 1.69286,-0.215411 2.317049,-0.0683 0.45961,0.108361 1.374241,0.521632 1.65163,0.746221 0.146931,0.118951 0.148111,0.14165 0.058,1.06259 -0.152842,1.562531 -0.20056,3.861761 -0.108191,5.211792 0.293619,4.291753 1.315349,7.595793 3.242028,10.484803 0.36752,0.55109 0.81776,1.28341 1.00077,1.62744 0.94638,1.77898 2.0339,3.06911 5.21879,6.19069 1.66659,1.63347 3.03464,3.13077 3.63715,3.98066 0.50594,0.71366 1.07646,1.96646 1.32941,2.9192 0.0533,0.20078 0.0935,0.35474 0.12481,0.49748 0.0174,0.088 0.0336,0.17649 0.0487,0.26565 0.0526,0.35939 0.0552,0.77137 0.0566,1.79481 0.003,1.83405 -0.0405,2.19986 -0.4686,3.95498 -0.37011,1.51744 -1.26569,3.99822 -2.2048,6.10701 -0.18616,0.41805 -0.41563,0.98258 -0.51001,1.25447 -0.39771,1.14581 -0.82609,1.52316 -2.87374,2.53168 -2.05726,1.01327 -2.54932,1.45944 -2.97782,2.69995 -0.0949,0.27464 -0.27653,0.75579 -0.40358,1.06929 -0.24678,0.60892 -0.307,1.19322 -0.15279,1.48134 0.0371,0.0694 0.13495,0.1562 0.23765,0.21753 0.0265,0.0158 0.0532,0.0312 0.0793,0.0426 v 2.7e-4 c 10e-4,5.3e-4 0.003,10e-4 0.005,0.002 0.001,5.2e-4 0.002,0.001 0.003,0.002 0.0702,0.0308 0.1672,0.0534 0.27411,0.0706 0.003,10e-4 0.006,0.003 0.009,0.004 2.7e-4,1e-4 5.3e-4,1.9e-4 10e-4,2.6e-4 0,0 2.7e-4,2.7e-4 2.7e-4,2.7e-4 0.0123,0.004 0.0269,0.006 0.0402,0.01 0.0126,0.003 0.0241,0.007 0.0379,0.009 0.0216,0.003 0.047,0.006 0.0723,0.008 0.01,5.3e-4 0.0172,0.002 0.0274,0.003 0.0322,0.002 0.0835,0.002 0.12306,0.003 0.12898,0.012 0.26127,0.0134 0.38053,0.003 h 0.29541 v -2.6e-4 l 0.03,-0.0618 c 0.0125,-0.005 0.0237,-0.01 0.0339,-0.0149 0.0132,-0.005 0.0309,-0.008 0.042,-0.0134 0.35375,-0.16486 0.44527,-0.72148 0.17117,-1.04013 l -0.16999,-0.19771 0.21958,-0.36741 c 0.49272,-0.82485 0.6358,-1.04011 0.77536,-1.16641 0.12872,-0.11648 0.12497,-0.0937 -0.0315,0.18866 -0.22686,0.40935 -0.30817,0.82903 -0.18837,0.97337 0.15019,0.18099 0.40801,0.12689 0.61002,-0.12772 0.15572,-0.19626 0.1986,-0.21713 0.25895,-0.12655 0.14629,0.21956 0.0367,0.3973 -0.43508,0.70509 -0.59611,0.38889 -0.81108,0.63001 -0.78236,0.87801 l 0.0222,0.19042 0.16971,0.005 c 0.0472,0.0103 0.1091,0.0165 0.18022,0.0213 0.0787,0.0125 0.17538,0.0172 0.28693,0.0146 5.3e-4,-1e-5 10e-4,2e-5 0.002,0 0.0218,-5.3e-4 0.0482,-0.003 0.0712,-0.005 10e-4,-6e-5 0.003,-2.3e-4 0.005,-2.7e-4 0.0101,3e-5 0.0182,2.6e-4 0.0286,2.7e-4 0.006,2e-5 0.0102,2.6e-4 0.0166,2.6e-4 0.003,0 0.005,0 0.008,0 0.006,0 0.0104,0 0.0166,0 0.17208,0 0.31266,-0.003 0.44353,-0.0114 0.42946,-0.005 0.65629,-0.0599 1.39619,-0.28052 0.74636,-0.22255 1.17393,-0.30758 1.7044,-0.33884 0.38947,-0.023 0.72589,-0.071 0.74797,-0.10673 0.0221,-0.0357 -0.0142,-0.14779 -0.0805,-0.24902 -0.0663,-0.10125 -0.10845,-0.19599 -0.0939,-0.21054 0.0146,-0.0146 0.19845,0.0239 0.40853,0.0854 0.32805,0.0962 0.36493,0.12436 0.26186,0.19974 -0.0702,0.0513 -0.10968,0.15947 -0.0951,0.26039 0.0277,0.19148 0.25181,0.27518 0.78879,0.28286 0.17046,0.0103 0.35874,0.007 0.5552,-0.0131 10e-4,-1.4e-4 0.003,-1.5e-4 0.004,-2.6e-4 0.46136,-0.0239 0.66316,-0.0683 0.95995,-0.21346 0.65401,-0.31998 0.75865,-0.64844 0.52838,-1.66154 -0.16431,-0.72145 -0.16413,-2.36547 0,-3.08776 0.40486,-1.7817 1.0175,-2.98095 3.13034,-6.1283 1.55669,-2.31888 1.85385,-2.80185 2.4063,-3.90892 0.25827,-0.51757 0.73771,-1.36651 1.06521,-1.88636 0.95791,-1.52044 1.23009,-2.1437 1.30959,-2.99913 0.0653,-0.70308 -0.0557,-1.12203 -0.60099,-2.08059 -1.5782,-2.77455 -2.69395,-5.91978 -3.16562,-8.92327 -0.40501,-2.57893 -0.33652,-5.67988 0.17816,-8.07124 0.2216,-1.02957 0.89568,-3.5829 0.94596,-3.5829 0.025,-1.8e-4 0.18553,0.18719 0.35662,0.41611 0.90998,1.21754 2.6832,3.04093 4.33903,4.46178 0.81569,0.69995 5.71329,4.66218 6.79781,5.49961 0.78629,0.60715 1.10921,0.93283 1.69741,1.71111 0.63816,0.84438 1.05137,1.62734 1.38569,2.62646 0.23903,0.71432 0.46893,1.89757 0.47006,2.41621 2.6e-4,0.16754 0.0951,0.34216 0.35342,0.65144 1.18799,1.42207 2.188,3.43858 2.69294,5.43048 0.33362,1.31612 0.45331,2.35468 0.44936,3.89581 -0.005,1.8754 -0.0603,2.02124 -1.6111,4.23464 -1.15577,1.64963 -1.59448,2.66643 -1.59448,3.69458 0,0.40441 0.0252,0.50195 0.16272,0.62723 0.57018,0.51934 1.38985,0.37743 1.58515,-0.2744 0.0814,-0.27181 0.0752,-0.33133 -0.0601,-0.57824 -0.12669,-0.23129 -0.13373,-0.28161 -0.0446,-0.3158 0.19741,-0.0758 0.21781,-0.0415 0.26273,0.43974 0.0671,0.71898 0.29237,0.99303 0.96607,1.05734 0.21094,0.0523 0.40977,0.0587 0.64386,0.0111 0.36361,-0.0125 0.51013,-0.0734 1.15882,-0.40446 1.00866,-0.51473 1.2226,-0.55935 1.66068,-0.34728 0.18252,0.0884 0.38005,0.23435 0.43914,0.32455 0.17683,0.26987 0.92186,0.56092 1.44809,0.56599 0.87397,0.008 1.41876,-0.55306 1.65309,-1.70266 0.214,-1.0498 0.1169,-2.00484 -0.35167,-3.4543 -0.53038,-1.64064 -0.93359,-3.55968 -1.15678,-5.5066 -0.2211,-1.9288 -0.27543,-3.33567 -0.27148,-7.07397 l 0.004,-3.7806 -0.59632,-0.71006 c -3.20619,-3.81901 -5.45442,-8.27328 -6.47793,-12.83453 -0.16453,-0.73327 -0.51275,-1.7682 -1.37606,-4.09001 -0.63566,-1.709539 -1.31927,-3.580641 -1.51924,-4.15794 -1.49022,-4.302091 -2.25662,-7.466172 -2.65445,-10.960121 -0.0984,-0.864378 -0.18659,-1.233401 -0.62257,-2.60604 -0.27932,-0.87946 -0.83009,-2.706609 -1.22414,-4.060249 -0.39406,-1.353661 -0.84464,-2.83927 -1.00106,-3.30151 l -0.24174,-0.715021 c -0.0114,-0.0561 -0.0229,-0.111871 -0.026,-0.146669 l 0.16241,-0.207621 c 0.22341,-0.285459 0.52097,-0.442939 0.83661,-0.442939 0.13373,0 0.63299,0.141719 1.10954,0.314928 2.08805,0.758902 4.32977,1.306481 6.5447,1.59884 1.16973,0.154411 2.47134,0.241062 5.14355,0.341763 5.06127,0.190719 10.79261,-0.233172 15.45079,-1.142492 3.3773801,-0.659289 5.9309701,-1.4634 8.5415801,-2.68944 0.5972,-0.280461 1.88402,-0.793509 2.85945,-1.14015 3.74441,-1.33073 6.57025,-2.612491 6.73919,-3.056858 0.0773,-0.203272 0.0303,-0.527003 -0.1181,-0.813861 -0.13272,-0.256501 -0.54093,-0.655191 -0.75349,-0.73601 -0.006,-0.0021 -0.0163,-0.003 -0.0228,-0.005 l -0.003,-0.003 -0.007,5.29e-4 c -0.49264,-0.128381 -3.24721998,0.36018 -5.58183,0.994939 -1.42473,0.38738 -2.08578,0.590701 -5.75475,1.76974 -4.1716101,1.340551 -6.5252401,1.893681 -8.9399101,2.10039 -0.0729,0.006 -0.16676,0.01169 -0.26623,0.01691 -0.69735,0.01741 -1.74565,0.0195 -3.64298,0.0195 -0.70581,2.9e-5 -1.22452,-0.0021 -1.73707,-0.003 -1.50868,-0.0267 -2.86118,-0.0719 -3.39132,-0.130922 -4.01906,-0.447389 -6.95088,-1.21861 -14.7419,-3.877138 -1.7717,-0.604541 -3.91681,-1.3234 -4.7671,-1.59739 -1.4814,-0.477321 -1.58297,-0.521951 -2.42525,-1.07221 -4.98371,-3.255921 -9.91845,-5.18409 -14.95827,-5.844562 -0.44584,-0.0584 -0.81762,-0.0881 -1.33057,-0.0828 -0.0626,2.64e-4 -0.13236,0.0021 -0.2015,0.005 -0.76835,0.0199 -1.86534,0.1099 -3.93312,0.300361 -3.079333,0.283617 -5.499173,0.572907 -7.526524,0.899879 -1.010848,0.162999 -1.400728,0.201031 -3.07699,0.231529 -0.150919,0.0021 -0.316508,0.005 -0.49979,0.008 -0.291449,0.005 -0.508098,0.009 -0.877128,0.014 -1.731881,0.02381 -4.402741,0.0774 -5.935562,0.118981 -8.084958,0.21931 -14.050449,-0.367261 -19.548062,-1.921651 -2.35773,-0.666631 -3.67986,-1.167561 -5.57076,-2.11061 -3.93572,-1.96288 -6.9463,-4.751589 -9.40909,-8.715379 -0.92305,-1.485611 -1.65312,-2.88074 -1.85459,-3.54412 -0.37055,-1.220051 -1.11731,-2.88027 -1.82134,-4.049761 -0.97691,-1.622799 -1.87169,-2.8549 -3.91941,-5.39696 -0.73764,-0.91571 -1.6798,-2.08847 -2.09371,-2.60604 -1.03719,-1.29699 -1.66551,-1.92122 -2.48851,-2.4722 -0.83089,-0.556089 -1.66617,-0.936719 -2.80794,-1.279159 -1.00542,-0.30154 -2.70529,-0.62222 -3.54704,-0.66923 -0.10905,-0.006 -0.28323,-0.0195 -0.44237,-0.0312 -0.17274,-0.0156 -0.34637,-0.0291 -0.5205,-0.0411 -0.17548,-0.0148 -0.35685,-0.0296 -0.50972,-0.0444 -0.0663,-0.006 -0.16465,-0.0101 -0.25281,-0.0146 -0.0312,-0.002 -0.0697,-0.004 -0.10527,-0.006 -0.0253,-0.001 -0.0419,-0.003 -0.0685,-0.003 -0.0409,-0.002 -0.089,-0.003 -0.13443,-0.004 -0.0222,-0.002 -0.0433,-0.003 -0.0656,-0.005 -0.0988,-0.007 -0.24099,-0.01 -0.4167,-0.009 z m 17.67599,99.790624 c 0.006,-0.003 0.0121,0.008 0.019,0.0344 h 2.6e-4 c 0.009,0.0347 0.0132,0.076 0.0128,0.11487 -0.003,0.0226 -0.005,0.0489 -0.008,0.0711 -0.002,0.011 -0.005,0.0225 -0.008,0.0309 -0.0198,0.049 -0.0349,-0.009 -0.0332,-0.12801 0.001,-0.0746 0.008,-0.11829 0.0169,-0.12335 z"
       id="path2599"
       inkscape:connector-curvature="0" />
  </g>
</svg>
