<?xml version="1.0" encoding="UTF-8" standalone="no"?>
<!-- Created with Inkscape (http://www.inkscape.org/) -->

<svg
   xmlns:dc="http://purl.org/dc/elements/1.1/"
   xmlns:cc="http://creativecommons.org/ns#"
   xmlns:rdf="http://www.w3.org/1999/02/22-rdf-syntax-ns#"
   xmlns:svg="http://www.w3.org/2000/svg"
   xmlns="http://www.w3.org/2000/svg"
   xmlns:sodipodi="http://sodipodi.sourceforge.net/DTD/sodipodi-0.dtd"
   xmlns:inkscape="http://www.inkscape.org/namespaces/inkscape"
   width="159.5726mm"
   height="118.58111mm"
   viewBox="0 0 159.5726 118.58111"
   version="1.1"
   id="svg4127"
   inkscape:version="0.92.5 (2060ec1f9f, 2020-04-08)"
   sodipodi:docname="Empictere.svg">
  <defs
     id="defs4121" />
  <sodipodi:namedview
     id="base"
     pagecolor="#ffffff"
     bordercolor="#666666"
     borderopacity="1.0"
     inkscape:pageopacity="0.0"
     inkscape:pageshadow="2"
     inkscape:zoom="0.35"
     inkscape:cx="570.12595"
     inkscape:cy="106.94743"
     inkscape:document-units="mm"
     inkscape:current-layer="layer1"
     showgrid="false"
     inkscape:window-width="1920"
     inkscape:window-height="1055"
     inkscape:window-x="0"
     inkscape:window-y="0"
     inkscape:window-maximized="1" />
  <metadata
     id="metadata4124">
    <rdf:RDF>
      <cc:Work
         rdf:about="">
        <dc:format>image/svg+xml</dc:format>
        <dc:type
           rdf:resource="http://purl.org/dc/dcmitype/StillImage" />
        <dc:title></dc:title>
      </cc:Work>
    </rdf:RDF>
  </metadata>
  <g
     inkscape:label="Layer 1"
     inkscape:groupmode="layer"
     id="layer1"
     transform="translate(177.30416,-58.548731)">
    <path
       style="fill:#000000;stroke-width:0.84938413"
       d="m -62.303528,58.550846 c -0.89049,-0.06277 0.14848,1.264206 3.79402,4.981833 6.53133,6.660515 16.22309,21.01397 14.18903,21.01397 -0.19339,0 -1.69513,-2.388894 -3.33615,-5.308652 -3.46832,-6.170929 -15.27891,-18.675223 -15.67878,-16.59949 -0.14067,0.730182 0.91045,3.165604 2.33581,5.413168 1.42536,2.247564 2.59128,4.495697 2.59128,4.99511 1e-5,0.499404 0.75996,2.326438 1.68882,4.059453 0.92883,1.733016 1.8874,5.35778 2.1301,8.055883 0.50664,5.631698 -0.003,4.859208 -2.53157,-3.848772 -0.99142,-3.413523 -2.16367,-6.197795 -2.60621,-6.186235 -0.44257,0.01136 -1.04605,1.657361 -1.34043,3.657992 -0.29448,2.000622 -0.95644,6.622937 -1.4715,10.270575 -1.08928,7.714645 -2.1419,10.368773 -3.01763,7.609626 -0.3052,-0.962038 -0.49628,-2.076413 -0.4247,-2.475166 0.37461,-2.090563 -0.36803,-1.929019 -3.29468,0.715012 -7.683,4.560369 -17.049222,8.203167 -25.017022,8.236707 -1.999681,0.008 -3.78315,0.0756 -5.06312,0.17253 -5.61454,-7.172312 -6.05845,-10.271197 -2.79202,-16.727231 3.935629,-7.778627 9.589881,-9.277468 15.71028,-4.163971 1.957049,1.635065 4.476909,2.972846 5.60064,2.972846 2.82558,0 2.5571,-1.279599 -0.537509,-2.56143 -3.159062,-1.308527 -5.088062,-4.250046 -2.757181,-4.203781 0.833959,0.01654 2.471859,0.576579 3.639741,1.244212 1.16791,0.667633 2.99535,1.227522 4.061131,1.244212 2.14937,0.03338 3.72585,-2.611805 1.91608,-3.215046 -0.61733,-0.205789 -2.50148,-1.607197 -4.187191,-3.11386 -1.68569,-1.506663 -3.894032,-3.173749 -4.90719,-3.704445 -1.013132,-0.530686 -2.097771,-2.129686 -2.41046,-3.553475 -0.443212,-2.017941 -0.911852,-2.479174 -2.126771,-2.093604 -1.106041,0.351042 -2.25601,-0.379446 -3.959921,-2.514968 -1.32065,-1.655127 -2.734959,-3.009325 -3.143729,-3.009342 -0.73964,-2.6e-5 -0.32131,3.324931 0.774729,6.158035 0.905722,2.341132 -1.376238,1.80969 -4.978509,-1.159613 -1.76552,-1.45531 -3.47263,-2.383576 -3.79237,-2.063732 -0.3198,0.319827 0.28119,2.152722 1.3338,4.074386 1.05255,1.921663 1.61971,3.788483 1.2608,4.147381 -0.3589,0.358908 -2.33348,-0.100448 -4.38793,-1.020255 -4.29797,-1.924245 -5.00044,-1.659458 -3.6215,1.366982 1.47824,3.244351 1.22443,3.939334 -1.34707,3.669604 -2.69836,-0.283041 -3.06989,0.02047 -2.34244,1.916091 0.29018,0.756224 -0.26701,2.789344 -1.23758,4.517331 -1.49438,2.660374 -1.6832,4.011167 -1.23094,8.817339 0.29377,3.121734 1.4489,7.728352 2.5664,10.237394 1.11746,2.50906 2.03222,4.70676 2.03222,4.88396 0,0.17721 -1.2422,0.31322 -2.7605,0.30359 -7.0441,-0.0476 -15.89729,-7.7733 -19.4728,-16.994317 -2.14288,-5.526349 -3.17489,-6.361676 -3.3826,-2.735612 -0.19031,3.321926 -0.16304,3.76374 0.49603,8.158734 0.33753,2.249858 0.25708,3.94499 -0.1858,3.94499 -1.13753,0 -1.81612,-11.283058 -1.13971,-18.898798 0.32135,-3.6205 0.33382,-6.582727 0.0282,-6.582727 -1.78883,0 -3.22648,4.421953 -3.86536,11.891379 -0.2198,2.569388 -0.74891,6.200503 -1.17619,8.069149 -0.42736,1.868647 -0.80996,5.499764 -0.85105,8.069152 -0.0641,4.01389 -0.19581,4.37268 -0.93067,2.54815 -1.33213,-3.307475 0.019,-18.66497 2.26447,-25.735347 1.06838,-3.364283 1.75962,-6.301369 1.53619,-6.527984 -1.33505,-1.354225 -8.66988,13.326439 -11.34558,22.70776 -1.78129,6.24537 -3.39491,8.079621 -3.36602,3.822229 0.021,-2.94681 6.76709,-19.511715 10.4033,-25.544568 1.50982,-2.50497 3.98784,-6.012909 5.50606,-7.795419 2.83867,-3.332686 3.39459,-4.887645 2.37563,-4.930412 -1.48926,-0.06251 -6.34349,3.105111 -12.35423,8.674668 -17.32509,16.05337 -28.80308,40.659433 -28.86247,61.872323 -0.0184,6.59875 0.7902,8.13316 2.55313,4.83916 1.12465,-2.10147 5.73845,-5.04498 7.91652,-5.04819 3.25002,-0.007 7.24742,2.69806 8.88867,6.01537 1.79711,3.63229 2.39298,3.41534 4.38296,-1.59924 2.07117,-5.21912 9.72764,-7.20409 14.41631,-3.73762 1.38872,1.02674 2.67158,1.86633 2.85008,1.86633 0.17855,0 0.78882,-1.54641 1.35536,-3.43736 0.69763,-2.32841 1.90612,-3.97217 3.74426,-5.09298 3.45515,-2.10688 6.23843,-2.09593 9.74137,0.0398 3.67208,2.23888 4.20392,2.15209 4.85079,-0.79298 0.81923,-3.73005 7.24239,-10.25233 10.09639,-10.25233 3.27325,0 5.08483,4.51955 4.58535,11.43682 -0.31596,4.37544 -1.1005,6.37102 -5.35013,13.62 -9.41463,16.05932 -10.72477,21.90005 -6.71711,29.94245 1.49837,3.00687 3.3982,5.17686 6.09168,6.96097 v 0.002 c 3.09936,2.05294 4.8294,2.59129 8.313019,2.59129 8.457912,0 12.928661,-2.61193 20.493051,-11.97433 4.707382,-5.82619 7.302852,-7.58486 12.797172,-8.66804 3.61005,-0.71171 7.9746,-7.6285 9.64018,-10.44808 0.22891,-0.38752 0.4194,-0.74716 0.58561,-1.08496 0.087,2.12487 2.94018,6.27358 3.92177,5.54754 0.91557,-0.67724 -0.27662,-16.85855 -1.24754,-17.71265 -0.0321,-0.0257 -0.0637,-0.0396 -0.0946,-0.0348 -0.46112,0.0809 -1.88286,2.07352 -3.16197,4.4294 -1.27906,2.3559 -3.65749,5.58722 -5.28542,7.17829 -1.62793,1.59108 -3.01263,3.02499 -3.07736,3.18686 -0.69059,1.72717 4.6172,-0.36592 7.17,-2.71737 -2.3707,3.32442 -5.20355,7.55658 -12.34759,8.45237 -8.204562,1.02876 -9.273193,1.52199 -12.478652,5.75656 -3.92757,5.18845 -9.860751,11.29416 -10.97398,11.29416 -0.565319,0 -1.90881,0.76446 -2.986119,1.69877 -2.485861,2.15599 -4.595651,2.14773 -8.127201,-0.0348 -3.7705,-2.3303 -4.98525,-6.25339 -4.30499,-13.90867 0.81717,-9.19623 2.60091,-13.37138 9.825979,-23.0047 6.456982,-8.60905 9.09044,-17.52734 6.64909,-22.50868 -0.0694,-0.14153 -0.171871,-0.32383 -0.30027,-0.53584 0.280342,0.15867 0.50116,0.24631 0.622112,0.22064 1.779159,-0.37763 9.044419,2.43727 14.7315,5.38995 1.323341,1.90958 2.710671,3.36459 3.084001,3.23329 0.37332,-0.13124 1.58463,-1.95891 2.69082,-4.06112 2.22453,-4.22747 6.55721,-7.64445 9.69326,-7.64445 2.00902,0 4.86118,2.35449 6.74863,5.57076 0.93714,1.59692 1.04415,1.57925 3.39754,-0.56238 3.33376,-3.03384 5.04194,-3.48263 8.21015,-2.1583 3.55179,1.48469 5.00498,3.33703 5.62884,7.17496 0.5086,3.12906 0.52618,3.1395 4.74294,3.16197 6.9356,0.0362 11.24577,4.34386 12.76731,12.75901 0.33396,1.8469 0.77429,3.65003 0.97878,4.00803 0.2045,0.35795 0.78357,0.39836 1.28569,0.0879 1.34905,-0.83377 0.15383,-18.02211 -1.82319,-26.21975 -1.87413,-7.77094 -5.55006,-16.802846 -9.74801,-23.951975 -6.65814,-11.338947 -24.15982,-27.996628 -31.92822,-30.388825 -0.204,-0.06286 -0.37047,-0.100525 -0.49768,-0.109494 z m -23.228681,13.359556 c 0.266189,0.0333 0.574299,0.186083 0.880909,0.492703 0.610079,0.61001 0.624951,1.086413 0.0448,1.444955 -0.47561,0.293921 -1.120698,0.119321 -1.43334,-0.386538 -0.504439,-0.816207 -0.26197,-1.45068 0.25713,-1.546151 0.0779,-0.01424 0.161782,-0.01593 0.250502,-0.005 z m 42.311611,13.485632 c 0.84996,0 6.0469,11.322179 6.04689,13.173744 10e-6,2.412642 -1.57252,1.2515 -2.59958,-1.919404 -0.56745,-1.751854 -1.73777,-5.000749 -2.60124,-7.219765 -0.86272,-2.219018 -1.24385,-4.034575 -0.84607,-4.034575 z m -90.756362,16.138296 c 0.45247,0 0.82284,0.57334 0.82283,1.27408 1e-5,0.70072 -0.15148,1.27407 -0.33511,1.27407 -0.18362,0 -0.55215,-0.57335 -0.82117,-1.27407 -0.26893,-0.70074 -0.11904,-1.27408 0.33345,-1.27408 z m 67.184292,1.79499 c 0.18847,0.0183 0.36736,0.0986 0.52258,0.25382 0.2861,0.2861 -0.25881,1.57373 -1.21104,2.8617 -0.95227,1.28798 -2.02251,3.29047 -2.37894,4.44931 -0.35644,1.15887 -1.03087,2.58465 -1.49804,3.1686 -0.46718,0.58394 -1.1843,1.06173 -1.59425,1.06173 -1.47242,0 -0.69952,-2.24051 1.76845,-5.12783 1.3825,-1.61743 2.52888,-3.58803 2.54815,-4.37798 0.0307,-1.27759 1.02644,-2.36878 1.84309,-2.28935 z m -88.116972,1.09491 c 0.30244,0.0459 0.51246,0.46109 0.50764,1.0949 -0.007,0.84512 -0.38324,2.10951 -0.83612,2.81027 -0.64405,0.9965 -0.82647,0.77581 -0.83611,-1.01196 -0.007,-1.2571 0.36898,-2.52166 0.83611,-2.81026 0.11679,-0.0722 0.22766,-0.0982 0.32848,-0.083 z m 21.91809,0.61879 c 0.14595,0.0427 0.41419,0.36792 0.78967,1.01362 0.49736,0.85258 0.72293,1.73065 0.50432,1.94927 -0.21868,0.21868 -0.63618,-0.22466 -0.92736,-0.98376 -0.51228,-1.33495 -0.60988,-2.05032 -0.36663,-1.97913 z m -9.5058,1.58762 c 0.46716,0 0.84938,1.45876 0.84938,3.24159 10e-6,1.78285 0.40815,5.45117 0.90745,8.1521 0.49927,2.70093 0.72578,5.09383 0.50266,5.31695 -0.52397,0.52397 -1.10344,-1.49946 -2.21304,-7.73571 -1.12273,-6.31108 -1.13602,-8.97493 -0.0464,-8.97493 z m 14.03807,5.70514 c 0.40513,0.0978 1.14708,0.94097 1.90448,2.22466 1.00985,1.71155 1.72571,3.11219 1.58927,3.11219 -0.90449,0 -4.05791,-4.3231 -3.77412,-5.17428 0.0481,-0.14426 0.14532,-0.19518 0.28037,-0.16257 z"
       id="path2505"
       inkscape:connector-curvature="0" />
  </g>
</svg>
