<?xml version="1.0" encoding="UTF-8" standalone="no"?>
<!-- Created with Inkscape (http://www.inkscape.org/) -->

<svg
   xmlns:dc="http://purl.org/dc/elements/1.1/"
   xmlns:cc="http://creativecommons.org/ns#"
   xmlns:rdf="http://www.w3.org/1999/02/22-rdf-syntax-ns#"
   xmlns:svg="http://www.w3.org/2000/svg"
   xmlns="http://www.w3.org/2000/svg"
   xmlns:sodipodi="http://sodipodi.sourceforge.net/DTD/sodipodi-0.dtd"
   xmlns:inkscape="http://www.inkscape.org/namespaces/inkscape"
   width="221.64659mm"
   height="140.73567mm"
   viewBox="0 0 221.64659 140.73567"
   version="1.1"
   id="svg8"
   inkscape:version="0.92.5 (2060ec1f9f, 2020-04-08)"
   sodipodi:docname="FancyDragon.svg">
  <defs
     id="defs2" />
  <sodipodi:namedview
     id="base"
     pagecolor="#ffffff"
     bordercolor="#666666"
     borderopacity="1.0"
     inkscape:pageopacity="0.0"
     inkscape:pageshadow="2"
     inkscape:zoom="0.35"
     inkscape:cx="564.57399"
     inkscape:cy="311.67147"
     inkscape:document-units="mm"
     inkscape:current-layer="layer1"
     showgrid="false"
     inkscape:window-width="1920"
     inkscape:window-height="1055"
     inkscape:window-x="0"
     inkscape:window-y="0"
     inkscape:window-maximized="1" />
  <metadata
     id="metadata5">
    <rdf:RDF>
      <cc:Work
         rdf:about="">
        <dc:format>image/svg+xml</dc:format>
        <dc:type
           rdf:resource="http://purl.org/dc/dcmitype/StillImage" />
        <dc:title></dc:title>
      </cc:Work>
    </rdf:RDF>
  </metadata>
  <g
     inkscape:label="Layer 1"
     inkscape:groupmode="layer"
     id="layer1"
     transform="translate(175.8352,-90.560737)">
    <path
       style="fill:#000000;stroke-width:0.35277778"
       d="m -36.453394,90.561237 c -0.0521,-0.002 -0.0874,0.002 -0.10335,0.0119 -0.12745,0.0788 -0.11275,0.90287 0.0326,1.83141 0.14531,0.92855 0.18593,2.09696 0.0904,2.59674 -0.13652,0.71448 0.0405,1.04572 0.82838,1.54823 4.01902,2.56366 5.7645,4.521633 5.7645,6.467303 0,1.02985 0.0938,1.0999 2.0283,1.50792 1.55228,0.3274 2.58898,0.33307 4.41627,0.0248 1.31326,-0.22155 2.54378,-0.40256 2.7342,-0.40256 0.39955,0 0.4803,1.40831 0.0811,1.41645 -0.14552,0.003 -0.49126,0.1484 -0.76791,0.32349 -0.40828,0.25839 -0.28865,0.5627 0.63562,1.61541 0.62629,0.7133 1.07796,1.48052 1.00356,1.70481 -0.0744,0.2243 -0.79418,0.49761 -1.59939,0.60719 -0.80523,0.10958 -1.54434,0.27983 -1.64279,0.37827 -0.0985,0.0984 0.45442,0.53447 1.22835,0.96945 1.36752,0.76859 1.77503,1.53514 1.05316,1.98128 -0.19476,0.12035 -0.26101,0.59135 -0.14676,1.04645 0.11422,0.45511 0.0353,1.14987 -0.1757,1.54409 -0.34399,0.64272 -0.28541,0.71026 0.56637,0.6506 0.67254,-0.0471 1.06918,0.16687 1.35908,0.73329 0.639,1.24828 0.80457,1.2958 1.50275,0.43357 0.73385,-0.90625 0.96237,-0.76866 2.20248,1.32395 0.37369,0.63059 0.80655,1.1467 0.96168,1.1467 0.15515,0 1.11852,-1.70674 2.14095,-3.79254 2.6658898,-5.43857 3.7930398,-6.85499 6.5262098,-8.20053 1.47892,-0.72807 3.0352,-1.18881 4.44575,-1.31671 1.96393999,-0.17809 2.26053999,-0.11343 3.12382,0.67903 1.5226,1.39768 2.9468,2.25313 4.76147,2.86028 l 1.69085,0.56586 0.68937,-1.13068 c 0.77637,-1.27329 0.84545,-1.71718 0.3452,-2.21743 -0.63177,-0.63175 -1.42446,-3.80934 -1.04489,-4.18889 0.5638,-0.56381 1.50225,0.25265 1.8396702,1.60093 0.43125,1.7232 1.03442,2.07823 2.82721,1.66295 0.81783,-0.18943 3.74893,-0.28086 6.51383,-0.20309 2.7649,0.0778 5.02708,0.0396 5.02708,-0.0847 0,-0.12433 -0.71313,-0.73817 -1.58493,-1.36426 -2.54757,-1.82952 -6.14183,-2.87064 -12.9015302,-3.73724 -1.86632,-0.23927 -2.55583,0.28329 -3.33262,2.5275 -0.41907,1.21077 -0.39555,1.46132 0.23461,2.48667 1.10072,1.79093 0.0516,2.61024 -1.36321,1.06453 -1.32424,-1.44683 -1.31345,-2.39323 0.0646,-5.64461 0.19958,-0.47088 0.0922,-0.61702 -0.45267,-0.61702 -1.29313,0 -1.81507,-0.40628 -2.76315,-2.148192 -1.21391,-2.23041 -2.81811001,-3.01129 -6.82853,-3.32538 -3.35026,-0.2624 -14.1041698,0.40668 -14.6192598,0.90951 -0.20611,0.20122 -0.0986,0.81158 0.28371,1.61333 0.40442,0.84809 0.49647,1.40936 0.26768,1.63815 -0.58481,0.584792 -1.45234,-0.0171 -2.09599,-1.4547 -1.03482,-2.31136 -3.5251,-4.1422 -7.04453,-5.17952 -1.69064,-0.4983 -4.33401,-1.28621 -5.87458,-1.7508 -1.34748,-0.40636 -2.56033,-0.69894 -2.9285,-0.71314 z m -69.795216,0.26975 c -0.0643,0.0643 0.17406,1.06264 0.52969,2.21848 0.95585,3.10676 1.19945,5.85985 0.72502,8.186063 -0.35597,1.74544 -0.67151,2.27663 -2.25413,3.79356 -1.01215,0.97014 -1.82707,1.79239 -1.81074,1.8278 0.0163,0.0354 2.24968,0.8843 4.963,1.88619 2.71331,1.00189 5.727126,2.12103 6.697269,2.48719 0.97014,0.36616 5.097978,1.87157 9.172559,3.34501 6.312551,2.28272 15.800418,5.8234 17.903308,6.68125 1.24849,0.50931 0.55478,-0.47142 -1.85674,-2.62516 -2.45451,-2.19214 -12.271337,-10.51235 -14.800129,-12.54394 -0.72454,-0.58209 -2.809478,-2.27317 -4.633309,-3.75791 -6.090532,-4.958163 -7.52806,-6.114153 -11.034468,-8.873363 -1.91661,-1.50819 -3.53699,-2.6895 -3.60133,-2.62517 z m 10.112047,5.26842 c -0.0182,0.002 -0.0269,0.0106 -0.0269,0.0258 0,0.0825 1.229971,1.17823 2.73368,2.43447 1.50372,1.25624 5.512491,4.587023 8.907981,7.402133 18.897708,15.66759 20.561338,17.58337 25.000538,28.78481 1.85219,4.67364 4.05376,8.91309 4.62711,8.91057 0.10012,-2.7e-4 0.1819,-3.53246 0.1819,-7.84914 0,-7.45689 -0.0393,-7.9225 -0.79117,-9.32914 -1.53493,-2.8717 -16.46104,-14.53027 -31.135047,-24.31893 -6.82843,-4.555073 -9.225211,-6.087973 -9.498121,-6.060613 z m -43.213387,1.697571 c -0.48923,0 -0.0487,0.568719 2.54714,3.289202 6.1228,6.41689 7.15039,9.95509 3.9119,13.46843 -0.77307,0.83868 -1.27902,1.60003 -1.12448,1.69189 0.15454,0.0919 1.15391,0.27565 2.22106,0.40876 12.49357,1.55837 26.3704,3.82681 38.276208,6.25646 9.321681,1.9023 11.412191,2.26475 11.091831,1.9234 -0.291222,-0.3103 -13.951583,-7.07302 -21.674639,-10.73009 -17.70686,-8.38463 -20.96129,-9.90817 -27.75231,-12.99456 -4.01003,-1.822473 -7.38364,-3.313492 -7.49671,-3.313492 z m -33.87906,6.702952 c -0.0455,0 -0.009,3.53202 0.0822,7.84913 0.18092,8.60833 -0.24363,12.94181 -1.82314,18.6092 -0.98503,3.53438 -0.98397,3.52743 -0.70435,3.52743 0.59931,0 3.90321,-2.79385 5.11131,-4.32221 1.5414,-1.95002 1.59227,-2.3325 0.8506,-6.43733 -0.28045,-1.55223 -0.51568,-3.49708 -0.52245,-4.32171 -0.0104,-1.26346 0.0979,-1.49913 0.68678,-1.49913 0.78187,0 0.80732,0.0853 1.43609,4.7625 0.50941,3.7892 3.91258,15.51394 4.74441,16.34577 0.0988,0.0988 1.04124,-0.67319 2.09393,-1.71514 1.88144,-1.86226 1.90565,-1.91264 1.43867,-2.97087 -4.21784,-9.55812 -6.55572,-15.81036 -6.08697,-16.27912 0.44509,-0.44509 1.32538,0.1993 1.83762,1.34514 0.28457,0.63657 0.94514,2.40199 1.46761,3.92276 1.42121,4.13681 1.29089,4.05092 6.61665,4.33359 2.79852,0.14853 4.49307,0.11374 4.40955,-0.0904 -0.0746,-0.18241 -2.43744,-2.49481 -5.25084,-5.1387 -5.71205,-5.36786 -9.46559,-9.37855 -13.55111,-14.48129 -1.51466,-1.89177 -2.79098,-3.43958 -2.83652,-3.43958 z m 143.066196,1.47691 c -0.61756,0.003 -0.83716,0.35056 -1.60249,1.66501 -0.93602,1.60757 -1.28422,1.88274 -3.41374,2.69648 -3.21797,1.22965 -3.62052,1.76873 -1.55185,2.07894 1.81092,0.27156 3.71502,1.66561 3.71502,2.72025 0,1.3109 -0.73407,2.0679 -3.00137,3.09594 -1.58777,0.71993 -2.48221,1.38007 -2.98328,2.20193 -1.10884,1.81872 -0.93404,2.1194 0.78083,1.341 1.64963,-0.74879 3.8166,-0.89683 4.87051,-0.33279 1.06191,0.56833 1.74408,2.25167 1.74408,4.30309 0,2.45213 -0.55643,3.18583 -3.56619,4.70153 -1.53874,0.77489 -2.60441,1.5626 -2.85358,2.10943 -0.21869,0.48001 -0.32259,0.94761 -0.23099,1.03921 0.0916,0.0916 0.99228,-0.14727 2.00143,-0.53072 4.30426,-1.63549 6.41356,-0.58975 6.41356,3.17914 0,2.77864 -0.91423,4.0496 -4.06435,5.65237 -3.02559,1.5394 -3.33323,2.26328 -1.00046,2.35282 1.85514,0.0712 3.22213,0.89127 3.94498,2.36575 0.40629,0.82874 0.37186,1.23908 -0.262,3.11609 -0.40154,1.18901 -0.6555,2.23682 -0.5643,2.32802 0.47144,0.47143 4.37697,1.9273 5.26634,1.96319 0.92112,0.0372 1.16338,-0.20946 2.34715,-2.38848 3.51351,-6.46747 5.62053,-17.34927 5.12113,-26.45007 -0.20563,-3.74733 -0.83029,-6.57428 -1.45262,-6.57428 -0.12369,0 -0.92824,0.50549 -1.78801,1.12293 -1.22534,0.87996 -1.6556,1.03001 -1.99109,0.69453 -0.33549,-0.33549 -0.29439,-0.78798 0.1912,-2.09289 0.34073,-0.91562 0.65555,-1.82342 0.69918,-2.01745 0.0436,-0.19402 -0.58631,-0.35295 -1.3994,-0.35295 -2.44421,0 -2.63171,-0.63099 -0.71726,-2.4138 l 1.64744,-1.53428 -0.89969,-0.48111 c -1.48928,-0.79704 -1.69022,-1.58341 -0.62011,-2.42517 0.51075,-0.40175 1.21535,-0.73019 1.56579,-0.73019 0.8487,0 1.06005,-0.41309 0.55914,-1.09244 -0.25593,-0.3471 -1.22869,-0.6409 -2.59209,-0.78238 -1.20036,-0.12456 -2.78802,-0.32274 -3.52795,-0.44028 -0.32925,-0.0523 -0.57908,-0.0894 -0.78496,-0.0884 z m -83.806766,1.14464 c -0.0953,-0.006 -0.10643,0.0353 -0.01,0.1266 0.19402,0.18302 3.13073,1.64619 6.52621,3.252 9.358637,4.42593 35.006126,17.14331 35.807116,17.75499 0.53832,0.41108 0.60806,0.63784 0.29456,0.95601 -0.3157,0.32038 -1.62379,0.12426 -5.644619,-0.84543 -10.684413,-2.57669 -21.478862,-4.82067 -31.515397,-6.55205 -8.21157,-1.41657 -16.81468,-2.51267 -15.34583,-1.95492 0.19403,0.0737 7.5759,1.95065 16.40417,4.1708 8.828255,2.22017 18.670594,4.77805 21.872044,5.68441 8.094522,2.29164 17.717642,5.45765 18.313622,6.02496 0.87725,0.83502 -0.79616,1.13458 -8.61188,1.54306 -13.232802,0.6916 -22.11106,1.89513 -31.415146,4.25865 -5.41669,1.376 -11.60427,3.53525 -10.85102,3.78633 0.22963,0.0765 2.53077,-0.26315 5.11391,-0.75447 7.81286,-1.486 12.05938,-2.10927 23.393915,-3.4339 4.221781,-0.49338 20.566871,-0.64673 22.136641,-0.20774 1.61163,0.45071 1.16392,1.28664 -1.23455,2.30477 -6.09602,2.58769 -14.397151,6.95204 -19.490801,10.24692 -4.61155,2.98301 -11.290319,8.10747 -10.976081,8.42171 0.0773,0.0773 2.666812,-1.12495 5.75469,-2.67116 7.56068,-3.78591 16.063831,-7.3454 22.683892,-9.49658 7.07472,-2.29893 7.69531,-2.42642 7.99641,-1.64176 0.17057,0.44449 -0.14334,0.90749 -1.1467,1.69086 -2.94624,2.30029 -7.99188,7.5311 -10.05313,10.42261 -2.019559,2.83301 -6.608461,11.50311 -6.26835,11.84321 0.0845,0.0845 1.611498,-1.54647 3.39307,-3.62459 4.37932,-5.10823 7.56389,-8.38738 12.66124,-13.03641 6.21631,-5.66958 6.97683,-5.87499 5.7118,-1.54306 -1.03426,3.54169 -2.29961,9.0194 -2.90939,12.59717 -0.5891,3.45619 -1.15851,11.38665 -0.79375,11.05359 0.12222,-0.11161 1.00393,-3.06296 1.95958,-6.55878 2.80423,-10.25783 5.10907,-16.34525 6.18825,-16.34525 1.06238,0 4.7763,6.69229 6.40529,11.54193 0.50723,1.51008 1.45157,4.78726 2.09858,7.28276 0.64701,2.49549 1.2643,4.62533 1.37201,4.73304 0.3496,0.34958 0.20147,-9.20244 -0.17932,-11.56312 -0.20341,-1.26118 -0.83697,-3.69139 -1.40818,-5.40018 -0.57121,-1.70879 -1.0387,-3.2566 -1.0387,-3.43959 0,-1.8808 6.93086,4.64231 11.75898,11.06703 1.57665,2.09803 2.92004,3.6526 2.98586,3.45508 0.20543,-0.61624 -3.01446,-7.81755 -5.03483,-11.26029 -2.593,-4.41844 -2.59624,-4.49231 -0.18501,-4.4111 4.00233,0.1348 13.33904,4.14219 19.91712,8.54832 1.73819,1.16426 3.23774,2.03895 3.33262,1.94406 0.28964,-0.28963 -5.64146,-6.0822 -8.08064,-7.89202 -2.75669,-2.04545 -7.09641,-4.26475 -10.23038,-5.23121 -2.15307,-0.66397 -5.35689,-1.34738 -12.87622,-2.7466 -4.53861,-0.84457 -7.02386,-2.12101 -9.74307,-5.00435 -2.58519,-2.74122 -4.08097,-5.43561 -6.62388,-11.93002 -2.44303,-6.23931 -3.26711,-7.44827 -6.54069,-9.59734 -2.6648,-1.74942 -5.12312,-2.76172 -19.073262,-7.8543 -3.29846,-1.20413 -8.060449,-2.94521 -10.582809,-3.86954 -2.522375,-0.9243 -6.888345,-2.49802 -9.701735,-3.49694 -2.81341,-0.99892 -5.51198,-1.98237 -5.99706,-2.1854 -0.24224,-0.10139 -0.42283,-0.15607 -0.51881,-0.16277 z m 155.261826,0.55138 c -0.28805,-0.0445 -1.32831,0.32881 -2.51457,0.91674 -2.26478,1.12247 -4.1951,1.77875 -8.74779,2.97398 -0.92871,0.24383 -1.63242,0.61976 -1.56374,0.83509 0.0687,0.21533 1.10676,0.77625 2.30632,1.24695 1.27008,0.49836 2.18075,1.0688 2.18075,1.3653 0,0.28003 -0.56795,1.44414 -1.26246,2.58743 -0.6945,1.1433 -1.20398,2.25637 -1.1317,2.47324 0.19082,0.57244 4.77068,-3.49345 6.66419,-5.91644 2.31662,-2.96434 4.28993,-6.02848 4.14497,-6.43681 -0.009,-0.024 -0.0347,-0.039 -0.0754,-0.0455 z m -49.5080902,6.03426 c -0.43915,0.008 -0.45789,0.1416 -0.36896,0.40566 0.0817,0.24253 0.50755,0.44483 0.9462,0.44958 0.43866,0.005 0.98698,0.26784 1.21852,0.58446 0.30218,0.41327 0.58819,0.48187 1.01338,0.24392 0.44119,-0.24689 0.70281,-0.15391 1.02579,0.36328 0.31657,0.50689 0.68696,0.64376 1.37096,0.50695 0.66403,-0.1328 1.00132,-0.0191 1.15858,0.39067 0.17765,0.46297 0.36513,0.50195 0.93998999,0.1943 0.81296,-0.43507 1.40922,-0.20215 1.40922,0.55087 0,0.73819 0.61950001,0.62308 1.05834001,-0.19688 0.48686,-0.90976 1.1217,-0.89702 1.70325,0.0341 0.44612,0.71436 0.47972,0.71702 0.97256,0.0878 0.49342,-0.62993 0.53028,-0.62688 1.11363,0.0832 l 0.60306,0.73432 0.6258,-0.73432 c 0.66892,-0.78526 0.81674,-0.70447 1.86086,1.02216 0.32142,0.53154 0.96422,0.55019 7.2321202,0.20929 3.78355,-0.20579 8.33671,-0.37495 10.11825,-0.3762 3.17164,-0.002 3.2544,-0.0235 3.96875,-1.02681 1.25318,-1.75992 1.0481,-1.91688 -2.14714,-1.63814 -4.13528,0.36073 -17.14942,0.2721 -21.2886402,-0.14522 -4.43746,-0.44737 -8.4663,-0.93225 -11.64167,-1.40043 -1.59406,-0.23503 -2.45372,-0.35108 -2.89285,-0.34261 z m -1.74874,4.21008 c -0.9316698,0.013 -1.5321998,0.21656 -1.5321998,0.63717 0,0.17506 0.95597,0.42642 2.1244198,0.55862 h 5.3e-4 c 4.1529,0.46985 7.04017,2.01784 8.89917999,4.77077 0.59664,0.88354 1.1376,1.67114 1.202,1.7508 0.0644,0.0797 0.42985001,-0.13798 0.81185001,-0.4837 1.0605,-0.95975 1.60838,-0.4782 2.66703,2.34095 0.53377,1.42145 1.11487,2.74177 1.29087,2.93418 0.55518,0.6069 1.03807,-0.60981 0.85008,-2.14198 -0.12652,-1.03094 0.0666,-2.03196 0.6816,-3.52795 0.4722,-1.14868 0.86254,-2.50036 0.86714,-3.00395 l 0.008,-0.91571 -4.577,-0.21911 c -4.04161001,-0.19332 -4.87534,-0.34537 -7.12152,-1.30121 -2.14612,-0.91325 -4.61889,-1.42058 -6.17173,-1.39888 z m -7.1540598,2.28099 -0.0114,0.90744 c -0.006,0.49902 0.24212,1.64978 0.55139,2.55747 0.50321,1.4768 0.67448,1.65055 1.6278,1.65055 1.46891,0 3.6985,-1.32857 4.55477,-2.71405 0.8159198,-1.32019 0.6413798,-1.87224 -0.59221,-1.87224 -0.84061,0 -1.23058,0.31183 -2.64843,2.11667 l -0.69297,0.88212 -0.61185,-0.81546 c -0.33652,-0.44835 -0.96433,-1.24193 -1.39475,-1.76372 z m -109.951436,0.89401 c -0.8798,0.002 -0.25115,0.7222 1.51568,2.54558 1.36303,1.4067 3.02448,3.43076 3.69227,4.49791 2.9593,4.72907 3.8134,9.18033 2.56729,13.37645 -0.30424,1.0245 -0.48609,1.92927 -0.40463,2.01073 0.0815,0.0815 1.56064,-0.39652 3.28714,-1.06247 8.57278,-3.30672 22.949387,-5.93856 37.005488,-6.77426 2.134319,-0.12689 4.103198,-0.34963 4.375448,-0.49506 1.03774,-0.55435 -12.326998,-4.36393 -35.243326,-10.04538 -5.91784,-1.46716 -11.99427,-2.98228 -13.50305,-3.36672 -1.69347,-0.4315 -2.76441,-0.68823 -3.29231,-0.68678 z m 117.8625758,3.77651 c -0.0457,-10e-4 -0.0917,-5.3e-4 -0.13901,0.003 -0.45408,0.0352 -0.9870298,0.30156 -1.6949998,0.7705 -0.88807,0.58824 -2.14757,1.16923 -2.79879,1.29139 -1.41134,0.26478 -1.43253,0.50037 -0.3488,3.84783 l 0.79941,2.46962 1.37772,-0.0868 c 4.6542798,-0.29298 6.6432298,-2.9934 4.7221698,-6.4115 -0.71477,-1.27174 -1.23227,-1.86344 -1.9177,-1.88412 z m 42.6154902,3.28404 c -0.15772,-0.011 -0.50387,0.27251 -0.83148,0.69401 -0.77012,0.99087 -0.76539,2.28772 0.008,2.28772 0.52123,0 1.28082,-2.55667 0.87903,-2.95848 -0.0141,-0.014 -0.0325,-0.0215 -0.0548,-0.0232 z m -49.8502,3.5109 c -0.89942,0 -0.89535,0.77147 0.009,1.58956 h 5.3e-4 c 0.86194,0.77988 1.21714,0.51158 0.9152,-0.69143 -0.14669,-0.58442 -0.4699,-0.89813 -0.92451,-0.89813 z m 47.04932,0.84387 c -0.26617,1.4e-4 -0.40619,0.0947 -0.52605,0.28371 -0.46508,0.73325 -0.3525,2.10534 0.35812,4.35993 0.82134,2.60548 1.45571,5.95551 1.45571,7.68584 0,1.60271 -0.56441,2.9838 -2.25721,5.52369 -1.4767,2.21566 -2.12839,4.19531 -2.85152,8.66253 -0.48414,2.99077 -0.47509,3.19984 0.18346,4.31601 1.37636,2.33274 0.5067,5.48495 -2.64221,9.57719 -2.95545,3.84082 -6.0456,5.95662 -11.45408,7.84345 -1.62303,0.56621 -7.7261002,2.03107 -8.5457502,2.05104 -0.1248,0.003 -0.39529,0.96351 -0.6015,2.13424 -0.40852,2.31915 -1.77909,5.14247 -3.09801001,6.38152 -0.45961,0.43181 -0.83561,0.87769 -0.83561,0.99115 0,0.11347 1.22995001,0.48496 2.73368001,0.82579 3.95705,0.8969 4.2074,1.09259 5.52008,4.31292 1.43915,3.53069 2.2603102,5.11545 2.6509902,5.11545 0.16701,0 0.41519,-0.74336 0.55139,-1.65158 1.02683,-6.84743 3.95621,-11.54498 13.06124,-20.94446 3.45329,-3.56497 6.51476,-7.0646 7.21662,-8.25014 1.38332,-2.33663 3.3637,-7.75306 3.73155,-10.2061 0.40312,-2.6884 1.35702,-2.60334 1.97456,0.1757 0.18846,0.84806 0.95308,2.57372 1.6991,3.83491 0.74607,1.26118 1.55077,2.92806 1.78853,3.70417 0.63153,2.06141 0.87625,2.16815 2.23501,0.97513 0.67027,-0.5885 1.43259,-1.15878 1.69394,-1.2671 0.34026,-0.14105 0.16783,-0.47781 -0.60719,-1.18701 -0.59523,-0.5447 -1.45349,-1.6253 -1.90738,-2.40141 -0.45387,-0.77611 -1.26571,-1.88752 -1.80403,-2.46961 -0.92742,-1.00281 -1.00791,-1.36629 -1.53221,-6.92309 -0.81716,-8.66054 -0.82243,-8.59693 0.81392,-9.62991 1.80456,-1.13916 2.80164,-2.45597 3.05305,-4.03231 0.11287,-0.70792 0.43442,-1.80816 0.71466,-2.44533 0.67845,-1.54255 0.64244,-2.19315 -0.12141,-2.19315 -0.34706,0 -1.22582,-0.30319 -1.95287,-0.67386 l -1.32188,-0.67386 -0.54933,0.83871 c -0.30226,0.46131 -1.48034,3.18562 -2.61742,6.0539 -1.90772,4.8123 -2.79058,6.16502 -3.24217,4.96765 -0.0951,-0.25206 0.12062,-1.88712 0.47905,-3.63337 0.85196,-4.15067 0.85246,-8.01888 0.002,-9.87743 -0.52901,-1.15592 -0.9207,-1.49435 -2.16472,-1.8712 -0.62389,-0.189 -1.01655,-0.2836 -1.28312,-0.28371 z m -36.0386102,0.33176 c -0.37658,7e-5 -1.23364,0.29599 -2.05827,0.72244 -0.94247,0.48737 -2.48425,1.07632 -3.4261698,1.30896 l -1.71254,0.42323 0.2186,1.36788 c 0.12031,0.75245 0.38822,2.15819 0.59531,3.12384 0.36846,1.71824 0.40413,1.75572 1.67018,1.75545 1.6082998,-2.7e-4 5.4159198,-1.76277 6.1872098,-2.86391 0.31609,-0.45133 0.57464,-1.26772 0.57464,-1.81436 0,-1.16673 -1.23348,-3.74216 -1.91822,-4.00492 -0.0327,-0.0125 -0.0769,-0.0186 -0.13074,-0.0186 z m 49.8176302,0.30593 c -0.44788,-0.0112 -2.61329,1.32718 -2.61329,1.65158 0,0.1394 0.1904,0.44412 0.42323,0.67696 0.23286,0.23283 0.53472,0.42323 0.67077,0.42323 0.33891,0 1.79935,-2.51613 1.58491,-2.73058 -0.0135,-0.0134 -0.0358,-0.0204 -0.0656,-0.0212 z m -191.136656,0.33538 c -3.43811,-0.0174 -5.78895,0.58351 -9.26662,2.25619 -4.41516,2.12362 -7.42443,5.82393 -8.45064,10.39058 -0.43867,1.9521 -0.37752,3.6535 0.24701,6.84248 1.37783,7.03541 9.50757,14.36143 19.944,17.97203 3.9336,1.36087 11.0442,3.05511 12.82196,3.05511 0.99736,0 1.91969,-0.76771 7.54217,-6.27765 5.6794,-5.56572 6.6195,-6.34538 8.28787,-6.87555 1.36921,-0.43511 2.06572,-0.49986 2.55747,-0.23668 0.7703,0.41225 0.88674,1.00416 0.23461,1.19114 -3.4453,0.98784 -3.99625,1.38647 -9.78958,7.08174 -3.20145,3.14727 -6.56474,6.22171 -7.47397,6.83214 -0.90924,0.61044 -4.40139,2.54952 -7.76076,4.3093 -8.98917,4.70892 -17.97347,10.92239 -18.21543,12.59768 -0.0918,0.63556 0.059,0.78083 0.81132,0.78083 1.20088,0 2.44118,-0.65986 5.37383,-2.85771 1.31684,-0.98689 2.8338,-2.02291 3.37086,-2.3027 1.38884,-0.72353 1.56355,-0.006 0.67437,2.76882 -1.30924,4.08572 -1.58975,6.41936 -1.3627,11.32799 0.23001,4.9724 1.49261,11.9629 2.72645,15.09314 0.84767,2.15055 0.70299,3.22803 -0.69195,5.15369 -0.75681,1.04475 -1.55889,1.58135 -3.50418,2.34456 -1.38752,0.54437 -2.52284,1.03682 -2.52284,1.09451 0,0.0577 0.23725,0.55993 0.5271,1.11569 0.28983,0.55575 0.52797,1.28826 0.52916,1.62781 0.003,0.84073 0.21162,0.79849 3.00654,-0.60772 1.33915,-0.67377 3.29275,-1.40341 4.34133,-1.62109 1.98676,-0.41245 2.46349,-0.33401 7.89151,1.2914 1.94475,0.58235 2.06116,0.57856 3.70417,-0.11834 0.93297,-0.39574 2.20877,-0.82799 2.83548,-0.96067 1.81473,-0.38418 4.78427,0.42587 7.13962,1.94821 1.18367,0.76504 2.24165,1.39112 2.35128,1.39112 0.28452,0 2.24637,-2.13963 2.24637,-2.44998 0,-0.52668 -1.79994,-1.05182 -4.42092,-1.28932 -2.79357,-0.25315 -3.58243,-0.77687 -2.59467,-1.72289 0.59908,-0.57377 5.45849,-1.59319 7.59385,-1.59319 0.85861,0 2.13968,0.24144 2.84686,0.53692 1.50063,0.627 1.68982,0.44219 1.68982,-1.65055 v -1.5322 l -1.95854,-0.10387 c -1.50463,-0.0797 -2.65052,0.15191 -4.93923,0.99942 -1.63893,0.6069 -3.42985,1.1898 -3.98012,1.29501 -0.88044,0.16833 -0.98645,0.0965 -0.88212,-0.59945 0.0972,-0.64835 0.97325,-1.15442 4.8612,-2.80706 2.60839,-1.10874 4.79899,-2.18477 4.86792,-2.39158 0.0689,-0.20679 -0.18727,-0.88962 -0.56895,-1.51723 -0.38168,-0.62763 -0.61046,-1.35849 -0.5085,-1.62418 0.35672,-0.92961 -0.33812,-0.46383 -2.95796,1.98282 -6.40028,5.97715 -11.86289,6.61041 -16.55403,1.91926 -1.42568,-1.42568 -1.71617,-1.56321 -3.30006,-1.56321 -1.54696,0 -1.83105,-0.12488 -2.60035,-1.14618 -1.94189,-2.57799 -3.23963,-9.09321 -2.93419,-14.72882 0.31384,-5.79073 1.59491,-9.70678 4.07313,-12.44988 2.79251,-3.09096 5.9928,-4.53109 13.88081,-6.24665 13.62492,-2.96326 19.02067,-4.88506 21.43487,-7.63468 1.27956,-1.45733 2.68444,-4.2692 3.05253,-6.1097 l 0.23512,-1.17616 -2.11821,0.23926 c -2.93058,0.33155 -3.22636,-0.0828 -2.01435,-2.82101 0.73514,-1.66084 0.89069,-2.47846 0.77566,-4.07624 -0.24084,-3.34498 0.0892,-3.23772 -9.26868,-3.0148 -7.76171,0.1849 -8.3432,0.24843 -13.15475,1.43247 -10.64428,2.61938 -17.14446,2.58676 -23.19911,-0.11679 -4.14789,-1.85214 -6.22292,-4.53638 -6.25594,-8.0915 -0.0327,-3.51422 1.96418,-6.96798 4.97695,-8.60774 3.28671,-1.78885 8.09985,-1.57663 10.27224,0.45269 2.09644,1.95836 1.13946,5.37176 -1.89187,6.74842 -2.43304,1.10496 -4.68777,0.89198 -7.84448,-0.74156 -1.67979,-0.86926 -2.85856,-1.28795 -3.05976,-1.08675 -0.52572,0.52572 -0.9168,3.31243 -0.55863,3.98167 0.18528,0.3462 1.42723,0.93692 2.87838,1.36942 2.12138,0.63226 3.14819,0.73169 6.08025,0.5886 7.69293,-0.37542 12.00406,-3.7053 11.98841,-9.2599 -0.0174,-6.18813 -4.25092,-9.55414 -12.52223,-9.95702 -0.54201,-0.0264 -1.055,-0.0414 -1.54616,-0.0439 z M 23.719156,134.711 c -0.0116,1.6e-4 -0.0223,0.003 -0.0315,0.009 -0.35185,0.21746 -0.0404,2.38362 0.48318,3.36207 v 5.3e-4 c 0.31901,0.59609 1.37406,0.52145 1.37406,-0.0971 0,-0.68191 -1.46481,-3.27904 -1.82573,-3.27422 z m -40.92411,0.44907 c -0.0375,-0.002 -0.0711,-0.002 -0.10181,0.002 -0.53962,0.0586 -0.02,0.96243 1.55133,2.60966 0.95602,1.00218 1.80176,1.74448 1.87947,1.64951 0.0777,-0.095 0.006,-0.81709 -0.15812,-1.60507 -0.2581,-1.23426 -0.51893,-1.53911 -1.88,-2.20038 -0.59822,-0.29063 -1.02846,-0.44021 -1.29087,-0.45527 z m -0.43924,3.55896 c -0.51739,0 -0.086,1.12661 1.16115,3.03237 h -5.3e-4 c 1.42267,2.17401 3.43064,4.28623 3.7605,3.95635 0.10549,-0.10547 0.0887,-0.83575 -0.0372,-1.62316 -0.1901,-1.18877 -0.6069,-1.76558 -2.45565,-3.39876 -1.22454,-1.08177 -2.31709,-1.9668 -2.42827,-1.9668 z m 45.19827,0.39739 c -0.18589,-0.004 -0.38888,0.0999 -0.69712,0.29507 -0.43064,0.27269 -1.21931,0.71643 -1.75287,0.98599 -1.10823,0.55987 -1.07357,0.47314 -0.64439,1.60197 0.34531,0.90823 5.09709,4.58446 5.45857,4.223 0.40166,-0.40167 0.21288,-3.29333 -0.29456,-4.50774 -0.27922,-0.66831 -0.84011,-1.57153 -1.2459,-2.00711 -0.37351,-0.40088 -0.58468,-0.58565 -0.82373,-0.59118 z m -29.8302302,0.76688 c -0.25945,-0.0222 -0.5488,0.19156 -1.187,0.67748 -1.6541,1.25936 -3.75772,2.25643 -5.3847,2.5523 -0.77465,0.14085 -1.5470998,0.34219 -1.7166698,0.447 -0.30842,0.19063 -0.007,4.63126 0.38344,5.64875 0.4461398,1.16256 7.6228798,-0.1904 9.47900979,-1.78697 1.62772,-1.40009 1.15401,-5.2413 -0.87282999,-7.07554 -0.31568,-0.28568 -0.49946,-0.44575 -0.70125,-0.46302 z m -143.3964058,1.32188 c -2.29089,0.0284 -4.67826,0.80945 -6.14174,2.18333 -1.06977,1.00428 -1.00185,1.48887 0.35243,2.50424 1.50286,1.12676 3.69209,2.20558 5.086,2.50631 1.64625,0.35516 3.96759,-0.40658 5.29993,-1.73891 1.85383,-1.85383 1.45546,-3.6437 -1.06557,-4.78834 -0.90836,-0.41243 -1.97194,-0.62726 -3.07423,-0.6625 -0.15156,-0.005 -0.30409,-0.006 -0.45682,-0.004 z m 127.113676,1.02888 c -0.12128,-0.001 -0.2137,0.0978 -0.31316,0.26871 -0.46842,0.80465 -0.49995,0.60587 0.37209,2.31563 0.89458,1.75397 5.27116,6.24819 6.08488,6.24819 0.35875,0 0.55679,-0.29032 0.54108,-0.79375 -0.0414,-1.32677 -0.43834,-1.93336 -2.00867,-3.06906 -0.8274,-0.59839 -2.20636,-2.04193 -3.06443,-3.20755 -0.93707,-1.27292 -1.34501,-1.75979 -1.61179,-1.76217 z m -56.99909,0.0548 c -4.048949,-0.004 -11.245507,0.33624 -15.842957,0.83819 -8.147043,0.88949 -22.754689,3.15581 -22.754689,3.53053 0,0.0534 1.15129,0.6483 2.55799,1.32188 4.86485,2.32949 9.22284,7.35191 9.67227,11.14661 0.11843,0.99997 0.3705,1.81798 0.55966,1.81798 0.18916,0 1.23814,-0.75465 2.331637,-1.6769 6.004581,-5.06422 12.891,-9.50516 21.283462,-13.7263 2.872737,-1.44491 5.222927,-2.80187 5.222927,-3.01532 0,-0.16159 -1.18986,-0.2347 -3.0303,-0.23667 z m 55.6829,4.21783 c -0.72549,-0.0432 -0.50169,1.39321 0.48577,3.11764 1.30096,2.27195 3.54473,4.52747 5.49992,5.52886 2.12432,1.08802 2.3926,1.07126 2.3926,-0.14986 0,-0.83228 -0.43127,-1.32571 -2.54608,-2.91042 -1.4006,-1.04953 -3.18654,-2.72993 -3.96875,-3.73414 -0.78222,-1.00421 -1.62094,-1.83765 -1.86346,-1.85208 z m 21.3718198,1.85363 c -0.0441,-0.003 -0.089,-0.002 -0.13592,0.003 -0.31255,0.0319 -0.69556001,0.23707 -1.25470001,0.64699 -1.67504999,1.22807 -5.79709999,2.38298 -8.56638999,2.40037 l -1.37356,0.009 0.18759,3.67367 c 0.10308,2.01986 0.29406,3.84527 0.42426,4.05712 0.58285,0.94022 8.12554,-0.028 10.78436,-1.38442 2.02539,-1.03328 2.22317,-1.4532 2.03862,-4.32893 -0.171,-2.66439 -0.76004,-4.34867 -1.73114,-4.95112 -0.11959,-0.0742 -0.24096,-0.11686 -0.37312,-0.12557 z m -22.8781898,2.08876 c -0.11118,0.005 -0.20861,0.0976 -0.32349,0.26459 -0.57508,0.83572 -0.44151,1.67638 0.49093,3.09386 0.47608,0.72375 1.30953,1.82197 1.85209,2.44068 1.29712,1.47919 7.1692,5.80933 7.65947,5.64823 0.21037,-0.0691 0.43032,-0.85471 0.48885,-1.74614 l 0.10646,-1.62109 -2.81844,-1.46606 c -2.66425,-1.3861 -4.57658,-3.06697 -6.63835,-5.8353 -0.4085,-0.54852 -0.6322,-0.7864 -0.81752,-0.77877 z m -47.34543,0.61753 c -1.35046,0 -10.550989,3.50799 -17.592719,6.70812 -5.69301,2.58721 -13.018838,6.38244 -13.018838,6.74429 0,0.16815 0.77965,0.30593 1.732708,0.30593 2.326841,0 6.73118,0.86815 8.601541,1.6955 1.96152,0.86767 3.833529,2.52428 5.078759,4.49533 0.54505,0.86275 1.083302,1.56907 1.196311,1.56942 0.113009,2.6e-4 0.808019,-1.38838 1.544611,-3.08612 2.70791,-6.24139 5.598577,-10.64854 10.111007,-15.41559 1.57088,-1.65955 2.62676,-3.01688 2.34662,-3.01688 z m 45.28303,3.2458 c -0.0662,0.005 -0.13236,0.0217 -0.20102,0.0481 -0.82052,0.31487 -0.66838,1.13568 0.33021,1.78077 0.48506,0.31336 1.31706,0.84746 1.84898,1.18701 l 0.96738,0.61753 -0.7028,-1.08159 c -1.31625,-2.02557 -1.77946,-2.5848 -2.24275,-2.55178 z m -37.57911,0.77205 c -0.65169,0.16446 -7.41602,6.5619 -10.55232,10.00145 -3.4852,3.8222 -7.654829,8.90881 -7.654829,9.33845 0,0.15289 1.68843,0.27802 3.751709,0.27802 4.91245,0 6.12691,0.39994 8.79791,2.89853 1.19954,1.12212 2.27957,2.0407 2.40037,2.0407 0.12079,0 0.22281,-1.54781 0.22686,-3.43958 0.008,-3.95286 0.94382,-10.82819 2.28875,-16.82481 0.51125,-2.27957 0.86472,-4.20939 0.78548,-4.28863 -0.008,-0.008 -0.0229,-0.009 -0.0439,-0.004 z m 7.25228,2.77709 c -0.54544,0.10673 -2.14884,4.27437 -3.54759,9.25628 -2.17646,7.75179 -2.81063,10.24819 -2.836,11.16521 l -0.0258,0.93483 2.55797,-0.89039 c 2.17919,-0.75844 2.9749,-0.86325 5.37953,-0.709 1.55222,0.0996 3.50349,0.4565 4.33616,0.79324 0.83267,0.33673 1.59841,0.52805 1.7017,0.42477 0.29189,-0.29189 -1.83731,-8.49839 -3.22357,-12.42404 -1.31433,-3.72206 -3.62663,-8.32611 -4.29328,-8.54832 -0.0153,-0.005 -0.0315,-0.006 -0.0491,-0.003 z m 17.7245,0.60771 c -0.27167,0.001 -0.10393,0.28586 2.18591,4.77646 1.18483,2.32356 2.5962,5.45764 3.13624,6.96443 0.956,2.66746 1.03447,2.76768 2.98638,3.80804 1.10257,0.58768 2.76461,1.69648 3.69332,2.46393 0.92874,0.76745 1.76609,1.39526 1.86087,1.39526 0.0948,0 0.1192,-1.62702 0.0543,-3.6158 -0.13657,-4.18125 -0.46106,-3.95532 3.93,-2.73988 1.67436,0.46345 3.42302,0.69608 4.7625,0.63355 l 2.11666,-0.0987 -2.7311,-2.25258 c -3.78376,-3.12116 -6.79334,-5.02808 -11.73313,-7.4352 -3.71576,-1.81065 -9.13157,-3.89382 -10.12341,-3.89382 -0.0519,0 -0.0997,-0.006 -0.13849,-0.006 z m 40.3902898,0.0915 c -0.33385,-0.005 -0.87749,0.22665 -2.0283,0.74311 -2.52799001,1.13448 -6.67313,1.99316 -9.62266,1.99316 h -2.09756 l 0.10025,3.61476 0.10078,3.61477 2.11667,0.86041 c 4.41185,1.79319 10.16696,0.88963 11.83804,-1.85828 1.45968,-2.40021 1.54919,-6.6794 0.1788,-8.55348 -0.19357,-0.26474 -0.32639,-0.41098 -0.58602,-0.41445 z m -20.9294698,2.57659 c -0.29615,-0.001 0.60455,0.99222 2.77193,3.24631 1.16602,1.21267 2.25402,2.20503 2.41742,2.20503 0.16344,0 0.24736,-0.49209 0.18656,-1.09347 -0.0952,-0.94127 -0.528,-1.36478 -3.10938,-3.04426 -1.30101,-0.84644 -2.06389,-1.31288 -2.26653,-1.31361 z m -26.59269,1.35805 c -0.0419,0.005 -0.0629,0.0367 -0.0615,0.0977 0.004,0.16027 0.2363,1.56129 0.51676,3.11351 0.32133,1.77848 0.5147,5.25335 0.52245,9.39581 l 0.0119,6.57376 2.20504,-0.90641 c 2.69557,-1.10832 6.7082,-1.25745 8.16436,-0.30334 0.49213,0.32245 0.97981,0.58601 1.08365,0.58601 0.85133,0 -1.51071,-5.32305 -3.92792,-8.85217 -2.61784,-3.82204 -7.88561,-9.77852 -8.51473,-9.70484 z m 68.40254,1.69964 c -0.28715,-0.0102 -0.98983,0.45858 -1.62419,1.09296 -0.98219,0.98217 -1.23042,1.50576 -1.23042,2.59777 0,0.75234 0.25268,1.72838 0.56121,2.16886 0.71969,1.02754 1.22031,0.64006 2.24327,-1.73788 0.80449,-1.87008 0.85383,-3.86602 0.10181,-4.11292 -0.0153,-0.005 -0.0325,-0.008 -0.0517,-0.009 z m -123.422949,2.32027 -0.79892,2.41795 c -1.023507,3.09692 -2.669857,5.67395 -4.717537,7.38559 -0.89158,0.74527 -1.62109,1.42674 -1.62109,1.51412 0,0.0874 0.4012,0.84349 0.89142,1.68 0.91464,1.56069 3.35091,3.30367 4.617796,3.30367 0.829533,0 5.508562,-2.20528 6.747913,-3.18016 0.700169,-0.55075 1.43066,-0.70074 3.410648,-0.70074 2.90236,0 3.85857,-0.4815 4.381122,-2.20606 0.833249,-2.74998 0.78862,-3.32379 -0.39429,-5.08186 -1.984762,-2.94977 -4.934352,-4.36909 -10.176643,-4.89686 z m 118.170049,3.36 c -0.1556,-7.9e-4 -0.32663,0.0279 -0.52866,0.0785 -1.24278,0.31192 -3.07235,2.02157 -3.06234,2.86184 0.004,0.35873 0.31403,1.32667 0.68834,2.15129 0.3743,0.82462 0.83428,1.49965 1.02216,1.49965 0.51086,0 4.28046,-3.53558 4.2695,-4.0044 -0.005,-0.22307 -0.44741,-0.93287 -0.98237,-1.57768 -0.61217,-0.73788 -0.93985,-1.00662 -1.40663,-1.00925 z m -27.5946902,1.33791 c -0.097,0.001 -0.16185,0.013 -0.18553,0.0367 -0.0949,0.0949 0.0618,0.62445 0.3483,1.17667 0.64442,1.24209 0.19899,1.9234 -1.2573,1.9234 -1.17578,0 -1.17253,-0.0151 -0.48212,2.26084 0.67788,2.23458 0.67452,5.5996 -0.007,6.91741 -0.51825,1.00224 -0.49997,1.05859 0.69401,2.14509 1.55182,1.41211 2.4744,3.72912 2.15751,5.41827 l -0.23461,1.25005 h 1.78747 c 1.61023,0 1.94805,-0.14751 3.39929,-1.48518 2.09983999,-1.93557 3.34312,-4.42204 3.56825,-7.13599 0.12745,-1.53647 0.51549,-2.75461 1.37872,-4.32584 1.5344,-2.79286 2.00697,-5.14649 1.34927,-6.72052 -0.26575,-0.63609 -0.72279,-1.24835 -1.01542,-1.36064 -0.2926,-0.11228 -1.57554,0.0574 -2.85099,0.37724 -2.36419,0.59291 -4.15108,0.53585 -7.15411,-0.22893 -0.62235,-0.15848 -1.20301,-0.2518 -1.49499,-0.24856 z m 51.9229202,0.33744 c -0.0811,-0.009 -0.23199,0.0434 -0.38757,0.13953 -0.49567,0.30635 0.10811,1.4578 1.02061,1.94614 1.08688,0.5817 1.1431,0.42985 0.29144,-0.786 -0.44173,-0.63059 -0.83294,-1.20227 -0.86919,-1.27021 -0.009,-0.017 -0.0283,-0.0265 -0.0553,-0.0295 z m -64.19764,1.63711 c -0.12478,-0.002 -0.20588,0.009 -0.23151,0.0346 -0.10258,0.10258 -0.18655,2.05575 -0.18655,4.3403 0,4.68634 -0.29749,5.28963 -1.70015,3.44889 -1.31811,-1.72978 -3.34231,-3.54442 -4.98368,-4.46743 l -1.4304,-0.8046 v 1.89497 1.89498 l 1.40921,0.42219 c 0.96875,0.29024 1.57779,0.7488 1.94924,1.4671 0.39656,0.76684 0.79632,1.04609 1.50172,1.05006 1.24902,0.007 1.61697,0.27483 2.35386,1.71256 l 0.60875,1.18856 2.0562,-0.23255 c 1.8506,-0.20937 2.10944,-0.1564 2.59106,0.53124 0.66016,0.94249 1.79512,0.7414 3.39048,-0.601 1.55474,-1.30822 2.13114,-2.62703 2.13114,-4.87567 0,-2.03112 -1.0504,-5.39551 -1.84124,-5.89732 -0.24847,-0.15769 -1.16604,-0.29164 -2.03914,-0.29765 -0.87315,-0.006 -2.4959,-0.22503 -3.60598,-0.48628 -0.83259,-0.19593 -1.59865,-0.31749 -1.97301,-0.32298 z m 33.10341,0.015 c -0.22143,0.005 -0.4557,0.0516 -0.70485,0.13849 -1.39198,0.48524 -2.40475,1.68992 -2.7848502,3.31298 -0.43468,1.85597 -0.42966,1.79042 -0.18449,2.42931 0.28694,0.74771 1.1270402,0.70274 3.5651502,-0.18965 2.98577,-1.09283 3.16606,-1.33808 2.42051,-3.29024 -0.63484,-1.66233 -1.35207,-2.42262 -2.31147,-2.40089 z m -5.4224002,1.56269 c -0.0444,-0.006 -0.0945,-0.003 -0.15089,0.008 -0.29988,0.059 -0.75901,0.87427 -1.04492,1.8557 -0.28054,0.96289 -0.73351,2.06984 -1.00664,2.45979 -0.7235,1.03293 -0.60962,1.61076 0.31779,1.61076 1.4918,0 1.9199,-0.70461 2.10013,-3.45664 0.12433,-1.89867 0.0956,-2.43332 -0.21547,-2.47789 z m -81.4260498,1.60766 -3.234418,0.23099 c -6.05961,0.43296 -7.147341,0.72056 -6.820781,1.80248 0.0586,0.19403 0.889471,0.78182 1.8464,1.30586 2.13588,1.16967 3.862432,1.48663 6.380489,1.17202 2.2112,-0.27627 2.41992,-0.56643 2.07274,-2.88148 z m 2.61742,0.52917 c -0.11425,0.004 -0.22066,0.0266 -0.32246,0.0656 -0.60683,0.23286 -0.39223,1.80059 0.48058,3.5078 0.28414,0.55577 1.17776,1.7305 1.98593,2.61069 2.16331,2.35615 7.30781,4.59529 7.28276,3.16984 -0.0138,-0.78665 -1.35829,-3.43959 -1.74305,-3.43959 -0.20567,0 -1.60209,-1.16786 -3.10368,-2.59519 -2.60099,-2.47234 -3.78027,-3.34826 -4.58008,-3.31917 z m -36.240166,1.72237 c -0.71609,0.0158 -2.07305,0.37787 -3.42356,0.9617 -2.00894,0.86845 -1.97929,1.31081 0.30334,4.54856 0.85314,1.21011 1.86574,2.36836 2.24999,2.574 1.38436,0.74089 6.68021,-0.78852 6.68021,-1.92908 0,-0.26824 -0.72155,-0.93843 -1.60403,-1.48983 -1.4507,-0.90642 -3.68763,-3.61215 -3.68763,-4.46071 0,-0.1475 -0.19282,-0.21182 -0.51832,-0.20464 z m 56.008466,0.55449 -2.60915,0.20102 c -2.77419,0.21402 -5.45085,1.16224 -6.64145,2.35283 l -0.7245,0.7245 0.89813,2.03037 c 0.49387,1.11673 1.39521,2.80512 2.00298,3.75223 1.41505,2.20519 2.7823,3.03998 4.98316,3.04167 1.61187,0.001 1.70327,-0.047 1.49293,-0.7922 -1.07273,-3.80053 -1.05753,-4.19417 0.40049,-10.46189 z m 2.43654,0.81752 c -0.56269,-0.003 -1.47147,2.09266 -1.83451,4.23075 -0.39187,2.30786 -0.39118,2.35615 0.0625,4.16564 0.31301,1.24819 0.87841,2.10847 2.29753,3.49643 2.21647,2.1678 6.40837,4.33255 8.38967,4.33255 1.20698,0 1.3073,-0.0718 1.10484,-0.79375 -0.55981,-1.99598 -0.97727,-6.55056 -0.86506,-9.44025 0.0783,-2.01618 -0.009,-3.17202 -0.23926,-3.1719 -0.5429,2.6e-4 -1.99986,1.09216 -2.93212,2.19728 -1.27875,1.51585 -2.16933,1.14625 -2.17558,-0.90279 -0.005,-1.48093 -2.4353,-4.10701 -3.80804,-4.11396 z m -36.617918,0.12247 c -0.243879,0.001 -0.454641,0.0652 -0.696081,0.17519 -0.489469,0.22301 -1.99389,0.40566 -3.34295,0.40566 -2.26999,0 -2.453079,0.0558 -2.453079,0.75344 0,0.47875 0.890659,1.5807 2.440159,3.01997 2.665471,2.47587 3.57355,4.16125 3.53054,6.55205 -0.0452,2.51095 -1.556751,5.54509 -3.11816,6.25854 -2.822498,1.28968 -8.534458,3.21774 -10.56318,3.56567 -1.288827,0.22104 -2.944667,0.7055 -3.679877,1.07642 -1.38242,0.69743 -2.71691,2.45618 -2.71921,3.58428 -10e-4,0.54394 0.17936,0.60634 1.14567,0.39739 0.63058,-0.13636 2.47906,-0.69923 4.10827,-1.25109 1.629208,-0.55185 3.160626,-0.88956 3.402887,-0.75034 0.242289,0.13922 1.5451,1.68197 2.89492,3.42822 2.66732,3.45071 6.750301,7.50004 9.403561,9.32553 2.884459,1.98456 11.597698,5.66735 13.407968,5.66735 0.86101,0 2.0313,1.19775 1.78852,1.83038 -0.30559,0.79643 -1.7748,1.26155 -5.41053,1.71204 -1.677079,0.2078 -3.176108,0.50356 -3.331058,0.65732 -0.15494,0.15376 -0.15494,1.03399 0,1.95596 l 0.281641,1.67638 3.741887,-1.96267 c 4.58917,-2.40703 6.20124,-2.82679 8.17728,-2.12959 1.14149,0.40273 1.68922,0.4231 2.66908,0.0997 2.97357,-0.98137 13.07948,0.5441 15.78974,2.38332 1.51693,1.02944 1.54874,1.02881 1.54874,-0.0238 0,-0.54038 0.40786,-1.17546 1.10536,-1.72134 1.46417,-1.14588 1.0773,-1.8002 -0.88212,-1.49241 -4.0249,0.63225 -5.89531,0.60282 -8.30698,-0.12971 -2.70016,-0.82015 -4.1726,-1.79374 -3.74913,-2.47892 0.30535,-0.49408 0.84148,-0.40312 3.86178,0.65629 2.43964,0.85571 5.46999,0.9479 6.89829,0.20929 0.87543,-0.4527 1.2259,-0.45696 2.6448,-0.03 0.89956,0.27073 1.86633,0.68385 2.14819,0.91777 0.40037,0.33228 0.74385,0.32913 1.57096,-0.0134 1.21587,-0.50363 1.2465,-0.61755 0.53175,-1.988 -0.28985,-0.55576 -0.52798,-1.28522 -0.52917,-1.62109 -0.004,-1.19751 -1.57325,-1.10344 -4.63175,0.2775 -1.60494,0.72466 -3.59574,1.39389 -4.42402,1.48725 -1.90384,0.21459 -4.51113,-0.62136 -7.52822,-2.41381 -2.8071,-1.66765 -5.67758,-2.68646 -8.45634,-3.00084 -1.94982,-0.2206 -2.20888,-0.16097 -3.75791,0.86506 -0.91511,0.60615 -1.91477,1.10127 -2.22105,1.10019 -1.36207,-0.005 -3.35589,-0.84337 -4.550109,-1.91358 -0.71387,-0.63973 -1.854078,-1.44331 -2.533179,-1.78594 -2.733781,-1.37923 -7.823531,-5.24198 -9.307441,-7.06365 -1.74806,-2.14591 -2.189549,-3.45782 -1.64538,-4.8891 0.498289,-1.3106 1.99286,-1.8569 6.382041,-2.3332 5.342681,-0.57976 7.195939,-1.1994 9.007198,-3.01067 2.7351,-2.73509 3.03144,-7.18239 0.82218,-12.3393 l -1.20923,-2.82205 -2.452049,-0.24288 c -1.800649,-0.1782 -3.13758,-0.59042 -5.03173,-1.55184 -1.53969,-0.78151 -2.236949,-1.08189 -2.773479,-1.07901 z m -29.406468,0.93328 c -0.72514,0 -4.87452,0.9146 -5.85236,1.28984 -0.8596,0.32986 -0.42997,2.40667 0.82217,3.97496 1.58197,1.98136 2.99278,2.5523 5.97845,2.42 1.82343,-0.0808 2.72355,-0.28546 3.15485,-0.71675 0.56952,-0.56953 0.54004,-0.68826 -0.52814,-2.10995 -0.62257,-0.82862 -1.52943,-2.2606 -2.01486,-3.18223 -0.58532,-1.11129 -1.11066,-1.67587 -1.56011,-1.67587 z m 86.749736,0.45682 c -0.14682,0.005 -0.28228,0.0399 -0.39584,0.11007 -0.4749,0.2935 -0.33282,1.68626 0.25786,2.52956 0.30206,0.43123 0.76758,0.78445 1.03457,0.78445 0.61466,0 1.01143,-1.21394 0.74465,-2.27686 -0.1596,-0.63588 -1.00502,-1.16995 -1.64124,-1.14722 z m -7.2378,0.007 c -1.07394,-0.0303 -2.24476,0.36738 -2.38642,0.89968 -0.36592,1.37487 -0.18785,8.84617 0.2558,10.73166 0.52078,2.21326 1.0664,2.99195 3.17758,4.53667 1.87767,1.37387 2.48118,1.30158 2.97812,-0.35709 0.63087,-2.10566 0.50793,-2.9402 -0.85835,-5.81722 -1.11115,-2.33973 -1.29152,-3.10174 -1.46141,-6.18464 -0.18076,-3.28049 -0.24695,-3.52928 -0.99115,-3.71605 -0.22367,-0.0561 -0.46633,-0.086 -0.71417,-0.093 z m -37.25561,0.71675 c -0.0592,-0.003 -0.11299,0.004 -0.16123,0.0227 -0.34627,0.13289 -0.4845,0.45226 -0.35915,0.82941 0.11208,0.33719 0.62019,1.80352 1.12913,3.25872 0.50892,1.45521 1.0427,2.76924 1.18598,2.91972 0.14328,0.15049 1.71459,-0.001 3.49177,-0.33745 l 3.23133,-0.61082 -2.30012,-1.21439 c -1.36665,-0.72145 -3.01352,-1.99432 -4.05815,-3.13728 -1.05447,-1.15377 -1.74487,-1.70902 -2.15956,-1.73064 z m -50.790176,0.76998 c -0.73873,-0.042 -4.80704,0.78009 -5.32164,1.09812 -0.5031,0.31094 -0.0678,3.55006 0.61754,4.5961 0.70574,1.0771 2.01584,1.59199 4.07675,1.60145 1.35217,0.006 3.85351,-0.82643 3.85351,-1.28261 0,-0.0725 -0.54202,-0.93727 -1.20457,-1.92184 -0.66257,-0.98458 -1.30969,-2.26865 -1.43816,-2.85357 -0.12847,-0.58492 -0.3455,-1.13253 -0.48214,-1.21698 -0.0176,-0.0109 -0.052,-0.0179 -0.10129,-0.0207 z m 91.635226,0.17053 c -0.1785,-0.002 -0.21376,1.21401 -0.0811,2.80396 0.18013,2.15982 0.51777,3.39957 1.46193,5.36971 1.41618,2.95507 1.49188,3.96876 0.52658,7.04815 -0.38556,1.22995 -0.70339,2.57983 -0.7059,2.9998 -0.005,0.85081 2.02303,6.37148 2.43396,6.62544 0.4322,0.26711 3.55278,-7.12902 3.83491,-9.08936 0.37142,-2.5808 1.03541,-2.54188 3.11609,0.18189 0.93435,1.22316 4.17216,4.76382 7.19542,7.86826 3.18214,3.26761 6.0536398,6.56598 6.8187098,7.83259 1.51778,2.51285 3.15021,7.01069 2.86753,7.90134 -0.27316,0.86065 -2.74122,1.74887 -5.50096,1.98024 -3.1947098,0.26783 -3.2615398,0.32876 -2.8944098,2.61276 l 0.30491,1.89807 h 2.4995698 c 2.3531,0 2.59892,-0.0777 4.20389,-1.3286 1.92119,-1.49735 4.73645999,-2.4797 6.11901999,-2.13526 0.50773,0.12648 1.83922001,0.66215 2.95899001,1.19062 1.69733,0.80106 2.25496,0.90998 3.35171,0.65525 2.38972,-0.55504 4.7429002,-0.37167 6.1345302,0.4775 0.71019,0.43336 2.05975,1.26431 2.99879,1.8464 1.47058,0.91156 2.0484,1.05833 4.16769,1.05833 h 2.4603 l 0.22895,-1.38959 c 0.12782,-0.776 0.56015,-1.65741 0.97925,-1.99677 1.02756,-0.83204 0.94456,-1.2681 -0.39635,-2.08566 -1.3575,-0.82768 -2.40813,-0.87234 -4.3217,-0.18293 -1.91178,0.68872 -3.92438,0.68812 -4.18889,-0.001 -0.21672,-0.56479 0.98465,-1.22318 2.23139,-1.22318 0.35325,0 1.09686,-0.23725 1.65262,-0.5271 1.29087,-0.67323 2.9845,-0.67416 4.59248,-0.002 1.71026,0.71458 1.69658,0.72167 1.80713,-0.88987 0.1275,-1.85879 -0.36822,-2.02635 -3.61014,-1.21905 -2.93145,0.72998 -4.00195,0.60124 -10.42209,-1.25573 -4.7493302,-1.37369 -6.3906202,-2.20505 -8.8532002,-4.48449 -1.10048,-1.01864 -2.10497001,-1.85208 -2.23242001,-1.85208 -0.12742,0 -0.67138,0.32516 -1.20871999,0.72244 -0.81847,0.60511 -1.14062,0.65967 -1.98541,0.33848 -0.55465,-0.21088 -1.21793,-0.65458 -1.47381,-0.9865 -0.49543,-0.64273 -4.51392,-8.17024 -8.9498498,-16.76436 l -2.69698,-5.225 -0.95808,1.25625 c -1.63287,2.14082 -3.74464,1.49602 -3.88245,-1.18545 -0.0888,-1.72653 -0.82638,-2.49753 -2.39004,-2.49753 -0.67349,0 -1.3355,-0.38856 -2.10581,-1.23507 -0.61797,-0.6791 -1.40604,-1.23454 -1.7508,-1.23454 -0.34472,0 -1.39067,-0.87109 -2.32441,-1.9358 -0.93379,-1.06471 -1.83935,-1.93801 -2.0128,-1.94046 z m 8.14679,1.40663 c -0.87065,0 -1.65829,0.59385 -1.65829,1.25057 0,0.22216 0.33184,0.70421 0.73742,1.07125 0.72364,0.65487 0.74704,0.6544 1.23507,-0.0129 0.80648,-1.10292 0.64232,-2.3089 -0.3142,-2.3089 z m -107.698326,0.40876 c -0.1509,0.001 -0.34408,0.0361 -0.59738,0.0868 -1.35084,0.27016 -3.42976,1.54917 -3.42976,2.10995 0,0.23723 0.47277,1.17661 1.05058,2.08772 0.95283,1.50249 1.17671,1.65676 2.40244,1.65676 0.74328,0 1.63862,-0.21005 1.98954,-0.46665 0.5944,-0.43464 0.59973,-0.5405 0.0775,-1.55029 -0.30828,-0.59617 -0.66753,-1.75108 -0.79788,-2.56625 -0.17063,-1.06702 -0.24236,-1.36253 -0.69505,-1.35806 z m 120.595736,1.35497 c -0.26501,0 -1.0659,0.39704 -1.77975,0.88211 -0.71384,0.48507 -1.46714,0.88212 -1.67431,0.88212 -0.42447,0 -1.2237,0.71527 -1.2237,1.09554 0,0.13713 0.47742,1.31372 1.06093,2.61432 l 1.0609,2.36471 1.30847,-0.24547 c 2.9833098,-0.55967 4.2274898,-1.97919 3.8436798,-4.38526 -0.20148,-1.26322 -1.77554,-3.20807 -2.5962198,-3.20807 z m -7.06726,0.41961 c -0.22667,0.005 -0.43254,0.43135 -0.43254,1.27589 0,0.87603 -0.2603,1.71389 -0.694,2.23449 -0.75143,0.90198 -0.91951,1.90061 -0.37674,2.23604 0.53924,0.3333 2.18408,-3.25141 2.06086,-4.4912 -0.0837,-0.84277 -0.33094,-1.25998 -0.55758,-1.25522 z m -3.27991,0.30747 c -0.21196,0.004 -0.32763,0.2344 -0.32763,0.6842 0,0.47036 0.235,0.70538 0.70538,0.70538 0.79962,0 0.90408,-0.36558 0.28215,-0.98753 -0.27211,-0.2721 -0.49501,-0.40542 -0.6599,-0.40205 z m -116.059066,1.38958 c -0.6353,0 -2.99216,4.06103 -3.12746,5.38883 -0.0153,0.15032 0.39184,0.43281 0.90486,0.62786 1.29715,0.49319 3.10395,-0.16344 4.03076,-1.46502 l 0.74259,-1.04284 -1.12603,-1.75441 c -0.61921,-0.96496 -1.26025,-1.75442 -1.42472,-1.75442 z m 78.192126,1.68207 -4.07262,0.1695 c -4.89842,0.2036 -7.39497,0.81051 -7.57422,1.84123 -0.0686,0.39448 -0.35909,1.66978 -0.64595,2.83395 -0.28684,1.16416 -0.54269,2.32384 -0.56844,2.5771 -0.0258,0.25326 0.80132,0.84848 1.83761,1.32291 1.68966,0.77355 2.94125,1.12054 6.40581,1.7756 0.83918,0.15868 1.51494,-0.0963 3.26388,-1.23145 2.59439,-1.68379 3.61239,-3.15543 3.61425,-5.22603 10e-4,-1.17148 -0.23881,-1.76043 -1.12964,-2.77503 z m 50.4806298,4.60851 c -0.38658,0.0119 -0.94728,0.17796 -1.7533598,0.4749 -1.10858,0.40839 -2.01592,0.84343 -2.01592,0.96687 0,0.12344 0.25932,0.59506 0.57619,1.04748 0.47463,0.67759 0.79097,0.78722 1.7952498,0.62425 1.52093,-0.2468 2.21612,-0.80481 2.20916,-1.77405 -0.007,-0.94983 -0.16703,-1.35927 -0.81132,-1.33945 z m -131.7702358,1.45107 c -0.58278,-0.005 -0.63827,0.31515 -0.8015,1.33068 -0.45245,2.81483 -0.35751,3.51864 0.555,4.11653 1.25103,0.8197 1.91845,0.70541 2.33991,-0.40049 1.12851,-2.96123 0.83188,-4.54592 -0.91209,-4.87309 -0.54231,-0.10173 -0.91643,-0.1714 -1.18132,-0.17363 z m 133.4502358,2.76262 c -0.44632,-0.0196 -0.982,0.0944 -1.67484,0.32247 -0.9118,0.30016 -1.6577698,0.61052 -1.6577698,0.68936 0,0.0789 0.5576898,1.25063 1.2391998,2.60398 0.68154,1.35334 1.43976,2.46082 1.68516,2.46082 0.91064,0 1.90151,-1.05301 2.32701,-2.47323 0.37245,-1.24311 0.35505,-1.58941 -0.11369,-2.30477 -0.56518,-0.86257 -1.06124,-1.26601 -1.80507,-1.29863 z m -66.1664998,0.43202 c -0.167,0 -0.93501,0.43639 -1.70635,0.96996 -1.678027,1.16079 -1.803977,2.076 -0.45889,3.33055 1.68713,1.57357 2.44591,1.79871 5.16093,1.53117 2.83556,-0.27941 4.33137,-0.81427 5.2927,-1.89341 0.65408,-0.73424 0.65114,-0.75029 -0.17674,-1.05782 -0.46215,-0.1717 -1.71356,-0.51081 -2.78071,-0.75397 -1.06717,-0.24315 -2.63497,-0.82095 -3.48402,-1.28415 -0.84905,-0.46322 -1.67992,-0.84233 -1.84692,-0.84233 z m -5.769668,2.94659 c -0.39267,-0.0287 -1.039061,0.0645 -2.216401,0.25994 -1.408758,0.23381 -2.557989,0.60293 -2.557989,0.82165 0,0.2184 0.476491,0.97463 1.058339,1.68052 1.956511,2.37358 5.554191,3.45269 7.340639,2.20141 l 0.79478,-0.55707 -1.686198,-1.64796 c -0.92755,-0.90647 -1.84513,-1.93509 -2.039149,-2.28565 -0.162401,-0.29341 -0.30135,-0.44412 -0.694021,-0.47284 z m -7.816061,0.9338 c -2.197809,0 -2.672509,1.4145 -1.18391,3.52794 1.35019,1.91692 1.966431,2.2317 3.91501,2.00092 0.99943,-0.11838 1.891742,-0.28978 1.98282,-0.38086 0.0911,-0.0911 -0.399849,-0.66191 -1.09088,-1.26865 -0.691028,-0.60674 -1.532319,-1.7279 -1.869138,-2.49132 -0.53095,-1.20342 -0.764101,-1.38803 -1.753902,-1.38803 z m -54.790967,0.26922 0.21652,1.89395 c 0.11889,1.0416 0.34757,2.25113 0.5085,2.68769 0.31737,0.86094 1.32644,1.04761 2.0035,0.37053 0.57965,-0.57967 0.54141,-3.62544 -0.0517,-4.11758 -0.26102,-0.21663 -0.97044,-0.4933 -1.57613,-0.61444 z m 137.3538958,2.00092 c -0.32766,0.0284 -0.68586,0.22424 -1.1493,0.5669 -0.61254,0.45286 -1.11363,0.95591 -1.11363,1.11775 0,0.16184 0.63714,1.56093 1.41541,3.10886 1.06442,2.11702 1.59113,2.81429 2.12546,2.81429 1.53016,0 1.85249999,-4.39522 0.45942,-6.26111 -0.7293,-0.97681 -1.19134,-1.3941 -1.73736,-1.34669 z m -74.9070678,4.51807 c -1.032369,0.0229 -2.184101,0.17536 -3.385841,0.47697 -1.160769,0.29133 -0.913939,0.58447 1.896531,2.25413 v 5.3e-4 c 3.066029,1.82149 4.723008,1.82049 5.698878,-0.003 0.91163,-1.7034 -1.11245,-2.79715 -4.209568,-2.72851 z m -58.861518,0.29404 c -0.32835,-0.006 -0.7281,0.10296 -1.28777,0.31574 -0.79425,0.30198 -0.85926,0.44994 -0.55191,1.25833 0.19159,0.50392 0.51246,1.22337 0.71313,1.59835 0.40798,0.76228 1.73852,0.90628 2.38642,0.25837 0.60532,-0.60531 0.52223,-2.05759 -0.16071,-2.81222 -0.37307,-0.41224 -0.67699,-0.6106 -1.09916,-0.61857 z m 91.264706,1.03197 c -0.664,0 -3.2729,1.99163 -5.03328,3.84266 -1.13533,1.19381 -2.28649,2.00066 -3.43958,2.41019 -1.84703,0.656 -2.00673,0.84186 -1.25832,1.46296 0.71193,0.59088 2.70009,0.91761 2.70009,0.4439 0,-0.7548 2.94755,-2.52281 5.43481,-3.26026 3.16908,-0.93959 3.14139,-0.91958 2.50631,-1.82624 -0.29311,-0.4185 -0.53279,-1.28127 -0.53279,-1.9172 0,-0.63591 -0.16968,-1.15601 -0.37724,-1.15601 z m 4.11035,0.35244 c -0.86858,0 -1.61644,0.41161 -1.61644,0.88935 0,0.36557 0.2187,0.37788 1.05833,0.061 1.10543,-0.41725 1.41856,-0.95032 0.55811,-0.95032 z m -68.580826,1.77147 c -0.70238,-0.0179 -1.42061,0.0558 -1.5999,0.23512 -0.29032,0.29033 -0.14038,0.86712 0.22686,0.8723 1.05371,0.0149 3.03864,-0.53222 2.87734,-0.79323 -0.11544,-0.1868 -0.80193,-0.29632 -1.5043,-0.31419 z m 38.656556,0.72606 c -0.66289,0.006 -1.38284,0.25382 -2.04536,0.74362 -1.16014,0.85772 -1.24676,1.09122 -0.60306,1.62316 0.24253,0.20042 1.01237,0.47108 1.71049,0.6015 1.04735,0.1957 1.44774,0.0835 2.28978,-0.64078 1.00833,-0.86733 1.0122,-0.88627 0.3514,-1.61643 -0.43455,-0.48019 -1.04036,-0.71689 -1.70325,-0.71107 z m 99.15104,1.05832 c -1.86719,-0.0549 -3.4023,0.94287 -2.40191,1.56115 0.19537,0.12074 0.79068,-0.0857 1.32292,-0.45837 0.53226,-0.37267 1.20602,-0.76708 1.49706,-0.87642 0.31046,-0.11667 0.13761,-0.21 -0.41807,-0.22636 z m -5.12111,1.14516 c -0.88834,-0.0412 -7.14762,2.35772 -7.15616,2.76623 -0.003,0.12944 0.79692,0.40744 1.77662,0.61753 2.38773,0.51208 2.95601,0.48581 5.58157,-0.25631 l 2.24793,-0.6351 -0.92501,-0.60616 c -0.50874,-0.33337 -0.92501,-0.84578 -0.92501,-1.13843 0,-0.29267 -0.23887,-0.62369 -0.53123,-0.73587 -0.0171,-0.007 -0.0401,-0.0105 -0.0687,-0.0119 z m -60.23975,4.20645 c -0.55745,0.0174 -0.86087,0.29886 -0.67593,0.78084 0.13798,0.35961 0.67095,0.54261 1.5813,0.54261 1.63711,0 1.77524,-0.45356 0.32143,-1.05576 -0.46662,-0.19327 -0.89237,-0.27812 -1.2268,-0.26769 z m -70.474766,1.35652 c -0.38453,0 -0.62477,0.16537 -0.62477,0.49608 0,0.38933 0.39606,0.52546 1.49914,0.51626 1.47768,-0.0123 1.48675,-0.0194 0.61753,-0.51626 -0.57854,-0.33071 -1.10737,-0.49608 -1.4919,-0.49608 z m 137.851016,0.43098 c -0.40177,-0.007 -0.77619,0.0233 -1.07434,0.0982 -0.56878,0.14275 -0.87593,0.46797 -0.87593,0.9281 0,0.56254 0.16348,0.66449 0.79375,0.49558 0.43653,-0.11701 1.64684,-0.21493 2.68925,-0.21756 1.56795,-0.004 1.82552,-0.0885 1.49241,-0.48989 -0.36968,-0.44545 -1.81991,-0.7942 -3.02514,-0.81442 z m -44.28514,4.2571 c -0.52631,0.007 -1.19367,0.24501 -1.73067,0.68679 -0.40248,0.33111 -0.20378,0.43445 1.00513,0.52296 0.82854,0.0607 1.57273,0.0437 1.65415,-0.0377 0.0814,-0.0814 0.0425,-0.42071 -0.0852,-0.75395 -0.1107,-0.28847 -0.43405,-0.4233 -0.84336,-0.41806 z m -65.890048,0.73278 c -0.26857,-0.0131 -0.63328,0.0677 -1.11362,0.23513 -1.308889,0.45627 -1.230511,0.62172 0.47852,1.00717 1.093229,0.24656 1.26297,0.1979 1.26297,-0.36277 0,-0.57525 -0.18024,-0.85775 -0.62787,-0.87953 z m -71.697428,0.20619 c -0.41364,-0.009 -0.94389,0.1301 -1.41076,0.42168 -0.72398,0.45213 -0.93358,0.97357 -0.39171,0.97357 1.10814,0 2.51302,-0.51777 2.51302,-0.92603 0,-0.30202 -0.2969,-0.45999 -0.71055,-0.46922 z m 109.837736,0.10592 c -0.18629,-0.002 -0.36131,0.0197 -0.51728,0.0693 -1.05667,0.33537 -0.76459,0.75917 0.66352,0.96221 0.72761,0.10344 1.64078,0.31314 2.02882,0.4656 0.64214,0.25229 0.65911,0.22015 0.19069,-0.35502 -0.54448,-0.6686 -1.55845,-1.13293 -2.36575,-1.14205 z m 68.78082,1.28003 c -0.39865,-0.0141 -0.75017,0.0639 -0.94052,0.25426 -0.33414,0.33415 0.38331,0.67369 2.06293,0.97615 l 1.40611,0.25322 -0.66715,-0.73742 c -0.40127,-0.44341 -1.19695,-0.72275 -1.86137,-0.74621 z m -140.219866,0.36381 c -0.78752,-0.002 -1.7048,0.36554 -1.7048,0.68367 0,0.14134 0.9109,0.51039 2.02365,0.82011 1.11274,0.30972 2.10458,0.47994 2.20451,0.37878 0.28046,-0.2839 -1.85974,-1.8806 -2.52336,-1.88256 z"
       id="path1956"
       inkscape:connector-curvature="0" />
  </g>
</svg>
