<?xml version="1.0" encoding="UTF-8" standalone="no"?>
<!-- Created with Inkscape (http://www.inkscape.org/) -->

<svg
   xmlns:dc="http://purl.org/dc/elements/1.1/"
   xmlns:cc="http://creativecommons.org/ns#"
   xmlns:rdf="http://www.w3.org/1999/02/22-rdf-syntax-ns#"
   xmlns:svg="http://www.w3.org/2000/svg"
   xmlns="http://www.w3.org/2000/svg"
   xmlns:sodipodi="http://sodipodi.sourceforge.net/DTD/sodipodi-0.dtd"
   xmlns:inkscape="http://www.inkscape.org/namespaces/inkscape"
   width="72.59124mm"
   height="119.38042mm"
   viewBox="0 0 72.59124 119.38042"
   version="1.1"
   id="svg9209"
   inkscape:version="0.92.5 (2060ec1f9f, 2020-04-08)"
   sodipodi:docname="HalloweenBody.svg">
  <defs
     id="defs9203" />
  <sodipodi:namedview
     id="base"
     pagecolor="#ffffff"
     bordercolor="#666666"
     borderopacity="1.0"
     inkscape:pageopacity="0.0"
     inkscape:pageshadow="2"
     inkscape:zoom="0.35"
     inkscape:cx="-22.81971"
     inkscape:cy="411.31496"
     inkscape:document-units="mm"
     inkscape:current-layer="layer1"
     showgrid="false"
     inkscape:window-width="1920"
     inkscape:window-height="1055"
     inkscape:window-x="0"
     inkscape:window-y="0"
     inkscape:window-maximized="1" />
  <metadata
     id="metadata9206">
    <rdf:RDF>
      <cc:Work
         rdf:about="">
        <dc:format>image/svg+xml</dc:format>
        <dc:type
           rdf:resource="http://purl.org/dc/dcmitype/StillImage" />
        <dc:title></dc:title>
      </cc:Work>
    </rdf:RDF>
  </metadata>
  <g
     inkscape:label="Layer 1"
     inkscape:groupmode="layer"
     id="layer1"
     transform="translate(20.420618,-138.27999)">
    <path
       inkscape:connector-curvature="0"
       style="fill:#000000;stroke-width:0.45032603"
       d="m 12.45816,138.28626 v 0.003 c -0.379836,0.0204 -0.839285,0.43103 -1.264021,1.21801 -0.01111,0.0204 -0.02328,0.0379 -0.03411,0.0589 -0.194971,0.37711 -0.419258,0.68003 -0.658362,0.90847 -0.214736,0.17068 -0.44712,0.3135 -0.6919386,0.42066 0,0 0,0 -0.0026,0 -0.0277,0.008 -0.0553,0.0196 -0.08321,0.0254 -0.0752,0.0156 -0.150469,0.0238 -0.225822,0.0238 -1.661821,0 -3.851116,1.71805 -4.61211,3.61995 -1.710849,4.27588 0.102102,11.24064 2.925921,11.24064 0.44278,0 1.525534,0.42534 2.4065696,0.94517 0.709031,0.41833 1.189038,0.84116 1.425231,1.22989 0.05839,0.26715 0,0.6018 -0.136948,1.10485 -0.04159,0.0337 -0.0862,0.0666 -0.136419,0.0977 -0.247677,0.15309 -0.450612,0.73395 -0.450612,1.29087 0,0.76558 -0.466593,1.20754 -1.9135986,1.81229 -2.539365,1.06135 -4.065085,1.82708 -4.757314,2.39676 -0.397431,0.24548 -0.534352,0.41254 -0.534352,0.5648 0,0.0697 -0.07157,0.17098 -0.189125,0.28991 -0.369411,0.33771 -1.008935,0.76779 -1.690846,1.11569 -0.152691,0.0779 -0.28612,0.14952 -0.413411,0.21963 -0.387668,0.11801 -0.61703504,0.25437 -0.71416404,0.45837 -0.351102,0.2853 -0.462782,0.54448 -0.412908,0.88265 5.2e-5,0 -5.3e-5,0 0,0 0.01217,0.0824 0.03397,0.16965 0.06355,0.26302 0.203809,0.64217 -0.05159,1.28434 -0.842327,2.1177 -0.62417896,0.65786 -1.47642796,2.05724 -1.89393996,3.10989 -0.511281,1.28907 -1.031664,1.9141 -1.593163,1.9141 -0.577558,0 -0.993907,0.53472 -1.354957,1.73995 -0.463391,1.54657 -1.91987,3.40275 -4.013729,5.14646 -0.03339,0.0172 -0.06612,0.0361 -0.09972,0.0527 -0.111495,0.0551 -0.252042,0.1805 -0.41394,0.36224 -0.117528,0.0923 -0.2351094,0.18458 -0.3560504,0.27596 -0.76245,0.57613 -1.38594,1.4091 -1.38594,1.85106 0,0.2378 -0.150786,0.67114 -0.383964,1.1622 -0.172958,0.31018 -0.344937,0.6272 -0.517287,0.95137 -1.85e-4,0 0,0 0,0 -0.07448,0.12081 -0.151526,0.24024 -0.230452,0.35655 -1.498705,2.20842 -2.470652,4.59608 -2.470652,6.06838 0,0.22116 -0.01535,0.4278 -0.03979,0.62579 -0.1406,0.94805 -0.632169,1.68772 -1.443858,2.1885 -0.52369,0.25363 -1.183746,0.38293 -1.989005,0.38293 -2.035678,0 -2.057268,0.0154 -1.263492,0.89244 0.634604,0.70125 0.693976,1.02957 0.275934,1.53324 -0.162322,0.1956 -0.248576,0.51255 -0.277997,0.86248 0,0 0,0 0,0 -0.02381,0.0996 -0.02667,0.20794 -0.01085,0.32092 0,0 0,0 0,0 0.01005,0.79026 0.275775,1.61538 0.643387,1.57146 0.0391,-0.005 0.07919,-0.019 0.120412,-0.0444 0.232119,-0.14343 0.705829,-0.0254 1.052645,0.26252 0.496861,0.41236 0.754353,0.32475 1.214384,-0.41187 0.321125,-0.5142 0.822696,-0.93483 1.114161,-0.93483 0.291465,0 1.259866,-2.17847 2.152306,-4.84105 0.892386,-2.66253 2.420964,-6.15808 3.396694,-7.76799 0.9757564,-1.60991 2.1675194,-3.63971 2.6484264,-4.51085 0.480906,-0.87114 2.808737,-3.55648 5.172816,-5.96707 5.26923,-5.37305 6.095761,-5.58011 9.156011,-2.29391 0.267468,0.28726 0.522473,0.57743 0.754989,0.85577 0,0 0,0 0,0 0.05501,0.066 0.104246,0.12827 0.15658,0.19275 0.284189,0.38872 0.582322,0.80753 0.900219,1.26505 0.08279,0.15206 0.133323,0.27376 0.133323,0.3452 0,0.26117 0.514932,1.09421 1.207162,1.98644 0.1760796,0.23207 0.3611286,0.46887 0.5565506,0.70538 0.969883,1.17366 2.353574,3.57674 3.075278,5.34024 0.240348,0.58738 0.427197,1.07292 0.584438,1.51773 0.338852,1.17033 0.515647,2.28886 0.486807,3.26493 -0.10324,3.49205 -0.319193,3.91735 -2.16318,4.26329 l -1.626262,0.3049 0.216006,0.13126 -0.310039,0.0398 0.937922,0.34208 0.619601,0.37674 c 1.176867,0.7157 1.402848,1.08466 1.155991,1.88204 -0.074,0.23921 -0.174096,0.61415 -0.278024,1.02735 -0.228362,0.19873 -0.409257,0.83092 -0.409257,1.46606 0,0.12319 -0.0127,0.25791 -0.03101,0.39634 -0.0808,0.27255 -0.164465,0.56534 -0.25011,0.88159 -0.09292,0.27461 -0.18886,0.53303 -0.285777,0.73951 -0.02842,0.0476 -0.05638,0.0971 -0.08578,0.13902 -0.07631,0.10892 -0.147029,0.23235 -0.21291,0.36173 -0.243787,0.34264 -0.411771,0.9506 -0.378275,1.40454 0.0268,0.36299 -0.153299,1.53065 -0.431509,2.87581 -0.09279,0.44842 -0.196479,0.91639 -0.306943,1.38078 -0.44188,1.85759 -0.9713636,4.08734 -1.1761516,4.95422 -0.118083,0.49972 -0.226827,0.97618 -0.328665,1.43455 -0.02064,0.0933 -0.03789,0.17719 -0.05789,0.26871 -0.0807,0.36856 -0.158856,0.73043 -0.228918,1.0728 -0.0029,0.0153 -0.0058,0.0297 -0.0087,0.045 -0.489559,2.40059 -0.720381,4.17362 -0.720381,5.50455 2.6e-5,2.54987 -0.969222,7.50933 -1.843802,9.68108 -0.0327,0.0787 -0.0654,0.16219 -0.09819,0.23564 l -0.0026,0.004 c -0.0029,0.006 -0.0064,0.0111 -0.0082,0.0169 -0.0626,0.13912 -0.125121,0.26993 -0.187589,0.38809 -0.06189,0.11713 -0.122555,0.26617 -0.182404,0.42892 -0.004,0.005 -0.0069,0.0103 -0.01085,0.0156 -0.728292,1.00301 -0.83439,1.41957 -0.486807,2.03708 -0.08649,0.54115 -0.149119,1.09863 -0.171555,1.61438 -0.11102,2.54973 -0.977847,5.43933 -1.827292,6.19291 0,0 0,0 0,0 -0.01508,0.0106 -0.03037,0.0241 -0.04548,0.0336 -0.384043,0.24014 -0.447067,0.43339 -0.164836,0.82992 0.06138,0.13624 0.147373,0.28544 0.261991,0.44905 0.818965,1.16928 0.451326,2.16948 -0.797878,2.1725 -0.495167,0 -0.70096,0.0319 -0.567425,0.23357 0.0026,0.003 0.0064,0.007 0.0082,0.0108 -0.191214,0.0719 -0.05599,0.17103 0.361209,0.35708 0.152321,0.13176 0.336921,0.28408 0.581872,0.48009 l 1.017005,0.81338 c 0.0562,0.3175 -2.6e-5,0.71983 -0.171556,1.25055 0,0 0,0 0,0 l -1.329637,2.60242 c -1.63456904,3.19931 -1.75331404,3.63794 -1.094528,4.04937 0.50673,0.31644 1.005628,0.31242 1.586997,-0.013 0.212831,-0.11911 0.385392,-0.18859 0.536919,-0.216 0.13589,0 0.263128,0.0161 0.376714,0.0455 0.132715,0.0703 0.252122,0.20068 0.376211,0.39738 0.332132,0.52654 0.677889,0.59351 1.389565,0.26924 0.678762,-0.30928 1.646132,-0.19487 3.409103,0.40409 3.5839926,1.21759 4.7630816,0.66104 2.1285466,-1.0051 -2.0740156,-1.31164 -2.9575656,-3.16552 -3.7780646,-7.92612 -1.045871,-6.06869 -0.677492,-13.17757 0.834073,-16.091 0.947499,-1.82629 1.016158,-2.22041 0.473339,-2.72749 -0.137927,-0.12885 -0.246539,-0.29577 -0.320384,-0.47283 0,0 0,0 0,0 -0.0304,-0.27416 -0.02619,-0.61455 0.0056,-1.0046 0,0 0,0 0,0 0.140732,-0.48445 0.329301,-1.43235 0.453708,-2.32595 0.287628,-2.06624 4.0502676,-11.81473 4.9955706,-12.94289 0.32766,-0.39103 0.595816,-1.24023 0.595816,-1.88722 0,-0.64701 0.202432,-1.30164 0.450109,-1.45468 0.247703,-0.15311 0.450612,-1.06529 0.450612,-2.02676 0,-0.96147 0.198199,-1.8706 0.440822,-2.02054 0.277627,-0.17161 0.237384,-0.59918 -0.109061,-1.15396 -0.06369,-0.10191 -0.114697,-0.20161 -0.159147,-0.29972 0.07361,-0.71053 0.184203,-1.29127 0.311097,-1.61332 0,0 0,0 0,0 0.425159,-0.34065 1.123341,-0.54105 2.042239,-0.54105 1.701324,0 1.751992,0.0458 1.756992,1.57613 0,0.29538 0.02276,0.58893 0.0517,0.86971 -0.09112,0.19608 -0.04339,0.47889 0.140547,0.86611 0,0 0,0 0,0 0.0381,0.14282 0.0793,0.2554 0.122978,0.32351 0.170471,0.26583 0.612669,1.93413 0.982371,3.70726 0.369729,1.77316 1.39319,5.02571 2.274279,7.22799 0.881142,2.20226 1.601973,4.53636 1.601973,5.18676 0,0.6504 0.378778,1.56112 0.841825,2.02417 0.891831,0.89181 1.705028,5.9699 1.176655,7.34685 -0.05689,0.1483 -0.06326,0.37549 -0.02995,0.6418 -0.02514,0.30935 0.06069,0.64404 0.26199,1.00769 0.06919,0.1838 0.147188,0.36695 0.237199,0.54104 0.453655,0.87723 0.651008,1.9585 0.497629,2.72542 -0.139833,0.69917 -0.06969,1.38473 0.155548,1.52395 0.226854,0.14023 0.400183,0.50702 0.521944,1.05368 0.137054,1.89732 0.133218,4.0301 -0.0042,6.13399 -0.07051,0.67522 -0.156262,1.37808 -0.262519,2.11048 -0.869315,5.99186 -1.854306,8.30667 -4.181158,9.82937 -1.275794,0.83487 -1.495292,1.1003 -0.976153,1.24799 0.0989,0.0622 0.281754,0.086 0.532765,0.0744 0.05691,0.0138 0.153326,0.003 0.275457,-0.0238 0.222991,-0.0281 0.484003,-0.0772 0.782876,-0.14986 0.110755,-0.0214 0.22098,-0.0424 0.33745,-0.0677 0.489055,-0.10623 1.021529,-0.24559 1.535324,-0.40722 0.898181,-0.28247 1.558581,-0.44455 2.068089,-0.4966 0,-5e-5 0,6e-5 0.0026,0 0.05231,-0.003 0.106547,-0.008 0.15658,-0.01 0,-5e-5 0.0032,0 0.0053,0 0.01693,0 0.03313,0 0.04961,-0.003 0,-3e-5 0.0026,5e-5 0.0032,0 0.102367,-0.003 0.198094,0 0.28837,0.003 0,3e-5 0,0 0.0026,0 0.05961,0.004 0.12065,0.008 0.175181,0.0164 0.0061,0 0.01376,0 0.02011,0.003 0,1.1e-4 0.0026,0 0.0032,0 0.187325,0.0334 0.346261,0.0948 0.48731,0.18294 0.580046,0.36226 0.943001,0.3045 1.482593,-0.23511 0.248338,-0.24831 0.447569,-0.38831 0.636137,-0.43617 0.119327,0.0101 0.24093,0.0274 0.362241,0.0579 0.0418,0.0106 0.07792,0.0177 0.118349,0.0274 0.07059,0.0408 0.143007,0.089 0.220662,0.15348 0.471779,0.39156 0.817298,0.37346 1.428327,-0.0734 0.764619,-0.55909 0.74795,-0.6817 -0.329168,-2.38795 -1.189594,-1.88444 -2.045732,-4.13763 -2.387971,-6.17069 -7.9e-5,0 0,0 0,-0.003 -0.04892,-0.36816 -0.09612,-0.77417 -0.142134,-1.21438 -1.32e-4,0 0,-0.003 0,-0.004 -0.01773,-0.27721 -0.02656,-0.54915 -0.02064,-0.81029 0.02619,-1.15014 -0.0935,-2.74936 -0.265615,-3.55431 -0.01323,-0.0624 -0.02302,-0.11972 -0.0336,-0.1783 v 0 c 0,-0.5947 0.04522,-1.00169 0.133324,-1.23973 0,0 0,0 0,0 0.210132,-0.12909 0.573881,0.0684 1.040765,0.63095 0.627882,0.75655 1.35083,0.89432 1.35083,0.25736 0,-0.23 -0.260668,-0.68609 -0.579305,-1.01338 -0.318638,-0.32729 -1.24923,-1.79041 -2.068089,-3.25146 -0.527633,-0.94142 -0.859367,-1.58864 -1.038173,-2.09188 -1.32e-4,0 0,0 0,-0.003 -0.09668,-0.37406 -0.148907,-0.71136 -0.153458,-0.99994 0.02487,-0.21235 0.09168,-0.41526 0.192749,-0.63717 0.388805,-0.85328 0.352875,-1.12614 -0.174678,-1.3286 -0.84365,-0.32375 -1.723258,-3.35653 -1.142047,-3.93774 0.262837,-0.26284 0.684424,-0.20482 1.116727,0.15399 1.130564,0.93829 0.794252,0.16073 -0.634074,-1.46606 -0.977186,-1.11294 -1.649783,-3.23122 -1.887723,-5.4529 -0.005,-0.16661 -0.01217,-0.31594 -0.0164,-0.49557 -0.02355,-0.93207 -0.0164,-1.93008 0.01296,-2.85409 0.07001,-0.6096 0.177747,-1.19253 0.336418,-1.71979 0.277654,-0.92247 0.498581,-2.10428 0.563774,-2.93523 5.3e-5,0 0,0 0,0 0.0335,-0.23514 0.05273,-0.43209 0.05014,-0.56481 -0.005,-0.23294 -0.01826,-0.38523 -0.04651,-0.47027 l -0.03151,-0.91157 -0.489373,1.23817 c -1.026557,2.59789 -2.204641,1.06757 -2.342515,-3.04271 -0.02355,-0.70254 -0.133879,-1.49037 -0.283686,-2.15749 -1.59e-4,0 0,-0.003 0,-0.004 -0.02223,-0.15174 -0.06141,-0.30689 -0.114724,-0.4563 -2.38e-4,0 0,0 0,-0.003 -0.08731,-0.30906 -0.18161,-0.57586 -0.279585,-0.75808 -0.741627,-1.37943 -1.42277,-4.19622 -1.523921,-6.30143 -0.04162,-0.8669 -0.197723,-1.77855 -0.346233,-2.02623 -0.05292,-0.0882 -0.08988,-0.20547 -0.115253,-0.3416 -0.01402,-0.40428 -0.0127,-0.7915 0.0082,-1.14618 2.7e-5,0 -5.3e-5,0 0,-0.003 0.128429,-0.97425 0.501333,-2.03975 0.903817,-2.19419 0.466593,-0.17904 0.496305,-0.44833 0.125571,-1.14101 -0.266991,-0.49879 -0.367189,-1.64391 -0.222726,-2.54455 0.144462,-0.90057 0.352928,-2.50794 0.463021,-3.57188 0.203755,-1.96905 2.198343,-5.9464 2.982251,-5.9464 0.237225,0 0.431482,-0.32885 0.431482,-0.7307 0,-0.59838 -0.122184,-0.62916 -0.675402,-0.17002 -0.553243,0.45915 -0.675402,0.42841 -0.675402,-0.17 0,-0.40182 0.225452,-0.73072 0.501254,-0.73072 0.173249,0 0.270986,-0.14068 0.296624,-0.41029 0.0631,-0.18931 0.102843,-0.4272 0.102843,-0.68887 0,-0.54938 -0.168063,-1.10744 -0.384492,-1.32033 -0.39661,-2.70592 0.18071,-4.60745 1.536356,-5.10511 0.25564,-0.0761 0.532791,-0.11885 0.828384,-0.12713 1.600544,0.0358 3.788489,1.40544 4.337182,2.73008 0.300593,0.72567 0.798328,1.31929 1.106408,1.31929 0.282919,0 0.934959,0.32896 1.507914,0.75086 0,0 0.0026,0.003 0.0032,0.003 0.365204,0.32758 0.791712,0.75758 1.247484,1.25262 0,0 0.0026,0.003 0.0037,0.004 1.588717,1.88526 3.774969,5.1708 3.774969,5.86216 0,0.35145 0.282469,0.80084 0.628385,0.99891 0.975096,0.55832 2.326535,3.20397 3.403918,6.66472 1.36226,4.37581 2.321057,6.52981 2.907321,6.52981 0.27432,0 0.761524,0.42069 1.082622,0.93485 0.460058,0.73663 0.718053,0.82421 1.214914,0.41185 0.346816,-0.28781 0.820526,-0.40597 1.052645,-0.26252 0.06181,0.0382 0.120861,0.0518 0.177773,0.0444 0.05691,-0.007 0.111469,-0.0356 0.162269,-0.0811 0.249185,-0.22341 0.414867,-0.86225 0.424259,-1.48156 0.01852,-0.12271 0.01641,-0.24074 -0.01243,-0.34777 -0.0308,-0.34319 -0.116761,-0.65352 -0.276463,-0.84595 -0.418042,-0.50371 -0.359198,-0.83148 0.275431,-1.53273 0.794015,-0.87741 0.771975,-0.89244 -1.312069,-0.89244 -1.992577,0 -2.157888,-0.0933 -2.771404,-1.56168 -0.30443,-0.7286 -0.564145,-1.60072 -0.640795,-2.11923 -0.0069,-0.0574 -0.01243,-0.11083 -0.01243,-0.15401 0,-0.0633 -0.01243,-0.1492 -0.03101,-0.24442 -0.0079,-0.0492 -0.02117,-0.10438 -0.03567,-0.16331 -0.02037,-0.0835 -0.04622,-0.17462 -0.07803,-0.2749 -0.02487,-0.0789 -0.05077,-0.15901 -0.08215,-0.24651 -0.02487,-0.0714 -0.05636,-0.14835 -0.08424,-0.22323 -0.02117,-0.0548 -0.04212,-0.10895 -0.06511,-0.16589 -0.136128,-0.34761 -0.291756,-0.71139 -0.468709,-1.0604 -0.464767,-0.91683 -1.462908,-2.90528 -2.21795,-4.41886 -0.457755,-0.91765 -0.861165,-1.60562 -1.297066,-2.16471 -0.296413,-0.40913 -0.59989,-0.72224 -0.935885,-0.9705 -0.336788,-0.28156 -0.710591,-0.53736 -1.147206,-0.79322 -0.762926,-0.44712 -1.265794,-0.75993 -1.656742,-1.14204 -0.367797,-0.44622 -0.699691,-0.9851 -1.011317,-1.63505 -0.217434,-0.51739 -0.452861,-1.16837 -0.755491,-2.02573 -0.281464,-0.79727 -0.537871,-1.31617 -0.815472,-1.63192 -0.04019,-0.0476 -0.08041,-0.0914 -0.121947,-0.12973 -0.01693,-0.0151 -0.03447,-0.0301 -0.05167,-0.0439 -0.186267,-0.15295 -0.388541,-0.22116 -0.622697,-0.22116 -0.605314,0 -1.166733,-0.58418 -1.7322,-1.80144 -0.460217,-0.99074 -1.350407,-2.34646 -1.978184,-3.01326 -0.721201,-0.76608 -1.056746,-1.53726 -0.91104,-2.09445 0.0079,-0.0323 0.01455,-0.0651 0.01852,-0.0987 0.107024,-0.60282 -0.255085,-1.17959 -1.031981,-1.70688 -0.588883,-0.48995 -1.338765,-0.87452 -2.011257,-0.95086 -0.885878,-0.31136 -1.945666,-0.59176 -3.171375,-0.83301 -0.922787,-0.30406 -2.279703,-0.53433 -3.240114,-0.53433 -0.09681,0 -0.177562,-0.004 -0.267176,-0.006 -1.042035,-0.14396 -1.704896,-0.31258 -2.254647,-0.64026 -0.307437,-0.22785 -0.631472,-0.53173 -1.025966,-0.93794 -0.37129,-0.38235 -0.708554,-0.78325 -0.975122,-1.14361 -0.299614,-0.43029 -0.503476,-0.80129 -0.548296,-1.01026 -0.004,-0.029 -0.0077,-0.0585 -0.0087,-0.0863 0.03239,-0.42315 0.42029,-0.93567 1.003538,-1.40869 0.355441,-0.28549 0.77507,-0.55886 1.236636,-0.78343 0.0871,-0.0424 0.175313,-0.0832 0.264583,-0.12195 0.0026,0 0.0032,0 0.0053,-0.003 0.0917,-0.0398 0.184547,-0.0777 0.278024,-0.11319 0.136419,-0.0519 0.266727,-0.11787 0.394282,-0.19068 0,0 0,0 0,0 0.707972,-0.26263 1.279208,-0.99942 1.680501,-1.99729 0,0 0,-0.003 0.0026,-0.003 1.091334,-2.36817 1.085434,-6.02757 -0.381892,-8.66512 -0.07649,-0.13759 -0.154464,-0.26911 -0.233072,-0.39688 -0.543481,-0.88352 -1.143317,-1.53315 -1.862931,-1.99419 -0.917364,-0.6155 -2.045441,-0.98653 -3.518138,-1.19012 -1.411817,-0.19516 -1.801072,-0.44175 -1.801442,-1.14205 0,-0.62648 -0.262679,-0.96139 -0.624232,-1.0237 -0.05101,-0.0279 -0.105463,-0.0436 -0.162269,-0.0486 -0.0494,-0.0122 -0.10025,-0.0183 -0.152955,-0.0156 z"
       id="path7855" />
  </g>
</svg>
