<?xml version="1.0" encoding="UTF-8" standalone="no"?>
<!-- Created with Inkscape (http://www.inkscape.org/) -->

<svg
   xmlns:dc="http://purl.org/dc/elements/1.1/"
   xmlns:cc="http://creativecommons.org/ns#"
   xmlns:rdf="http://www.w3.org/1999/02/22-rdf-syntax-ns#"
   xmlns:svg="http://www.w3.org/2000/svg"
   xmlns="http://www.w3.org/2000/svg"
   xmlns:sodipodi="http://sodipodi.sourceforge.net/DTD/sodipodi-0.dtd"
   xmlns:inkscape="http://www.inkscape.org/namespaces/inkscape"
   width="140.91418mm"
   height="126.61346mm"
   viewBox="0 0 140.91418 126.61346"
   version="1.1"
   id="svg2474"
   inkscape:version="0.92.5 (2060ec1f9f, 2020-04-08)"
   sodipodi:docname="MonsterBody1.svg">
  <defs
     id="defs2468" />
  <sodipodi:namedview
     id="base"
     pagecolor="#ffffff"
     bordercolor="#666666"
     borderopacity="1.0"
     inkscape:pageopacity="0.0"
     inkscape:pageshadow="2"
     inkscape:zoom="0.35"
     inkscape:cx="17.723104"
     inkscape:cy="107.84095"
     inkscape:document-units="mm"
     inkscape:current-layer="layer1"
     showgrid="false"
     inkscape:window-width="1920"
     inkscape:window-height="1055"
     inkscape:window-x="0"
     inkscape:window-y="0"
     inkscape:window-maximized="1" />
  <metadata
     id="metadata2471">
    <rdf:RDF>
      <cc:Work
         rdf:about="">
        <dc:format>image/svg+xml</dc:format>
        <dc:type
           rdf:resource="http://purl.org/dc/dcmitype/StillImage" />
        <dc:title></dc:title>
      </cc:Work>
    </rdf:RDF>
  </metadata>
  <g
     inkscape:label="Layer 1"
     inkscape:groupmode="layer"
     id="layer1"
     transform="translate(31.147571,-50.752793)">
    <path
       style="fill:#000000;stroke-width:0.26458332"
       d="m 30.462338,50.753974 c -8.825108,0.0288 -13.77165,0.67178 -18.706348,2.31923 -4.9851602,1.664279 -9.2729502,4.28506 -12.33413219,7.53907 -2.67290001,2.841299 -4.52879901,6.127529 -5.69474901,10.084139 l -0.68522,2.32545 0.2961,5.423961 c 0.162779,2.983151 0.41012,7.38849 0.549839,9.789581 0.139721,2.401088 0.612711,11.03313 1.05058,19.182285 0.43786,8.14917 0.914531,16.6506 1.059371,18.89239 0.144831,2.24176 0.263031,5.01227 0.263031,6.15672 v 2.081 l -2.579692,3.94965 c -1.41883,2.17241 -3.285229,5.05739 -4.1475488,6.41096 -4.79319,7.52385 -10.511581,12.76294 -17.281631,15.83264 -2.96718,1.34538 -3.78462,2.47576 -3.24373,4.48447 0.36479,1.35472 1.31164,2.00324 3.88762,2.66237 5.74876,1.47098 12.47007,0.75706 18.0464398,-1.91666 2.33196,-1.11813 3.040851,-1.6174 4.655012,-3.27941 0.504737,-0.51969 0.974418,-0.98816 1.339458,-1.33995 0.380881,-0.3025 0.680342,-0.49382 0.820621,-0.5116 0.28388,0.55835 0.226449,3.36666 -0.170532,7.92612 -0.275817,3.16794 -0.445968,5.90431 -0.378269,6.08076 0.171169,0.44606 2.98824101,1.96006 4.237461,2.2774 0.31143,0.0791 1.018241,0.12697 1.936318,0.15089 1.676083,0.13624 4.05942,0.0932 7.0553822,-0.13229 1.93801,-0.0988 3.653621,-0.23834 4.44056,-0.40412 1.88645,-0.39738 3.64026,-1.26212 4.51135,-2.22467 0.0613,-0.0677 0.1139,-0.13139 0.1602,-0.19534 l 0.272849,-0.22633 -0.046,-0.48474 c 0.0308,-0.463 -0.0313,-1.20185 -0.16433,-2.57297 -0.333232,-3.43355 -0.133522,-4.47032 1.0976,-5.70145 0.954058,-0.95406 1.779609,-1.37692 4.45865,-1.55959 h 7.340118 7.152532 c 0.901488,0.0431 1.551659,0.0942 1.820558,0.15192 1.608,0.34486 2.84162,1.13819 3.681431,2.36781 0.612291,0.89652 0.623639,1.01415 0.449069,4.65191 l -0.179318,3.73208 0.007,0.005 -0.004,0.0408 0.333309,0.22016 0.71882,0.56947 c 1.52029,1.20409 2.225929,1.57368 4.908751,1.7291 0.648859,0.0553 1.389819,0.0798 2.26808,0.0801 0.36359,0.009 0.698579,0.018 1.114139,0.0258 3.019711,0.0573 6.018681,-0.0246 7.14375,-0.19484 2.097331,-0.31737 4.78377,-1.47611 5.71128,-2.4634 l 0.259421,-0.27596 0.176729,-0.14005 -0.004,-0.0444 0.14573,-0.15505 -0.492998,-5.57122 c -0.479261,-5.41682 -0.47956,-5.81814 -0.01029,-14.503 0.265419,-4.91266 0.5485,-8.99761 0.628899,-9.07799 0.0804,-0.0804 1.570641,0.008 3.311431,0.19637 4.12752,0.44702 8.32784,0.24151 10.61227,-0.51885 2.29754,-0.76472 5.12496,-2.72732 6.64663,-4.61367 0.67874,-0.84143 1.83102,-2.73888 2.56005,-4.21679 1.27241,-2.57951 2.01642,-4.76422 5.60172,-16.4455 4.132941,-13.46554 5.277501,-16.45687 7.604711,-19.87632 1.09044,-1.602208 3.466,-4.010549 4.50412,-4.566119 0.23053,-0.12338 0.36807,-0.24117 0.45372,-0.506949 l 0.13436,-0.0987 v -2.333202 -0.032 -2.592091 l -0.99219,-0.27491 c -1.97022,-0.546068 -5.54072,-0.873919 -8.00365,-0.734848 -6.163901,0.348088 -11.839021,3.572478 -14.247201,8.094609 -1.00448,1.886241 -1.62346,3.572381 -2.81688,7.67445 -0.52399,1.8011 -1.26023,3.88469 -1.63607,4.63021 -0.99036,1.96448 -3.0256,4.42219 -4.72478,5.70508 -2.03923,1.53963 -5.22782,3.01357 -6.57376,3.03858 l -1.01802,0.0186 c -0.0142,-0.17293 -0.02,-0.46252 -0.0165,-0.88159 l 0.0109,-0.17519 c 0.0362,-0.58208 0.18727,-3.49911 0.33589,-6.48229 0.14862,-2.98317 0.38766,-7.56708 0.53072,-10.186449 0.14306,-2.61938 0.37668,-6.90563 0.51935,-9.525 0.4939,-9.067829 0.71765,-13.43134 0.73122,-15.81661 l 0.077,-1.45108 -0.13849,-0.43873 c -0.0532,-0.5605 -0.13883,-0.94446 -0.25477,-1.34358 -2.69111,-9.2642 -10.414529,-16.0396 -21.406979,-18.778699 -4.8226,-1.20171 -7.75266,-1.50339 -15.649692,-1.61282 -1.430308,-0.0198 -2.770029,-0.0284 -4.03076,-0.0243 z"
       id="path6577"
       inkscape:connector-curvature="0" />
  </g>
</svg>
