<?xml version="1.0" encoding="UTF-8" standalone="no"?>
<!-- Created with Inkscape (http://www.inkscape.org/) -->

<svg
   xmlns:dc="http://purl.org/dc/elements/1.1/"
   xmlns:cc="http://creativecommons.org/ns#"
   xmlns:rdf="http://www.w3.org/1999/02/22-rdf-syntax-ns#"
   xmlns:svg="http://www.w3.org/2000/svg"
   xmlns="http://www.w3.org/2000/svg"
   xmlns:sodipodi="http://sodipodi.sourceforge.net/DTD/sodipodi-0.dtd"
   xmlns:inkscape="http://www.inkscape.org/namespaces/inkscape"
   width="109.74388mm"
   height="125.1919mm"
   viewBox="0 0 109.74388 125.1919"
   version="1.1"
   id="svg6851"
   inkscape:version="0.92.5 (2060ec1f9f, 2020-04-08)"
   sodipodi:docname="MonsterBody4.svg">
  <defs
     id="defs6845" />
  <sodipodi:namedview
     id="base"
     pagecolor="#ffffff"
     bordercolor="#666666"
     borderopacity="1.0"
     inkscape:pageopacity="0.0"
     inkscape:pageshadow="2"
     inkscape:zoom="0.35"
     inkscape:cx="-881.18075"
     inkscape:cy="-266.27411"
     inkscape:document-units="mm"
     inkscape:current-layer="layer1"
     showgrid="false"
     inkscape:window-width="1920"
     inkscape:window-height="1055"
     inkscape:window-x="0"
     inkscape:window-y="0"
     inkscape:window-maximized="1" />
  <metadata
     id="metadata6848">
    <rdf:RDF>
      <cc:Work
         rdf:about="">
        <dc:format>image/svg+xml</dc:format>
        <dc:type
           rdf:resource="http://purl.org/dc/dcmitype/StillImage" />
        <dc:title></dc:title>
      </cc:Work>
    </rdf:RDF>
  </metadata>
  <g
     inkscape:label="Layer 1"
     inkscape:groupmode="layer"
     id="layer1"
     transform="translate(-206.68741,46.810263)">
    <path
       inkscape:connector-curvature="0"
       style="fill:#000000;stroke-width:0.55727315"
       d="m 259.5455,-46.809252 c -0.76388,0.01561 -1.52487,0.101891 -2.30994,0.256328 -0.21389,0.02434 -0.4213,0.05601 -0.62683,0.09197 -0.51996,0.06493 -0.92972,0.151739 -1.17202,0.259424 -0.15613,0.04363 -0.29266,0.08872 -0.39222,0.135917 -0.0198,0.0093 -0.0345,0.0164 -0.0543,0.02593 -0.92046,0.315833 -1.96056,0.785098 -3.38944,1.475898 l -0.0175,0.0087 c -0.0209,0.0098 -0.0404,0.01799 -0.0615,0.02789 -4.66297,2.172388 -8.36107,5.340668 -11.65148,9.982334 -6.48709,9.151143 -9.8374,19.539903 -10.9523,33.96278968 -0.14494,1.87478502 -0.28805,3.55907002 -0.44029,5.08238202 0,0.0056 8e-5,0.01191 -0.003,0.01746 -1.6e-4,0.0026 0,0.0032 0,0.0048 -0.83921,8.3839583 -1.94969,11.8587303 -5.07207,15.0590253 -0.71104,0.632698 -1.38787,1.248119 -2.0438,1.852612 -0.32686,0.269478 -0.66492,0.541655 -1.02473,0.822166 -4.92162,3.836935 -8.92429,8.934821 -11.28045,14.080279 -0.83011,1.71569 -1.42778,3.424502 -1.83918,5.190887 -0.17436,0.748691 -0.29255,1.547971 -0.36277,2.364713 -0.0298,0.272733 -0.0551,0.543798 -0.0723,0.812879 -0.19442,3.029189 -0.12862,4.102868 0.67077,5.958814 0.1687,0.556551 0.36602,1.067541 0.59428,1.508945 0.41442,0.80137 0.99959,1.624011 1.73373,2.453081 2.23909,2.76474 5.77705,5.27793 10.81382,7.69771 2.60527,1.25164 4.92127,2.55561 5.14646,2.8975 0.0282,0.0427 0.0555,0.11719 0.0822,0.21963 0.0262,0.10041 0.0517,0.22942 0.076,0.38034 0.004,0.0272 0.008,0.0634 0.0124,0.092 0.008,0.0516 0.0153,0.11322 0.0228,0.16952 l 0.0956,2.83496 c 0.031,0.91765 0.0807,1.82393 0.13589,2.65461 0.0238,2.46394 0.14258,3.36839 0.76533,4.21836 0.37955,0.81013 0.92051,1.36875 1.6645,1.77972 0.14517,0.10298 0.29829,0.19074 0.45836,0.26562 0.14695,0.072 0.29763,0.13636 0.45683,0.18449 0.0427,0.013 0.0847,0.022 0.12713,0.0336 0.45308,0.20654 0.89078,0.32761 1.26659,0.32761 0.45733,0 1.00481,-0.1724 1.56218,-0.47077 0.14536,-0.0291 0.28707,-0.0589 0.39066,-0.0925 0.38912,-0.0262 0.5756,-0.15925 0.4155,-0.31935 -0.008,-0.008 -0.0151,-0.019 -0.0212,-0.0294 0.0307,-0.0413 0.0769,-0.10052 0.11885,-0.15452 0.22077,-0.17248 0.43754,-0.35795 0.64182,-0.56224 1.23836,-1.23835 1.56298,-1.91897 1.6242,-3.84318 0.0522,-0.43783 0.0926,-0.9168 0.11936,-1.46915 l 0.1075,-2.22364 c 0.14742,-0.57859 0.39229,-0.92823 0.79787,-1.11053 l 2.56056,0.11835 c 0.62127,0.0288 1.15785,0.0695 1.63402,0.12401 2.71769,0.51776 3.14452,1.17602 3.14452,3.47006 0,0.36272 0.0352,0.73179 0.0972,1.10072 0.25336,1.85034 0.992,3.30486 2.08669,4.19095 0.4913,0.48823 1.02692,0.83952 1.5694,0.97565 0.21899,0.055 0.43431,0.094 0.64595,0.12041 0.50091,0.13459 0.9784,0.11769 1.46399,-0.0517 0.70266,-0.14748 1.34149,-0.47533 1.8986,-0.96944 0.50985,-0.41158 0.93133,-0.9639 1.26299,-1.66915 0.4128,-0.79549 0.7239,-1.75072 0.91157,-2.85202 l 0.35398,-2.07843 c 0.22707,-0.13113 0.52467,-0.22821 0.89864,-0.30179 l 6.76962,-0.13798 0.10285,-0.003 c 0.0347,0 0.0575,-6e-5 0.0925,0.003 l 6.42646,0.12867 c 0.53369,0.11515 0.89165,0.28366 1.12967,0.52866 l 0.21032,1.29397 c 0.076,0.46723 0.16851,0.90123 0.27027,1.3162 v 0.0413 c 0,0.84812 0.32581,1.69439 0.97821,2.54921 0.38317,0.66714 0.83307,1.1876 1.34774,1.55649 -0.0607,0.12591 0.10282,0.22561 0.41082,0.25476 0.11861,0.063 0.2408,0.11814 0.36536,0.16693 0.53258,0.29657 1.03148,0.3425 1.70582,0.23614 0.13825,-0.0103 0.27861,-0.0266 0.4217,-0.0496 0.0332,-0.005 0.0668,-0.0116 0.10025,-0.0175 0.0687,-0.0114 0.13679,-0.0241 0.20412,-0.0393 0.003,0 0.007,-0.003 0.0103,-0.003 0.0132,-0.003 0.0254,-0.007 0.0388,-0.0103 0.0596,-0.0145 0.1192,-0.0295 0.17778,-0.047 0.52623,-0.10309 0.96543,-0.26869 1.1498,-0.46199 1.6474,-0.93419 2.56418,-2.82173 2.56418,-5.39398 0,-0.34579 0.009,-0.65384 0.0269,-0.93896 0.028,-0.35774 0.0785,-0.70167 0.14676,-1.01285 0.39071,-1.46756 1.59594,-1.82975 5.06169,-2.23708 l 2.41692,-0.28421 c 0.009,0.005 0.0214,0.009 0.0294,0.014 0.21534,0.14057 0.48379,1.2115 0.67749,2.59363 v 0.55605 c 0,0.9226 0.099,1.78366 0.278,2.56987 0.15211,1.14184 0.39508,1.77168 0.92141,2.40141 0.86998,1.49215 2.13103,2.37964 3.50676,2.41329 0.53822,0.0714 1.06627,-0.0441 1.63917,-0.34676 0.0659,-0.0193 0.1283,-0.0384 0.18294,-0.0574 0.59785,-0.1514 0.78758,-0.22294 0.51882,-0.36999 0.0415,-0.029 0.0832,-0.0546 0.12454,-0.0853 0.4328,-0.32123 0.80333,-0.64434 1.12088,-0.99012 0.86196,-0.80418 1.21359,-1.34205 1.39938,-2.87632 0.23678,-1.12241 0.32726,-2.53708 0.33073,-4.43124 l 0.003,-1.52135 0.11782,-2.69182 c 0.009,-0.0138 0.0177,-0.0307 0.0269,-0.0429 0.15695,-0.20714 0.67141,-0.581 1.38956,-1.03404 l 3.62562,-1.80197 c 6.13793,-3.0502 10.44818,-6.65549 12.14397,-10.158545 0.44347,-0.916093 0.73872,-1.890156 0.89194,-2.91248 0.11798,-0.525436 0.18346,-1.043887 0.18706,-1.550829 0.003,-0.367215 -0.0416,-0.806529 -0.11835,-1.288812 -0.24601,-2.791486 -1.37729,-5.841497 -3.32486,-9.004088 -0.0391,-0.06842 -0.0775,-0.140229 -0.11679,-0.207222 -0.15327,-0.26154 -0.36083,-0.567266 -0.59272,-0.891936 -2.63485,-3.934328 -6.49004,-8.011584 -11.42825,-11.953796 -2.36442,-1.887511 -4.08368,-3.805555 -4.92527,-5.493729 -0.57248,-1.148398 -1.10106,-1.90328 -1.603,-2.288752 -0.13275,-0.142134 -0.25189,-0.243152 -0.34624,-0.284215 -1.37086,-2.49391 -2.80347,-5.322755 -3.00807,-5.727806 l -0.006,-0.143669 c 0.073,-0.1743603 0.12935,-0.3829313 0.19325,-0.6376723 0.20354,-0.811027 0.22643,-4.509796 0.0507,-8.219652 -0.261,-5.507726 -1.01872,-10.745576 -2.20506,-15.6012357 -1.16379,-5.108416 -2.89885,-9.805486 -5.22448,-14.16918 -4.82018,-9.243113 -11.66125,-15.645686 -19.65616,-17.686258 -1.67257,-0.426905 -3.13227,-0.638889 -4.57751,-0.609256 z"
       id="path7165" />
  </g>
</svg>
