<?xml version="1.0" encoding="UTF-8" standalone="no"?>
<!-- Created with Inkscape (http://www.inkscape.org/) -->

<svg
   xmlns:dc="http://purl.org/dc/elements/1.1/"
   xmlns:cc="http://creativecommons.org/ns#"
   xmlns:rdf="http://www.w3.org/1999/02/22-rdf-syntax-ns#"
   xmlns:svg="http://www.w3.org/2000/svg"
   xmlns="http://www.w3.org/2000/svg"
   xmlns:sodipodi="http://sodipodi.sourceforge.net/DTD/sodipodi-0.dtd"
   xmlns:inkscape="http://www.inkscape.org/namespaces/inkscape"
   width="138.80586mm"
   height="131.59953mm"
   viewBox="0 0 138.80586 131.59953"
   version="1.1"
   id="svg9760"
   inkscape:version="0.92.5 (2060ec1f9f, 2020-04-08)"
   sodipodi:docname="VampireBody.svg">
  <defs
     id="defs9754" />
  <sodipodi:namedview
     id="base"
     pagecolor="#ffffff"
     bordercolor="#666666"
     borderopacity="1.0"
     inkscape:pageopacity="0.0"
     inkscape:pageshadow="2"
     inkscape:zoom="0.35"
     inkscape:cx="-160.54619"
     inkscape:cy="222.97726"
     inkscape:document-units="mm"
     inkscape:current-layer="layer1"
     showgrid="false"
     inkscape:window-width="1920"
     inkscape:window-height="1055"
     inkscape:window-x="0"
     inkscape:window-y="0"
     inkscape:window-maximized="1" />
  <metadata
     id="metadata9757">
    <rdf:RDF>
      <cc:Work
         rdf:about="">
        <dc:format>image/svg+xml</dc:format>
        <dc:type
           rdf:resource="http://purl.org/dc/dcmitype/StillImage" />
        <dc:title></dc:title>
      </cc:Work>
    </rdf:RDF>
  </metadata>
  <g
     inkscape:label="Layer 1"
     inkscape:groupmode="layer"
     id="layer1"
     transform="translate(-16.019512,-76.229862)">
    <path
       inkscape:connector-curvature="0"
       style="fill:#000000;stroke-width:0.23191303"
       d="m 140.44941,76.232006 c -2.31771,-0.02196 -3.44934,0.117237 -7.31325,0.767397 -4.3354,0.729483 -5.28757,0.973296 -8.11682,2.077905 -2.24795,0.87765 -4.0967,1.811788 -6.18929,3.127455 -1.64107,1.031795 -3.06801,1.823482 -3.17138,1.759585 -0.49667,-0.30697 0.31359,-4.317736 1.17874,-5.834804 0.35828,-0.628279 0.37278,-0.779515 0.0966,-1.008723 -0.49641,-0.411983 -1.67315,0.430582 -3.25716,2.332169 -1.56768,1.881982 -2.91059,4.989063 -3.42098,7.915804 -0.28085,1.610519 -0.45973,1.985566 -1.93373,4.058153 -1.26579,1.779826 -4.36131,7.089934 -5.86063,10.053133 -0.11244,0.22225 -0.66983,0.39712 -1.54357,0.48472 -1.73337,0.17375 -2.726676,0.55248 -4.017327,1.53117 -0.560501,0.425 -1.054068,0.66177 -1.204576,0.58549 -0.01392,-0.0124 -0.02801,-0.0254 -0.04186,-0.0398 -0.135334,-0.20058 -0.658201,-1.7377 -1.192659,-3.51401 -1.356111,-4.50707 -3.449685,-9.533439 -4.626075,-11.107313 l -0.459404,-0.614945 c -0.0079,-0.01005 -0.01659,-0.02275 -0.02429,-0.03257 l -0.469223,-0.627856 -0.116274,3.826642 -0.108003,3.567218 c -0.124346,0.109908 -0.294595,0.177562 -0.509013,0.222727 l -0.194821,-0.01455 c -0.382659,-0.0282 -1.478351,-0.05117 -2.434992,-0.05117 -0.95664,0 -2.052333,0.02302 -2.434992,0.05117 l -0.18552,0.01349 c -0.215107,-0.04424 -0.385723,-0.110701 -0.512112,-0.217037 l -0.02894,-3.409633 c -0.01701,-2.015305 -0.08576,-3.719221 -0.152961,-3.78632 -0.315791,-0.315806 -2.071407,2.661021 -3.239595,5.4932 -1.197092,2.902215 -3.185854,8.894977 -3.185854,9.599427 0,0.16618 -0.141451,0.41939 -0.314192,0.56274 -0.24233,0.20111 -0.547169,0.0867 -1.33377,-0.50075 -1.43859,-1.07442 -2.198899,-1.37414 -3.893818,-1.53426 -0.97521,-0.0921 -1.543906,-0.25911 -1.659846,-0.48781 -1.501939,-2.963126 -4.595789,-8.277494 -5.86476,-10.074333 -1.46898,-2.080074 -1.657842,-2.476791 -1.933731,-4.058682 -0.385664,-2.211255 -1.201669,-4.416107 -2.274797,-6.229058 -0.0089,-0.01587 -0.01841,-0.0313 -0.02739,-0.04704 -0.02952,-0.04948 -0.05899,-0.09893 -0.08889,-0.147797 -0.07813,-0.131259 -0.160271,-0.261461 -0.244946,-0.388593 -0.06728,-0.102738 -0.136212,-0.201718 -0.205155,-0.301281 -1.37e-4,-1.85e-4 -2.64e-4,0 -5.29e-4,0 -0.226814,-0.327501 -0.461182,-0.639498 -0.704342,-0.928635 -1.51897,-1.806098 -2.819355,-2.702269 -3.268535,-2.253085 -0.1679,0.167904 -0.104275,0.48252 0.208256,1.029387 0.88343,1.545802 1.715092,5.570617 1.214914,5.879757 -0.09942,0.06144 -1.526861,-0.736124 -3.1719,-1.771994 -4.524901,-2.849351 -8.142044,-4.182957 -14.122653,-5.206921 -4.18044,-0.715724 -5.004483,-0.78785 -8.348842,-0.729165 l -3.710885,0.06511 -3.304709,1.490874 c -1.817611,0.820023 -3.304707,1.576811 -3.304707,1.681559 0,0.104775 0.391393,0.194495 0.869715,0.200501 0.478319,0.0056 1.913432,0.09922 3.188951,0.208254 l 2.302703,0.196876 c 0.01032,0.0032 0.02021,0.0066 0.03049,0.0098 l 2.829285,1.669151 c 2.314289,1.365144 3.201154,2.053008 4.765082,3.696414 1.914152,2.011441 1.925175,2.030333 2.891814,4.897913 0.533702,1.583241 1.082575,3.606139 1.219565,4.495324 0.136988,0.889185 0.292516,1.659864 0.345715,1.713071 0.05319,0.05281 1.036942,0.07646 2.185914,0.05117 l 2.088761,-0.04601 1.615405,1.305348 c 1.05882,0.855504 1.695596,1.55911 1.848464,2.042769 1.050861,3.324836 1.420437,8.282676 0.800986,10.748696 -0.127635,0.50811 -0.200631,0.86781 -0.227377,1.12811 -0.04659,0.20484 -0.0809,0.36491 -0.08165,0.401 -5.29e-4,0.0204 0.04457,0.0363 0.114205,0.0496 0.02122,0.0445 0.04739,0.0809 0.08372,0.10337 0.148379,0.0917 0.968476,0.0827 1.822628,-0.0201 1.41456,-0.17031 1.729766,-0.12276 3.533116,0.53279 1.791705,0.65128 3.431376,1.75491 3.482475,2.33474 -0.0048,0.0442 -0.02432,0.10705 -0.05633,0.1855 -0.139063,0.27879 -0.51157,0.86217 -0.950847,1.47899 -0.556559,0.7815 -2.016842,3.45604 -3.244762,5.94331 -1.227929,2.48727 -2.729122,5.40081 -3.33623,6.47454 l -0.408244,0.72192 c -0.484428,0.758 -0.878779,1.29032 -1.121378,1.46968 l -5.318021,2.99413 c -4.968404,2.79704 -5.741805,3.17548 -6.132444,2.9409 -0.02614,-0.018 -0.05399,-0.038 -0.08216,-0.0579 -0.272976,-0.20487 -1.455076,-1.14869 -2.701644,-2.15803 -1.275062,-1.0324 -2.919431,-2.22088 -3.654042,-2.64117 -0.168886,-0.0966 -0.316634,-0.1801 -0.452686,-0.25374 l -0.482139,-0.32245 -0.225828,0.005 c -0.558755,-0.17897 -1.176488,-0.17701 -2.707846,-0.15346 -2.225051,0.0342 -2.685714,0.11367 -3.787884,0.65421 -0.585541,0.28718 -1.034735,0.59611 -1.115176,0.75396 l -0.04806,0.0259 h 0.0083 l -0.0083,0.005 0.03772,-0.003 c -0.0035,0.0156 -0.0063,0.0307 5.29e-4,0.0419 0.07451,0.12059 1.372508,0.14094 3.061827,0.0475 2.727595,-0.15084 3.637404,-0.076 4.675685,0.72866 0.07987,0.0619 0.160605,0.12766 0.242879,0.19844 1.86e-4,1.3e-4 2.65e-4,0 5.3e-4,0 0.164393,0.14142 0.335242,0.30104 0.519863,0.48058 1.314821,1.27879 0.897732,1.4541 -1.932696,0.81236 -3.37417,-0.76505 -4.263498,-0.63651 -6.746359,0.97358 -1.5069,0.97719 -2.150157,1.55848 -2.629297,2.37609 -0.348911,0.59537 -0.577146,1.14007 -0.506947,1.21026 0.07017,0.0702 0.627449,-0.19166 1.238168,-0.58187 1.823601,-1.1652 4.524743,-2.36524 5.324224,-2.36524 1.07021,0 4.714957,1.36136 4.714957,1.76114 0,0.25593 -0.450988,0.32607 -2.100646,0.32607 -3.245782,0 -3.858771,0.23149 -5.51801,2.08463 -1.3364,1.49265 -1.440651,1.69556 -1.874822,3.64474 -0.390429,1.75252 -0.428516,2.84604 -0.116787,3.04684 0.02172,0.0217 0.04513,0.0367 0.07286,0.0367 0.0045,0 0.01016,-0.003 0.01497,-0.005 0.0091,0 0.01733,0.005 0.02687,0.005 0.280231,0 0.459984,-0.3533 1.259353,-2.47788 0.670923,-1.78321 0.813954,-1.9821 2.053622,-2.85049 1.285002,-0.90019 1.398466,-0.93326 3.177585,-0.93326 1.489789,0 1.845366,0.0669 1.845366,0.34933 0,0.19235 -0.407869,0.51284 -0.905889,0.7121 -0.65129,0.26058 -1.187534,0.76496 -1.910995,1.79575 -0.923139,1.31532 -1.012989,1.5708 -1.090888,3.10679 -0.12537,2.47198 1.05687,6.01361 1.767851,5.29579 0.09255,-0.0935 0.138935,-1.13704 0.102835,-2.31872 -0.06517,-2.13196 -0.0589,-2.16049 0.857311,-3.74963 l 0.923459,-1.60147 2.157492,-0.75498 c 1.208879,-0.42289 2.612872,-0.75338 3.193603,-0.75137 0.9363,0.003 1.154213,0.11996 2.260844,1.21285 l 0.347781,0.34311 0.876951,0.97722 v 1.83348 c 0,1.82049 -0.05203,2.02911 -0.819589,3.27266 -0.45084,0.73043 -0.881981,1.71156 -0.95808,2.18024 l -0.137978,0.85162 h 1.144633 c 1.278972,0 1.839999,-0.33057 3.903638,-2.30013 0.431398,-0.41172 0.713243,-0.70051 0.913638,-0.97822 l 0.328147,-0.31575 0.04651,-0.4594 c 0.06994,-0.23582 0.126902,-0.50919 0.189134,-0.86249 0.222362,-1.26235 0.193228,-1.67452 -0.22634,-3.19463 -0.264962,-0.95999 -0.785588,-2.29179 -1.157036,-2.9595 -0.722231,-1.29828 -0.825688,-1.79641 -0.423746,-2.04486 0.138528,-0.0856 1.521666,-0.45143 3.073196,-0.81235 3.924389,-0.91289 9.552132,-2.6526 10.937832,-3.38169 1.670902,-0.87913 2.961238,-2.19765 4.763019,-4.86637 1.999459,-2.96151 3.846703,-5.18986 4.302061,-5.18986 0.301472,0 0.324916,0.28848 0.165365,2.0288 -0.10232,1.11609 -0.174731,4.95154 -0.161229,8.523 l 0.02429,6.49366 0.955498,3.59461 c 0.525351,1.97707 1.08671,4.04913 1.247471,4.60488 l 0.264583,0.9147 c -0.0053,0.0214 -0.0136,0.042 -0.02016,0.063 l -1.149284,1.01494 c -0.06307,0.0557 -0.112969,0.10141 -0.174665,0.15605 -2.769756,2.31624 -5.08432,4.80668 -6.177401,6.6611 -0.504278,0.8555 -0.847519,1.57834 -1.020093,2.10944 -0.01514,0.0385 -0.02728,0.0741 -0.03979,0.10954 -0.02291,0.0545 -0.03956,0.10371 -0.04754,0.14676 -0.03758,0.13438 -0.05363,0.244 -0.04083,0.32195 -0.01032,0.23386 0.06357,0.3633 0.230992,0.3633 0.123031,0 0.9843,-0.46107 1.913581,-1.02476 0.92928,-0.5637 2.889472,-1.60417 4.356322,-2.31201 2.33326,-1.12591 2.868914,-1.29527 4.277775,-1.35237 l 1.610239,-0.0651 0.530717,0.92761 c 0.292039,0.51019 0.754565,1.60641 1.027326,2.43549 0.272749,0.8291 1.235462,2.9601 2.139921,4.73564 1.280549,2.51381 1.988265,3.59823 3.196704,4.90151 1.629619,1.75755 2.140622,2.49579 1.897041,2.73937 -0.08054,0.0805 -1.166547,0.14676 -2.413288,0.14676 -2.30519,0 -3.210668,0.31404 -1.714108,0.59478 0.453691,0.0855 1.787493,0.0833 2.963645,-0.005 l 1.962153,-0.14676 c 0.112472,0.0329 0.333139,0.24381 0.615984,0.56999 l 0.753441,0.99891 c 1.3252,1.75779 2.956563,4.84201 2.743502,5.18676 -0.07556,0.12226 -0.818354,0.2222 -1.650545,0.2222 -1.108279,0 -1.4869,0.0776 -1.414899,0.2899 0.06679,0.19698 0.649282,0.28991 1.816941,0.28991 h 1.673799 c 0.03339,0.0355 0.06754,0.0775 0.101804,0.11938 l 0.819589,1.70325 c 1.21412,2.52349 1.219081,2.81025 0.05064,2.83755 -1.306549,0.0305 -1.438013,0.0714 -1.043863,0.32607 0.191331,0.12367 0.675495,0.22641 1.075904,0.22842 0.955048,0.005 1.620518,0.60227 1.915129,1.72082 0.03713,0.14097 0.06774,0.26728 0.09147,0.37984 6.9e-5,0 5.29e-4,0 5.29e-4,0 5.29e-4,0.008 0.0016,0.0148 0.0021,0.0228 0.01355,0.29541 0.01762,0.49718 0,0.64905 -0.105691,0.19891 -0.380688,0.24495 -0.895554,0.24495 -0.82855,0 -1.069242,0.31009 -0.430982,0.55502 0.20175,0.0775 0.67487,0.14055 1.051099,0.14055 0.74367,0 0.862598,0.17163 0.955498,1.37511 0.0522,0.67615 -0.02548,0.81942 -0.518316,0.95393 -0.600088,0.16381 -0.556403,0.20545 0.594797,0.56846 0.25319,0.0798 0.340704,0.34237 0.289904,0.86971 -0.06069,0.62974 -0.178811,0.76716 -0.71055,0.82839 -0.572473,0.0658 -0.730059,0.21899 -0.50333,0.39169 l -0.250629,0.0749 0.395325,0.013 c 0.118149,0.0586 0.271356,0.118 0.47439,0.17624 0.6321,0.18126 0.753959,0.3271 0.753959,0.90329 0,0.57713 -0.101978,0.69858 -0.637688,0.76017 -0.780741,0.0898 -0.851689,0.50641 -0.0863,0.50641 0.72396,0 1.123127,0.5112 1.030427,1.31932 -0.06322,0.55142 -0.173087,0.64514 -0.712618,0.60823 -0.473025,-0.0324 -0.666438,0.0672 -0.605131,0.20256 l -0.148312,0.005 0.178803,0.0419 c 0.01468,0.0175 0.03903,0.036 0.06149,0.0543 -0.03846,0.0151 -0.03624,0.0267 0.04909,0.0346 0.121788,0.0819 0.309877,0.16558 0.580326,0.23567 0.666221,0.17264 0.753444,0.28771 0.753444,0.99219 0,0.72538 -0.05721,0.79314 -0.637688,0.75342 -0.5284,-0.0362 -0.637686,0.0506 -0.637686,0.50541 0,0.72472 0.580334,1.27664 1.350304,1.28363 0.341661,0.003 3.334408,0.46238 6.650757,1.0201 v -0.003 c 3.316361,0.55774 6.128641,0.992 6.249231,0.9648 0.120599,-0.0272 0.293473,-0.32789 0.384474,-0.66817 0.134969,-0.5047 0.05369,-0.70046 -0.441833,-1.06143 -0.545291,-0.39722 -0.579263,-0.50427 -0.331764,-1.04749 0.213831,-0.46929 0.446132,-0.60738 1.034563,-0.61338 l 0.758614,-0.008 -0.368975,-0.30179 c -0.02469,-0.0466 -0.07286,-0.0833 -0.133842,-0.10903 l -0.1788,-0.14624 c -0.606579,-0.49583 -0.652526,-0.62063 -0.417545,-1.13638 0.201308,-0.4418 0.473655,-0.59883 1.145662,-0.66093 l 0.22687,-0.0206 c 0.17295,0.0526 0.30695,0.0473 0.30695,-0.0233 0,-0.003 -10e-4,-0.004 -0.002,-0.005 l 0.34882,-0.032 -0.61547,-0.26715 c -0.811018,-0.35176 -0.940161,-0.60203 -0.673342,-1.30378 0.05883,-0.15476 0.130556,-0.27575 0.223242,-0.37053 0.0061,-0.006 0.01188,-0.0124 0.0181,-0.0185 0.16296,-0.15578 0.39008,-0.23495 0.72812,-0.26818 0.29902,-0.0294 0.5241,-0.10874 0.66818,-0.20309 l 0.34726,-0.004 -0.017,-0.007 h 0.017 l -0.031,-0.0103 h 0.031 l -0.21394,-0.0935 c 0.10837,-0.15404 0.003,-0.31578 -0.38705,-0.37362 -0.73498,-0.109 -0.99213,-0.64375 -0.68937,-1.43454 0.0463,-0.12092 0.0875,-0.21386 0.12919,-0.293 0.0982,-0.12666 0.20948,-0.22296 0.32815,-0.2739 0.13738,-0.0217 0.32395,0.003 0.60461,0.0558 0.504,0.0945 0.80771,0.0603 0.80771,-0.091 0,-0.13333 -0.24812,-0.24236 -0.55139,-0.24236 -0.76117,0 -1.12521,-0.51165 -0.9338,-1.31154 0.23415,-0.97848 0.52869,-1.23973 1.39785,-1.23973 0.43081,0 0.78342,-0.10446 0.78342,-0.23202 0,-0.12755 -0.24139,-0.23151 -0.53589,-0.23151 -0.2945,0 -0.71978,-0.13491 -0.94516,-0.29972 -0.35386,-0.25876 -0.38341,-0.48847 -0.21601,-1.68156 l 0.15607,-1.10897 c 0.0677,-0.11091 0.14619,-0.20495 0.23668,-0.28062 l 0.84284,-0.032 c 0.5727,-0.022 1.13205,-0.0484 1.24333,-0.0584 0.56068,-0.0493 -0.46917,-0.69678 -1.20561,-0.75809 l -0.83147,-0.0698 c -0.007,-0.009 -0.0143,-0.018 -0.0212,-0.0274 l -0.0646,-2.84014 c -0.0425,-1.865 0.0255,-2.97577 0.1943,-3.17913 0.19479,-0.23469 0.16732,-0.4431 -0.10904,-0.83767 -0.20239,-0.28895 -0.36793,-0.90834 -0.36793,-1.37615 0,-0.46779 -0.21799,-1.8796 -0.48473,-3.13727 -0.25058,-1.18147 -0.4584,-2.23362 -0.50126,-2.52336 -0.003,-0.0758 -0.007,-0.15375 -0.006,-0.21445 0.0813,-0.19711 0.53609,-0.26492 1.8619,-0.31162 1.85809,-0.0654 2.42442,-0.31922 1.42265,-0.63717 -0.26986,-0.0853 -1.15624,-0.084 -1.9699,0.003 -1.46526,0.15692 -1.48189,0.15219 -1.749771,-0.49763 -0.406318,-0.98565 -0.325673,-7.23384 0.120406,-9.32037 0.299535,-1.40105 0.937045,-2.85507 1.500165,-3.53777 0.0887,-0.0898 0.17931,-0.1709 0.27234,-0.2403 0.0752,-0.0561 0.14101,-0.10366 0.20309,-0.1447 1.14561,-0.38822 4.80904,1.08635 8.06101,3.25149 0.45548,0.30327 0.88553,0.57888 1.21129,0.77878 5.3e-4,2.4e-4 5.3e-4,0 0.001,0 l 0.49454,0.34726 v -0.0661 c 0.03,0.014 0.081,0.0424 0.0904,0.0424 0.27729,0 0.13306,-1.13601 -0.33744,-2.65927 -0.54106,-1.75175 -2.93183,-5.5916 -4.26486,-6.84919 -1.32878,-1.25362 -1.34742,-1.34906 -0.71934,-3.75171 1.31871,-5.0445 1.80744,-11.37087 1.59422,-20.64629 -0.15527,-6.75494 -0.0833,-7.27564 0.85318,-6.17222 2.15549,2.53976 4.49552,5.56114 5.8043,7.49461 1.78967,2.64393 3.08334,3.96261 4.74803,4.83846 1.38569,0.72909 7.01395,2.46891 10.93834,3.38172 1.55154,0.36092 2.93415,0.72676 3.07268,0.81235 0.39097,0.24162 0.30649,0.64006 -0.42426,2.00038 -0.37189,0.69231 -0.90416,2.01631 -1.18287,2.94246 -0.45429,1.50958 -0.47919,1.84179 -0.24081,3.21067 0.0672,0.38613 0.12446,0.67664 0.19533,0.92345 l 0.0351,0.44442 0.33125,0.31575 c 0.22584,0.31089 0.55946,0.63794 1.11621,1.15496 0.5511,0.51178 0.97881,0.89339 1.34462,1.19063 l 0.73535,0.70125 h 0.33022 c 0.41688,0.18322 0.80884,0.22913 1.34669,0.22997 l 1.13223,0.003 -0.13591,-0.8356 c -0.0746,-0.45985 -0.56494,-1.52133 -1.08986,-2.35853 l -0.71933,-1.1472 c -0.10257,-0.20069 -0.17065,-0.36976 -0.22015,-0.5333 l 0.14935,-1.59475 c 0.15524,-1.65669 0.22302,-1.82049 1.23352,-2.97294 0.18342,-0.2092 0.33034,-0.37205 0.46508,-0.51572 0.19916,-0.19921 0.38539,-0.36521 0.56638,-0.49766 0.31172,-0.18872 0.62368,-0.20769 1.23971,-0.20928 1.15741,-0.003 4.64058,1.08003 5.33921,1.65986 0.16361,0.13576 0.6373,0.83489 1.05265,1.55337 0.71004,1.22822 0.75499,1.44026 0.75499,3.54656 0,1.23213 0.0811,2.32145 0.17984,2.42104 0.59317,0.59841 1.79162,-2.75714 1.79162,-5.01624 0,-1.42491 -0.0762,-1.65925 -1.01751,-3.12227 -0.76563,-1.18996 -1.26525,-1.70169 -2.01745,-2.06705 -1.63748,-0.79539 -1.45128,-1.06506 0.73433,-1.06506 1.73085,0 2.01526,0.066 3.00033,0.69813 0.54385,0.34899 0.91397,0.60593 1.20716,0.90178 0.0294,0.03 0.058,0.0608 0.0863,0.0915 0.46014,0.50419 0.73538,1.15171 1.25367,2.54093 0.31352,0.84034 0.5887,1.39861 0.8108,1.70685 0.0649,0.12372 0.11559,0.20569 0.14315,0.22273 0.0257,0.0159 0.0491,0.0222 0.0713,0.0243 0.009,0.004 0.0168,0.003 0.0253,0.004 0.44031,0.26993 0.50899,-0.98187 -0.0393,-3.40961 -0.33893,-1.50082 -0.52936,-1.84811 -1.7632,-3.21686 -0.64523,-0.71577 -1.13001,-1.18649 -1.66243,-1.49809 -0.11515,-0.08 -0.21436,-0.1378 -0.29094,-0.16693 -0.0215,-0.008 -0.0586,-0.0164 -0.0894,-0.0243 -0.75733,-0.32327 -1.68699,-0.39507 -3.29334,-0.40772 -1.76959,-0.014 -2.26084,-0.0877 -2.26084,-0.34055 0,-0.3566 0.10387,-0.40862 2.41742,-1.20872 0.88332,-0.30546 1.93269,-0.55552 2.33164,-0.55552 0.81267,0 4.12237,1.52265 5.35781,2.46497 0.44309,0.33797 0.87798,0.54213 0.96635,0.45373 0.0884,-0.0884 -0.0891,-0.6309 -0.39429,-1.20613 -0.4071,-0.7674 -0.97399,-1.31707 -2.12855,-2.06396 -3.09254,-2.00054 -3.69176,-2.10111 -7.3334,-1.22989 -1.62988,0.38992 -2.21068,0.44857 -2.41536,0.24389 -0.20468,-0.20468 -0.0513,-0.47326 0.6382,-1.1162 1.50923,-1.40721 2.12876,-1.56744 5.34852,-1.3844 1.77392,0.10083 2.72745,0.079 2.94349,-0.0961 l 0.26871,0.0124 -0.0439,-0.0238 0.0439,0.003 -0.22479,-0.11007 c -0.0469,-0.15809 -0.41591,-0.38708 -1.09761,-0.69919 -1.04033,-0.47627 -1.63608,-0.57409 -3.69383,-0.60719 -1.44543,-0.0233 -2.07614,-0.014 -2.62516,0.1478 l -0.24908,-0.006 -0.41961,0.28165 c -0.10888,0.0551 -0.22275,0.1153 -0.34986,0.18446 -0.6544,0.35619 -2.30244,1.54493 -3.6623,2.64171 -0.16297,0.13145 -0.28888,0.23175 -0.44855,0.36018 -1.13248,0.91091 -2.13662,1.71018 -2.39159,1.90275 -0.0437,0.0308 -0.0866,0.062 -0.12557,0.0883 -0.40126,0.2068 -1.22904,-0.20781 -6.10557,-2.95744 l -4.27519,-2.41019 c -0.70388,-0.43069 -1.25867,-0.78264 -1.38648,-0.90279 -0.1123,-0.10556 -0.29385,-0.36073 -0.5023,-0.67593 l -0.67541,-1.19941 c -0.60482,-1.0736 -2.10733,-3.98674 -3.3383,-6.47401 -1.23097,-2.48726 -2.69257,-5.1618 -3.24838,-5.9433 -0.44076,-0.61974 -0.81408,-1.20545 -0.95136,-1.4826 -0.0312,-0.077 -0.05,-0.13877 -0.0548,-0.18243 0.052,-0.57994 1.69179,-1.68312 3.48299,-2.3342 1.80335,-0.65556 2.11804,-0.70311 3.5326,-0.5328 0.85416,0.1029 1.66492,0.11777 1.80196,0.0331 0.17348,-0.10723 0.13471,-0.64047 -0.12816,-1.75545 -0.60318,-2.55839 -0.2308,-7.30438 0.83871,-10.688244 0.15313,-0.484505 0.79153,-1.1888 1.85932,-2.051553 l 1.62678,-1.314133 2.12906,0.08062 2.12959,0.08062 0.36587,-2.087218 c 0.20118,-1.147974 0.76793,-3.222069 1.25935,-4.609015 0.7584,-2.140453 0.95454,-2.55188 2.23966,-3.93827 l 0.52348,-0.550333 c 0.34338,-0.361104 0.65001,-0.670613 0.9462,-0.958083 1.02724,-0.971894 1.98037,-1.640099 3.75739,-2.695972 3.0382,-1.805226 3.06316,-1.812581 7.08432,-2.102194 1.11608,-0.08038 2.02934,-0.229076 2.02934,-0.3302 0,-0.10115 -1.43511,-0.84627 -3.18896,-1.655736 l -3.18895,-1.471745 -3.47886,-0.07699 c -0.39094,-0.0087 -0.74583,-0.01482 -1.07693,-0.01799 z"
       id="path8027" />
  </g>
</svg>
