<?xml version="1.0" encoding="UTF-8" standalone="no"?>
<!-- Created with Inkscape (http://www.inkscape.org/) -->

<svg
   xmlns:dc="http://purl.org/dc/elements/1.1/"
   xmlns:cc="http://creativecommons.org/ns#"
   xmlns:rdf="http://www.w3.org/1999/02/22-rdf-syntax-ns#"
   xmlns:svg="http://www.w3.org/2000/svg"
   xmlns="http://www.w3.org/2000/svg"
   xmlns:sodipodi="http://sodipodi.sourceforge.net/DTD/sodipodi-0.dtd"
   xmlns:inkscape="http://www.inkscape.org/namespaces/inkscape"
   width="109.87717mm"
   height="123.11936mm"
   viewBox="0 0 109.87717 123.11936"
   version="1.1"
   id="svg3576"
   inkscape:version="0.92.5 (2060ec1f9f, 2020-04-08)"
   sodipodi:docname="Wolf.svg">
  <defs
     id="defs3570" />
  <sodipodi:namedview
     id="base"
     pagecolor="#ffffff"
     bordercolor="#666666"
     borderopacity="1.0"
     inkscape:pageopacity="0.0"
     inkscape:pageshadow="2"
     inkscape:zoom="0.35"
     inkscape:cx="230.49903"
     inkscape:cy="89.809366"
     inkscape:document-units="mm"
     inkscape:current-layer="layer1"
     showgrid="false"
     inkscape:window-width="1920"
     inkscape:window-height="1055"
     inkscape:window-x="0"
     inkscape:window-y="0"
     inkscape:window-maximized="1" />
  <metadata
     id="metadata3573">
    <rdf:RDF>
      <cc:Work
         rdf:about="">
        <dc:format>image/svg+xml</dc:format>
        <dc:type
           rdf:resource="http://purl.org/dc/dcmitype/StillImage" />
        <dc:title></dc:title>
      </cc:Work>
    </rdf:RDF>
  </metadata>
  <g
     inkscape:label="Layer 1"
     inkscape:groupmode="layer"
     id="layer1"
     transform="translate(87.444536,-49.476036)">
    <path
       style="fill:#232323;stroke-width:0.54565549"
       d="m -78.222263,49.479378 c -1.71971,0.12059 -3.90305,3.68841 -3.78942,6.69262 0.0139,0.36905 0.009,0.70566 -0.0114,1.01492 -0.109299,0.7706 -0.264819,1.35776 -0.483179,1.77354 -0.5148,0.75708 -1.41703,0.78314 -2.67891,0.0377 -0.85193,-0.50324 -1.6955,-0.9152 -1.87428,-0.9152 -0.46437,0 -0.49787,0.6076 -0.15918,1.67225 0.26578,1.23849 1.32464,3.36478 3.13108,6.2234 1.588541,2.68668 2.386201,4.25177 2.55797,5.61826 -0.0195,0.26472 -0.0485,0.54366 -0.0971,0.85886 -0.10353,0.67151 -0.195369,1.30172 -0.275959,1.89394 -0.102,0.31009 -0.217251,0.63375 -0.352951,0.98909 -0.72771,1.90546 -0.7674,2.72801 -0.23874,4.929409 0.34896,1.45319 0.99338,4.606452 1.43195,7.007331 0.11425,0.62543 0.30343,1.360919 0.53846,2.153359 0.403141,2.531552 0.746041,3.53704 1.31722,4.26588 0.13759,0.175541 0.306391,0.43252 0.49197,0.740011 1.385361,3.3333 3.058741,6.581822 4.212141,7.889442 0.417909,0.4738 0.759649,1.1405 0.759649,1.48157 0,0.34107 0.707491,1.42645 1.571991,2.41226 0.0477,0.0543 0.0977,0.11578 0.14833,0.18034 0.009,0.0114 0.019,0.0245 0.0284,0.0362 0.86757,1.12569 2.12942,3.64731 2.906291,5.83737 0.87157,2.45705 1.85299,4.34059 3.101609,5.95415 0.421901,0.62088 0.807581,1.08712 1.116221,1.32914 3.41495,3.91985 4.484241,7.12584 5.337149,15.83211 0.0456,0.85439 0.14266,1.8954 0.27337,2.96881 0.208071,2.32749 0.375571,4.40013 0.48524,6.15775 0.13425,3.29645 0.15497,6.37424 0.0258,8.59793 -0.105859,1.0064 -0.261069,1.89349 -0.470249,2.72336 -1.332809,5.28706 -3.00236,9.31436 -4.52583,10.91972 -0.46625,0.49133 -0.76904,0.88337 -0.94361,1.27384 -0.27032,0.40851 -0.29932,0.68045 -0.17468,1.10691 0.0157,0.22942 0.0501,0.4745 0.11216,0.75705 l 0.37052,1.68672 h 4.34909 c 2.758569,0 4.916249,-0.29337 5.899891,-0.80201 1.490559,-0.77081 2.76003,-3.18129 2.76003,-5.23999 0,-0.0141 0.005,-0.0335 0.006,-0.0486 0.15086,-0.47051 0.350491,-0.95588 0.572561,-1.41179 0.237651,-0.40304 0.52877,-0.82341 0.84645,-1.20097 1.026141,-1.21949 1.287459,-1.87695 1.08109,-2.86856 -0.0173,-0.0999 -0.0445,-0.20494 -0.0729,-0.31109 -0.007,-0.0275 -0.0105,-0.0527 -0.0186,-0.0806 -0.0307,-0.10647 -0.0561,-0.21839 -0.0837,-0.32814 -0.10935,-0.45733 -0.194292,-0.93059 -0.252712,-1.41438 -0.0501,-0.94782 -0.0806,-1.78014 -0.0847,-2.49391 0.0917,-1.83319 0.517339,-3.57325 1.237638,-4.73874 0.694032,-1.12295 1.09024,-2.39729 0.899692,-2.89386 -0.003,-0.008 -0.005,-0.0216 -0.008,-0.031 -0.006,-0.0571 -0.02029,-0.11409 -0.0305,-0.17106 -0.0755,-0.76702 0.268282,-2.96248 0.830421,-5.20642 0.86881,-3.46792 1.057061,-5.45126 0.80822,-8.51161 -0.178411,-2.19449 -0.374729,-4.8495 -0.436139,-5.8999 l -0.0858,-1.47071 c 0.23654,-0.20447 0.61204,-0.34052 1.32239,-0.42685 l 10.336321,0.0946 c 9.144529,0.0834 12.094081,-0.0649 13.571271,-0.68212 0.0757,-0.0316 0.1632,-0.0618 0.246488,-0.0925 0.393412,-0.0826 0.762712,-0.17388 1.118291,-0.27699 0.31456,-0.0912 0.578831,-0.16026 0.85164,-0.23305 0.64352,-0.11438 1.284341,-0.18605 1.800911,-0.18605 1.016979,0 1.613529,0.0904 2.014349,0.37208 0.134411,0.12383 0.266309,0.26705 0.39841,0.43357 0.0762,0.12317 0.144989,0.26202 0.209291,0.4222 0.407688,1.01544 2.498719,3.62659 4.93614,6.34069 0.4821,0.54208 0.978408,1.08418 1.484659,1.6211 1.862799,1.98996 3.77126,3.87437 5.190379,5.05291 0.965552,0.80187 1.71069002,1.43036 2.30942102,1.97715 0.89942,0.99507 1.57541098,1.82073 2.08668998,2.5523 0.38827,0.75872 0.691541,1.65851 1.10641,2.98016 0.400889,1.2772 0.659969,2.38892 0.786501,3.52899 0.0276,0.28993 0.0463,0.58502 0.0589,0.88418 -0.009,0.7076 -0.0416,1.50911 -0.0977,2.4815 -0.0314,0.54502 -0.0737,1.07974 -0.120939,1.6087 -5e-5,8e-4 -5.29e-4,0.001 -5.29e-4,0.002 -0.0671,0.50305 -0.14751,1.03582 -0.240832,1.6056 -1.32738,8.10553 -2.70937798,10.38299 -6.811978,11.22203 -1.576501,0.32245 -3.65824,2.84113 -2.940902,3.55846 7.94e-4,7.9e-4 0.003,0.001 0.004,0.002 0.003,0.003 0.004,0.006 0.007,0.009 0.01839,0.0185 0.0813,0.0397 0.180869,0.0631 0.009,0.002 0.0226,0.005 0.032,0.007 0.761709,0.18973 3.353779,0.47792 6.30917002,0.69041 3.41452998,0.2455 6.67041798,0.4817 7.23525098,0.52451 0.01511,0.001 0.036,-0.002 0.0522,-0.002 0.0011,2.1e-4 0.01879,0.001 0.02019,0.002 0.0379,0.005 0.09,0.003 0.15399,-0.007 1.91e-4,-3e-5 2.65e-4,0 5.29e-4,0 0.63535,-0.0641 1.7403,-0.49598 2.6293,-1.04543 0.33147,-0.20485 0.683469,-0.37625 1.028348,-0.51418 0.333142,-0.12374 0.65551,-0.22275 0.948772,-0.28991 0.348509,-0.0665 0.650381,-0.0734 0.860431,-0.007 1.73342,0.55017 2.92345,-1.43873 3.14707,-5.26013 0.11289,-1.92865 0.27287,-3.42064 0.49972,-4.62661 0.0569,-0.2912 0.11446,-0.56533 0.17312,-0.82732 0.23724,-0.96983 0.53589,-1.72099 0.91674,-2.34199 0.1534,-0.25014 0.30286,-0.55986 0.44854,-0.90226 2.7e-4,-7.9e-4 5.3e-4,-0.001 0.001,-0.002 0.20804,-0.35459 0.34644,-0.71308 0.36433,-0.96636 0.54769,-1.63203 0.99454,-3.78466 1.22989,-5.82703 0.26905,-1.35745 0.31644,-2.35427 0.15917,-3.61221 -0.0165,-0.32405 -0.0402,-0.63509 -0.0801,-0.91206 -0.11218,-0.77862 -0.1964,-1.35064 -0.25529,-1.85209 0.0134,-1.1058 0.0813,-2.03676 0.21187,-2.86133 0.14116,-0.48754 0.34132,-1.07083 0.60876,-1.81902 0.27262,-0.67479 0.5674,-1.49018 0.83457,-2.31767 l 1.25781,-3.49074 -0.64286,-10.23814 c -0.67249,-10.70893 -0.98917,-12.15668 -4.08813,-18.68879 -1.56504,-3.29887 -2.29643,-4.1626 -5.297353,-6.255427 C 10.4895,96.592695 8.620719,95.206345 8.25108,94.847114 7.881399,94.487874 6.530648,93.833475 5.2497,93.392933 c -2.15011,-0.739468 -3.298251,-1.06076 -9.422691,-2.63756 -0.187751,-0.0483 -0.47715,-0.0928 -0.809231,-0.13539 -1.574929,-0.29061 -3.312948,-0.355029 -6.484879,-0.32195 -0.83434,-0.008 -1.68289,-0.01 -2.527491,0.0021 -8.31982,0.116092 -14.447649,-0.529719 -18.279499,-1.927018 -1.730351,-0.630931 -3.29184,-0.794441 -5.287541,-0.552421 -2.76723,0.335589 -2.930049,0.274849 -7.131339,-2.66908 -2.364819,-1.657069 -4.589341,-3.648501 -4.943369,-4.425569 -0.354071,-0.77706 -1.377,-1.83121 -2.272752,-2.342502 -1.907509,-1.088829 -2.39726,-2.058939 -1.5689,-3.150709 0.032,-0.0422 0.07,-0.0851 0.105942,-0.12764 0.0505,-0.0592 0.100518,-0.11789 0.156578,-0.17983 0.0524,-0.0579 0.0977,-0.11612 0.143142,-0.17415 0.009,-0.0107 0.01799,-0.0219 0.0264,-0.0326 0.01519,-0.02 0.0295,-0.0399 0.0439,-0.0599 0.0626,-0.0821 0.120409,-0.16274 0.170519,-0.24133 0.273399,-0.19324 0.37497,-0.42402 0.28422,-0.70952 5e-5,-3.44e-4 -2.9e-5,-6.88e-4 0,-0.001 0.007,-0.0564 0.004,-0.11181 0.0021,-0.167431 0.077,-0.279219 -0.0304,-0.53174 -0.329189,-0.782389 -0.055,-0.0676 -0.115861,-0.135831 -0.185002,-0.20463 -0.132639,-0.14444 -0.294029,-0.28086 -0.48472,-0.40773 -0.491961,-0.36727 -1.166839,-0.76393 -2.057238,-1.224731 -1.998343,-1.03417 -4.832192,-3.360409 -7.810372,-6.4115 -0.37928,-0.388559 -0.75363,-0.76162 -1.12294,-1.12396 -1.09321,-1.21666 -2.18305,-2.204449 -3.12796,-2.84685 -0.63788,-0.51541 -1.09471,-0.81753 -1.26867,-0.81753 -1.52313,0 -3.67898,-2.194049 -5.90971,-6.013579 -1.206079,-2.065047 -2.412629,-3.890367 -2.681128,-4.056297 -0.21868,-0.13516 -0.455061,-0.18828 -0.70075,-0.17106 z M 9.878828,157.49295 c 5.29e-4,-1.1e-4 0.0011,1.1e-4 0.0021,0 0.02519,0.003 0.0487,0.005 0.0749,0.008 0.041,0.006 0.0772,0.0163 0.11576,0.0243 0.560538,0.30642 0.798557,1.54395 0.53535,3.29904 -0.13721,0.91509 -0.34903,1.73117 -0.594281,2.38538 -0.263101,0.61738 -0.526859,1.07971 -0.777711,1.38131 -0.303368,0.29697 -0.599098,0.31025 -0.83045,-0.0641 -0.35515,-0.57465 -0.175599,-3.14699 0.189122,-4.99349 0.351178,-1.31884 0.745839,-1.93857 1.285718,-2.0407 z"
       id="path2655"
       inkscape:connector-curvature="0" />
  </g>
</svg>
