<?xml version="1.0" encoding="UTF-8" standalone="no"?>
<!-- Created with Inkscape (http://www.inkscape.org/) -->

<svg
   xmlns:dc="http://purl.org/dc/elements/1.1/"
   xmlns:cc="http://creativecommons.org/ns#"
   xmlns:rdf="http://www.w3.org/1999/02/22-rdf-syntax-ns#"
   xmlns:svg="http://www.w3.org/2000/svg"
   xmlns="http://www.w3.org/2000/svg"
   xmlns:sodipodi="http://sodipodi.sourceforge.net/DTD/sodipodi-0.dtd"
   xmlns:inkscape="http://www.inkscape.org/namespaces/inkscape"
   width="28.439327mm"
   height="22.829269mm"
   viewBox="0 0 28.439327 22.829269"
   version="1.1"
   id="svg15772"
   inkscape:version="0.92.5 (2060ec1f9f, 2020-04-08)"
   sodipodi:docname="Eye10.svg">
  <defs
     id="defs15766" />
  <sodipodi:namedview
     id="base"
     pagecolor="#ffffff"
     bordercolor="#666666"
     borderopacity="1.0"
     inkscape:pageopacity="0.0"
     inkscape:pageshadow="2"
     inkscape:zoom="3.959798"
     inkscape:cx="67.096079"
     inkscape:cy="20.086223"
     inkscape:document-units="mm"
     inkscape:current-layer="layer1"
     showgrid="false"
     inkscape:window-width="1920"
     inkscape:window-height="1055"
     inkscape:window-x="0"
     inkscape:window-y="0"
     inkscape:window-maximized="1" />
  <metadata
     id="metadata15769">
    <rdf:RDF>
      <cc:Work
         rdf:about="">
        <dc:format>image/svg+xml</dc:format>
        <dc:type
           rdf:resource="http://purl.org/dc/dcmitype/StillImage" />
        <dc:title></dc:title>
      </cc:Work>
    </rdf:RDF>
  </metadata>
  <g
     inkscape:label="Layer 1"
     inkscape:groupmode="layer"
     id="layer1"
     transform="translate(-203.49465,60.640844)">
    <g
       transform="matrix(3.2374202,0,0,3.2374202,1573.8384,-2471.2862)"
       id="g15753">
      <path
         inkscape:connector-curvature="0"
         id="path15735"
         transform="scale(0.26458333)"
         d="m -1572.166,2814.3125 c -2.2317,0.076 -3.7587,1.2835 -4.0606,2.9785 0.1244,0.3757 0.6971,0.4026 1.6641,-0.1387 2.4557,-1.3743 5.2754,0.4223 5.2754,3.3614 0,2.8938 -2.3737,5.0992 -5.377,6.0273 -0.2086,0.068 -0.4173,0.1373 -0.6308,0.1895 -0.034,0.011 -0.072,0.016 -0.1055,0.023 -0.268,0.062 -0.5372,0.1126 -0.8105,0.1504 h -0.035 c -0.1731,0.026 -0.3471,0.042 -0.5215,0.061 -0.2071,0.019 -0.4128,0.039 -0.6191,0.047 -0.1512,0.011 -0.3017,0.012 -0.4531,0.012 -0.138,0 -0.2752,-0.01 -0.4122,-0.014 -1.7027,-0.073 -3.4002,-0.5541 -4.8398,-1.5625 -1.2366,-0.8661 -2.6041,-1.4269 -3.0391,-1.2481 -2.0047,0.8234 -13.2059,13.6809 -13.6777,15.586 0.3031,0.7631 1.9014,1.1361 3.9434,1.1757 2.6382,-0.1088 6.0948,-0.9143 9.0761,-2.3261 2.75,-1.3023 6.55,-3.996 8.4453,-5.9883 1.8954,-1.9924 3.9724,-3.625 4.6153,-3.625 2.2842,0 6.2961,-4.0701 6.9512,-7.0527 0.8502,-3.8709 -1.6207,-7.3166 -4.3907,-7.6153 -0.3455,-0.038 -0.6776,-0.052 -0.9961,-0.041 z m 0.3281,0.4922 c 1.5671,0.06 3.2472,0.8908 4.1797,3.207 2.1314,5.2944 -4.5036,9.7787 -5.3008,10.3965 -0.8599,0.065 -2.4282,0.6209 -3.9805,1.1602 1.1149,0.6385 -1.2484,0.5088 -7.0351,5.6504 -6.189,5.499 -15.0018,5.0828 -15.2285,4.9101 -0.2268,-0.1727 11.2755,-13.6603 13.0254,-14.9746 -2e-4,0 3.5701,1.696 6.3007,2.9941 5.3384,-0.7041 13.2111,-2.6268 10.586,-10.207 -3.1294,-3.8964 -5.7056,-1.1423 -6.1934,-1.0605 -0.195,-0.956 1.6316,-2.1535 3.6465,-2.0762 z m -0.4707,0.2617 c -1.6003,0.011 -2.9414,0.7913 -2.8711,1.4883 0.1134,-0.052 3.3871,-2.4659 5.8027,1 2.4157,3.4659 0.9509,9.8545 -11.8125,11.084 0,0 -1.0588,0.068 -2.0488,0.1875 -1.5574,-0.7394 -3.416,-1.625 -3.416,-1.625 -1.271,0.9546 -9.6254,10.7533 -9.4609,10.8789 0.1648,0.1255 6.5669,0.426 11.0625,-3.5684 3.115,-2.7677 4.8487,-3.4184 5.0742,-3.5859 6e-4,1e-4 0.8824,-1.1473 1.1269,-1.1133 0.9774,0.1296 4.2168,-1.5403 5.8106,-1.6602 1.611,-1.0718 7.1082,-5.0773 5.164,-9.9062 -0.9719,-2.4145 -2.8313,-3.1861 -4.4316,-3.1797 z"
         style="fill:#000000;stroke-width:0.99999994" />
      <path
         inkscape:connector-curvature="0"
         id="path15738"
         d="m -415.96185,744.85431 c -0.31213,-0.0117 -0.59259,0.10612 -0.72501,0.26095 0.62312,-0.29556 1.11993,-0.23497 1.56424,0.4594 0.44432,0.6944 0.27916,1.96945 -1.64176,2.57918 -0.76449,0.27493 -2.0007,0.31835 -2.28669,0.3886 -0.33446,-0.1605 -0.73793,-0.35449 -0.73793,-0.35449 -0.27924,0.20971 -2.37762,2.61408 -2.34145,2.6417 0.0362,0.0276 1.63544,-0.0702 2.62308,-0.94776 0.67032,-0.59558 1.10297,-0.77166 1.23094,-0.86609 0,0 0.002,10e-4 0.002,10e-4 0,0 0.46111,-0.38317 0.51882,-0.37518 0.2308,0.0306 1.15123,-0.36703 1.52757,-0.39532 0.38039,-0.25307 1.83827,-1.36607 1.37922,-2.50632 -0.25821,-0.64137 -0.71181,-0.87066 -1.1131,-0.88571 z"
         style="fill:#501616;stroke-width:0.21969105" />
    </g>
  </g>
</svg>
