<?xml version="1.0" encoding="UTF-8" standalone="no"?>
<!-- Created with Inkscape (http://www.inkscape.org/) -->

<svg
   xmlns:dc="http://purl.org/dc/elements/1.1/"
   xmlns:cc="http://creativecommons.org/ns#"
   xmlns:rdf="http://www.w3.org/1999/02/22-rdf-syntax-ns#"
   xmlns:svg="http://www.w3.org/2000/svg"
   xmlns="http://www.w3.org/2000/svg"
   xmlns:sodipodi="http://sodipodi.sourceforge.net/DTD/sodipodi-0.dtd"
   xmlns:inkscape="http://www.inkscape.org/namespaces/inkscape"
   width="50.269623mm"
   height="34.311325mm"
   viewBox="0 0 50.269623 34.311325"
   version="1.1"
   id="svg14787"
   inkscape:version="0.92.5 (2060ec1f9f, 2020-04-08)"
   sodipodi:docname="Eye3.svg">
  <defs
     id="defs14781" />
  <sodipodi:namedview
     id="base"
     pagecolor="#ffffff"
     bordercolor="#666666"
     borderopacity="1.0"
     inkscape:pageopacity="0.0"
     inkscape:pageshadow="2"
     inkscape:zoom="0.35"
     inkscape:cx="-76.430861"
     inkscape:cy="-46.588259"
     inkscape:document-units="mm"
     inkscape:current-layer="layer1"
     showgrid="false"
     inkscape:window-width="1920"
     inkscape:window-height="1055"
     inkscape:window-x="0"
     inkscape:window-y="0"
     inkscape:window-maximized="1" />
  <metadata
     id="metadata14784">
    <rdf:RDF>
      <cc:Work
         rdf:about="">
        <dc:format>image/svg+xml</dc:format>
        <dc:type
           rdf:resource="http://purl.org/dc/dcmitype/StillImage" />
        <dc:title></dc:title>
      </cc:Work>
    </rdf:RDF>
  </metadata>
  <g
     inkscape:label="Layer 1"
     inkscape:groupmode="layer"
     id="layer1"
     transform="translate(6.2360015,-102.19553)">
    <path
       inkscape:connector-curvature="0"
       style="fill:#000000;stroke-width:0.50894666"
       d="m 21.385909,102.19739 c -8.509943,0.0265 -12.2499265,0.68918 -17.0532255,3.01945 -6.7958201,3.29687 -10.512917,10.45393 -10.5683472,20.35069 -0.015028,2.68293 0.471461,4.8772 1.4521074,6.57842 0.3096286,0.46154 0.6613869,0.91178 1.0650511,1.35855 0.4130676,0.45726 0.8543397,0.86628 1.3224008,1.22836 1.69955112,1.16231 3.9577222,1.75768 6.7706449,1.77353 2.662674,0.0151 4.586031,-0.33436 7.3799125,-1.34152 3.302765,-1.19063 4.54742,-1.36226 9.885702,-1.36424 3.443957,0 7.101332,0.28156 8.386569,0.64904 1.253551,0.35844 3.59395,0.65218 5.201232,0.65218 3.630526,0 5.811753,-1.23479 7.553029,-4.27572 0.257188,-0.44913 0.459415,-0.82979 0.622184,-1.22214 0.09679,-0.25667 0.185584,-0.52515 0.267684,-0.80462 0.32866,-1.28948 0.362768,-3.13079 0.362768,-7.54113 0,-7.08716 -0.05741,-7.49695 -1.453658,-10.34045 -1.802503,-3.67086 -4.807564,-6.01514 -9.743075,-7.60058 -3.083219,-0.99044 -4.623851,-1.14123 -11.450979,-1.11982 z m -0.222726,1.53479 c 6.216269,-0.0196 7.619407,0.11774 10.426753,1.01958 4.493903,1.44359 7.230067,3.57809 8.871294,6.92049 1.271315,2.58908 1.323432,2.96243 1.323432,9.41546 0,4.01569 -0.03099,5.69214 -0.330213,6.86623 -0.07479,0.25445 -0.155787,0.49908 -0.243911,0.73279 -0.148209,0.35724 -0.332203,0.70363 -0.566375,1.11257 -1.585476,2.76884 -3.571418,3.89332 -6.877098,3.89332 -1.463471,0 -3.594756,-0.26741 -4.736145,-0.59378 -1.170241,-0.33459 -4.500422,-0.59208 -7.636227,-0.59115 -4.860635,0.003 -5.993755,0.15819 -9.001001,1.24229 -2.5438985,0.91705 -4.2950585,1.23532 -6.7194885,1.22164 -2.5612357,-0.0146 -4.6175165,-0.55661 -6.16499828,-1.61489 -0.4261803,-0.32972 -0.82795272,-0.70249 -1.20406062,-1.11881 -0.3675459,-0.4068 -0.687525,-0.81638 -0.9694492,-1.23661 -0.8929026,-1.54901 -1.336085,-3.54696 -1.3224008,-5.98983 0.050469,-9.01123 3.43491092,-15.52823 9.6226679,-18.53012 4.3735215,-2.12174 7.7787135,-2.72502 15.5272205,-2.74918 z m 7.767484,10.88046 c -0.635815,0.0295 -1.269704,0.26189 -1.909961,0.69401 -0.995342,0.48016 -1.708391,1.29936 -2.059305,2.24948 -0.982776,1.92921 -0.337225,4.00953 1.813843,5.20176 4.468537,2.47672 8.546031,-2.69806 5.68389,-6.26062 -0.271899,-0.37436 -0.611126,-0.70279 -1.010274,-0.96581 -0.760505,-0.57655 -1.505072,-0.88572 -2.245342,-0.91882 -0.09092,-0.004 -0.18202,-0.004 -0.272851,0 z m -18.792651,1.3503 c -0.125347,0.003 -0.2507885,0.013 -0.3762065,0.0294 -2.65e-4,3e-5 -7.94e-4,0 -0.0011,0 -2.918421,0.0355 -4.507278,2.68611 -3.864883,5.19195 0.171524,0.94729 0.699749,1.82737 1.563214,2.48409 0.834882,0.75864 1.347171,1.04283 2.104779,1.04283 0.232296,0.0327 0.4608115,0.0106 0.7420745,-0.0661 0.03377,-0.005 0.06229,-0.007 0.09715,-0.013 3.232904,-0.52461 4.991622,-3.5896 3.601847,-6.27713 -0.69165,-1.3375 -1.513025,-2.01591 -2.847371,-2.25774 -0.335476,-0.0947 -0.676712,-0.14224 -1.019575,-0.13436 z m 19.755382,0.49713 c 0.167344,0.009 0.322665,0.0368 0.464571,0.0822 0.513573,0.24133 0.910072,0.94758 0.925008,1.57922 -0.04225,0.19598 -0.122973,0.3969 -0.248563,0.59634 -0.08424,0.1338 -0.176176,0.2516 -0.273884,0.35502 -0.735428,0.34634 -2.111626,0.0884 -2.372981,-0.59272 -0.350859,-0.91432 0.446217,-1.95696 1.505849,-2.02004 z m -19.134749,1.3839 c 0.483883,0 0.850466,0.0853 1.100709,0.25527 0.192222,0.27094 0.3352,0.59876 0.398941,0.92501 -0.0099,0.20058 -0.05287,0.42561 -0.132807,0.6775 -0.336926,1.06156 -1.723303,1.22041 -2.4985565,0.28627 -0.335643,-0.40441 -0.401646,-0.86569 -0.264068,-1.25624 0.176888,-0.50223 0.6897145,-0.88781 1.3957815,-0.88781 z"
       id="path7407" />
  </g>
</svg>
