<?xml version="1.0" encoding="UTF-8" standalone="no"?>
<!-- Created with Inkscape (http://www.inkscape.org/) -->

<svg
   xmlns:dc="http://purl.org/dc/elements/1.1/"
   xmlns:cc="http://creativecommons.org/ns#"
   xmlns:rdf="http://www.w3.org/1999/02/22-rdf-syntax-ns#"
   xmlns:svg="http://www.w3.org/2000/svg"
   xmlns="http://www.w3.org/2000/svg"
   xmlns:sodipodi="http://sodipodi.sourceforge.net/DTD/sodipodi-0.dtd"
   xmlns:inkscape="http://www.inkscape.org/namespaces/inkscape"
   width="26.466221mm"
   height="19.418999mm"
   viewBox="0 0 26.466221 19.418999"
   version="1.1"
   id="svg14236"
   inkscape:version="0.92.5 (2060ec1f9f, 2020-04-08)"
   sodipodi:docname="Eye4.svg">
  <defs
     id="defs14230" />
  <sodipodi:namedview
     id="base"
     pagecolor="#ffffff"
     bordercolor="#666666"
     borderopacity="1.0"
     inkscape:pageopacity="0.0"
     inkscape:pageshadow="2"
     inkscape:zoom="0.35"
     inkscape:cx="-178.55652"
     inkscape:cy="-9.0169765"
     inkscape:document-units="mm"
     inkscape:current-layer="layer1"
     showgrid="false"
     inkscape:window-width="1920"
     inkscape:window-height="1055"
     inkscape:window-x="0"
     inkscape:window-y="0"
     inkscape:window-maximized="1" />
  <metadata
     id="metadata14233">
    <rdf:RDF>
      <cc:Work
         rdf:about="">
        <dc:format>image/svg+xml</dc:format>
        <dc:type
           rdf:resource="http://purl.org/dc/dcmitype/StillImage" />
        <dc:title></dc:title>
      </cc:Work>
    </rdf:RDF>
  </metadata>
  <g
     inkscape:label="Layer 1"
     inkscape:groupmode="layer"
     id="layer1"
     transform="translate(-20.784747,-127.02859)">
    <path
       style="fill:#000000;stroke-width:0.55727315"
       d="m 36.329158,127.02935 c -0.95203,-0.004 -2.01007,0.008 -3.19051,0.0325 l -5.49836,0.11266 c -1.3734,0.15539 -2.38458,0.40852 -3.19413,0.81235 l -1.47743,1.58494 c -0.56825,0.6096 -0.98679,1.06119 -1.2981,1.47793 -0.25278,0.47094 -0.47194,0.97055 -0.65939,1.48932 -0.0459,0.16758 -0.0879,0.34134 -0.12764,0.51935 -0.0986,0.78861 -0.0997,1.84113 -0.0987,3.47937 0.004,5.09593 0.76729,6.92399 3.69744,8.85579 0.18251,0.12034 0.36499,0.22643 0.55864,0.32142 1.54586,0.51644 3.76756,0.69059 7.30343,0.72657 0.004,3e-5 0.009,-2e-5 0.0129,0 0.45614,0.003 0.88887,0.006 1.40766,0.006 4.9438,0.003 7.39249,-0.15579 8.73435,-0.59634 0.40677,-0.16997 0.76933,-0.38587 1.1865,-0.66459 0.94162,-0.62902 1.6991,-1.38112 2.28719,-2.27012 0.53922,-0.90718 0.919741,-1.98779 1.15395,-3.27268 0.0888,-0.83146 0.124009,-1.78996 0.124009,-2.94453 0,-1.52447 -0.0698,-2.73827 -0.249079,-3.75221 -0.170051,-0.46538 -0.393911,-0.94464 -0.685741,-1.50069 -0.65511,-1.24831 -1.26212,-2.16133 -2.06653,-2.82258 -0.0164,-0.0129 -0.0316,-0.0266 -0.0481,-0.0393 -0.0296,-0.0237 -0.0607,-0.0461 -0.0909,-0.0692 -0.0867,-0.0653 -0.17708,-0.12769 -0.26717,-0.19069 -1.46098,-0.97258 -3.58196,-1.27812 -7.51427,-1.29503 z m -0.36949,1.55287 v 5.3e-4 c 3.30334,0.0142 5.08497,0.27077 6.31229,1.08778 0.0757,0.0529 0.15145,0.10535 0.22426,0.1602 0.0254,0.0194 0.0516,0.0385 0.0765,0.0584 0.0139,0.0107 0.027,0.0217 0.0408,0.0325 0.67572,0.55549 1.18547,1.32278 1.7358,2.37143 0.24516,0.46713 0.43336,0.86945 0.57621,1.2604 0.1506,0.85175 0.20875,1.87164 0.20875,3.15227 0,0.96989 -0.0293,1.77475 -0.10387,2.47322 -0.19675,1.0794 -0.51647,1.98763 -0.96943,2.74971 -0.49403,0.74679 -1.13033,1.37843 -1.92133,1.90685 -0.35047,0.23411 -0.65516,0.41534 -0.99684,0.55811 -1.12723,0.3701 -3.184,0.50345 -7.33703,0.50126 -0.43582,-2.1e-4 -0.7997,-0.003 -1.18287,-0.005 -0.003,-3e-5 -0.008,2e-5 -0.0109,0 -2.970289,-0.0302 -4.836929,-0.17645 -6.135559,-0.61029 -0.16264,-0.0798 -0.31588,-0.1692 -0.46921,-0.27027 -2.46147,-1.62282 -3.1029,-3.15852 -3.10626,-7.43934 -8.49e-4,-1.37623 9.29e-4,-2.26034 0.0837,-2.92283 0.0334,-0.14952 0.0684,-0.29538 0.10697,-0.43614 0.157479,-0.43579 0.341609,-0.85548 0.553959,-1.25108 0.26152,-0.3501 0.61251,-0.7297 1.08987,-1.2418 l 1.24127,-1.33119 c 0.68006,-0.33923 1.52982,-0.55211 2.68354,-0.68263 l 4.61885,-0.0946 c 0.99164,-0.0202 1.88069,-0.0307 2.68045,-0.0274 z m -6.80268,0.59378 c -0.5701,0 -1.09945,0.11644 -1.58337,0.31779 -3.06105,1.13895 -4.27551,5.10391 -1.79213,7.74734 1.20769,1.28553 2.85612,1.67172 4.37131,1.38441 0.51001,-0.0403 1.00896,-0.14497 1.47019,-0.32195 0.34991,-0.13428 0.73194,-0.49382 1.09193,-0.97255 0.86881,-0.81725 1.44021,-1.95588 1.44021,-3.31658 0,-0.0655 -0.007,-0.12978 -0.01,-0.19484 0.004,-0.0675 0.01,-0.13608 0.01,-0.2005 0,-0.2657 -0.068,-0.54875 -0.18034,-0.83715 -0.57555,-2.01448 -2.48939,-3.60597 -4.60126,-3.60597 -0.0383,0 -0.0752,0.003 -0.11319,0.004 -0.0345,-0.001 -0.0693,-0.004 -0.10335,-0.004 z m 1.03767,2.17762 c 0.008,0 0.0147,8.2e-4 0.0227,0.001 0.008,-2.1e-4 0.0163,-0.001 0.0253,-0.001 0.4718,0 0.89926,0.35563 1.02785,0.80566 0.0251,0.0644 0.0403,0.12766 0.0403,0.18706 0,0.0144 -0.001,0.0298 -0.002,0.0449 0,0.0145 0.002,0.0288 0.002,0.0434 0,0.30398 -0.12735,0.55846 -0.32142,0.74104 -0.0804,0.10695 -0.16571,0.18704 -0.24392,0.21704 -0.10303,0.0395 -0.214709,0.0628 -0.328659,0.0718 -0.338481,0.0642 -0.706891,-0.0219 -0.97669,-0.30904 -0.554771,-0.59052 -0.283311,-1.47621 0.4005,-1.73064 0.10809,-0.045 0.226619,-0.0713 0.35399,-0.0713 z"
       id="path7044"
       inkscape:connector-curvature="0" />
  </g>
</svg>
