<?xml version="1.0" encoding="UTF-8" standalone="no"?>
<!-- Created with Inkscape (http://www.inkscape.org/) -->

<svg
   xmlns:dc="http://purl.org/dc/elements/1.1/"
   xmlns:cc="http://creativecommons.org/ns#"
   xmlns:rdf="http://www.w3.org/1999/02/22-rdf-syntax-ns#"
   xmlns:svg="http://www.w3.org/2000/svg"
   xmlns="http://www.w3.org/2000/svg"
   xmlns:sodipodi="http://sodipodi.sourceforge.net/DTD/sodipodi-0.dtd"
   xmlns:inkscape="http://www.inkscape.org/namespaces/inkscape"
   width="11.81313mm"
   height="23.175556mm"
   viewBox="0 0 11.81313 23.175556"
   version="1.1"
   id="svg11481"
   inkscape:version="0.92.5 (2060ec1f9f, 2020-04-08)"
   sodipodi:docname="Eye9.svg">
  <defs
     id="defs11475" />
  <sodipodi:namedview
     id="base"
     pagecolor="#ffffff"
     bordercolor="#666666"
     borderopacity="1.0"
     inkscape:pageopacity="0.0"
     inkscape:pageshadow="2"
     inkscape:zoom="0.49497475"
     inkscape:cx="-465.98741"
     inkscape:cy="139.69241"
     inkscape:document-units="mm"
     inkscape:current-layer="layer1"
     showgrid="false"
     inkscape:window-width="1920"
     inkscape:window-height="1055"
     inkscape:window-x="0"
     inkscape:window-y="0"
     inkscape:window-maximized="1" />
  <metadata
     id="metadata11478">
    <rdf:RDF>
      <cc:Work
         rdf:about="">
        <dc:format>image/svg+xml</dc:format>
        <dc:type
           rdf:resource="http://purl.org/dc/dcmitype/StillImage" />
        <dc:title></dc:title>
      </cc:Work>
    </rdf:RDF>
  </metadata>
  <g
     inkscape:label="Layer 1"
     inkscape:groupmode="layer"
     id="layer1"
     transform="translate(-95.522463,-118.76936)">
    <g
       transform="matrix(4.4105791,0,0,4.4105791,2000.0017,-3173.1794)"
       id="g15682">
      <path
         inkscape:connector-curvature="0"
         id="path15674"
         transform="scale(0.26458333)"
         d="m -1629.9668,2820.9473 c -0.051,0 -0.1005,0.012 -0.1504,0.016 -0.073,0.016 -0.1472,0.026 -0.2168,0.053 -0.4614,0.1771 -0.8304,0.5565 -1.1191,1.0782 -0.036,0.07 -0.075,0.1334 -0.1055,0.2109 -0.057,0.1182 -0.099,0.2614 -0.1484,0.3926 -0.03,0.091 -0.054,0.1993 -0.08,0.2968 -0.2604,1.323 -0.279,3.2237 -0.023,5.6934 0.4942,4.79 2.6293,9.0562 4.9003,11.1172 0.8053,0.5012 1.6995,0.8258 2.543,0.9785 0.3379,0.026 0.6573,0.031 0.9551,0.01 0.1481,-0.02 0.3037,-0.029 0.4375,-0.066 0.3518,-0.23 0.6827,-0.5457 0.9707,-1.0118 0.7978,-1.2909 -2.1343,-10.7679 -4.4414,-15.4648 -1.2535,-2.0908 -2.5069,-3.2522 -3.5215,-3.293 z m 0.3711,1.6543 v 0.01 c 0.8486,0.034 1.897,1.0053 2.9453,2.7539 1.9295,3.9281 4.3821,11.854 3.7149,12.9336 -0.2408,0.3898 -0.5183,0.6533 -0.8125,0.8457 -0.1119,0.03 -0.2413,0.042 -0.3653,0.059 -0.2491,0.019 -0.5162,0.015 -0.7988,-0.01 -0.7055,-0.1277 -1.4535,-0.3992 -2.127,-0.8184 -1.8993,-1.7236 -3.6842,-5.2909 -4.0976,-9.2969 -0.2132,-2.0655 -0.1992,-3.6554 0.02,-4.7617 0.023,-0.082 0.041,-0.1724 0.066,-0.248 0.042,-0.1096 0.077,-0.2292 0.125,-0.3282 0.026,-0.065 0.058,-0.1191 0.088,-0.1777 0.2415,-0.4362 0.5497,-0.7524 0.9356,-0.9004 0.058,-0.023 0.1207,-0.03 0.1816,-0.045 0.042,0 0.082,-0.012 0.125,-0.012 z m 0.582,1.9062 c -0.033,0 -0.062,0.01 -0.096,0.01 -0.047,0.011 -0.094,0.014 -0.1386,0.033 -0.2973,0.1141 -0.5348,0.3573 -0.7208,0.6933 -0.023,0.045 -0.049,0.087 -0.068,0.1368 -0.037,0.076 -0.062,0.1696 -0.096,0.2539 -0.02,0.058 -0.032,0.1283 -0.051,0.1914 -0.1678,0.8522 -0.1796,2.0769 -0.016,3.6679 0.3184,3.0858 1.6932,5.8326 3.1562,7.1602 0.5188,0.3228 1.0952,0.5326 1.6387,0.6309 0.2177,0.019 0.4232,0.023 0.6152,0.01 0.096,-0.011 0.1951,-0.022 0.2813,-0.045 0.2266,-0.1482 0.4394,-0.3524 0.625,-0.6523 0.5139,-0.8317 -1.3751,-6.9372 -2.8613,-9.9629 -0.8075,-1.347 -1.6139,-2.0947 -2.2676,-2.1211 z"
         style="fill:#000000;stroke-width:1.19569719" />
      <path
         inkscape:connector-curvature="0"
         style="fill:#501616;stroke-width:0.24660386"
         d="m -430.89572,747.69091 c -0.007,0 -0.0128,0.002 -0.0198,0.002 -0.01,0.002 -0.0194,0.003 -0.0286,0.007 -0.0613,0.0235 -0.11029,0.0737 -0.14866,0.14301 -0.005,0.009 -0.0101,0.0179 -0.014,0.0282 -0.008,0.0157 -0.0128,0.035 -0.0198,0.0524 -0.004,0.012 -0.007,0.0265 -0.0105,0.0395 -0.0346,0.17576 -0.0371,0.42837 -0.003,0.7565 0.0657,0.63643 0.34921,1.20291 0.65095,1.47672 0.10699,0.0666 0.22587,0.10984 0.33797,0.13012 0.0449,0.004 0.0873,0.005 0.12688,0.002 0.0198,-0.002 0.0402,-0.005 0.058,-0.009 0.0467,-0.0306 0.0906,-0.0727 0.1289,-0.13453 0.10599,-0.17153 -0.2836,-1.43075 -0.59012,-2.05478 -0.16654,-0.27781 -0.33285,-0.43201 -0.46767,-0.43746 z"
         id="path15677" />
    </g>
  </g>
</svg>
