<?xml version="1.0" encoding="UTF-8" standalone="no"?>
<!-- Created with Inkscape (http://www.inkscape.org/) -->

<svg
   xmlns:dc="http://purl.org/dc/elements/1.1/"
   xmlns:cc="http://creativecommons.org/ns#"
   xmlns:rdf="http://www.w3.org/1999/02/22-rdf-syntax-ns#"
   xmlns:svg="http://www.w3.org/2000/svg"
   xmlns="http://www.w3.org/2000/svg"
   xmlns:sodipodi="http://sodipodi.sourceforge.net/DTD/sodipodi-0.dtd"
   xmlns:inkscape="http://www.inkscape.org/namespaces/inkscape"
   width="46.531757mm"
   height="21.225378mm"
   viewBox="0 0 46.531757 21.225378"
   version="1.1"
   id="svg18910"
   inkscape:version="0.92.5 (2060ec1f9f, 2020-04-08)"
   sodipodi:docname="Maw4.svg">
  <defs
     id="defs18904" />
  <sodipodi:namedview
     id="base"
     pagecolor="#ffffff"
     bordercolor="#666666"
     borderopacity="1.0"
     inkscape:pageopacity="0.0"
     inkscape:pageshadow="2"
     inkscape:zoom="0.35"
     inkscape:cx="-66.351686"
     inkscape:cy="-245.60334"
     inkscape:document-units="mm"
     inkscape:current-layer="layer1"
     showgrid="false"
     inkscape:window-width="1920"
     inkscape:window-height="1055"
     inkscape:window-x="0"
     inkscape:window-y="0"
     inkscape:window-maximized="1" />
  <metadata
     id="metadata18907">
    <rdf:RDF>
      <cc:Work
         rdf:about="">
        <dc:format>image/svg+xml</dc:format>
        <dc:type
           rdf:resource="http://purl.org/dc/dcmitype/StillImage" />
        <dc:title></dc:title>
      </cc:Work>
    </rdf:RDF>
  </metadata>
  <g
     inkscape:label="Layer 1"
     inkscape:groupmode="layer"
     id="layer1"
     transform="translate(8.902783,-62.625407)">
    <path
       style="fill:#000000;stroke-width:0.53853458"
       d="m -2.6275276,62.625917 v 5e-4 c -1.892319,-0.017 -2.6979089,0.17981 -3.6013289,0.64698 -4.4728425,2.31302 -3.122927,10.41112 2.4747831,14.84458 2.89318995,2.29145 8.3455536,4.76018 11.9072846,5.39139 3.9021778,0.6916 11.3748718,0.28862 15.0791838,-0.81338 4.260807,-1.26754 8.233759,-3.6186 10.86807,-6.29883 1.823069,-2.05158 3.042092,-4.37883 3.444232,-6.75875 0.0011,-0.006 0.0019,-0.0121 0.0026,-0.0181 0.196019,-1.60838 0.04249,-3.17167 -0.496094,-4.21317 -1.33663,-2.58464 -3.291049,-3.0887 -9.94832,-2.56575 -2.10103,0.16505 -4.305221,0.28398 -6.56549,0.36018 -3.78314,0.35528 -6.295376,0.35573 -10.289295,0.0465 -2.7097308,-0.0645 -5.4123888,-0.18841 -8.0403388,-0.37258 -2.17367865,-0.1523 -3.6999618,-0.2394 -4.8353627,-0.24958 z m 36.5569416,2.07531 c 0.774862,0 1.311542,0.92699 1.547194,2.204 0.06495,0.27734 0.100555,0.58783 0.109553,0.91933 0.100391,1.47753 -0.143394,3.19508 -0.813903,4.49172 -0.698421,1.35062 -1.079566,1.57911 -2.174545,1.30429 -0.08263,-0.0207 -0.1749,-0.0357 -0.2682,-0.0496 -0.3264,0.0156 -0.686236,0.0276 -1.128098,0.0346 -0.37587,0.006 -0.741149,0.0297 -1.09709,0.0625 -1.672468,0.28059 -3.47051,0.93215 -3.989419,1.60094 -0.347652,0.44783 -0.49788,1.69283 -0.343649,2.84274 0.207111,1.54413 0.06534,2.12552 -0.57671,2.37193 -0.619058,0.23754 -0.876932,0.27879 -1.207161,-0.41548 -0.08373,-0.0938 -0.139131,-0.23254 -0.173633,-0.41237 -0.150119,-0.39185 -0.32377,-0.91644 -0.552421,-1.62574 -0.64503,-2.00091 -0.677391,-2.01954 -3.5326,-2.01954 -1.59685,0 -2.691839,0.17339 -3.40186,0.62064 -0.580758,0.43241 -0.907579,1.04846 -1.060401,1.94461 -0.0438,0.40923 -0.04488,0.87294 -0.0057,1.4061 0.117211,1.59305 0.05406,2.07952 -0.551389,2.28669 -0.246607,0.32871 -0.582487,0.39126 -0.979267,0.14623 -0.652461,-0.0125 -0.729155,-0.46339 -0.729155,-2.28924 h -5.29e-4 c 0,-2.68209 -0.992737,-4.11055 -2.865457,-4.12225 -0.6452788,-0.004 -1.6824878,-0.14406 -2.3047698,-0.3111 -1.40806,-0.37801 -2.907832,1.02159 -2.907832,2.71406 0,1.53118 -1.117426,2.55285 -2.116667,1.93529 -0.50087,-0.30954 -0.636834,-1.05532 -0.427362,-2.34612 0.178808,-1.10188 0.04336,-2.22446 -0.32453,-2.68719 -0.765329,-0.96269 -3.2779561,-1.78162 -5.175394,-1.81332 -0.06262,0.005 -0.125603,0.008 -0.1881032,0.0155 -0.34295,0.0419 -0.6253868,0.0628 -0.8805669,0.0698 -0.0132,0.003 -0.02824,0.004 -0.04134,0.007 -1.4160788,0.31104 -1.682564,0.16941 -2.1998639,-1.16944 -1.1174206,-2.89208 -1.2081886,-4.9444 -0.2811096,-6.35931 0.0171,-0.0261 0.03323,-0.048 0.05013,-0.0734 0.07367,-0.17552 0.155564,-0.3312 0.251666,-0.44701 0.125879,-0.15169 0.252709,-0.26649 0.3767189,-0.35449 0.78236,-0.80269 1.2629732,-0.44416 1.2629732,1.06762 0,1.7884 0.5959499,2.37694 3.283522,3.24167 2.6040995,0.83791 3.5992345,0.34079 4.2648545,-2.13114 0.690849,-2.56563 1.750036,-3.15888 2.393136,-2.04689 0.157829,0.0639 0.233327,0.22971 0.241328,0.56017 0.19326,0.59574 0.311677,1.42796 0.313677,2.48407 l 0.0036,1.90376 c 0.153611,0.30467 0.360526,0.55324 0.626836,0.75292 l 1.983341,0.38243 c 1.036071,0.2 1.8353908,0.28483 2.4592788,0.22582 0.318321,-0.0458 0.59299,-0.11546 0.83096,-0.21137 0.838238,-0.40862 1.151047,-1.38602 1.267106,-3.16466 0.05366,-0.82235 0.107424,-1.37718 0.204122,-1.74614 0.0049,-0.0186 0.01,-0.0376 0.01499,-0.0553 0.13453,-0.53419 0.411781,-0.66818 0.961181,-0.66818 0.24348,0 0.43353,0.0298 0.582908,0.10335 0.120121,0.032 0.212588,0.1062 0.283189,0.2341 0.402569,0.29252 0.517808,0.90657 0.570508,2.29598 0.10768,2.84181 0.802936,3.40889 3.814235,3.11094 3.267361,-0.32329 4.085445,-1.16864 3.666445,-3.78894 -0.424121,-2.65231 0.97232,-3.59455 1.959571,-2.38434 0.247859,0.0863 0.364344,0.30241 0.408241,0.68884 0.139412,0.31909 0.2574,0.70199 0.342099,1.15342 0.491061,2.61755 1.739098,3.11182 4.902028,1.94149 2.283251,-0.84484 2.609162,-1.16359 2.757971,-2.69491 0.0928,-0.9552 0.347149,-1.73686 0.565338,-1.73686 z"
       id="path7276-10"
       inkscape:connector-curvature="0" />
  </g>
</svg>
