<?xml version="1.0" encoding="UTF-8" standalone="no"?>
<!-- Created with Inkscape (http://www.inkscape.org/) -->

<svg
   xmlns:dc="http://purl.org/dc/elements/1.1/"
   xmlns:cc="http://creativecommons.org/ns#"
   xmlns:rdf="http://www.w3.org/1999/02/22-rdf-syntax-ns#"
   xmlns:svg="http://www.w3.org/2000/svg"
   xmlns="http://www.w3.org/2000/svg"
   xmlns:sodipodi="http://sodipodi.sourceforge.net/DTD/sodipodi-0.dtd"
   xmlns:inkscape="http://www.inkscape.org/namespaces/inkscape"
   width="19.428864mm"
   height="17.714088mm"
   viewBox="0 0 19.428864 17.714088"
   version="1.1"
   id="svg20080"
   inkscape:version="0.92.5 (2060ec1f9f, 2020-04-08)"
   sodipodi:docname="Maw5A.svg.svg">
  <defs
     id="defs20074" />
  <sodipodi:namedview
     id="base"
     pagecolor="#ffffff"
     bordercolor="#666666"
     borderopacity="1.0"
     inkscape:pageopacity="0.0"
     inkscape:pageshadow="2"
     inkscape:zoom="0.35"
     inkscape:cx="-220.4269"
     inkscape:cy="87.761163"
     inkscape:document-units="mm"
     inkscape:current-layer="layer1"
     showgrid="false"
     inkscape:window-width="1920"
     inkscape:window-height="1055"
     inkscape:window-x="0"
     inkscape:window-y="0"
     inkscape:window-maximized="1" />
  <metadata
     id="metadata20077">
    <rdf:RDF>
      <cc:Work
         rdf:about="">
        <dc:format>image/svg+xml</dc:format>
        <dc:type
           rdf:resource="http://purl.org/dc/dcmitype/StillImage" />
        <dc:title></dc:title>
      </cc:Work>
    </rdf:RDF>
  </metadata>
  <g
     inkscape:label="Layer 1"
     inkscape:groupmode="layer"
     id="layer1"
     transform="translate(-31.86295,-154.33939)">
    <path
       style="fill:#000000;stroke:#000000;stroke-width:0.26458332px;stroke-linecap:butt;stroke-linejoin:miter;stroke-opacity:1"
       d="m 50.784202,154.53294 c -0.24556,-0.1374 -0.66098,-0.0264 -1.38597,0.66352 -1.44994,1.37978 -1.333081,0.63143 -1.637111,1.37978 -0.303999,0.74837 -0.537529,1.84718 -0.88831,0.3271 -0.35081,-1.52011 -0.889,-1.09892 -1.684129,0.14057 -0.79512,1.23947 -2.47885,1.16936 -3.32073,2.92333 -0.841901,1.75395 -2.174611,4.93451 -1.800411,0.91207 0.37417,-4.0224 -1.63729,-1.30974 -2.1518,-1.16943 -0.51448,0.14031 -1.70725,-0.16378 -1.73064,0.84183 -0.0233,1.0056 -0.0464,4.9811 -1.16893,1.02886 -1.12255,-3.95224 -1.82433,-6.29061 -2.71301,-3.34397 -0.0417,-0.0211 -0.0719,-0.0127 -0.11213,-0.03 -0.0203,0.4509 -0.11676,2.52222 -0.18037,5.14543 -0.0125,0.51493 -0.006,0.94879 -0.0134,1.45571 0.10731,-0.004 0.22595,0.36914 0.35292,1.49706 0.39759,3.53132 1.19232,6.15032 2.26809,3.43752 1.07577,-2.71277 0.44458,-0.5375 1.33326,1.31001 0.88866,1.8475 1.77726,-4e-4 1.94096,-1.21648 0.1637,-1.21608 0.18706,-1.16893 0.18706,-1.16893 0,0 1.8242,5.14483 2.73627,2.50219 0.91207,-2.64263 0.86535,2.22163 2.291851,-0.81856 1.426579,-3.0402 -0.32737,-5.96337 1.005619,-3.04012 1.333031,2.92325 1.683711,3.1568 2.128051,1.80041 0.444339,-1.35638 0.86542,0.0703 2.45565,-3.50779 1.59025,-3.57809 2.548729,-9.63475 2.45515,-10.24279 -0.0468,-0.30401 -0.122371,-0.68995 -0.36793,-0.82735 z"
       id="path7602"
       inkscape:connector-curvature="0" />
  </g>
</svg>
