<?xml version="1.0" encoding="UTF-8" standalone="no"?>
<!-- Created with Inkscape (http://www.inkscape.org/) -->

<svg
   xmlns:dc="http://purl.org/dc/elements/1.1/"
   xmlns:cc="http://creativecommons.org/ns#"
   xmlns:rdf="http://www.w3.org/1999/02/22-rdf-syntax-ns#"
   xmlns:svg="http://www.w3.org/2000/svg"
   xmlns="http://www.w3.org/2000/svg"
   xmlns:sodipodi="http://sodipodi.sourceforge.net/DTD/sodipodi-0.dtd"
   xmlns:inkscape="http://www.inkscape.org/namespaces/inkscape"
   width="86.091461mm"
   height="125.62178mm"
   viewBox="0 0 86.091461 125.62178"
   version="1.1"
   id="svg1372"
   inkscape:version="0.92.5 (2060ec1f9f, 2020-04-08)"
   sodipodi:docname="MonsterBody3.svg">
  <defs
     id="defs1366" />
  <sodipodi:namedview
     id="base"
     pagecolor="#ffffff"
     bordercolor="#666666"
     borderopacity="1.0"
     inkscape:pageopacity="0.0"
     inkscape:pageshadow="2"
     inkscape:zoom="0.35"
     inkscape:cx="-311.59279"
     inkscape:cy="117.39545"
     inkscape:document-units="mm"
     inkscape:current-layer="layer1"
     showgrid="false"
     inkscape:window-width="1920"
     inkscape:window-height="1055"
     inkscape:window-x="0"
     inkscape:window-y="0"
     inkscape:window-maximized="1" />
  <metadata
     id="metadata1369">
    <rdf:RDF>
      <cc:Work
         rdf:about="">
        <dc:format>image/svg+xml</dc:format>
        <dc:type
           rdf:resource="http://purl.org/dc/dcmitype/StillImage" />
        <dc:title></dc:title>
      </cc:Work>
    </rdf:RDF>
  </metadata>
  <g
     inkscape:label="Layer 1"
     inkscape:groupmode="layer"
     id="layer1"
     transform="translate(-55.983926,-54.272431)">
    <path
       inkscape:connector-curvature="0"
       style="fill:#000000;stroke-width:0.46340823"
       d="m 128.51541,54.275169 v 0 c -0.19832,0.0058 -0.39683,0.02593 -0.59531,0.05271 -0.0301,-0.0026 -0.0687,0.004 -0.10542,0.0082 -0.46668,-2.6e-5 -0.81763,0.07599 -1.17925,0.27903 -0.21367,0.05485 -0.4278,0.116231 -0.64286,0.191214 -2.81946,0.982848 -4.24386,5.477695 -2.63033,8.30027 0.36425,0.63717 0.66948,1.610757 0.67851,2.163684 0.0211,1.292701 -4.41208,6.177412 -5.60638,6.177412 -0.49264,0 -1.95132,-0.534697 -3.24166,-1.188561 -3.67075,-1.860101 -7.64189,-2.77921 -13.04675,-2.977595 -0.005,-1.85e-4 -0.01,0 -0.015,0 -1.38647,-0.08096 -2.777366,-0.09067 -4.163565,-0.02945 -0.0031,1.32e-4 -0.0062,-1.32e-4 -0.0093,0 -3.749643,0.0522 -5.344877,0.304297 -8.349879,1.175121 -5.044737,1.461902 -6.887403,2.223346 -9.60975,3.970284 -0.848254,0.544327 -1.712651,1.013248 -2.245857,1.233011 -0.376526,0.05347 -0.762876,0.0217 -1.172539,-0.09922 -1.187931,-0.568987 -3.159495,-2.055945 -3.795633,-2.964154 -0.602006,-0.859472 -0.597656,-1.092359 0.03979,-2.002472 0.63191,-0.902177 0.837605,-2.227289 0.7059,-3.584284 -0.01703,-0.455768 -0.08973,-0.899633 -0.212925,-1.324977 -0.09373,-0.368379 -0.217083,-0.722365 -0.373102,-1.05574 -0.421712,-1.032272 -1.03831,-1.9322 -1.815912,-2.476844 -0.5797,-0.406056 -1.550832,-0.634154 -2.606043,-0.685245 -0.505391,-0.05125 -1.034502,-0.03355 -1.578713,0.0558 -0.826627,0.09628 -1.614046,0.297259 -2.217436,0.609282 -1.644201,0.850265 -2.632615,2.747592 -2.74247,4.769221 -0.01373,0.184785 -0.02326,0.371554 -0.02326,0.56224 0,0.870003 0.08016,1.442825 0.376206,2.012791 0.09687,0.278447 0.212801,0.552 0.349848,0.817007 0.43807,0.847143 1.590936,1.745932 2.877343,2.376593 0.968045,0.474557 2.011419,0.798063 2.884581,0.829919 0.833728,0.0304 1.795251,0.831109 3.429764,2.856679 2.080025,2.577677 2.217304,2.896817 1.632974,3.790977 -0.684974,1.048173 -1.325964,2.225304 -1.897041,3.461304 -0.645745,1.320403 -1.154703,2.64414 -1.543574,4.052967 -0.193339,0.641112 -0.361892,1.279366 -0.501261,1.90582 -0.686075,3.083772 -0.739084,4.735619 -0.389641,12.159986 0.561184,11.923021 0.478369,22.237641 -0.216009,26.895531 -1.53003,10.26345 -4.710509,23.14038 -7.888923,32.3851 -0.01828,0.0533 -0.03647,0.10642 -0.05478,0.15968 -0.726765,2.10428 -1.453239,4.01899 -2.159042,5.66476 -2.040691,4.75839 -2.936301,7.4877 -2.873727,9.24544 5.29e-4,0.0116 5.29e-4,0.023 0.0011,0.0346 0.0013,0.13692 0.01312,0.26458 0.03514,0.38447 0.04649,0.33697 0.133855,0.63566 0.261998,0.90432 0.122897,0.37129 0.313915,0.64973 0.577744,0.8165 0.0079,0.005 0.01823,0.009 0.02635,0.014 0.0092,0.009 0.01654,0.019 0.02585,0.0284 0.541192,0.54118 0.989986,0.77224 1.657265,0.79065 0.954286,0.14642 2.03962,-0.093 3.052524,-0.72966 1.983867,-1.24701 5.120445,-5.7897 8.426877,-12.20391 2.236941,-4.33951 3.599355,-6.38768 5.316471,-7.99383 1.184389,-1.10786 1.986786,-1.74511 2.61121,-1.97353 0.227854,-0.0515 0.440754,-0.083 0.636138,-0.0894 0.420648,0.0598 0.771522,0.3797 1.159619,0.93379 0.951706,1.35875 0.898818,4.03651 -0.214456,10.78696 -1.157692,7.01977 -1.2153,12.1098 -0.150378,13.28653 0.986633,1.09022 2.523283,1.09037 4.020426,0.27387 0.347853,-0.15211 0.701152,-0.34332 1.054201,-0.57465 0.439388,-0.28789 0.897967,-0.83055 1.35392,-1.56474 0.340395,-0.44871 0.653675,-0.94462 0.927593,-1.48519 0.662741,-1.30784 1.612942,-4.28699 2.111499,-6.62027 1.219901,-5.70926 3.800195,-10.8925 6.012034,-12.07678 2.109013,-1.12918 3.883772,-0.72398 5.021401,1.14671 0.35369,0.58161 0.5905,1.35546 0.76532,2.59829 0.0923,0.78605 0.17757,1.77598 0.27234,3.08353 0.0205,0.3629 0.0407,0.73086 0.0594,1.14101 0.27449,6.01729 1.50009,10.82165 3.29179,12.90463 0.25431,0.29565 0.58532,0.54848 0.96169,0.76274 0.43521,0.30134 0.90464,0.49755 1.40922,0.59222 0.0496,0.009 0.0951,0.0135 0.14418,0.0222 0.10121,0.0356 0.2039,0.0656 0.30747,0.092 h 5.3e-4 c 0.0159,0.008 0.0368,0.0127 0.0543,0.0196 0.0198,0.008 0.0413,0.0156 0.0631,0.0228 0.0174,0.005 0.0331,0.0116 0.0517,0.0161 0.0963,0.0243 0.20973,0.0345 0.33435,0.0341 0.003,3e-5 0.005,0 0.008,0 0.29467,0.0316 0.5979,0.0298 0.90951,-0.009 0.12659,0 0.25301,-1.1e-4 0.37827,-0.007 0.68598,-0.0282 1.28323,-0.15345 1.79162,-0.37102 0.33851,-0.1333 0.64923,-0.29816 0.91105,-0.50488 1.66369,-1.31344 1.9433,-2.97786 1.10123,-6.5505 -0.15578,-0.6609 -0.28162,-1.30537 -0.38447,-1.93942 -0.19996,-2.29166 -0.27679,-3.97963 -0.20671,-5.33871 0.27233,-2.82657 1.18052,-5.58284 2.77813,-8.60049 1.65934,-3.13426 3.46818,-4.3942 4.9661,-3.45872 0.30175,0.18844 0.58148,0.44519 0.8537,0.801 0.01,0.013 0.0196,0.0282 0.0295,0.0413 0.35666,0.53256 0.71805,1.22399 1.08934,2.07894 0.45271,1.11699 0.93728,2.60183 1.5167,4.60129 1.64431,5.67417 3.5261,9.56217 5.8539,12.09743 3.74219,4.07567 9.3802,5.62613 11.76983,3.23649 0.5234,-0.52339 0.85394,-0.99689 0.98443,-1.50635 0.31596,-1.01513 -0.12564,-2.15471 -1.37872,-3.64474 -0.004,-0.005 -0.007,-0.009 -0.0114,-0.014 -0.17997,-0.25474 -0.37116,-0.51882 -0.58602,-0.80463 -1.1709,-1.55765 -2.51602,-3.59156 -2.98947,-4.51961 -2.13525,-4.18544 -7.80426,-18.0255 -8.23981,-20.11659 -0.5427,-2.60551 -0.9194,-5.93598 -1.13327,-9.8852 -0.0767,-2.70195 -0.0851,-5.91939 -0.0765,-10.04123 0.007,-3.34843 0.0497,-6.50608 0.12661,-9.48057 0.18299,-4.20902 0.46143,-8.70591 0.83923,-13.45809 0.21558,-2.711657 0.35108,-5.027873 0.40101,-7.080193 0.12119,-2.174584 0.0938,-3.489722 -0.0868,-4.85603 -0.35763,-4.770834 -1.60633,-7.898236 -4.14497,-11.828223 -1.50856,-2.335345 -2.06962,-3.407463 -1.94975,-4.109297 l 0.44132,-0.708501 c 0.0236,-0.0209 0.0445,-0.04204 0.0698,-0.06302 0.32526,-0.269928 1.30725,-1.970828 2.18229,-3.779626 1.15962,-2.397045 1.87888,-3.347137 2.65255,-3.504697 0.58382,-0.118904 1.60961,-0.331311 2.27945,-0.471805 1.72751,-0.36232 3.75818,-2.566644 4.11448,-4.465876 0.44501,-2.372277 -0.54765,-4.426158 -2.26762,-5.636706 -1.0359,-0.848016 -2.35774,-1.292463 -3.70416,-1.253675 z"
       id="path6789" />
  </g>
</svg>
