<?xml version="1.0" encoding="UTF-8" standalone="no"?>
<!-- Created with Inkscape (http://www.inkscape.org/) -->

<svg
   xmlns:dc="http://purl.org/dc/elements/1.1/"
   xmlns:cc="http://creativecommons.org/ns#"
   xmlns:rdf="http://www.w3.org/1999/02/22-rdf-syntax-ns#"
   xmlns:svg="http://www.w3.org/2000/svg"
   xmlns="http://www.w3.org/2000/svg"
   xmlns:sodipodi="http://sodipodi.sourceforge.net/DTD/sodipodi-0.dtd"
   xmlns:inkscape="http://www.inkscape.org/namespaces/inkscape"
   width="105.74694mm"
   height="128.43965mm"
   viewBox="0 0 105.74694 128.43965"
   version="1.1"
   id="svg1923"
   inkscape:version="0.92.5 (2060ec1f9f, 2020-04-08)"
   sodipodi:docname="MonsterBody2.svg">
  <defs
     id="defs1917" />
  <sodipodi:namedview
     id="base"
     pagecolor="#ffffff"
     bordercolor="#666666"
     borderopacity="1.0"
     inkscape:pageopacity="0.0"
     inkscape:pageshadow="2"
     inkscape:zoom="0.35"
     inkscape:cx="628.40854"
     inkscape:cy="128.43487"
     inkscape:document-units="mm"
     inkscape:current-layer="layer1"
     showgrid="false"
     inkscape:window-width="1920"
     inkscape:window-height="1055"
     inkscape:window-x="0"
     inkscape:window-y="0"
     inkscape:window-maximized="1" />
  <metadata
     id="metadata1920">
    <rdf:RDF>
      <cc:Work
         rdf:about="">
        <dc:format>image/svg+xml</dc:format>
        <dc:type
           rdf:resource="http://purl.org/dc/dcmitype/StillImage" />
        <dc:title></dc:title>
      </cc:Work>
    </rdf:RDF>
  </metadata>
  <g
     inkscape:label="Layer 1"
     inkscape:groupmode="layer"
     id="layer1"
     transform="translate(192.72476,-54.375414)">
    <path
       style="fill:#000000;stroke-width:0.63396168"
       d="m -145.24601,54.377205 c -0.29206,-0.012 -0.58348,0.0362 -0.87291,0.14736 -1.62864,0.62496 -1.88132,3.31353 -0.76023,8.10774 1.17765,5.03612 1.36131,9.25439 0.40237,9.25439 -0.16244,0 -0.30968,-0.188329 -0.4222,-0.48784 -0.0364,-0.14928 -0.0781,-0.341319 -0.11765,-0.51885 -0.0192,-0.0939 -0.0367,-0.181139 -0.0544,-0.281029 -0.0216,-0.185941 -0.0395,-0.376811 -0.0395,-0.58323 0,-4.627691 -1.53387,-9.326921 -3.54619,-12.217401 -0.46101,-0.77185 -0.94847,-1.39035 -1.45368,-1.83254 -0.78222,-0.73538 -1.58103,-1.09326 -2.33893,-0.99303 -0.29294,-0.0168 -0.58457,0.0144 -0.87049,0.10399 -1.27661,0.40515 -1.83214,1.27063 -1.66535,2.88128 -0.0673,0.72227 0.22068,1.6847 1.0116,3.54619 0.32448,0.83074 0.69781,1.7223 1.17873,2.75755 2.70208,5.81558 3.48471,8.746781 1.44131,5.3961 -3.09094,-5.06854 -9.51518,-9.16436 -14.39294,-9.17634 -0.13035,-3.17e-4 -0.24852,0.007 -0.37266,0.01 -0.10591,-0.002 -0.21445,-0.0168 -0.31945,-0.0168 -0.79276,0 -1.44162,0.14496 -1.94029,0.39748 -1.76895,0.69743 -1.87033,2.31104 -0.18953,4.67173 l 1.16883,1.64064 c -0.10303,0.0439 -0.32903,0.0819 -0.58071,0.11765 l -2.39098,-0.0755 c -2.08264,-0.0649 -3.51645,0.27655 -4.33745,1.03266 -0.58634,0.45914 -0.83208,1.13646 -0.83208,2.09139 v 0.007 0.007 c 0,0.007 10e-4,0.0144 10e-4,0.024 0.007,1.04083 0.35769,1.73241 1.4301,2.31046 1.06841,0.69501 2.76001,1.23559 5.18314,1.67531 1.22159,0.22164 2.211,0.39267 2.95685,0.51756 0.41582,0.1071 0.791,0.20989 1.09829,0.30463 -0.0144,0.11621 -0.0834,0.29041 -0.20917,0.49405 -0.21541,0.34868 -2.15769,0.63776 -4.31639,0.64016 -5.95006,0.01 -11.84965,3.13507 -11.84965,6.277689 0,0.363562 0.71904,1.132441 1.59854,1.708722 1.5222,0.99741 1.8906,0.951309 7.63975,-0.937321 2.71779,-0.892799 4.57688,-1.44589 5.80842,-1.72235 0.71353,-0.11693 1.31008,-0.17204 1.67898,-0.136099 0.0395,0.005 0.063,0.01 0.10039,0.01198 0.13155,0.0935 0.12148,0.257771 -0.0261,0.49652 -0.10759,0.174432 -0.33423,0.333341 -0.61292,0.448212 -0.2785,0.115009 -0.60872,0.18569 -0.92366,0.18569 -1.12695,0 -3.86166,1.242129 -6.44614,2.72161 -0.95894,0.51743 -1.84508,1.065099 -2.63118,1.639351 -1.2261,0.834739 -2.24127,1.638667 -2.70177,2.242388 -1.29525,1.698191 -1.75251,3.226239 -1.60467,4.36222 1.9e-4,0.005 8.7e-4,0.01 0.001,0.0168 0.005,0.0288 0.007,0.0597 0.012,0.0879 0.0316,0.336359 0.12748,0.652978 0.30455,0.93984 0.0815,0.131781 0.19288,0.236968 0.32193,0.32807 1.03297,1.022569 3.15973,0.933079 5.64992,-1.0116 2.25754,-1.76298 2.65953,-1.44531 1.51068,1.196139 -1.33387,3.067251 -1.3447,10.694624 -0.0192,15.532054 0.54883,2.00492 0.74188,3.6453 0.42845,3.6453 -0.10471,0 -0.23995,-0.0673 -0.39128,-0.17083 -0.16533,-0.14832 -0.34329,-0.31142 -0.55345,-0.50891 -0.0884,-0.0831 -0.17946,-0.18641 -0.26874,-0.27615 -1.54705,-1.78182 -4.00943,-5.83778 -6.1093,-10.22134 -1.61932,-3.380293 -3.61618,-9.120693 -4.79927,-13.799844 l -1.57997,-6.248011 c -0.005,-0.0321 -0.0144,-0.0786 -0.0192,-0.110217 -0.0192,-0.170122 -0.0371,-0.345771 -0.0508,-0.496541 -0.0367,-0.722321 0.0352,-1.26119 0.21925,-1.701281 l 1.46358,-1.3385 c 0.41784,-0.24152 0.75371,-0.58519 0.98808,-0.96209 0.81396,-0.87987 0.84894,-1.32118 0.36282,-1.90682 -0.42495,-0.51207 -1.13118,-0.93237 -1.5688,-0.93237 -0.43762,0 -1.12813,-0.39858 -1.53412,-0.88781 -0.63148,-0.76088 -1.108,-0.74389 -3.30113,0.11764 -1.32857,0.5217 -2.05154,0.57183 -2.1817,1.58364 -0.44207,0.52448 -0.26747,1.18 0.41232,3.15992 0.36011,1.667621 0.92877,3.974881 1.75951,7.439149 2.02847,8.459222 3.40602,12.684012 6.06721,18.601595 3.44673,7.66432 8.86304,14.73086 13.50263,17.61595 0.0287,0.0168 0.0522,0.0352 0.0805,0.0532 0.94599,0.85374 1.71442,1.79023 2.3724,2.93828 0.35699,0.8168 0.721,1.84595 1.1627,3.24409 0.86244,2.73036 2.01092,7.63183 2.55313,10.8925 0.96756,5.81836 2.31112,10.68098 4.02914,14.62695 0.27584,0.7085 0.54846,1.36104 0.80856,1.87093 0.22451,0.44004 0.50983,0.91575 0.82715,1.4041 1.77355,3.09697 3.85979,5.4401 6.27641,7.01942 l 2.08643,1.36327 0.41726,0.32314 c 0.22044,0.34182 0.33569,0.84207 0.39991,1.60101 0.002,0.04 0.002,0.0834 0.005,0.12507 l -0.10039,3.58834 c -0.13658,4.89317 -0.19695,5.07856 -1.72602,5.25987 -2.61333,0.30993 -4.2623,1.09714 -4.71509,2.01213 -0.18953,0.26606 -0.24502,0.54089 -0.15478,0.81469 0.0441,0.23098 0.16916,0.47173 0.37891,0.72438 0.32483,0.3914 1.04122,0.7948 1.77561,1.03019 2.40784,0.94118 6.6211,0.75738 8.21049,-0.39871 0.27198,-0.11645 0.51218,-0.24248 0.68476,-0.38507 0.22116,-0.18258 0.39311,-0.6843 0.5213,-1.47471 0.24311,-0.96541 0.34438,-2.43049 0.42102,-5.00114 l 0.16844,-5.66109 6.18113,-0.11022 5.90871,-0.10279 c 0.0652,0.029 0.11524,0.0594 0.1349,0.0915 0.0472,0.0767 0.0925,0.28446 0.13609,0.57702 v 4.16654 c 0,0.0328 0.001,0.0566 0.001,0.0891 v 0.44201 0.52009 c 0,5.36941 0.12485,5.97878 1.40906,6.87825 1.64038,1.14887 5.77793,1.28832 8.63898,0.29093 1.45787,-0.50819 2.03663,-1.29412 1.94025,-2.06039 0.10663,-0.37297 0.005,-0.65178 -0.44201,-0.90631 -0.70798,-0.79454 -2.19489,-1.40911 -4.20371,-1.40911 -0.0613,0 -0.10712,-0.007 -0.16341,-0.01 -0.25219,-0.0695 -0.618,-0.1682 -0.78753,-0.2154 -0.50911,-0.43127 -0.64512,-1.67536 -0.91753,-5.21902 l -0.40237,-5.23394 v -0.16298 l 0.55839,-0.56212 1.24815,-1.12186 0.98682,-0.86923 c 0.68145,-0.59974 1.30635,-1.21694 1.88954,-1.85851 0,0 0.001,-0.001 0.001,-0.001 0.002,-0.002 0.005,-0.005 0.007,-0.007 0.23602,-0.25993 0.46698,-0.52352 0.68842,-0.79366 0.002,-0.002 0.005,-0.007 0.01,-0.01 0.0285,-0.0347 0.0546,-0.0716 0.0829,-0.10639 0.19312,-0.23913 0.38354,-0.47972 0.56586,-0.72802 0.20726,-0.28149 0.4081,-0.57019 0.60302,-0.86556 0.007,-0.01 0.012,-0.0192 0.0192,-0.0273 2.20891,-3.35842 3.64021,-7.66486 4.74609,-13.90628 0.71046,-4.00977 1.41158,-7.71848 1.55892,-8.24149 2.09079,-7.42185 2.56988,-9.2916 3.99687,-10.50618 0.39246,-0.27573 0.85331,-0.54625 1.44993,-0.8742 0.71885,-0.39494 1.42375,-0.85108 2.11856,-1.3521 9.358668,-6.18638 15.695575,-20.59336 18.194265,-41.471236 0.23673,-1.97752 0.41336,-3.448119 0.54602,-4.685349 0.0695,-0.31959 0.14209,-0.67948 0.20175,-0.88782 0.51979,-1.81002 0.50488,-2.490391 -0.0978,-3.13886 -0.24946,-0.9368 -0.93047,-1.01872 -2.23003,-1.329801 -1.32116,-0.316399 -2.02853,-0.386269 -2.53464,-0.16725 -0.16509,0.0429 -0.28077,0.112621 -0.33554,0.211821 -0.12844,0.1083 -0.249986,0.23529 -0.370178,0.3999 -0.417581,0.57108 -1.196599,1.03887 -1.731039,1.03887 -1.27862,0 -1.908281,1.71784 -0.927431,2.5309 0.423942,0.35141 1.38326,1.13828 2.130952,1.74835 1.287516,1.05053 1.327526,1.38788 0.765266,6.364409 -0.407148,3.602231 -1.188748,7.586041 -2.184267,11.364201 -0.0434,0.158861 -0.0855,0.318701 -0.129873,0.47675 -0.0748,0.27741 -0.15598,0.54501 -0.232659,0.81969 -0.883811,3.051835 -1.902772,5.956715 -2.995207,8.557225 -0.0817,0.1821 -0.162931,0.3706 -0.245224,0.54602 -1.573995,3.35968 -3.920555,7.1686 -5.358935,8.92131 -0.0659,0.0649 -0.1313,0.13466 -0.19696,0.19552 -0.37314,0.34747 -0.68168,0.59604 -0.9522,0.79492 -0.0192,-0.007 -0.0364,-0.0144 -0.0508,-0.0285 -0.16605,-0.16603 0.31012,-2.11747 1.0587,-4.33742 2.77535,-8.23065 0.85027,-15.578463 -6.092,-23.249784 -1.95443,-2.159781 -3.29132,-3.92638 -2.97048,-3.92638 0.32078,0 2.33337,1.404909 4.47242,3.121491 3.58098,2.874068 5.21141,3.829569 6.64048,3.60693 0.67728,0.0309 1.19078,-0.20606 1.56634,-0.705792 0.676627,-0.54736 0.865217,-1.289659 0.593117,-2.310458 -0.163166,-1.318321 -1.084117,-2.754892 -2.534637,-4.131922 -2.08485,-2.142778 -5.31684,-4.08904 -8.60919,-5.082859 -1.9559,-0.59035 -3.82666,-1.30493 -4.15791,-1.58858 -0.15455,-0.13226 -0.22404,-0.23625 -0.22907,-0.31697 0.15527,-0.0168 0.31343,-0.0347 0.51264,-0.052 0.45322,-0.0395 1.16991,0.0247 2.022,0.16461 0.98057,0.22763 2.15642,0.56739 3.42733,1.01903 5.67606,2.017009 7.88217,2.434649 9.534216,1.80652 3.466121,-1.31775 0.482881,-6.10733 -4.700256,-7.54685 -1.29671,-0.360101 -4.14052,-0.656741 -6.31977,-0.658701 -0.31513,-3.17e-4 -0.59586,-0.0168 -0.89026,-0.0273 -0.57995,-0.0379 -1.03774,-0.0707 -1.48588,-0.102789 -0.93948,-0.10663 -1.58611,-0.26558 -1.58611,-0.45075 0,-0.31717 1.96534,-0.90739 4.36716,-1.3125 0.4531,-0.0764 0.87797,-0.16365 1.29017,-0.25504 0.0539,-0.012 0.10686,-0.024 0.16101,-0.0371 4.55571,-1.046409 6.51218,-2.999189 5.09521,-5.22771 -0.8299,-1.30512 -3.66472,-2.016099 -6.54761,-1.641809 -1.60956,0.20894 -2.27067,0.278999 -2.33399,0.052 0.0891,-0.17275 0.24559,-0.43134 0.4086,-0.70082 0.0527,-0.064 0.0958,-0.11933 0.15718,-0.19193 4.03796,-4.79163 -0.8322,-7.28479 -8.02108,-4.10592 -3.71741,1.64386 -6.13438,3.78398 -8.60924,7.62365 -2.34789,3.642729 -2.31296,2.88432 0.0855,-1.867221 1.0461,-2.072169 1.90188,-4.577699 1.90188,-5.566939 0,-0.3592 -0.0328,-0.68538 -0.0805,-0.99677 -0.0661,-0.59107 -0.24344,-1.12225 -0.53118,-1.60597 -0.01,-0.0192 -0.0242,-0.0343 -0.0335,-0.052 -0.0575,-0.0932 -0.11621,-0.18617 -0.1821,-0.2761 -0.73109,-0.99988 -1.75074,-1.21763 -2.78968,-0.75903 -0.51491,0.14065 -0.98555,0.44606 -1.4128,0.88533 -0.37199,0.3355 -0.73537,0.74631 -1.076,1.25308 l -1.39423,2.07521 -0.71815,-2.17676 c -1.25437,-3.800445 -3.46354,-3.604115 -4.83409,0.429775 l -0.6067,1.78551 c -0.047,0.0443 -0.093,0.0817 -0.13874,0.11261 l -0.0285,-0.0508 -1.05123,-2.21513 c -1.01605,-2.1412 -2.27941,-3.32628 -3.54499,-3.37782 z"
       id="path6817"
       inkscape:connector-curvature="0" />
  </g>
</svg>
