<?xml version="1.0" encoding="UTF-8" standalone="no"?>
<!-- Created with Inkscape (http://www.inkscape.org/) -->

<svg
   xmlns:dc="http://purl.org/dc/elements/1.1/"
   xmlns:cc="http://creativecommons.org/ns#"
   xmlns:rdf="http://www.w3.org/1999/02/22-rdf-syntax-ns#"
   xmlns:svg="http://www.w3.org/2000/svg"
   xmlns="http://www.w3.org/2000/svg"
   xmlns:sodipodi="http://sodipodi.sourceforge.net/DTD/sodipodi-0.dtd"
   xmlns:inkscape="http://www.inkscape.org/namespaces/inkscape"
   width="106.0519mm"
   height="104.39637mm"
   viewBox="0 0 106.0519 104.39637"
   version="1.1"
   id="svg8033"
   inkscape:version="0.92.5 (2060ec1f9f, 2020-04-08)"
   sodipodi:docname="MonsterBody6.svg">
  <defs
     id="defs8027" />
  <sodipodi:namedview
     id="base"
     pagecolor="#ffffff"
     bordercolor="#666666"
     borderopacity="1.0"
     inkscape:pageopacity="0.0"
     inkscape:pageshadow="2"
     inkscape:zoom="0.35"
     inkscape:cx="-268.15893"
     inkscape:cy="448.71269"
     inkscape:document-units="mm"
     inkscape:current-layer="layer1"
     showgrid="false"
     inkscape:window-width="1920"
     inkscape:window-height="1055"
     inkscape:window-x="0"
     inkscape:window-y="0"
     inkscape:window-maximized="1" />
  <metadata
     id="metadata8030">
    <rdf:RDF>
      <cc:Work
         rdf:about="">
        <dc:format>image/svg+xml</dc:format>
        <dc:type
           rdf:resource="http://purl.org/dc/dcmitype/StillImage" />
        <dc:title></dc:title>
      </cc:Work>
    </rdf:RDF>
  </metadata>
  <g
     inkscape:label="Layer 1"
     inkscape:groupmode="layer"
     id="layer1"
     transform="translate(-44.49205,-163.15886)">
    <path
       inkscape:connector-curvature="0"
       style="fill:#000000;stroke-width:0.53853458"
       d="m 111.29904,163.15934 c -0.9637,-0.008 -1.94608,0.0839 -2.94865,0.27234 -1.91269,0.152 -3.14638,0.57557 -5.50768,1.66396 -3.665868,1.68971 -3.972367,1.73794 -10.218496,1.61541 l -1.567347,-0.0305 -4.440037,-0.0956 -0.01603,0.008 -0.415478,-0.008 -6.103504,3.09648 -4.99401,2.53367 c -1.650151,0.57296 -2.849785,0.57349 -5.632215,0.56949 -0.12541,-1.6e-4 -0.247502,0.004 -0.372071,0.005 h -0.309025 c -4.06214,0.009 -5.735791,0.25215 -7.627443,1.10741 -8.494278,3.84059 -11.509047,14.26298 -6.438365,22.25861 0.87526,1.38011 1.591116,2.98606 1.591116,3.56928 0,0.58319 -1.447765,3.1492 -3.217375,5.70198 -5.280398,7.6173 -7.687741,15.17073 -7.459491,23.43835 -0.007,0.66506 -0.005,1.33504 0.01138,2.0092 0.0518,2.07319 -0.01,4.0918 -0.159678,5.77688 -0.0736,0.37674 -0.157086,0.73901 -0.259416,1.07903 -0.83293,2.76762 -0.945751,4.94665 -0.341583,7.01196 0.175901,0.81002 0.454427,1.49074 0.811837,1.98334 0.341501,0.59769 0.671814,0.82105 1.232485,0.84336 0.156398,0.023 0.318291,0.0209 0.48524,-0.009 0.159541,0.008 0.307756,-0.0161 0.444934,-0.0692 1.03146,-0.16791 1.214774,-0.54279 1.352373,-2.27997 0.0915,-1.1548 0.350147,-2.28558 0.581877,-2.56574 0.0727,-0.0373 0.150876,-0.0645 0.235127,-0.0817 0.48981,0.0127 1.627849,0.51419 2.814299,1.26661 2.92971,1.85796 3.596156,1.98583 4.523753,0.86815 0.390023,-0.46995 0.509728,-0.97719 0.382408,-1.48362 -0.02339,-0.17048 -0.0877,-0.332 -0.200507,-0.49144 -0.379999,-0.66733 -1.185656,-1.31114 -2.365745,-1.8433 -2.406811,-1.08532 -3.792096,-2.65962 -3.351218,-3.80857 0.0992,-0.25853 0.251368,-0.44358 0.460439,-0.55912 0.182758,-0.0778 0.395523,-0.12329 0.632002,-0.13901 0.003,-2.1e-4 0.0063,0 0.01035,0 0.746792,0.01 1.869588,0.43585 3.48351,1.295 2.578518,1.37269 3.880215,1.35009 4.427635,-0.0765 0.759288,-1.97872 -1.539918,-3.49878 -7.607806,-5.03072 -0.43231,-0.10914 -0.856551,-0.24791 -1.239202,-0.39637 -0.856769,-0.44331 -1.394502,-0.96366 -1.689301,-1.6986 -0.483741,-3.16185 0.91282,-12.20573 2.334741,-13.91904 0.337558,-0.40672 1.238295,-0.66675 2.001944,-0.57774 1.335071,0.15565 1.413671,0.36531 2.044319,5.45237 0.7503,6.05229 2.285883,9.90825 5.253945,13.1935 1.092589,1.20936 2.163826,2.861 2.380215,3.67007 0.531019,1.98556 -1.38951,18.1974 -2.34456,19.8882 -0.407839,0.42015 -1.173337,0.97488 -2.097545,1.53169 -0.443111,0.21839 -0.913429,0.41908 -1.380279,0.57412 -2.246878,0.74631 -4.226726,2.3485 -4.992976,3.85197 -0.413011,0.68969 -0.509494,1.36472 -0.266133,1.99935 0.21758,0.56698 0.355936,0.83682 1.054716,0.82373 0.0333,0.0262 0.07663,0.0635 0.08423,0.0625 0.003,0 0.27174,-0.0818 0.303339,-0.0909 0.476221,-0.0558 1.140733,-0.19016 2.090312,-0.40412 2.76761,-0.10809 7.137151,-0.11499 9.61595,-0.013 1.402239,0.29477 2.544557,0.43032 2.749185,0.30385 0.005,-0.003 0.01,-0.013 0.01498,-0.0175 0.01019,-0.004 0.02318,-0.006 0.03049,-0.0103 0.0145,-0.009 0.02956,-0.0283 0.04496,-0.0569 l 0.274918,0.0254 0.409278,-4.03903 c 0.225229,-2.22146 0.777621,-7.06794 1.227832,-10.77039 0.77521,-6.37516 0.907288,-6.81344 2.491838,-8.27133 0.697539,-0.64182 1.16949,-1.00708 1.657781,-1.17721 0.399759,-0.0471 0.856803,-0.0674 1.387512,-0.0605 0.175559,0.0272 0.365109,0.0627 0.573609,0.10647 0.49943,0.1048 2.172041,0.21569 4.461743,0.31316 3.700359,0.39209 8.421809,0.50528 13.084989,0.30385 0.0371,-0.003 0.0676,-0.003 0.104387,-0.004 8.469838,0.12398 8.656598,0.25744 9.655748,1.41901 1.16913,1.3592 2.01479,6.62641 2.73988,17.06409 0.0517,0.74465 0.12279,1.46786 0.20309,2.13787 0.0264,0.79396 0.0836,1.40327 0.1912,1.87068 l 0.047,1.10741 0.32453,-0.0238 c 0.0285,0.0673 0.0566,0.12425 0.0837,0.15864 0.29221,0.37026 0.56217,0.67017 0.59996,0.66715 0.0378,-0.003 1.2585,-0.36663 2.7125,-0.80772 0.32587,-0.0989 0.64251,-0.1851 0.95499,-0.26458 2.26562,-0.0614 5.08982,-0.0655 7.23108,-0.008 0.24637,0.0634 0.49497,0.13086 0.7488,0.20669 2.58469,0.77229 3.5077,0.6967 3.7176,-0.52451 0.0402,-0.13377 0.056,-0.27829 0.045,-0.43357 0.004,-0.084 0.007,-0.1687 0.007,-0.26043 0,-1.93995 -2.31752,-4.11787 -5.5547,-5.22087 -0.52767,-0.17981 -1.05122,-0.41584 -1.5198,-0.6749 -0.0209,-0.0122 -0.043,-0.0251 -0.0636,-0.0372 -0.0823,-0.0464 -0.1599,-0.0941 -0.23823,-0.14158 -0.27589,-0.17187 -0.51294,-0.33972 -0.72554,-0.50488 -0.2864,-0.23254 -0.5089,-0.46156 -0.61857,-0.66558 -0.98182,-1.82676 -2.14693,-16.38999 -1.42265,-17.78238 0.32822,-0.63095 1.87216,-2.29555 3.4308,-3.69951 3.34306,-3.01146 5.18387,-5.96323 6.46162,-10.35855 0.52631,-1.81043 0.73311,-3.20966 0.71882,-5.78725 0.25015,-3.1268 0.10679,-6.53847 -0.4377,-10.19265 -0.094,-1.91268 -0.17014,-3.50925 -0.19947,-4.2132 l -0.093,-2.21949 c 0.0661,-0.11718 0.13961,-0.23129 0.22168,-0.3426 l 3.54036,-2.39004 c 8.09443,-5.46502 13.78215,-12.08701 16.40726,-19.10323 0.63689,-1.70222 2.01572,-4.04413 3.0639,-5.20433 2.26884,-2.51137 3.41685,-5.0528 3.41685,-7.56285 0,-3.27491 -2.96279,-3.98283 -3.58789,-0.85733 -0.0691,0.34541 -0.1614,0.6373 -0.26975,0.88315 -0.13225,0.2327 -0.27159,0.44289 -0.41186,0.6222 -0.54912,0.52041 -1.30129,0.28503 -2.04898,-0.77153 -2.57127,-3.63349 -3.0057,-4.05056 -4.05556,-3.89331 -2.09228,0.31339 -2.35186,1.75183 -0.75241,4.16874 1.18071,1.7842 1.81737,3.35489 1.84071,4.38836 -0.068,0.43106 -0.17278,0.77314 -0.31832,1.01078 -0.0843,0.0826 -0.18479,0.14833 -0.30335,0.19381 -0.918,0.35213 -2.49937,-1.0499 -3.97287,-3.52243 -0.9713,-1.62989 -1.89526,-2.14855 -3.04219,-1.70844 -2.22724,0.85466 -0.71621,4.1938 3.45922,7.64553 0.8534,0.70549 1.52897,1.48135 1.88256,2.11667 0.17063,0.43534 0.23539,0.86997 0.20206,1.33479 -0.50422,2.30677 -3.76802,7.29031 -6.76083,10.18749 -4.74357,4.59206 -7.9579,6.67245 -9.73842,6.29007 -1.22045,-0.41454 -1.8041,-2.10335 -1.72186,-4.2106 0.19297,-1.7499 0.99193,-3.91943 2.45153,-6.76185 2.18907,-4.26297 2.43466,-4.82476 2.30787,-8.00468 1e-4,-0.37981 -0.0113,-0.77136 -0.0351,-1.17718 -0.0147,-0.70535 -0.0853,-1.39967 -0.20877,-2.08206 -0.68923,-5.02714 -2.99792,-8.11488 -7.76645,-10.59728 -1.17932,-0.61394 -2.12601,-0.94504 -3.45561,-1.11207 -0.96181,-0.21971 -1.94027,-0.33562 -2.93832,-0.34417 z"
       id="path6774" />
  </g>
</svg>
