<?xml version="1.0" encoding="UTF-8" standalone="no"?>
<!-- Created with Inkscape (http://www.inkscape.org/) -->

<svg
   xmlns:dc="http://purl.org/dc/elements/1.1/"
   xmlns:cc="http://creativecommons.org/ns#"
   xmlns:rdf="http://www.w3.org/1999/02/22-rdf-syntax-ns#"
   xmlns:svg="http://www.w3.org/2000/svg"
   xmlns="http://www.w3.org/2000/svg"
   xmlns:sodipodi="http://sodipodi.sourceforge.net/DTD/sodipodi-0.dtd"
   xmlns:inkscape="http://www.inkscape.org/namespaces/inkscape"
   width="122.76133mm"
   height="122.00967mm"
   viewBox="0 0 122.76133 122.00967"
   version="1.1"
   id="svg7442"
   inkscape:version="0.92.5 (2060ec1f9f, 2020-04-08)"
   sodipodi:docname="MonsterBody5.svg">
  <defs
     id="defs7436" />
  <sodipodi:namedview
     id="base"
     pagecolor="#ffffff"
     bordercolor="#666666"
     borderopacity="1.0"
     inkscape:pageopacity="0.0"
     inkscape:pageshadow="2"
     inkscape:zoom="0.35"
     inkscape:cx="394.84705"
     inkscape:cy="444.85516"
     inkscape:document-units="mm"
     inkscape:current-layer="layer1"
     showgrid="false"
     inkscape:window-width="1920"
     inkscape:window-height="1055"
     inkscape:window-x="0"
     inkscape:window-y="0"
     inkscape:window-maximized="1" />
  <metadata
     id="metadata7439">
    <rdf:RDF>
      <cc:Work
         rdf:about="">
        <dc:format>image/svg+xml</dc:format>
        <dc:type
           rdf:resource="http://purl.org/dc/dcmitype/StillImage" />
        <dc:title></dc:title>
      </cc:Work>
    </rdf:RDF>
  </metadata>
  <g
     inkscape:label="Layer 1"
     inkscape:groupmode="layer"
     id="layer1"
     transform="translate(130.92828,-144.52492)">
    <path
       style="fill:#000000;stroke-width:0.54533511"
       d="m -96.44397,144.52492 c -0.052,0 -0.106209,0.004 -0.159679,0.007 -0.34177,-0.0116 -0.678752,0.0319 -1.002012,0.1235 -0.0404,0.0103 -0.0803,0.022 -0.120398,0.0336 -0.0299,0.008 -0.0593,0.0172 -0.0889,0.0265 -0.0585,0.0188 -0.116091,0.0398 -0.17363,0.0615 -0.47403,0.16994 -0.91168,0.42489 -1.26814,0.78136 -2.163961,2.16395 -1.196611,4.93303 2.23139,6.38771 1.39673,0.59272 1.41742,0.68789 1.774049,8.15869 0.198462,4.15753 0.6022,8.4006 0.89711,9.42887 0.136782,0.47694 0.247412,0.82685 0.284731,1.15756 -0.0196,0.46162 -0.136681,0.91905 -0.383439,1.44953 -0.540311,0.9534 -1.713003,2.40977 -4.02146,5.32008 -0.63119,0.79575 -1.256102,1.66816 -1.867072,2.58537 -1.59582,2.21695 -2.92325,4.59076 -4.02197,7.23677 -1.28798,2.80229 -2.27283,5.58242 -2.73885,7.90134 -0.92234,4.58948 -1.7327,11.97467 -2.51768,22.94328 -0.87802,12.26869 -4.3075,22.79297 -8.8098,27.03558 -1.00223,0.9444 -3.8402,2.72333 -6.30659,3.95272 -3.41421,1.70185 -5.18493,3.11488 -5.84202,4.79144 -0.19922,0.35999 -0.30799,0.69403 -0.30799,0.98806 0,0.003 5.3e-4,0.004 5.3e-4,0.007 -0.0577,0.26876 -0.0569,0.52813 0.004,0.77827 0.0333,0.99671 0.71659,1.79543 1.84794,2.35024 1.13322,0.64786 2.74783,0.95319 4.72736,0.88778 1.60807,0 3.39399,-0.21944 5.22346,-0.69503 1.25087,-0.32518 2.26174,-0.55592 3.08715,-0.69506 0.68864,-0.0769 1.28508,-0.10668 1.66501,-0.0697 0.50378,0.0489 0.85633,0.0853 1.10743,0.19325 0.17232,0.1083 0.30971,0.24644 0.41393,0.41963 0.16848,0.39365 0.18801,1.11287 0.19016,2.36109 -0.0598,0.34142 -0.14331,0.67485 -0.25218,0.96118 -0.35241,0.92692 -0.38665,1.60189 0.005,2.21795 l -0.0305,0.25942 0.43769,0.22323 c 0.42675,0.40632 1.06086,0.80905 1.94769,1.26762 0.42541,0.22 0.95064,0.38039 1.56321,0.48525 0.064,0.18439 0.84027,0.25072 1.75907,0.21912 0.0377,2.4e-4 0.0765,6e-5 0.11472,0 0.13236,0.007 0.27301,0.0114 0.42323,0.0114 0.27922,0 0.54394,-0.0175 0.78445,-0.0475 0.48604,-0.0301 0.98306,-0.10438 1.495,-0.22219 2.29325,-0.28706 5.0171,-0.9083 8.044979,-1.85828 6.6514,-2.08691 9.846212,-2.14638 14.24823,-0.26511 1.799612,0.76908 4.253162,1.74172 5.452902,2.16111 0.249629,0.0873 0.542739,0.16195 0.85576,0.23098 0.123349,0.0498 0.449059,0.1859 0.507979,0.20825 0.15875,0.0603 0.639879,0.106 1.3193,0.13646 1.007289,0.1417 2.167339,0.13059 3.890711,0.0718 0.0765,0.003 0.17349,0.0106 0.243398,0.0119 0.35248,0.007 0.84904,-0.0217 1.384932,-0.0636 4.878369,-0.14128 5.916118,-0.36602 9.521378,-1.99263 5.856782,-2.64244 9.185971,-2.76484 15.815061,-0.58136 2.473291,0.81465 4.80045,1.39673 6.895701,1.74045 0.50156,0.0899 0.97899,0.15909 1.44281,0.21654 0.0472,0.0153 0.0959,0.0281 0.144169,0.0418 0.261972,0.12478 0.936932,0.21135 1.819531,0.21135 0.37532,0 0.70176,-0.0164 0.9803,-0.0455 0.181718,-0.0161 0.348549,-0.0391 0.50075,-0.0682 0.0571,-0.006 0.111049,-0.0156 0.167429,-0.0222 1.149617,-0.0711 2.142117,-0.26625 2.932647,-0.59741 l 2.06808,-0.86659 -0.15968,-3.42617 c -0.13839,-2.97394 -0.12348,-3.37071 0.86816,-3.53673 0.20433,-0.0185 0.4298,-0.0357 0.69144,-0.0548 0.0891,-0.006 0.19758,-0.007 0.29868,-0.009 1.00028,0.0388 2.66859,0.30855 4.13618,0.68884 6.52042,1.6896 11.3404095,0.77549 12.0276995,-2.1544 0.0439,-0.1489 0.0722,-0.3004 0.0853,-0.45423 0.0332,-0.22374 0.0273,-0.4512 -0.0171,-0.68213 -0.18196,-1.83004 -1.72903,-3.2081 -6.0058295,-5.45549 -2.12788,-1.11816 -5.03935,-3.08565 -6.46989,-4.37182 -5.04435,-4.5353 -7.75892,-13.53606 -9.04286,-29.98266 -1.06181,-13.60122 -2.239878,-21.54007 -3.759459,-25.33851 -1.839619,-4.59843 -4.874141,-9.72413 -7.726659,-13.04986 -3.940381,-4.59404 -4.124801,-4.96911 -3.49953,-7.12668 0.299559,-1.03363 0.693618,-4.82405 0.875398,-8.42325 0.259551,-5.13898 0.655542,-7.45144 1.680001,-8.53594 0.35392,-0.17364 0.700611,-0.39555 1.023191,-0.65421 1.99e-4,-1.5e-4 2.65e-4,0 5.29e-4,0 0.0506,-0.0185 0.0983,-0.0401 0.1509,-0.0568 0.575609,-0.18269 1.339231,-1.03804 1.69654,-1.90066 0.75225,-1.81607 0.13407,-3.45358 -1.6676,-4.41783 -0.347109,-0.18576 -0.776851,-0.28932 -1.236099,-0.32348 -0.127902,-0.0487 -0.252042,-0.0858 -0.37362,-0.10697 l -0.0925,-0.0863 -0.0935,0.0667 c -0.33905,-0.0201 -0.671182,0.0689 -1.040252,0.26665 -0.88937,0.2142 -1.67083,0.64156 -1.964219,1.20613 -0.0577,0.11104 -0.122409,0.45066 -0.18965,0.92448 -0.225319,0.84114 -0.333891,2.09066 -0.386019,4.06021 -0.110602,1.54853 -0.21276,3.33296 -0.291971,5.19195 -0.271229,6.36527 -0.70662,9.95503 -1.427821,11.44426 -0.0517,0.0623 -0.102648,0.12642 -0.157099,0.18084 -0.43221,0.43223 -0.74236,0.60423 -1.453139,0.39378 -0.73637,-0.32303 -1.963722,-0.92641 -3.30988,-1.64123 -5.161428,-2.74077 -9.52074,-3.72486 -16.57005,-3.74037 -6.986619,-0.0153 -11.217449,0.93107 -16.734898,3.74293 -1.321602,0.67352 -2.49333,1.24015 -3.23701,1.57612 -0.380482,0.10695 -0.674982,0.14952 -0.815462,0.0956 -0.103529,-0.0397 -0.202168,-0.0925 -0.296619,-0.15658 -0.234,-0.37129 -0.5421,-0.97952 -0.83302,-1.66656 -0.60191,-1.4214 -0.992991,-4.87181 -1.282609,-11.31558 -0.229179,-5.09886 -0.440639,-9.31428 -0.469741,-9.36789 -0.549921,-1.01306 -1.69654,-1.60689 -2.905249,-1.72497 -0.10808,-0.0167 -0.21811,-0.0283 -0.333309,-0.0289 z"
       id="path7159"
       inkscape:connector-curvature="0" />
  </g>
</svg>
