<?xml version="1.0" encoding="UTF-8" standalone="no"?>
<!-- Created with Inkscape (http://www.inkscape.org/) -->

<svg
   xmlns:dc="http://purl.org/dc/elements/1.1/"
   xmlns:cc="http://creativecommons.org/ns#"
   xmlns:rdf="http://www.w3.org/1999/02/22-rdf-syntax-ns#"
   xmlns:svg="http://www.w3.org/2000/svg"
   xmlns="http://www.w3.org/2000/svg"
   xmlns:sodipodi="http://sodipodi.sourceforge.net/DTD/sodipodi-0.dtd"
   xmlns:inkscape="http://www.inkscape.org/namespaces/inkscape"
   width="130.28407mm"
   height="88.718147mm"
   viewBox="0 0 130.28407 88.718147"
   version="1.1"
   id="svg4678"
   inkscape:version="0.92.5 (2060ec1f9f, 2020-04-08)"
   sodipodi:docname="Wing.svg">
  <defs
     id="defs4672" />
  <sodipodi:namedview
     id="base"
     pagecolor="#ffffff"
     bordercolor="#666666"
     borderopacity="1.0"
     inkscape:pageopacity="0.0"
     inkscape:pageshadow="2"
     inkscape:zoom="0.35"
     inkscape:cx="131.9204"
     inkscape:cy="-358.05794"
     inkscape:document-units="mm"
     inkscape:current-layer="layer1"
     showgrid="false"
     inkscape:window-width="1920"
     inkscape:window-height="1055"
     inkscape:window-x="0"
     inkscape:window-y="0"
     inkscape:window-maximized="1" />
  <metadata
     id="metadata4675">
    <rdf:RDF>
      <cc:Work
         rdf:about="">
        <dc:format>image/svg+xml</dc:format>
        <dc:type
           rdf:resource="http://purl.org/dc/dcmitype/StillImage" />
        <dc:title></dc:title>
      </cc:Work>
    </rdf:RDF>
  </metadata>
  <g
     inkscape:label="Layer 1"
     inkscape:groupmode="layer"
     id="layer1"
     transform="translate(61.362273,34.620979)">
    <path
       style="fill:#000000;stroke-width:0.35277778"
       d="m -35.172727,-34.619136 c -0.0643,0.0643 0.17404,1.06264 0.52968,2.21847 0.955839,3.10676 -0.21803,7.56052 -0.69246,9.88674 -0.35597,1.74544 -0.67152,2.27663 -2.25413,3.79356 -0.47855,0.45868 -0.89724,0.87077 -1.22059,1.1958 -6.98192,-3.29188 -10.26899,-4.81394 -14.880231,-6.90966 -4.01003,-1.82247 -7.38363,-3.31349 -7.4967,-3.31349 -0.48924,0 -0.0487,0.56871 2.54713,3.2892 6.1228,6.41688 7.451141,11.72553 4.21266,15.2388602 -0.77307,0.8387 -1.27902,1.600031 -1.12448,1.691889 0.004,0.0021 0.0729,0.02569 0.0873,0.0315 -0.32766,0.20823 0.35027,0.959329 1.82573,2.482019 1.36304,1.4067 9.271641,6.538071 9.939441,7.60522 2.95929,4.72907 5.25,9.2469898 4.00389,13.4431088 -0.30424,1.024501 -0.51916,3.56638 -0.4377,3.64784 0.0107,0.01069 0.0474,0.0108 0.10336,0.003 -0.0248,0.0433 -0.0134,0.077 0.047,0.0971 0.0362,0.01209 0.13977,0.01021 0.27182,0.003 0.75858,0.34263 4.9958,2.0369 6.2761,2.649961 4.864849,2.329479 9.222849,7.351889 9.67228,11.146599 0.118431,0.999969 2.274769,3.154341 2.46393,3.154341 0.003,0 0.041,-0.0168 0.0496,-0.0196 0.34467,0.167169 1.082831,0.284218 1.939422,0.284218 2.886279,0 8.349599,1.39822 10.6696299,2.730582 2.433119,1.397238 4.755269,4.064659 6.29988,7.238839 0.67609,1.38938 1.24319,1.9926 1.38336901,1.993159 0.004,-0.005 0.01029,-0.014 0.0145,-0.0191 0.44632,0.122258 2.12828199,0.213939 4.13153999,0.213939 5.573332,0 6.9509611,0.39995 9.9813001,2.89854 1.26986,1.047041 2.409802,1.90677 2.669601,2.01848 l -0.003,0.02019 0.0367,-0.006 c 0.005,0.0011 0.01669,0.008 0.02021,0.008 0.009,0 0.02159,-0.007 0.0351,-0.0181 l 3.25769,-0.571532 c 2.796828,-0.785278 3.818318,-0.894029 6.904479,-0.734319 1.99218,0.103129 4.496361,0.47249 5.56504,0.821129 1.05469,0.344091 2.022401,0.540041 2.17506,0.442362 v 0.01601 l 2.665471,-0.80822 c 3.257962,-0.98819 8.107652,-1.120932 9.867612,-0.270241 0.59481,0.287491 0.87701,0.003 1.00253,0.003 0.0114,0 0.02,-0.003 0.0305,-0.004 -0.0105,0.0285 -0.0239,0.0516 -0.0408,0.0682 0.0245,-0.01799 0.0548,-0.0447 0.0904,-0.0749 0.057,-0.01659 0.0967,-0.0537 0.12144,-0.107471 0.44283,-0.425051 1.23753,-1.42729 1.18907,-2.91301 -0.13658,-4.181261 6.81499,-5.183661 11.20604,-3.96825 1.67436,0.46345 3.42302,0.696119 4.7625,0.633579 l 4.19561,-0.66562 -4.14859,-3.764619 c -0.38887,-0.320759 -0.7687,-0.62262 -1.14773,-0.92139 -1.35494,-1.749581 -5.56248,-6.133621 -7.54373,-7.60367 -2.75669,-2.045441 -7.09641,-4.264739 -10.23038,-5.231209 -2.15307,-0.663951 -5.35689,-1.347362 -12.876222,-2.746592 -4.53861,-0.844569 -7.023862,-2.121009 -9.74307,-5.00435 -0.646131,-0.68512 -1.223962,-1.36751 -1.76734,-2.106848 0.0563,-1.337681 0.0961,-3.834501 0.0961,-6.791312 0,-7.4568868 -0.0393,-7.9225088 -0.79116,-9.3291478 -1.534941,-2.87169396 -16.4610631,-14.5302642 -31.135061,-24.3189242 -3.71393,-2.47746 -6.083001,-4.03732 -7.546311,-4.96197 -2.417371,-1.95631 -4.27241,-3.44331 -6.572731,-5.25342 -1.91661,-1.50819 -10.623889,-2.59493 -10.688229,-2.5306 z m 82.529334,87.659759 c -0.0312,0.02289 -0.0621,0.0452 -0.0708,0.0481 0,0 0.0367,-0.01461 0.0708,-0.0481 z M 15.383364,22.527243 c 0.003,0.003 0.007,0.0105 0.01191,0.0227 0.0549,0.14315 0.0534,0.28942 0.0011,0.44649 -0.02249,-0.30176 -0.0331,-0.487958 -0.01289,-0.469228 z m 25.696103,8.53799 c 0.0181,0.0011 0.0364,0.0021 0.0548,0.003 0.38996,0.165891 0.80954,0.343641 0.79375,0.343641 z"
       id="path2187"
       inkscape:connector-curvature="0" />
  </g>
</svg>
