<?xml version="1.0" encoding="UTF-8" standalone="no"?>
<!-- Created with Inkscape (http://www.inkscape.org/) -->

<svg
   xmlns:dc="http://purl.org/dc/elements/1.1/"
   xmlns:cc="http://creativecommons.org/ns#"
   xmlns:rdf="http://www.w3.org/1999/02/22-rdf-syntax-ns#"
   xmlns:svg="http://www.w3.org/2000/svg"
   xmlns="http://www.w3.org/2000/svg"
   xmlns:sodipodi="http://sodipodi.sourceforge.net/DTD/sodipodi-0.dtd"
   xmlns:inkscape="http://www.inkscape.org/namespaces/inkscape"
   width="99.262703mm"
   height="110.04893mm"
   viewBox="0 0 99.262703 110.04893"
   version="1.1"
   id="svg8624"
   inkscape:version="0.92.5 (2060ec1f9f, 2020-04-08)"
   sodipodi:docname="TreeBody.svg">
  <defs
     id="defs8618" />
  <sodipodi:namedview
     id="base"
     pagecolor="#ffffff"
     bordercolor="#666666"
     borderopacity="1.0"
     inkscape:pageopacity="0.0"
     inkscape:pageshadow="2"
     inkscape:zoom="0.35"
     inkscape:cx="119.01185"
     inkscape:cy="327.96596"
     inkscape:document-units="mm"
     inkscape:current-layer="layer1"
     showgrid="false"
     inkscape:window-width="1920"
     inkscape:window-height="1055"
     inkscape:window-x="0"
     inkscape:window-y="0"
     inkscape:window-maximized="1" />
  <metadata
     id="metadata8621">
    <rdf:RDF>
      <cc:Work
         rdf:about="">
        <dc:format>image/svg+xml</dc:format>
        <dc:type
           rdf:resource="http://purl.org/dc/dcmitype/StillImage" />
        <dc:title></dc:title>
      </cc:Work>
    </rdf:RDF>
  </metadata>
  <g
     inkscape:label="Layer 1"
     inkscape:groupmode="layer"
     id="layer1"
     transform="translate(57.946884,-125.55873)">
    <path
       inkscape:connector-curvature="0"
       style="fill:#000000;stroke-width:0.26458332"
       d="m 4.5290267,125.55873 c -0.058,0 -0.126471,0.0309 -0.199469,0.0749 -0.398119,0.12205 -0.770176,0.55687 -1.255236,1.46193 -0.518743,0.96805 -0.711888,1.26574 -1.067621,1.2914 -0.004,0 -0.0079,0.003 -0.01296,0.003 -0.01323,0 -0.02929,-0.003 -0.04289,-0.003 -0.112184,0 -0.238628,-0.0198 -0.397907,-0.0548 -0.283448,-0.0623 -0.497496,-0.0706 -0.62735399,-0.0315 -0.0061,0.003 -0.01111,0.003 -0.0164,0.004 -0.005,0.003 -0.01032,0.003 -0.01508,0.005 -0.0684,0.0222 -0.110067,0.0568 -0.110067,0.10335 0,0.13724 -0.296068,0.54517 -0.657833,0.90694 -0.143016,0.14301 -0.31301,0.39979 -0.484751,0.71364 -0.217567,0.33861 -0.399468,0.7252 -0.492469,1.06661 -0.0789,0.20209 -0.15248001,0.40619 -0.21394201,0.60513 -0.178965,0.57944 -0.402299,1.14568 -0.597377,1.54099 -0.217143,0.33298 -0.449103,0.59412 -0.660955,0.71003 -0.43643,0.13724 -0.607669,-0.42484 -0.468683,-1.60972 l 0.160179,-1.36374 -1.024732,-0.46302 c -0.239739,-0.10832 -0.4495,-0.1959 -0.639762,-0.26612 -0.04839,-0.0193 -0.09499,-0.0354 -0.141076,-0.0506 -0.01297,-0.004 -0.02593,-0.009 -0.03876,-0.013 -0.03059,-0.01 -0.06175,-0.0193 -0.09147,-0.0268 -0.904081,-0.26668 -1.247272,0.0528 -1.786969,1.2051 -0.05868,0.12528 -0.123058,0.24624 -0.18759,0.36689 -0.03188,0.0553 -0.06001,0.0975 -0.093,0.15605 -0.0984,0.17439 -0.194839,0.33431 -0.290433,0.48731 -0.577294,0.86403 -1.275583,1.51898 -1.896533,1.73789 -0.31877,0.11237 -0.68162,-0.051 -1.088814,-0.4904 -0.3722417,-0.40172 -0.5760767,-0.60153 -0.7968447,-0.61497 l -0.146236,-0.14005 -0.413437,0.38862 c -0.09239,0.0668 -0.193146,0.14351 -0.3116,0.23667 -0.369994,0.29104 -0.999252,0.52917 -1.39835,0.52917 -0.39915,0 -0.874077,0.17859 -1.055237,0.39687 -0.06101,0.0735 -0.121973,0.13362 -0.182933,0.18553 -0.168037,0.0923 -0.297551,0.15468 -0.406189,0.17984 -0.03799,0.004 -0.0758,0.004 -0.113162,0.003 -0.110146,-0.014 -0.223255,-0.0573 -0.342106,-0.13436 -0.0961,-0.0732 -0.204576,-0.17176 -0.345202,-0.30384 -0.01005,-0.009 -0.01984,-0.0164 -0.02945,-0.0254 -0.01217,-0.0132 -0.02381,-0.0225 -0.03617,-0.0362 -0.280352,-0.30975 -0.527394,-0.4813 -0.761709,-0.50694 -0.0385,-0.013 -0.07371,-0.0222 -0.10025,-0.0222 -0.01005,0 -0.02064,0.003 -0.03101,0.004 -0.0079,0 -0.0172,-0.004 -0.02434,-0.004 -0.11721,0 -0.247597,0.0927 -0.383963,0.25117 -0.36883,0.36333 -0.744194,1.15925 -1.212321,2.47375 -0.646801,1.81615 -1.05754,2.3531 -1.879468,2.26393 -0.602321,-0.10697 -1.267748,-0.45561 -1.879491,-0.97721 -1.048808,-0.98679 -1.934528,-2.6266 -2.374001,-4.53046 -0.274028,-1.18716 -0.364013,-1.29244 -1.182872,-1.38803 -0.487416,-0.0569 -0.886249,-0.0721 -0.886249,-0.0336 0,0.0385 0.352081,0.62529 0.782373,1.30379 0.08469,0.13348 0.168857,0.28551 0.251672,0.44648 0.169492,0.3691 0.328136,0.7271 0.458364,1.05368 0.358325,0.94543 0.614442,1.9481 0.601504,2.45824 -0.0029,0.0156 -0.0069,0.0276 -0.0098,0.0424 -0.03469,0.13864 -0.0993,0.23194 -0.204126,0.27647 -0.288237,-0.0326 -0.978323,-0.29946 -1.731671,-0.68213 l -1.535827,-0.78031 -0.07803,-0.0439 -0.06615,-0.0372 -0.305409,0.0899 -1.696006,0.46509 c -1.841421,0.50517 -2.061819,0.51633 -2.791566,0.13901 -1.043834,-0.53983 -1.347735,-0.51686 -1.347735,0.10179 0,0.35499 -0.222726,0.54517 -0.727604,0.62166 -1.007718,0.15267 -0.313769,0.18238 0.851112,0.13229 0.0029,0.003 0.0032,0.007 0.0053,0.009 0.02196,0.022 0.170127,0.019 0.365336,0.005 0.20275,0.0214 0.502603,-0.009 0.897626,-0.0873 0.624231,-0.0465 1.265952,-0.1076 1.81229,-0.18034 l 1.532202,-0.20412 0.08527,0.008 c 0.523849,0.0484 1.033701,0.14549 1.545114,0.29405 l 1.365806,0.67747 c 1.169643,0.5805 2.193184,1.2129 3.012757,1.84227 0.11856,0.0952 0.242253,0.18965 0.354489,0.28474 0.126471,0.11417 0.251196,0.23024 0.373116,0.3488 0.269398,0.26199 0.47916,0.47173 0.66249,0.66096 0.185287,0.22505 0.335359,0.4449 0.44442,0.65577 0.343721,0.66484 0.346022,0.87982 0.01958,1.66087 -0.128112,0.30657 -0.288211,0.59753 -0.430478,0.80563 -0.102102,0.12575 -0.207301,0.22354 -0.310065,0.28217 -0.251751,-0.005 -0.888232,-0.31382 -1.529609,-0.75501 -1.742652,-1.19875 -3.26861,-1.71847 -5.575882,-1.84121 -0.929561,-0.13978 -1.765591,-0.17679 -2.325449,-0.0558 -0.03979,0.009 -0.148194,0.0217 -0.214975,0.032 -3.604075,0.047 -6.037712,0.35954 -8.271854,1.04489 -0.476012,0.146 -0.851667,0.2562 -1.177687,0.34521 -0.272891,0.0686 -0.514932,0.12615 -0.733822,0.17414 -0.648864,0.12065 -1.016952,0.0652 -1.621604,-0.11369 -1.297649,-0.38391 -3.309541,-2.30386 -4.159436,-3.96978 -0.169889,-0.33306 -0.355573,-0.62 -0.514165,-0.81701 -0.03892,-0.0602 -0.0844,-0.11147 -0.13282,-0.15345 -0.0648,-0.0626 -0.120783,-0.10235 -0.159174,-0.10235 -0.01032,0 -0.0172,0.003 -0.02685,0.004 -0.01005,-0.003 -0.01905,-0.004 -0.02842,-0.004 -0.02871,0 -0.04913,0.008 -0.06564,0.0185 -0.01905,0.007 -0.03119,0.0193 -0.04598,0.0295 -0.107712,-0.0763 -0.11938,-0.0649 -0.04445,0.0413 -0.09959,0.14113 0.01667,0.42789 0.329195,0.68731 0.66667,0.5533 0.968216,1.80991 0.537422,2.24068 -0.329301,0.3293 -0.142928,0.51596 1.415415,1.41438 3.134386,1.80713 4.583456,2.04984 6.864191,1.15083 1.8914,-0.74551 3.328167,-0.80666 4.183724,-0.17827 0.169386,0.12441 0.275669,0.20955 0.323479,0.29612 -0.02513,0.1933 -0.190949,0.44974 -0.471276,0.79735 -0.01164,0.0127 -0.01534,0.018 -0.02738,0.031 -0.04651,0.0504 -0.07821,0.0907 -0.120941,0.13851 -0.117713,0.0987 -0.213889,0.21039 -0.281622,0.32348 -0.758138,0.92876 -0.571871,1.16062 0.521917,0.38965 1.009041,-0.71125 3.939646,-1.49688 5.752121,-1.54771 0.05159,0.003 0.09686,0.0103 0.145204,0.0156 0.335518,0.0907 1.159404,0.69813 1.935797,1.43867 1.484207,1.41571 2.514468,3.24149 2.942987,5.01881 0.07448,0.49847 0.111601,1.02282 0.111601,1.5849 0,0.50541 -0.004,0.89832 -0.03254,1.25111 -0.0486,0.28853 -0.116787,0.58039 -0.205687,0.88675 -0.261329,0.70128 -0.898816,2.17467 -1.541489,3.54502 -0.71501,1.52469 -1.366678,3.10489 -1.447985,3.51139 -0.039,0.19505 -0.101124,0.38667 -0.168989,0.54467 -0.005,0.0103 -0.009,0.022 -0.01349,0.032 -0.06982,0.15539 -0.145071,0.27303 -0.210846,0.31369 -0.527659,0.3261 -1.576097,-0.22579 -2.850992,-1.50069 l -1.141545,-1.14154 -0.261461,-0.29869 0.06974,0.37209 v 0.49712 c 0,0.41923 -0.07469,0.8369 -0.165867,0.92811 -0.131525,0.13155 -0.6985,-0.0828 -1.394249,-0.48575 -0.01826,-0.0106 -0.03834,-0.0233 -0.05683,-0.0341 -0.410475,-0.24136 -0.861219,-0.54391 -1.293469,-0.88059 -1.137311,-0.8858 -2.078593,-1.38742 -3.033924,-1.53477 -0.09628,-0.0183 -0.193331,-0.0311 -0.290407,-0.0398 -0.01191,0 -0.02381,-0.003 -0.03567,-0.004 -0.0622,-0.005 -0.125095,-0.008 -0.188093,-0.009 -0.207221,-0.007 -0.417724,0.008 -0.635106,0.0439 -0.75311,0.0996 -1.560195,0.39389 -2.513541,0.88313 -0.350917,0.1801 -0.684742,0.33859 -0.995812,0.48112 -0.676487,0.2582 -1.212956,0.39084 -1.429888,0.33642 -0.05329,-0.0135 -0.12491,-0.0443 -0.203597,-0.0822 -0.595524,-0.3346 -1.494499,-1.04805 -2.021575,-1.59782 -0.182219,-0.22096 -0.330042,-0.43273 -0.428414,-0.6191 -0.06289,-0.28882 -0.005,-0.79971 0.141605,-1.18441 0.274955,-0.72316 0.266965,-0.73353 -0.21291,-0.29922 -0.16465,0.14899 -0.298397,0.25755 -0.419603,0.32711 -0.05122,0.008 -0.103399,0.0175 -0.165364,0.03 -0.100066,0.0201 -0.195369,0.0291 -0.286809,0.0305 -0.183082,-0.0626 -0.38898,-0.22857 -0.684705,-0.50638 -0.500565,-0.47028 -0.604599,-0.51758 -0.737949,-0.21395 -0.175234,0.0435 -0.177351,0.23715 -0.02223,0.55346 0.0734,0.21463 0.225266,0.45566 0.455268,0.70847 0.0079,0.008 0.01799,0.0206 0.02593,0.0295 0.05879,0.0773 0.116046,0.15328 0.183436,0.23667 0.190949,0.23636 0.354383,0.44299 0.520911,0.65268 0.152215,0.21071 0.295302,0.41748 0.397378,0.58653 0.263631,0.43656 0.777161,1.11437 1.141043,1.50584 0.01746,0.0191 0.03186,0.0367 0.04855,0.0553 0.05601,0.0893 0.09673,0.16521 0.140573,0.2434 0.235082,0.45066 0.285882,0.76043 0.166925,1.01234 -0.188542,0.25377 -0.564356,0.49512 -1.148265,0.76015 -0.421111,0.19114 -0.877888,0.32753 -1.360647,0.40876 -0.0029,0 -0.0064,1e-4 -0.0093,0.003 -0.0061,0 -0.01164,0.003 -0.01746,0.003 -0.0789,0.013 -0.158538,0.0236 -0.23876,0.0336 -0.110093,0.0132 -0.221324,0.0249 -0.333824,0.0341 -0.268261,0 -0.565865,-0.009 -0.916226,-0.0269 -0.315886,-0.0161 -0.608727,-0.0394 -0.882624,-0.0703 -0.363643,-0.0603 -0.731652,-0.13981 -1.103285,-0.25017 -0.409099,-0.12147 -0.77388,-0.27633 -1.112097,-0.47643 -0.417671,-0.31673 -0.922628,-0.81785 -1.65518,-1.62266 -0.162957,-0.23114 -0.326099,-0.47602 -0.492496,-0.75446 -0.555095,-0.92893 -1.113366,-1.40145 -1.77456,-1.49294 -0.03749,-0.0159 -0.06945,-0.0259 -0.09456,-0.0259 -0.043,0 -0.07527,0.006 -0.102315,0.0135 -0.02701,0 -0.05281,-0.005 -0.08011,-0.005 -0.452888,0.008 -0.454131,0.0233 -0.01746,0.27749 0.254662,0.14833 0.463021,0.38421 0.463021,0.52401 0,0.13981 0.625078,1.02661 1.389062,1.97043 1.719792,2.12466 3.059219,2.84483 5.388319,2.89851 0.920803,0.0212 1.752442,0.11742 1.848459,0.21344 0.09599,0.096 -0.0345,0.61468 -0.289904,1.1529 -0.30734,0.64759 -0.406374,1.23703 -0.351393,2.15749 0.005,0.11885 0.01349,0.2409 0.02685,0.36793 0.08062,0.91683 0.02249,1.60525 -0.153485,1.78128 -0.210397,0.21042 -0.205343,0.2899 0.01799,0.2899 0.565309,0 0.894636,-1.00856 0.635635,-1.94664 -0.194389,-0.70403 -0.07731,-1.41327 0.33692,-2.11614 0.26932,-0.36624 0.653283,-0.79182 1.07487,-1.20922 0.193728,-0.18667 0.401003,-0.37455 0.612881,-0.55605 1.020101,-0.76494 2.400327,-1.50892 4.125833,-2.21536 2.112275,-0.86479 3.247364,-1.19806 3.659214,-1.07437 0.328375,0.0986 1.668436,1.28479 2.978124,2.63602 2.096981,2.1635 2.568231,2.51521 3.945996,2.94399 1.242483,0.38672 1.719104,0.70012 2.315104,1.52292 0.203571,0.28101 0.38743,0.59092 0.522976,0.86609 0.134143,0.3262 0.204681,0.60018 0.214974,0.8165 -0.068,0.41767 -0.426271,0.59761 -0.867119,0.48162 0,-1.3e-4 -1.06e-4,0 -0.0032,0 -0.1338,-0.0509 -0.279003,-0.11909 -0.440267,-0.21447 -0.0071,-0.004 -0.01429,-0.008 -0.02117,-0.0124 -0.0444,-0.0266 -0.09319,-0.0604 -0.139514,-0.0904 -0.163751,-0.11848 -0.343218,-0.24757 -0.537449,-0.38759 -0.667914,-0.52834 -1.032484,-0.74541 -1.365806,-0.73173 -0.04289,-5e-5 -0.08419,0.005 -0.12401,0.0146 -0.08062,0.0172 -0.162295,0.0464 -0.247544,0.0889 -0.01588,0.003 -0.03164,0.005 -0.04755,0.009 -0.678577,0.17031 -0.668231,0.19182 1.040765,2.06293 1.40179,1.53474 1.915029,2.25772 1.882564,2.95331 -0.04929,0.19563 -0.119327,0.4405 -0.203597,0.71932 -0.01693,0.0357 -0.03194,0.0706 -0.05064,0.1075 -0.657013,1.29074 -1.290955,4.25423 -1.022165,4.77954 0.06771,0.13229 0.138668,0.33972 0.210847,0.60256 0.08879,0.53946 0.210661,1.17044 0.375682,1.9885 0.02143,0.10679 0.04122,0.22175 0.06202,0.33229 0.04591,0.31859 0.09861,0.64918 0.161237,0.97772 v 0.004 c 2.12e-4,0.003 0,0.003 0,0.005 0.249767,1.85695 0.445982,4.02203 0.489373,5.75881 0.04673,1.86994 0.159544,3.42114 0.259424,3.61633 -0.155866,2.58024 -0.39026,5.76731 -0.915723,8.01293 v 0.003 c 0.13044,0.17838 0.25535,0.28498 0.370523,0.32401 0.115147,0.039 0.220477,0.0109 0.310039,-0.0791 0.08961,-0.09 0.163856,-0.24191 0.217566,-0.45061 0.05371,-0.20871 0.08697,-0.47459 0.09456,-0.79169 0.01058,-0.44172 0.05162,-0.86352 0.109034,-1.21647 0.05752,-0.35298 0.131869,-0.63712 0.208254,-0.80201 0.03281,-0.13539 0.06231,-0.22759 0.08321,-0.20672 0.0069,0.007 0.01614,0.0312 0.02646,0.06 0.0513,-0.0262 0.100753,0.009 0.143668,0.13023 0.0032,0.009 0.0093,0.042 0.01296,0.0543 -0.04175,-0.11033 -0.08916,-0.14417 -0.138483,-0.11885 -0.01005,-0.0288 -0.01958,-0.0534 -0.02646,-0.0599 -0.0209,-0.0209 -0.05093,0.0713 -0.08374,0.20669 -0.15277,0.3298 -0.295725,1.13504 -0.316759,2.01851 -0.03021,1.26838 -0.470932,1.71093 -0.992717,0.99734 -0.260905,-0.35687 -0.332634,-0.0811 -0.349832,1.51051 -0.01667,0.38743 -0.03201,0.80611 -0.04961,1.41385 -0.0313,1.08072 -0.0554,1.77875 -0.105939,2.26756 -0.07972,0.39135 -0.197723,0.67556 -0.377243,0.96997 -0.631164,1.03526 -1.245553,1.08913 -2.588472,0.22635 -1.341491,-0.86186 -2.558389,-1.20878 -4.238493,-1.19063 -0.474345,-0.0175 -0.931148,0.01 -1.359614,0.0858 -1.564482,0.2009 -2.337859,0.75999 -3.061309,2.09963 -0.262943,0.48683 -0.405606,0.72927 -0.621162,0.82579 h -0.743573 c -0.07141,-0.0119 -0.139224,-0.0225 -0.222726,-0.0377 -1.289156,-0.23294 -3.110098,-0.15354 -3.969279,0.17312 -0.99195,0.37714 -1.455262,1.62549 -1.719263,4.63021 -0.154384,1.75707 -0.38444,2.93764 -0.727101,3.65455 -0.131948,0.22472 -0.240004,0.39378 -0.363273,0.51832 -0.05591,0.0434 -0.117687,0.0799 -0.179335,0.11626 -0.240215,0.1225 -0.52959,0.2045 -0.881062,0.26458 -0.272468,0.003 -0.582851,-0.0143 -0.871802,-0.0543 -0.593196,-0.0821 -1.435656,-0.037 -1.872219,0.10028 l -0.793749,0.24958 0.793749,0.0269 c 1.251321,0.0415 1.984375,0.31255 1.984375,0.7333 0,0.41058 -1.009703,1.70714 -1.859835,2.50991 -0.0675,0.0538 -0.13552,0.10449 -0.203624,0.15502 -0.083,0.0604 -0.165893,0.12105 -0.249581,0.17674 -0.03051,0.0206 -0.06088,0.0415 -0.09147,0.0615 -0.266912,0.17164 -0.534855,0.31446 -0.798407,0.43048 -0.370628,0.12806 -0.80129,0.25128 -1.162711,0.32195 -0.979858,0.19145 -1.009253,0.22137 -0.396875,0.40565 1.45034,0.43643 2.49801,0.27401 3.485568,-0.54001 1.223459,-1.00846 5.090186,-2.64792 6.245092,-2.64792 1.285743,0 2.648718,-0.39069 3.589973,-0.99838 0.392324,-0.20045 0.720804,-0.42278 0.908473,-0.64958 0.04548,-0.055 0.109273,-0.20638 0.178779,-0.39222 0.306149,-0.45061 0.467413,-0.97494 0.630978,-1.91048 0.163672,-0.93601 0.406533,-1.81112 0.540015,-1.94458 0.10205,-0.10207 0.248867,-0.14173 0.418597,-0.13901 0.22053,0.0478 0.480484,0.13589 0.763244,0.26355 0.105304,0.0504 0.21246,0.10208 0.333322,0.1633 0.02117,0.0111 0.03945,0.0212 0.05995,0.032 0.54274,0.37486 1.015498,0.91567 1.087782,1.39216 0.005,0.0711 0.0074,0.14801 0.0082,0.22842 -0.03048,0.44746 -0.265668,0.66413 -1.008724,0.95601 -1.006766,0.39545 -1.896004,1.48622 -1.896004,2.32646 0,0.0811 0.0034,0.14174 0.01191,0.19018 -0.0358,0.24043 0.04813,0.21461 0.276992,0.0336 0.063,-0.0373 0.147903,-0.0951 0.241327,-0.15967 0.208201,-0.1078 0.544301,-0.21649 0.918818,-0.31007 0.255112,-0.0511 0.524722,-0.0998 0.797375,-0.14158 1.181788,-0.006 1.572049,-0.206 2.912983,-1.47071 1.238647,-1.16819 2.826782,-1.95898 4.300511,-2.17093 0.296387,-0.0198 0.602774,-0.023 0.926042,-0.008 l 0.788591,0.0377 c 0.413914,0.088 0.706702,0.23735 0.846984,0.42735 l -0.02947,0.63407 c -0.09059,0.24146 -0.145177,0.86633 -0.123508,1.479 0.02461,0.69215 -0.11549,1.4451 -0.320886,1.72598 -0.0808,0.11054 -0.145045,0.19299 -0.20828,0.25321 -0.03239,0.0209 -0.0662,0.0399 -0.101786,0.0532 -0.09911,0.0371 -0.21291,0.0418 -0.33901,0.0233 -0.163036,-0.048 -0.379519,-0.14616 -0.707444,-0.30179 l -0.216535,-0.10284 c -0.03889,-0.0243 -0.0799,-0.0438 -0.122978,-0.0584 l -0.652674,-0.30953 -1.12395,1.2242 c -0.368168,0.401 -0.614865,0.72138 -0.754486,0.95239 -0.130757,0.0148 -0.179282,0.0791 -0.09922,0.15917 0.0029,0.003 0.0079,0.003 0.01191,0.005 -2.39e-4,0 0,0 0,0.003 -0.0029,0.003 -0.0032,0.004 -0.0032,0.006 -0.0866,0.19744 -0.0385,0.27551 0.136419,0.21344 l -0.0042,0.006 0.0071,-0.007 c 0.183833,-0.0667 0.502312,-0.28321 0.951362,-0.67749 0.552583,-0.48517 0.94234,-0.70802 1.411288,-0.67387 0.166396,0.0385 0.352266,0.0959 0.565335,0.17674 0.188198,0.0789 0.395553,0.1728 0.643891,0.293 0.118798,0.068 0.236193,0.13465 0.370522,0.21757 0.862092,0.5321 1.144984,1.53286 0.652172,2.30788 -0.388224,0.61063 -1.525985,0.8473 -2.733173,0.56843 -0.29091,-0.0672 -0.673338,-0.10819 -1.095031,-0.13229 -0.738717,-0.103 -1.510268,-0.0892 -2.458244,0.0511 -0.889556,0.0773 -1.747123,0.21037 -2.36937,0.39328 -0.381741,0.11218 -0.817192,0.3525 -1.260369,0.68315 -0.0527,0.0382 -0.107977,0.0799 -0.161767,0.12301 -0.205263,0.16301 -0.41058,0.34557 -0.612351,0.54361 -0.204259,0.19259 -0.417169,0.40842 -0.646986,0.65734 -0.01455,0.0159 -0.0254,0.0262 -0.03979,0.0418 -1.261666,1.26461 -1.778503,1.41944 -3.023606,1.13223 -0.885375,-0.20423 -2.069782,-0.27932 -3.110388,-0.24185 l -0.670243,-0.0754 0.126603,0.10437 c -0.0657,0.005 -0.123057,0.0138 -0.186557,0.0201 0,8e-5 -0.0027,-1e-4 -0.0027,0 -0.220451,0.014 -0.40005,0.0371 -0.538983,0.0677 -0.369967,0.0628 -0.670084,0.14772 -0.853678,0.25474 -0.639948,0.37312 -0.626084,0.3801 0.423227,0.22738 0.741601,-0.10792 1.343713,-0.0235 1.904789,0.26665 0.451299,0.23336 1.213776,0.42402 1.693942,0.42323 0.480165,0 1.420865,0.19502 2.090843,0.43513 0.279744,0.10025 0.53594,0.17542 0.775652,0.22426 0.381847,0.10891 0.69731,0.12356 1.031478,0.0265 0.584015,-0.10737 1.131914,-0.44421 1.810227,-1.05211 0.531627,-0.47649 1.016582,-0.84725 1.492911,-1.12242 0.03601,-0.0204 0.07202,-0.0414 0.1075,-0.061 1.467935,-0.80457 2.878164,-0.67916 5.338181,0.22789 1.234599,0.45521 2.672371,0.79375 3.370845,0.79375 h 0.02791 0.0058 0.02064 c 0.726519,-0.003 1.074473,-0.0747 1.546145,-0.46043 0.161952,-0.0927 0.311441,-0.1996 0.444421,-0.32451 0.265456,-0.24937 0.5198,-0.56399 0.760677,-0.92191 1.181788,-1.48887 1.820175,-3.42234 1.907381,-5.78983 0.03389,-0.92089 0.08779,-1.71993 0.132821,-2.01952 0.06538,-0.11226 0.16764,-0.21725 0.316759,-0.32969 0.721757,-0.43942 2.357729,-1.19007 3.127455,-1.44024 0,-10e-5 1.06e-4,0 0.0032,0 0.04789,-0.008 0.09848,-0.0188 0.141578,-0.0238 0.216033,-0.0251 0.391504,-0.0388 0.542608,-0.0403 0.03119,0 0.06096,0.004 0.09094,0.006 0.852646,0.14383 1.171231,0.79661 1.150329,2.24277 -0.0069,0.50276 -0.02222,0.84167 -0.07546,1.11157 -0.06858,0.21111 -0.15322,0.41037 -0.253709,0.59015 -0.153829,0.20646 -0.37891,0.40992 -0.721413,0.69813 -0.06149,0.0518 -0.09369,0.0837 -0.146764,0.12973 -0.39968,0.18666 -0.529776,0.26347 -0.386027,0.35292 -0.225928,0.23522 -0.199814,0.30568 0.0703,0.23567 0.144463,-0.0375 0.264742,-0.0557 0.365337,-0.0522 0.108823,0.0405 0.197723,0.0777 0.268208,0.11628 0.0762,0.0965 0.110517,0.25763 0.106442,0.50073 -2.65e-4,0.007 -1.06e-4,0.0206 -0.0032,0.0284 -0.01005,0.3679 -0.10205,0.91392 -0.266647,1.70325 -0.539803,2.58896 -0.322289,3.73569 0.976683,5.14491 0.449765,0.48792 0.83058,0.98311 0.96946,1.24696 0.02839,0.0994 0.04276,0.19338 0.04186,0.28059 0,0.006 -0.0032,0.0132 -0.0032,0.019 -0.131075,0.49773 -0.978535,0.60457 -2.335239,0.28008 -3.261942,-0.78015 -4.310116,-0.46757 -6.57016,1.95803 l -0.317791,0.34104 c -0.01005,0.0101 -0.01773,0.0185 -0.02738,0.0284 l -0.410845,0.43151 c -0.560917,0.54697 -0.898023,0.82891 -1.254178,0.96893 h -2.411159 c -2.287535,0 -2.853558,0.081 -3.235987,0.46302 -0.566446,0.56584 -0.424894,0.57767 0.796872,0.0672 0.845291,-0.35319 1.139852,-0.35102 2.743994,0.0222 0.688605,0.16024 1.246982,0.25686 1.742547,0.28112 0.168645,0.035 0.30935,0.0624 0.368458,0.0672 0.209444,0.0169 0.491887,-0.0469 0.81235,-0.16899 0.08649,-0.0259 0.173858,-0.0566 0.261991,-0.0915 0.590629,-0.2059 1.185889,-0.57651 1.951302,-1.15187 0.374729,-0.2817 0.661273,-0.49421 0.906912,-0.65783 0.172006,-0.10557 0.332158,-0.19892 0.475959,-0.27699 0.496491,-0.23511 0.910696,-0.22389 1.833483,-0.16587 0.131313,0.0275 0.262917,0.0426 0.378778,0.0336 0.852223,0.0967 1.894549,0.34296 2.471155,0.59378 1.950482,0.84836 3.358806,0.99425 4.009575,0.41548 0.858071,-0.76309 2.062692,-3.52804 2.06293,-4.73512 0,-0.0301 -0.0026,-0.0549 -0.0026,-0.0837 0,-0.019 0.0026,-0.0406 0.0026,-0.0589 0,-0.009 -0.0026,-0.018 -0.0026,-0.0269 1.59e-4,-0.008 0.0026,-0.0188 0.0026,-0.0269 0,-0.0161 -0.0048,-0.0351 -0.0058,-0.0522 0,-0.0148 -7.9e-5,-0.0297 -0.0032,-0.0444 0,-0.0101 -1.05e-4,-0.0209 -0.0032,-0.031 0,-0.0101 -0.0032,-0.0198 -0.0042,-0.03 -0.05091,-0.65149 -0.281808,-1.00558 -1.042326,-1.74821 -1.279102,-1.24902 -1.569985,-2.51829 -0.794253,-4.01734 0.403411,-0.71718 1.042591,-1.49825 1.925453,-2.37918 0.184573,-0.18217 0.382481,-0.37076 0.588592,-0.56277 0.402696,-0.35989 0.839946,-0.73036 1.328102,-1.11879 1.10752,-0.8813 1.736302,-1.27294 2.237581,-1.27537 h 0.0032 c 0,8e-5 0.0032,0 0.0042,0 0.01693,0 0.03291,0.003 0.04961,0.004 0.04702,0.004 0.09411,0.0103 0.1421077,0.0185 0.220557,0.0472 0.424577,0.1733 0.645954,0.37364 0.137371,0.12433 0.241935,0.23278 0.316283,0.34933 0.100647,0.33338 0.07435,0.80063 -0.06874,1.42626 -0.101627,0.33692 -0.240083,0.74682 -0.425291,1.27694 -1.0805057,3.09266 -0.8519587,4.18269 0.877464,4.18269 0.310991,0 0.511545,0.006 0.635608,0.046 0.0957,0.1265 0.133668,0.29917 0.118851,0.53536 -0.01085,0.047 -0.02064,0.0913 -0.03461,0.14626 -0.09551,0.3768 -0.168566,0.71951 -0.220663,1.04127 -0.01667,0.0732 -0.02929,0.14383 -0.04239,0.21497 -0.151871,0.54743 -0.137001,1.08879 0.0703,1.68053 0.262519,1.03831 1.000257,1.99612 2.403448,3.40805 0.875427,0.88087 1.673119,1.92712 1.773026,2.32492 0.148511,0.59174 0.224605,0.64672 0.417036,0.30284 0.168381,-0.30086 0.0812,-0.81534 -0.201533,-1.42782 -0.01799,-0.0483 -0.03683,-0.0972 -0.05892,-0.14677 -0.02434,-0.0544 -0.0599,-0.11395 -0.0894,-0.17052 -0.03278,-0.0628 -0.06014,-0.12354 -0.09972,-0.18966 -0.07541,-0.12565 -0.163988,-0.25781 -0.266647,-0.39946 -0.01349,-0.0185 -0.03201,-0.041 -0.04601,-0.06 -0.277151,-0.40687 -0.608118,-0.82682 -0.995283,-1.24074 -1.981412,-2.11828 -1.897459,-3.43572 0.284215,-4.46121 1.961939,-0.92224 2.796461,-0.97375 3.665935,-0.22585 0.59684701,0.51337 0.76755601,0.91942 0.87280701,2.07793 0.01852,0.20301 0.04125,0.38894 0.06924,0.56224 0.01005,0.47445 0.06191,0.76679 0.222223,1.01491 0.0029,0.003 0.0032,0.005 0.0042,0.007 0.06339,0.12488 0.139594,0.22873 0.234103,0.3116 0.01349,0.0119 0.02868,0.0222 0.04236,0.0341 0.0544,0.0546 0.115781,0.11121 0.181901,0.16899 0.302101,0.30605 0.71720599,0.55346 1.29656399,0.8077 1.945957,0.85396 3.0607,0.8828 5.41364,0.13954 0.779621,-0.2463 1.570169,-0.45411 2.139394,-0.57362 0.493183,-0.0698 0.9332653,-0.064 1.3673673,0.031 0.515223,0.16026 1.124373,0.43738 1.581811,0.71107 0.147796,0.0951 0.307155,0.2087 0.466117,0.32244 0.06969,0.0616 0.125386,0.12063 0.158141,0.17365 0.365495,0.59137 2.623582,1.82986 3.336211,1.82986 0.179784,0 0.460428,-0.0767 0.775679,-0.19844 0.02302,-0.008 0.04582,-0.0175 0.06871,-0.0265 0.03291,-0.0132 0.06572,-0.0267 0.09922,-0.0408 0.04212,-0.018 0.08451,-0.0347 0.126629,-0.0553 0.31123,-0.13938 0.636746,-0.31253 0.928106,-0.50178 l 1.266057,-0.82217 -1.455208,0.20722 c -2.942352,0.41955 -2.856944,0.45871 -5.20536,-2.36781 -0.330067,-0.39727 -0.578379,-0.5711 -1.068678,-0.64285 -0.214921,-0.0403 -0.467995,-0.0501 -0.820103,-0.0501 h -0.0061 c -0.01085,-5e-5 -0.01931,0 -0.03048,0 -0.08242,0 -0.177509,0.004 -0.279585,0.0103 -0.7821883,0.0288 -1.9140233,0.19169 -2.6437703,0.38759 -0.53594,0.14383 -1.044681,0.2444 -1.527043,0.30747 -0.557186,0.0506 -1.116726,0.0645 -1.615387,0.0331 -0.16838,-0.0106 -0.31496,-0.0212 -0.454236,-0.0326 -0.211376,-0.0341 -0.413068,-0.0805 -0.604626,-0.13798 -0.0657,-0.0209 -0.132371,-0.0408 -0.195845,-0.0646 -0.01164,-0.004 -0.02275,-0.008 -0.03411,-0.0124 -0.577664,-0.22241 -1.060476,-0.5659 -1.453673,-1.02939 -0.116311,-0.14899 -0.223335,-0.30689 -0.313161,-0.48059 -0.447437,-0.86524 -0.284242,-1.13496 0.906409,-1.49863 0.363803,-0.1111 1.078178,-0.49673 1.5875,-0.8573 0.509323,-0.36063 0.687917,-0.56568 0.396875,-0.45527 -0.955092,0.36237 -1.559057,0.59134 -1.978157,0.7302 -0.172879,0.019 -0.34536,0.0338 -0.50591,0.0377 -0.03072,2.1e-4 -0.06691,0 -0.09562,0 -0.01297,1.6e-4 -0.02434,-8e-5 -0.03667,0 -0.234712,-0.003 -0.400738,-0.0249 -0.536417,-0.0951 -0.230716,-0.19423 -0.4191,-0.54825 -0.4191,-0.79066 0,-0.63437 -1.35670299,-2.64152 -1.90272399,-2.81482 -0.01826,-0.006 -0.04323,-0.01 -0.06562,-0.014 -0.23032001,-0.12322 -0.46495201,-0.0837 -0.88987301,0.0382 -0.169889,0.0278 -0.341498,0.0618 -0.50591,0.1075 -0.38346,0.10647 -0.728477,0.17774 -1.042326,0.22116 -0.610976,0.0375 -1.183031,-0.022 -1.571466,-0.17311 -0.481833,-0.28808 -0.656034,-0.85786 -0.518848,-1.71567 0.232939,-1.45679 1.410335,-3.53475 2.453614,-4.33049 0.844708,-0.64428 0.888391,-0.64984 1.930109,-0.23304 1.20816601,0.48339 3.471915,0.55287 4.516516,0.15658 0.386504,-0.0376 0.745834,-0.0696 0.961179,-0.0827 0.07821,-0.005 0.158009,-0.0185 0.237728,-0.0305 0.03969,0.0206 0.0798,0.043 0.121946,0.0693 0.288793,0.18034 0.509535,0.2069 0.509535,0.061 0,-0.16838 0.08599,-0.3066 0.224261,-0.41082 0.0029,0 0.0032,-0.003 0.0042,-0.003 0.349621,-0.25969 1.037908,-0.29787 1.604539,-0.005 0.318109,0.16449 0.546074,0.30885 0.722948,0.47284 l 0.0032,0.003 c 0.0449,0.0434 0.08469,0.0868 0.124539,0.13022 0.266436,0.31655 0.378936,0.73332 0.483685,1.50067 0.0069,0.0534 0.01588,0.0996 0.02381,0.14936 0.01773,0.22166 0.05382,0.39478 0.106972,0.49919 0.09221,0.32303 0.201136,0.49514 0.304905,0.51882 0.0421,0.0267 0.0853,0.0444 0.13126,0.0444 0.148537,0 0.220054,-0.48086 0.226325,-1.05781 0.0061,-0.10951 0.0098,-0.22521 0.0098,-0.35192 0,-1.29527 -0.08768,-1.52755 -0.805629,-2.13167 -1.208617,-1.01698 -2.761324,-1.36363 -4.221454,-0.94308 -1.813401,0.52231 -2.911713,0.4739 -3.31864199,-0.14573 -0.289666,-0.44101 -0.234712,-0.78005 0.40875399,-2.31458 0.452861,-0.99462 1.04947,-2.08616 1.559587,-2.79569 0.609838,-0.73583 1.241769,-1.10744 1.894972,-1.10744 0.08652,0 0.167852,0.004 0.246513,0.0124 0.009,0.003 0.01852,0.003 0.02789,0.004 0.0071,0 0.01402,0.003 0.02117,0.004 0.262732,0.0557 0.533321,0.17677 0.818568,0.35864 0.270272,0.20251 0.576183,0.49959 0.987002,0.94414 0.511678,0.55367 0.883629,0.90853 1.21957,1.1007 l 0.307473,0.32969 0.02998,-0.014 0.03514,0.0382 0.267678,-0.15245 c 0.04482,-0.009 0.0916,-0.0209 0.15039,-0.0403 0.267202,-0.0396 0.562028,-0.16124 0.933794,-0.35346 1.3006913,-0.67262 1.8857913,-0.0648 3.7976963,3.94343 2.355507,4.93824 3.607568,6.54794 5.51905,6.71224 0.649579,0.1288 1.292622,0.0509 1.892909,-0.23667 0.381185,-0.15734 0.712999,-0.4092 1.153927,-0.83976 1.425575,-1.39205 2.107327,-1.26254 4.304136,0.81701 0.115596,0.10943 0.221191,0.20235 0.322977,0.28784 0.01482,0.0169 0.02566,0.0313 0.04133,0.0486 0.118427,0.13089 0.311282,0.24622 0.523504,0.34004 0.09398,0.0467 0.186029,0.081 0.277495,0.10541 0.0079,0.003 0.01561,0.004 0.02328,0.007 0.09999,0.045 0.199311,0.077 0.282152,0.077 0.0079,0 0.01191,-0.003 0.01958,-0.003 0.307287,0.0559 0.557742,0.0378 0.587031,-0.0997 0.315622,-0.0672 0.118772,-0.16856 -0.805629,-0.59325 -0.762424,-0.35025 -1.593189,-1.04944 -2.248959,-1.89291 -1.586521,-2.0407 -2.561987,-2.28322 -3.558937,-0.86455 -0.05641,0.0569 -0.112183,0.11203 -0.170021,0.17518 -0.19259,0.21027 -0.372613,0.37793 -0.548799,0.50644 -0.99097,0.45977 -2.511187,-0.20479 -3.667495,-1.74821 -1.09347,-1.45952 -2.260336,-3.9394 -2.096506,-4.45555 0.08289,-0.26109 -0.01905,-0.61558 -0.226351,-0.78754 -0.207195,-0.17195 -0.71448,-0.98083 -1.127574,-1.79731 -1.173639,-2.31966 -1.92839,-2.99207 -3.358436,-2.99207 -0.320384,0 -0.574913,-0.0204 -0.8201293,-0.078 -0.0807,-0.0214 -0.162481,-0.0477 -0.245454,-0.078 -0.1896,-0.0817 -0.38227,-0.17436 -0.579279,-0.28165 -0.3488,-0.21764 -0.767979,-0.53935 -1.358079,-1.01441 -1.625071,-1.30831 -2.502694,-1.72696 -3.956341,-1.71254 -0.372084,-0.0135 -0.754989,0.0156 -1.152367,0.0822 -0.693261,0.0981 -1.250844,0.32853 -1.73169799,0.74724 -0.117342,0.0908 -0.228917,0.18663 -0.327633,0.29249 -0.07578,0.0813 -0.168328,0.21178 -0.269743,0.37725 -0.362797,0.50927 -0.690483,1.17181 -1.01854,2.03036 -1.21324701,3.17505 -2.38490101,3.80595 -3.96255901,2.1332 -1.175676,-1.24661 -2.032793,-4.05064 -2.0624,-6.74738 -0.02011,-1.81814 0.05882,-2.14289 0.812879,-3.3569 1.2192,-1.96271 1.253543,-2.23822 0.604097,-4.8364 -0.569833,-2.27962 -0.574543,-2.40099 -0.137451,-3.54552 0.24892,-0.65178 0.865531,-1.54776 1.370436,-1.9911 0.759539,-0.66688 1.145037,-0.80616 2.231919,-0.80616 0.98530801,0 1.45399101,-0.13983 1.87430801,-0.56017 0.723292,-0.72332 0.184097,-1.15049 -0.809784,-0.64183 -0.30675801,0.15701 -0.97409001,0.34134 -1.61332301,0.4589 -0.178964,0.0146 -0.361183,0.0277 -0.549328,0.0331 l -1.186497,0.0341 c -0.248444,-0.0856 -0.407697,-0.25893 -0.502285,-0.55449 v -1.94458 -1.44796 c 0.121655,-0.92864 0.390366,-1.46296 1.190095,-2.789 2.37797,-3.94295 5.896399,-6.84178 8.894049,-7.32822 0.780785,-0.12671 1.026874,-0.3261 1.345141,-1.08781 0.214286,-0.51289 0.670534,-1.15295 1.013354,-1.42264 0.342847,-0.26968 0.99404,-1.13916 1.447456,-1.93167 0.07321,-0.12789 0.14396,-0.24632 0.214472,-0.36327 0.5664463,-0.79256 1.2383823,-1.54339 1.6541483,-1.84745 0.759672,-0.39614 1.662615,-0.30081 3.074247,0.1442 l 1.417479,0.44698 0.679026,-0.66661 c 0.03971,-0.0359 0.08001,-0.076 0.119883,-0.11732 l 0.368988,-0.36224 c 1.062831,-1.04315 1.254866,-1.13157 2.145586,-0.98703 1.206817,0.19585 2.222156,-0.28707 3.145049,-1.49706 0.248391,-0.32565 0.419629,-0.56783 0.521917,-0.80254 0.08879,-0.13552 0.153485,-0.24992 0.153485,-0.30281 0,-0.009 -0.0066,-0.0379 -0.0077,-0.0506 0.0029,-0.007 0.0066,-0.018 0.0066,-0.0233 0,-0.0313 -0.01376,-0.10526 -0.03773,-0.20879 -0.0061,-0.37721 -0.134885,-0.85844 -0.369491,-1.64846 -0.137504,-0.46307 -0.288025,-0.81563 -0.42582,-1.04851 l -0.0589,-0.19019 -0.0032,0.014 -0.0048,-0.0146 -0.0082,0.077 c -0.286279,-0.40706 -0.489135,-0.23055 -0.340016,0.68832 0.204443,1.25986 -0.211111,2.85543 -0.886249,3.40238 -0.36359,0.29456 -0.933264,0.45649 -1.342548,0.45477 -0.151263,-0.0116 -0.292312,-0.0448 -0.416534,-0.10182 -0.0476,-0.0399 -0.07699,-0.0904 -0.07699,-0.15451 0,-0.49967 -0.663019,-0.25816 -1.823138,0.66405 -0.298317,0.23712 -0.591952,0.44939 -0.839231,0.61338 -0.260377,0.13909 -0.496861,0.24284 -0.669714,0.28578 -0.112421,-0.007 -0.247094,-0.0249 -0.398436,-0.0501 -1.024017,-0.20783 -3.088005,-0.82558 -3.337771,-1.03198 -0.3184,-0.26313 0.167613,-1.36708 2.180748,-4.95422 0.369967,-0.65921 0.654209,-1.59435 0.654209,-2.15077 0,-0.13205 0.01032,-0.26337 0.02791,-0.39068 0.0884,-0.365 0.190949,-0.67607 0.281119,-0.82011 0.0061,-0.008 0.01085,-0.018 0.01641,-0.0254 0.0268,-0.034 0.05429,-0.0633 0.08268,-0.0868 0.0353,-0.0293 0.06675,-0.0579 0.09456,-0.0858 0.02781,-0.0279 0.05215,-0.0553 0.07236,-0.0821 0.101548,-0.13419 0.109009,-0.25455 0.02593,-0.37414 -0.01667,-0.0238 -0.03699,-0.0479 -0.06099,-0.0718 -0.123375,-0.12335 -0.224949,-0.44276 -0.259927,-0.771 -0.01111,-0.25366 0.02249,-0.53001 0.09768,-0.79634 0.05749,-0.14372 0.12946,-0.28694 0.214444,-0.42736 0.552265,-0.78946 1.836685,-1.49489 4.090697,-2.28616 5.376915,-1.88756 5.768948,-2.06012 6.627521,-2.9161 0.04728,-0.0472 0.09067,-0.0931 0.133827,-0.13901 0.30136,-0.29451 0.499321,-0.60844 0.609785,-0.96015 0.0029,-0.007 0.0042,-0.014 0.0064,-0.0212 0.160575,-0.53012 0.122026,-1.1529 -0.05376,-1.92339 -0.06948,-0.35835 -0.15531,-0.74914 -0.27387,-1.22113 -0.192987,-0.76827 -0.29165,-1.20568 -0.301281,-1.54149 0,-0.11226 0.0071,-0.22003 0.01958,-0.32194 0.0431,-0.22884 0.144489,-0.43868 0.305938,-0.73848 0.254212,-0.47207 1.04185,-1.42976 1.750801,-2.12802 l 0.983906,-0.96893 c 0.03202,-0.0193 0.06347,-0.0378 0.092,-0.0522 0.04789,-0.0217 0.09451,-0.0406 0.137451,-0.0527 0.215027,-0.0449 0.661511,-0.0164 1.174088,0.0568 l 1.457801,0.33486 c 2.577069,0.5919 3.41892,0.59097 2.11717,-0.003 -0.94697,-0.43149 -0.769779,-0.99738 0.441828,-1.41283 0.546973,-0.18756 1.618562,-0.81724 2.38125,-1.39887 0.73316,-0.55912 1.656741,-1.1774 2.116163,-1.42111 0.211482,-0.059 0.46154,-0.21553 0.709507,-0.42582 0.658469,-0.47286 1.081723,-1.08225 1.461426,-2.06086 0.226219,-0.58312 0.259768,-0.82262 0.07596,-0.54002 -1.104291,1.69733 -2.587096,2.96254 -3.661278,3.20807 -0.0753,-0.003 -0.145785,-0.006 -0.230478,-0.006 -0.136049,0 -0.259318,0.0106 -0.376714,0.0238 0,0 -0.0032,-2.1e-4 -0.0042,0 -0.005,0 -0.0079,-8e-5 -0.01244,-0.003 -0.112818,-0.0283 -0.220054,-0.0367 -0.324035,-0.0274 -0.02196,0.003 -0.04265,0.006 -0.06355,0.01 -0.0276,0.005 -0.05527,0.01 -0.08268,0.0169 -0.009,0.003 -0.01879,0.006 -0.02791,0.009 -0.213809,0.067 -0.419788,0.22011 -0.641799,0.47541 -0.370735,0.4264 -1.052883,0.73088 -2.09341,0.93432 -1.671876,0.32687 -2.846838,0.61484 -3.810106,0.98391 -0.310092,0.0901 -0.574172,0.17298 -0.717788,0.23256 -0.364649,0.15132 -0.963375,0.56923 -1.600941,1.07228 -0.05699,0.0434 -0.115041,0.0884 -0.172588,0.13383 -0.08051,0.0649 -0.159358,0.13195 -0.240321,0.19896 -0.137715,0.11311 -0.272468,0.21998 -0.416507,0.34521 -0.0403,0.035 -0.07847,0.0711 -0.118322,0.10644 0,0 -0.0032,0.003 -0.0042,0.003 -0.116681,0.1035 -0.230717,0.20725 -0.342609,0.31213 -0.227859,0.20764 -0.436774,0.40669 -0.631481,0.601 -0.0431,0.0201 -0.10914,0.0905 -0.183965,0.18346 -0.135202,0.13997 -0.263419,0.2753 -0.366897,0.39635 -0.145151,0.15692 -0.255985,0.28686 -0.296122,0.35864 -0.02514,0.0448 -0.04511,0.0997 -0.06202,0.1602 -0.0029,0.008 -0.01058,0.0185 -0.01296,0.0265 -0.01535,0.0485 -0.02408,0.12084 -0.03048,0.20257 -0.06969,0.38941 -0.01244,1.18621 0.13798,1.83814 0.216668,0.93869 0.190421,1.76197 -0.07596,2.47581 -0.05241,0.11174 -0.109987,0.22979 -0.176741,0.36431 -0.0476,0.0958 -0.09321,0.181 -0.139542,0.26614 -0.151368,0.235 -0.333242,0.45659 -0.548798,0.66302 -0.365919,0.35044 -0.996844,0.7438 -1.627294,1.06503 -0.185711,0.0912 -0.359357,0.1738 -0.519324,0.24701 -0.634841,0.27948 -1.193006,0.44405 -1.363742,0.33848 -0.14388,-0.0889 -0.261487,-0.79602 -0.261487,-1.57146 0,-1.17851 -0.152003,-1.6306 -0.926042,-2.7559 -1.133766,-1.64817 -1.1743,-2.47862 -0.167428,-3.42461 0.477308,-0.44847 0.816319,-1.09077 0.914135,-1.7327 0.236802,-1.55464 0.851112,-2.25431 2.711979,-3.08923 0.39751,-0.17835 0.71509,-0.3321 0.973588,-0.46561 0.0418,-0.0214 0.09123,-0.0434 0.124036,-0.063 0.789411,-0.42108 0.785363,-0.57404 -0.124539,-0.3602 -0.671989,0.15793 -1.480291,0.53586 -2.172997,0.97308 -0.290512,0.15174 -0.52398,0.29586 -0.62476,0.40307 -0.105252,0.0657 -0.178806,0.11985 -0.178806,0.14573 0,0.008 0.01164,0.0103 0.02892,0.0103 -0.293476,0.2444 -0.529457,0.48707 -0.657833,0.70437 -0.09089,0.15394 -0.196956,0.28972 -0.303848,0.41082 -0.235003,0.21974 -0.435927,0.3669 -0.531759,0.3669 -0.06771,0 -0.140865,0.0659 -0.210318,0.17518 -0.123454,0.17693 -0.236458,0.47236 -0.299217,0.81701 -0.0994,0.5457 -0.529352,1.61533 -0.95549,2.37712 -0.402431,0.71943 -0.731573,1.41944 -0.767397,1.62314 l -0.05114,0.0982 0.0739,0.10697 0.08628,0.1266 c 0.155495,0.31351 0.455347,0.81132 0.809783,1.32654 0.775335,1.12716 0.926042,1.57676 0.926042,2.76263 0,1.92135 -0.924983,2.98714 -3.419449,3.94033 -0.433466,0.16565 -0.787585,0.31925 -1.10019,0.47024 -0.470614,0.17391 -0.804677,0.36878 -1.035076,0.65114 -0.418201,0.38958 -0.570045,0.82947 -0.582375,1.43971 -0.01878,0.93562 -0.236987,1.35734 -0.861457,1.49397 l -0.48678,0.0491 c -0.035,0 -0.06411,0.005 -0.10078,0.005 -1.9514343,0 -3.0182083,1.13646 -3.7852883,4.16718 -0.0029,0.0124 -0.0058,0.0251 -0.0087,0.0377 -0.08961,0.35706 -0.17653,0.73404 -0.258921,1.14465 -0.189918,0.94662 -0.375418,1.77252 -0.483156,2.16627 -0.07101,0.12335 -0.152294,0.24254 -0.246512,0.35862 -1.066324,0.718 -1.918229,1.51392 -1.918229,1.80713 0,0.16478 -0.03032,0.34083 -0.08112,0.52348 -0.230267,0.6932 -0.703738,1.42404 -1.339982,2.10685 -0.07369,0.0778 -0.147346,0.15578 -0.225293,0.23254 -0.005,0.005 -0.009,0.009 -0.01349,0.014 -0.0029,0.003 -0.0042,0.003 -0.0063,0.005 -0.773774,0.75785 -1.746885,1.45404 -2.76415499,1.91976 -2.00575401,0.91829 -2.30796101,0.6217 -2.08206001,-2.04173 0.135282,-1.59475 0.435214,-3.09391 0.846985,-4.40489 0.20309401,-0.60034 0.43211701,-1.16962 0.67749201,-1.6986 0.325543,-0.6908 0.679026,-1.31038 1.045395,-1.81126 0.55004199,-0.68926 1.14958799,-1.1321 1.76424199,-1.24283 1.021556,-0.18401 1.648486,-0.53734 1.648486,-0.92863 0,-0.12409 -0.29636,-0.11311 -0.658892,0.0249 -0.107209,0.0408 -0.19984,0.0673 -0.293502,0.0946 -0.05741,0 -0.111125,-0.003 -0.172085,0 -0.267891,0.0122 -0.451908,0.0209 -0.581369,-0.0164 -0.224737,-0.0658 -0.282919,-0.27821 -0.325041,-0.84386 l -0.02998,-0.56743 -0.0032,-0.0356 c 0.0029,-0.0463 0.0032,-0.0832 0.0071,-0.13179 0.06112,-0.73641 0.246697,-1.33067 0.656828,-1.91719 0.139277,-0.15828 0.296016,-0.32989 0.494003,-0.54155 0.02302,-0.0246 0.0531,-0.052 0.07702,-0.077 l 0.360177,-0.33952 c 0.182959,-0.17243 0.373168,-0.34734 0.562239,-0.52038 0.330333,-0.25858 0.706226,-0.53155 1.13792,-0.82889 1.283203,-0.88376 1.426396,-1.09844 2.239645,-3.3538 0.685933,-1.9023 0.874766,-2.84909 0.896065,-4.49739 0.01931,-1.49122 -0.07168,-2.12614 -0.317791,-2.22054 -0.471779,-0.18106 -0.432779,-1.43238 0.08525,-2.72696 0.236458,-0.59105 0.357293,-1.14752 0.268208,-1.23661 -0.08911,-0.0891 -0.342054,0.26932 -0.56224,0.79632 -0.118189,0.28281 -0.208359,0.63439 -0.271806,1.02733 -0.07041,0.23275 -0.114486,0.43008 -0.10803,0.53485 0.005,0.0766 0.01587,0.12213 0.03101,0.14057 -0.04178,0.54348 -0.039,1.13179 0.0087,1.72186 1.58e-4,0.009 0.0032,0.0201 0.0032,0.0295 0.04199,0.5049 0.113744,1.00819 0.222726,1.48106 0.344778,1.49622 0.137186,2.39003 -0.555017,2.39003 h -0.0071 c -0.01773,-0.10694 -0.06562,-0.0809 -0.123508,0.008 -0.30726,0.0403 -0.394441,0.24905 -0.39534,0.85111 0,0.47297 -0.12409,1.30263 -0.2744,1.84381 -0.009,0.0335 -0.02275,0.0668 -0.03307,0.10025 -0.301546,0.74427 -0.786951,1.51267 -1.317758,2.11666 -0.74975,0.74634 -1.614461,1.16472 -2.151803,0.86403 -0.346498,-0.19389 -0.454739,-0.15402 -0.454739,0.16795 0,0.23247 -0.309457,0.70975 -0.687811,1.0604 -0.427937,0.39661 -1.08373399,1.71641 -1.73529699,3.49282 -0.57605,1.57054 -1.61967301,3.92718 -2.31925801,5.2369 -0.699584,1.30968 -1.476004,3.00632 -1.725453,3.77031 -0.131869,0.40378 -0.279559,0.7657 -0.408782,1.02007 -0.105198,0.14592 -0.209444,0.2367 -0.294031,0.2367 -0.139568,0 -0.392562,-0.31959 -0.645425,-0.78084 -0.377878,-0.85516 -0.729218,-2.11759 -0.735356,-2.92333 -0.0079,-1.09635 0.251195,-1.83912 1.514104,-4.33774 1.462723,-2.89388 1.517201,-3.07464 1.356519,-4.49791 -0.128534,-1.13824 -0.04101,-1.84624 0.375682,-3.04581 0.298556,-0.85952 0.542608,-1.94315 0.542608,-2.40813 0,-0.57832 0.250692,-1.1076 0.79375,-1.67584 0.469661,-0.49149 0.79375001,-1.11427 0.79375001,-1.52551 0,-0.10639 0.0217,-0.22114 0.06046,-0.34208 0.11893,-0.278 0.292655,-0.57129 0.514191,-0.87387 0.141526,-0.17608 0.306573,-0.36028 0.499692,-0.55345 1.29455299,-1.29455 1.40895899,-1.50365 1.83761099,-3.36153 0.539141,-2.33656 1.427559,-3.83596 2.83964,-4.79145 0.692891,-0.46889 1.592501,-1.24521 1.998822,-1.72498 0.406347,-0.47974 1.509368,-1.37088 2.451549,-1.98022 0.9421553,-0.60931 1.6731993,-1.14728 1.6247013,-1.19581 -0.0485,-0.0485 -0.910061,0.23733 -1.9146053,0.63511 -1.16586,0.46167 -2.163841,1.08156 -2.760053,1.71463 -0.966841,1.02661 -1.675686,1.26397 -1.885157,0.80513 -0.03199,-0.22146 -0.02037,-0.54473 0.02844,-0.97256 0.03448,-0.13454 0.07559,-0.27617 0.130731,-0.43254 0.405103,-1.14813 0.484558,-1.24507 0.0589,-1.65311 -0.01773,-0.0883 -0.04702,-0.15124 -0.08991,-0.17778 -0.0531,-0.0697 -0.12438,-0.11787 -0.212381,-0.15399 -0.04572,-0.0402 -0.09861,-0.0823 -0.155045,-0.12557 -0.005,-0.004 -0.009,-0.008 -0.01402,-0.0119 l -0.01138,-0.008 -0.168963,-0.12764 -0.289402,-0.26818 c -0.01217,-0.099 -0.0077,-0.2195 0.01032,-0.36277 l 0.433016,-1.40305 c 0.287443,-0.93064 0.608065,-2.25959 0.712099,-2.9533 0.165894,-1.10636 0.164227,-1.23937 -0.290433,-1.19063 -0.022754,-0.0159 -0.047757,-0.0259 -0.075962,-0.0259 z m -14.401191,61.43553 c 0.04067,0.1488 0.06019,0.35955 0.06562,0.66456 -0.01164,0.30054 -0.03733,0.69154 -0.07493,1.20353 -0.02196,0.29999 -0.05337,0.60045 -0.08837,0.90176 -0.3119707,2.05544 -1.0369287,4.74382 -1.9316437,7.03162 -1.021953,2.61315 -1.331357,3.15655 -1.967839,3.22873 -0.009,0 -0.01826,0.003 -0.02688,0.003 -0.0372,0.003 -0.07501,0.006 -0.114724,0.007 -0.0567,0 -0.12356,0.0436 -0.194812,0.11317 -0.13081,0.0815 -0.226272,0.22402 -0.310065,0.44545 -0.08959,0.16886 -0.175102,0.36338 -0.244952,0.57256 -0.263869,0.79002 -0.522949,1.12448 -0.871775,1.12448 -0.365205,0 -0.596001,-0.32803 -0.876935,-1.40817 0.08771,0.32975 0.171397,0.591 0.255772,0.7865 0.08901,0.20606 0.179203,0.34512 0.277522,0.43254 0.09829,0.0874 0.204893,0.12298 0.326072,0.12298 0.08721,0 0.169016,-0.0209 0.246486,-0.0646 0.07752,-0.0437 0.150522,-0.10983 0.221192,-0.20103 0.14134,-0.18235 0.27215,-0.46384 0.404098,-0.85886 0.0699,-0.20918 0.155337,-0.40371 0.244951,-0.57256 0.08379,-0.22143 0.178726,-0.36396 0.309536,-0.44545 0.0712,-0.0696 0.138642,-0.11317 0.195342,-0.11317 0.03971,0 0.0775,-0.004 0.114723,-0.007 0.0079,0 0.01773,-0.003 0.02688,-0.003 0.159121,-0.018 0.298027,-0.0655 0.432515,-0.16743 0.134487,-0.10191 0.264371,-0.25826 0.406691,-0.49403 0.284638,-0.47148 0.617643,-1.26068 1.128633,-2.56727 0.447331,-1.1439 0.852328,-2.3879 1.184407,-3.60289 0.332079,-1.21499 0.591238,-2.40101 0.7472357,-3.42873 0.03501,-0.30131 0.06596,-0.60177 0.08787,-0.90176 0.0376,-0.51199 0.06374,-0.90299 0.07543,-1.20353 -0.0045,-0.26041 -0.01879,-0.45445 -0.04805,-0.59841 z m -4.2498697,1.6619 c 0.0045,0.0148 0.0098,0.0281 0.01402,0.0434 0.01005,0.0525 0.01905,0.10578 0.02593,0.16486 0.009,0.0761 0.02117,0.13687 0.03254,0.20051 0.005,0.0634 0.01138,0.12554 0.01191,0.19378 0,0.12332 0.01429,0.22447 0.03463,0.308 -0.03148,-0.0927 -0.05101,-0.21614 -0.0522,-0.37365 0,-0.0682 -0.0069,-0.13038 -0.01191,-0.19378 -0.01138,-0.0636 -0.02355,-0.1244 -0.03254,-0.2005 -0.0061,-0.0511 -0.01376,-0.0969 -0.02222,-0.14264 z m -6.95669,2.82104 c 0.112607,0.42212 0.166397,1.07165 0.166397,1.97094 0,0.65635 0.05128,1.22248 0.124539,1.50482 -0.02823,-0.0864 -0.05416,-0.21188 -0.07543,-0.37106 -0.04112,-0.30779 -0.06668,-0.73241 -0.06668,-1.1994 0,-0.69096 -0.03103,-1.23693 -0.09662,-1.64434 -0.01535,-0.0949 -0.03315,-0.18103 -0.0522,-0.26096 z m -5.177975,0.68316 c 0.07361,0.25709 0.142849,0.52099 0.205158,0.78962 0.06104,0.26321 0.118824,0.50271 0.174149,0.72139 -0.06072,-0.23733 -0.124487,-0.49596 -0.192246,-0.78806 -0.05697,-0.24564 -0.120571,-0.48671 -0.187061,-0.72295 z m -3.136238,0.0543 c 0.01217,0.0337 0.01058,0.0426 -0.01402,0.009 0.0045,-0.003 0.0087,-0.005 0.01402,-0.009 z m 12.328948,6.64403 c 0.01191,0.0119 0.03133,0.0653 0.05273,0.13279 0.04154,0.055 0.0799,0.14759 0.116787,0.25996 0.02408,0.0735 0.0486,0.14925 0.06924,0.24958 0,0.004 0,0.007 0.0026,0.0103 -0.02249,-0.098 -0.04548,-0.19055 -0.07131,-0.25993 -0.03141,-0.0843 -0.0649,-0.14835 -0.09922,-0.19381 -0.02143,-0.0675 -0.04083,-0.12088 -0.05271,-0.13279 -0.01111,-0.0111 -0.02593,0.0135 -0.04239,0.0568 -0.193649,-0.0627 -0.384705,0.42344 -0.386028,1.27331 0,0.85193 -0.154146,1.71873 -0.375681,2.35386 -0.196586,0.492 -0.425159,0.81455 -0.671804,0.94517 -0.243152,0.0445 -0.541734,-0.12393 -0.793221,-0.45733 l -0.45167,-0.59841 -0.340016,0.82217 c -0.604652,1.45979 -1.585542,0.95446 -2.273247,-1.08005 -0.0056,-0.0241 -0.01111,-0.0409 -0.0164,-0.0641 0.171688,0.50757 0.361341,0.92019 0.559144,1.23039 0.19812,0.31067 0.404309,0.51898 0.607721,0.61806 0.101706,0.0495 0.202697,0.0715 0.301784,0.0656 0.09909,-0.006 0.196056,-0.0398 0.289904,-0.10281 0.187748,-0.1261 0.362505,-0.36836 0.513662,-0.7333 l 0.340016,-0.82216 0.45167,0.59841 c 0.125757,0.16671 0.26297,0.29231 0.399442,0.37052 0.136498,0.0782 0.272203,0.10909 0.393779,0.0868 0.123322,-0.0653 0.241988,-0.17844 0.354515,-0.33695 0.112554,-0.15846 0.218996,-0.36224 0.317289,-0.60822 0.110781,-0.31758 0.204549,-0.69295 0.270774,-1.09554 0.0662,-0.40259 0.104907,-0.83238 0.104907,-1.25833 0,-0.42495 0.04882,-0.7588 0.120915,-0.97875 0.03612,-0.10996 0.07781,-0.19129 0.123005,-0.24132 0.04519,-0.05 0.09366,-0.0689 0.142108,-0.0532 0.0164,-0.0433 0.03138,-0.0679 0.04236,-0.0568 z m -8.694552,1.65674 c 0.01879,0.005 0.03717,0.0175 0.05583,0.0367 0.07739,-0.006 0.142531,0.061 0.189653,0.2005 0.004,0.0122 0.0061,0.0327 0.0098,0.046 -0.04641,-0.12456 -0.108188,-0.18685 -0.181399,-0.18087 -0.07459,-0.0764 -0.150336,-0.0424 -0.223229,0.10285 -0.120438,0.0491 -0.231378,0.284 -0.32041,0.71935 -0.01614,0.0791 -0.0331,0.14599 -0.04961,0.21703 -0.24392,0.73091 -0.501889,1.05532 -0.885217,1.11001 -0.309086,0.0441 -0.501094,0.0151 -0.66249,-0.29766 -0.0354,-0.0897 -0.07091,-0.18994 -0.106971,-0.30231 -0.0037,-0.0132 -0.0077,-0.0323 -0.01138,-0.046 0.0336,0.10364 0.06715,0.19876 0.10025,0.28266 0.0807,0.15636 0.169122,0.24185 0.275934,0.28268 0.106839,0.0408 0.232013,0.0369 0.386557,0.0151 0.191637,-0.0274 0.351631,-0.12195 0.494532,-0.30126 0.142902,-0.17931 0.268711,-0.44328 0.390684,-0.80875 0.0164,-0.071 0.0335,-0.13793 0.04961,-0.21704 0.0445,-0.21764 0.0944,-0.38507 0.148299,-0.50435 0.0539,-0.11927 0.111866,-0.19044 0.172085,-0.21497 0.03651,-0.0726 0.07318,-0.11726 0.110596,-0.13438 0.01879,-0.009 0.03799,-0.0103 0.05683,-0.005 z m 2.894409,0.33695 c 0.0066,0.003 0.01349,0.007 0.02064,0.014 0.0571,0.0587 0.135307,0.28128 0.252703,0.68471 0.03847,0.0809 0.0766,0.19437 0.114194,0.32348 -0.03183,-0.10266 -0.06421,-0.18912 -0.09663,-0.25733 -0.234817,-0.80685 -0.313531,-0.89069 -0.378274,-0.38553 -0.396267,3.09462 -1.565117,3.74717 -2.181781,1.41492 0.03805,0.13808 0.07763,0.26826 0.11938,0.38446 0.09139,0.25435 0.191109,0.45667 0.295592,0.60825 0.104458,0.15158 0.213704,0.25244 0.325041,0.30385 0.111363,0.0514 0.224869,0.0531 0.336921,0.007 0.112024,-0.0462 0.222699,-0.14041 0.329194,-0.28165 0.106521,-0.14123 0.208571,-0.32954 0.303318,-0.56327 0.189521,-0.46744 0.349515,-1.11739 0.454766,-1.93942 0.02834,-0.22101 0.05929,-0.32885 0.104908,-0.31314 z"
       id="path7600" />
  </g>
</svg>
