<?xml version="1.0" encoding="UTF-8" standalone="no"?>
<!-- Created with Inkscape (http://www.inkscape.org/) -->

<svg
   xmlns:dc="http://purl.org/dc/elements/1.1/"
   xmlns:cc="http://creativecommons.org/ns#"
   xmlns:rdf="http://www.w3.org/1999/02/22-rdf-syntax-ns#"
   xmlns:svg="http://www.w3.org/2000/svg"
   xmlns="http://www.w3.org/2000/svg"
   xmlns:sodipodi="http://sodipodi.sourceforge.net/DTD/sodipodi-0.dtd"
   xmlns:inkscape="http://www.inkscape.org/namespaces/inkscape"
   width="221.64671mm"
   height="140.73582mm"
   viewBox="0 0 221.64671 140.73582"
   version="1.1"
   id="svg5229"
   inkscape:version="0.92.5 (2060ec1f9f, 2020-04-08)"
   sodipodi:docname="WinglessDragon.svg">
  <defs
     id="defs5223" />
  <sodipodi:namedview
     id="base"
     pagecolor="#ffffff"
     bordercolor="#666666"
     borderopacity="1.0"
     inkscape:pageopacity="0.0"
     inkscape:pageshadow="2"
     inkscape:zoom="0.35"
     inkscape:cx="-89.711509"
     inkscape:cy="94.528902"
     inkscape:document-units="mm"
     inkscape:current-layer="layer1"
     showgrid="false"
     inkscape:window-width="1920"
     inkscape:window-height="1055"
     inkscape:window-x="0"
     inkscape:window-y="0"
     inkscape:window-maximized="1" />
  <metadata
     id="metadata5226">
    <rdf:RDF>
      <cc:Work
         rdf:about="">
        <dc:format>image/svg+xml</dc:format>
        <dc:type
           rdf:resource="http://purl.org/dc/dcmitype/StillImage" />
        <dc:title></dc:title>
      </cc:Work>
    </rdf:RDF>
  </metadata>
  <g
     inkscape:label="Layer 1"
     inkscape:groupmode="layer"
     id="layer1"
     transform="translate(2.7221632,-33.108278)">
    <path
       style="fill:#000000;stroke-width:0.35277778"
       d="m 136.65976,33.108778 c -0.0521,-0.002 -0.0874,0.002 -0.10335,0.0119 -0.12745,0.0788 -0.11271,0.90287 0.0325,1.83141 0.14532,0.92854 0.18598,2.09695 0.0904,2.59674 -0.13652,0.71447 0.0405,1.04572 0.82837,1.54823 4.01902,2.56366 5.76451,4.52163 5.76451,6.467301 0,1.02985 0.0938,1.0999 2.0283,1.50792 1.55228,0.327399 2.58897,0.33307 4.41626,0.0248 1.31326,-0.22156 2.54379,-0.40255 2.73421,-0.40255 0.27339,0 0.39248,0.65328 0.31575,1.07228 -3.07258,0.34008 -7.33867,0.92658 -7.90186,0.84595 -0.36528,-0.0523 -0.64232,-0.0894 -0.87074,-0.0884 -0.68515,0.003 -0.92857,0.35056 -1.77767,1.66501 -1.03847,1.60757 -1.42476,1.88274 -3.78737,2.69648 -3.57018,1.22965 -4.01695,1.76872 -1.72186,2.07894 2.00913,0.27156 4.12171,1.66561 4.12171,2.72025 0,1.3109 -0.81458,2.067901 -3.33002,3.095931 -1.76156,0.71994 -2.75396,1.38008 -3.30988,2.20194 -1.2302,1.818719 -1.03596,2.119399 0.86661,1.341001 1.83017,-0.748792 4.23402,-0.89684 5.40329,-0.332801 1.17814,0.568319 1.93528,2.251681 1.93528,4.303101 0,2.452129 -0.61767,3.185819 -3.95686,4.701519 -1.70716,0.77489 -2.88927,1.562611 -3.1657,2.10943 -0.24264,0.480021 -0.35794,0.947619 -0.25631,1.03922 0.10162,0.0916 1.10093,-0.14727 2.22053,-0.53072 4.77536,-1.63549 7.11533,-0.589751 7.11533,3.17913 0,2.778649 -1.01436,4.049599 -4.50929,5.652371 -3.35675,1.539388 -3.69811,2.263288 -1.11,2.352828 2.05818,0.0712 3.57503,0.891271 4.37699,2.365751 0.45076,0.828741 0.41281,1.239081 -0.29042,3.116091 -0.18017,0.480848 -0.32301,0.918408 -0.43512,1.299141 -11.31005,0.72104 -26.84186,3.573319 -28.84423,3.539823 L 83.33735,99.79151 c -0.342821,-0.006 -11.194762,0.0051 -14.519532,0.0336 -0.839409,-0.691092 -2.95102,-0.600102 -8.618598,-0.465111 -7.761711,0.18489 -8.343202,0.248443 -13.154753,1.432481 -10.64428,2.61937 -17.14445,2.58675 -23.199098,-0.11679 -3.724541,-1.663089 -5.342321,-4.483053 -5.658571,-7.615037 1.26333,0.586182 3.21086,1.352206 4.17546,1.639694 2.121381,0.632259 3.148179,0.731684 6.080241,0.588595 7.692938,-0.37542 12.004069,-3.705291 11.988419,-9.259903 -0.01741,-6.188128 -4.25092,-9.554128 -12.522229,-9.957009 -0.542012,-0.02641 -1.055002,-0.0414 -1.546161,-0.0439 -3.43811,-0.01741 -5.78895,0.58351 -9.26662,2.2562 -0.84421,0.406051 -1.63612,0.870619 -2.3735,1.386991 -0.0332,-0.0813 -0.0658,-0.16161 -0.108,-0.25735 C 10.396568,69.855851 6.7223376,61.064749 7.1910877,60.596 c 0.4450901,-0.4451 1.3253601,0.1993 1.8376101,1.345139 0.28457,0.636572 0.94514,2.401991 1.4676102,3.92276 1.42121,4.136811 1.2909,4.050911 6.61665,4.333582 2.79853,0.148518 4.49307,0.11371 4.40955,-0.0904 -0.0746,-0.18242 -2.43744,-2.494812 -5.25084,-5.138712 -5.71205,-5.367851 -9.4655903,-9.37854 -13.5511102,-14.48128 -1.5146602,-1.89177 -2.79098007,-3.439591 -2.83652017,-3.439591 -0.0455,0 -0.009,3.532031 0.0822,7.849141 0.18093,8.60833 -0.24364,12.94181 -1.82315003,18.609199 -0.98503,3.534381 -0.98397,3.52743 -0.7043499,3.52743 0.59931,0 3.90322,-2.79386 5.1113199,-4.32222 1.5414001,-1.950019 1.5922602,-2.33249 0.85059,-6.437329 -0.2804499,-1.55222 -0.5156798,-3.497079 -0.52245,-4.321701 -0.010401,-1.26346 0.0979,-1.499129 0.68678,-1.499129 0.78187,0 0.80732,0.0853 1.4360901,4.7625 0.4692999,3.49083 4.5216501,15.8462 5.8084303,18.42471 -1.0148602,1.508839 -1.7519602,3.200339 -2.1642102,5.034841 -0.43868,1.952098 -0.37751,3.653488 0.24702,6.842471 1.3778302,7.035399 9.5075702,14.361419 19.9440002,17.972029 3.9336,1.36086 11.0442,3.05512 12.821952,3.05512 0.99736,0 1.919689,-0.76771 7.542178,-6.27766 5.679389,-5.56572 6.619502,-6.34537 8.287871,-6.87554 1.369209,-0.43511 2.065708,-0.49988 2.55746,-0.2367 0.7703,0.41227 0.886741,1.00417 0.23462,1.19115 -3.445309,0.98785 -3.996262,1.38647 -9.789592,7.08174 -3.201447,3.14727 -6.564728,6.22173 -7.473958,6.83215 -0.90924,0.61044 -4.401402,2.54949 -7.760771,4.30929 -8.989169,4.70892 -17.97346,10.9224 -18.21542,12.59769 -0.0918,0.63555 0.059,0.78081 0.81132,0.78081 1.20088,0 2.44118,-0.65984 5.37383,-2.85769 1.316841,-0.98689 2.83379,-2.02292 3.370849,-2.30272 1.38884,-0.72353 1.563552,-0.006 0.67438,2.76884 -1.30924,4.08572 -1.589759,6.41935 -1.36271,11.32798 0.230011,4.97242 1.492621,11.9629 2.726452,15.09315 0.84767,2.15054 0.70299,3.22803 -0.691951,5.15369 -0.756809,1.04473 -1.558891,1.58134 -3.504179,2.34455 -1.387521,0.54438 -2.522841,1.03683 -2.522841,1.09451 0,0.0577 0.23725,0.55993 0.5271,1.11569 0.28983,0.55576 0.52798,1.28826 0.52917,1.62782 0.003,0.84072 0.2116,0.79849 3.006531,-0.60772 1.339138,-0.67376 3.292758,-1.4034 4.341339,-1.6211 1.986761,-0.41243 2.46349,-0.33401 7.89151,1.2914 1.944751,0.58235 2.061152,0.57857 3.704161,-0.11834 0.932979,-0.39574 2.208779,-0.82799 2.835489,-0.96065 1.81473,-0.38418 4.78427,0.42587 7.13962,1.9482 1.183661,0.76502 2.24164,1.39113 2.35127,1.39113 0.28452,0 2.246382,-2.13963 2.246382,-2.44999 0,-0.52668 -1.799942,-1.05182 -4.420921,-1.28931 -2.793571,-0.25316 -3.582439,-0.7769 -2.59467,-1.72292 0.59908,-0.57375 5.458489,-1.59316 7.593851,-1.59319 0.85861,0 2.139669,0.24146 2.846848,0.53692 1.500632,0.62701 1.689819,0.44223 1.689819,-1.65052 v -1.53223 l -1.958538,-0.10385 c -1.50463,-0.0797 -2.650519,0.1519 -4.939231,0.99941 -1.638919,0.6069 -3.42986,1.18981 -3.980119,1.29501 -0.880452,0.16835 -0.986452,0.0965 -0.882111,-0.59944 0.0972,-0.64834 0.973252,-1.15443 4.861201,-2.80708 2.608389,-1.10873 4.798988,-2.18477 4.86792,-2.39156 0.0689,-0.2068 -0.18728,-0.88961 -0.56896,-1.51723 -0.38168,-0.62765 -0.61046,-1.35848 -0.5085,-1.6242 0.356709,-0.92959 -0.338122,-0.46381 -2.95796,1.98284 -6.40027,5.97715 -11.862882,6.61041 -16.554021,1.91926 -0.954389,-0.9544 -1.40103,-1.33032 -2.066539,-1.47537 0.379868,-1.68386 0.0459,-3.98907 -0.930701,-5.35109 -0.49825,-0.69493 -0.933151,-1.13231 -1.42472,-1.34204 0.683361,-1.57803 0.474969,-5.03815 -0.552929,-5.67976 -0.0744,-0.0464 -0.169942,-0.095 -0.27699,-0.14417 0.227838,-0.27909 0.42902,-0.63699 0.606679,-1.08469 1.652331,-4.1638 1.771129,-6.90494 0.343131,-8.31784 1.038259,-0.4277 1.991698,-1.11456 2.662888,-1.99625 l 1.115182,-1.46503 c 0.50056,0.20405 1.09357,0.24599 1.948198,0.24599 1.382972,0 3.048662,-0.40389 3.701582,-0.89713 0.483849,-0.36549 0.758129,-0.61074 0.83199,-0.93276 1.198668,0.79677 2.86774,1.18787 5.082379,1.19838 2.047772,0.01 5.746059,-1.22891 6.112801,-1.99832 1.15325,0.40124 2.508189,0.51715 4.244189,0.42375 2.569879,-0.13827 3.838382,-0.4882 4.446241,-1.22629 0.211529,-0.25683 0.362519,-0.46045 0.44545,-0.66508 2.7071,0.51202 8.925038,-1.92109 8.925038,-3.78426 0,-0.0625 -0.01839,-0.13768 -0.0512,-0.22219 2.189041,-0.76142 4.65011,-1.74731 5.617231,-2.32958 0.230259,-0.13864 0.464569,-0.25175 0.721918,-0.34623 0.767491,1.35961 2.095781,3.35483 3.137792,4.32273 2.665471,2.47587 3.573539,4.16124 3.530529,6.55204 -0.0452,2.51095 -1.55674,5.54509 -3.118149,6.25853 -2.822501,1.28969 -8.534461,3.21776 -10.56318,3.56569 -1.288831,0.22103 -2.94467,0.70551 -3.679881,1.07643 -1.382419,0.69741 -2.716919,2.45615 -2.719221,3.58426 -0.0011,0.54395 0.179372,0.60634 1.145673,0.3974 0.630589,-0.13637 2.479069,-0.69924 4.108278,-1.25108 1.629211,-0.55187 3.160619,-0.88958 3.40289,-0.75036 0.242279,0.13922 1.54509,1.68198 2.89491,3.42823 2.66732,3.4507 6.750301,7.50004 9.403561,9.32553 2.884459,1.98456 11.597699,5.66735 13.407972,5.66735 0.86101,0 2.0313,1.19777 1.78852,1.83036 -0.30559,0.79645 -1.7748,1.26156 -5.410523,1.71207 -1.677079,0.20778 -3.176108,0.50355 -3.331059,0.6573 -0.15494,0.15378 -0.15494,1.03399 0,1.95596 l 0.281631,1.67638 3.741888,-1.96266 c 4.589173,-2.40704 6.201243,-2.82678 8.177283,-2.1296 1.14149,0.40275 1.68923,0.42315 2.66909,0.0998 2.97357,-0.98137 13.07946,0.54409 15.78973,2.38331 1.51692,1.02944 1.54875,1.02889 1.54875,-0.0238 0,-0.54038 0.40785,-1.17546 1.10535,-1.72135 1.46417,-1.14586 1.07731,-1.8002 -0.88211,-1.49241 -4.0249,0.63225 -5.89532,0.60283 -8.30699,-0.12972 -2.70016,-0.82011 -4.17259,-1.79372 -3.74912,-2.47891 0.30535,-0.49408 0.84148,-0.40312 3.86178,0.6563 2.43964,0.85571 5.46998,0.94789 6.89828,0.20928 0.87544,-0.4527 1.22591,-0.45693 2.6448,-0.03 0.89956,0.27072 1.86633,0.68387 2.14819,0.91779 0.40037,0.33226 0.74386,0.32914 1.57097,-0.0134 1.21587,-0.50363 1.2465,-0.61754 0.53175,-1.988 -0.28985,-0.55576 -0.52798,-1.28521 -0.52917,-1.62107 -0.004,-1.19751 -1.57326,-1.10345 -4.63176,0.27749 -1.60494,0.72464 -3.59574,1.39388 -4.42402,1.48725 -1.58894,0.1791 -3.66911,-0.37584 -6.06733,-1.6056 0.0116,-0.009 0.0219,-0.0158 0.0336,-0.0253 0.58559,-0.47627 5.68795,-3.94031 8.17521,-4.67775 3.16908,-0.93959 3.14139,-0.91956 2.50631,-1.82624 -0.29311,-0.41849 -0.53278,-1.28127 -0.53278,-1.91719 0,-0.63593 -0.16968,-1.15599 -0.37724,-1.15602 -0.664,0 -3.27291,1.99162 -5.03329,3.84268 -1.13532,1.1938 -5.02689,3.41812 -6.17998,3.82767 -0.54705,0.19428 -0.93021,0.34525 -1.20148,0.48059 -2.4376,-1.28736 -4.90685,-2.08587 -7.30756,-2.35749 -0.41321,-0.0467 -0.73969,-0.0769 -1.0294,-0.092 -0.0992,-0.18238 -0.46368,-0.44434 -1.05161,-1.10279 -1.02578,-1.14881 -2.45616,-2.80185 -4.02094,-2.78794 -0.75319,-0.22619 -1.784013,-0.39203 -2.833423,-0.40256 0.0762,-0.2571 0.15119,-0.52115 0.22375,-0.79788 0.57133,-2.17865 0.58832,-4.12168 0.16279,-5.77019 l 0.83405,-0.91107 c 0.59078,-0.001 1.264423,-0.0676 2.073783,-0.18705 3.76357,-0.55555 5.74894,-1.61891 7.02489,-3.76463 0.21598,-0.36319 0.37754,-0.63791 0.48214,-0.85524 0.251,0.049 0.49287,0.0968 0.77102,0.14933 0.83918,0.15867 1.51493,-0.0963 3.26388,-1.23145 2.59439,-1.68378 3.61239,-3.15542 3.61425,-5.22602 7.9e-4,-0.92617 -0.1549,-1.4908 -0.65784,-2.18697 1.85153,0.50925 3.92856,0.73237 6.47609,0.73329 2.24275,5.3e-4 3.24746,-0.0187 3.59978,-0.19946 2.95841,2.1977 8.2362,4.33773 10.76833,4.33773 0.53598,0 0.89482,-0.0112 1.13895,-0.0517 0.81352,0.63881 1.94298,1.22434 3.65869,1.98078 0.57554,0.25376 1.07927,0.45828 1.53066,0.61907 -0.23493,0.87077 -0.40179,1.65574 -0.40359,1.95699 -0.005,0.85082 2.02303,6.37146 2.43396,6.62544 0.43219,0.26712 3.55277,-7.12902 3.83492,-9.08937 0.37139,-2.5808 1.03542,-2.54188 3.11607,0.1819 0.93435,1.22317 4.17217,4.7638 7.19543,7.86826 3.18214,3.26761 6.05364,6.56598 6.81871,7.83259 1.51778,2.51283 3.15021,7.01067 2.86752,7.90134 -0.27315,0.86063 -2.74121,1.74886 -5.50095,1.98024 -3.19471,0.26781 -3.26154,0.32875 -2.89441,2.61276 l 0.30491,1.89807 h 2.49957 c 2.3531,0 2.59892,-0.0777 4.20389,-1.32861 1.92119,-1.49735 4.73646,-2.4797 6.11901,-2.13526 0.50774,0.1265 1.8392,0.66217 2.95897,1.19062 1.69733,0.80106 2.25499,0.90999 3.35174,0.65524 2.38972,-0.55501 4.7429,-0.37166 6.13453,0.4775 0.71019,0.43339 2.05975,1.26444 2.99876,1.84639 1.47058,0.9116 2.04843,1.05833 4.16771,1.05833 h 2.46031 l 0.22895,-1.38956 c 0.12782,-0.77602 0.56015,-1.6574 0.97925,-1.99679 1.02756,-0.83203 0.94456,-1.26809 -0.39635,-2.08565 -1.3575,-0.82767 -2.40813,-0.87233 -4.3217,-0.18293 -1.91178,0.68873 -3.92438,0.68807 -4.18889,-10e-4 -0.21672,-0.56478 0.98465,-1.22317 2.23139,-1.2232 0.35322,0 1.09686,-0.23722 1.65262,-0.52708 1.29087,-0.67323 2.9845,-0.67413 4.59247,-0.002 1.71027,0.71458 1.69659,0.72168 1.80714,-0.88985 0.1275,-1.8588 -0.36823,-2.02636 -3.61014,-1.21907 -1.85968,0.4631 -2.97474,0.57825 -5.17744,0.12817 2.10428,-0.71157 4.27638,-1.622 5.64615,-2.00917 l 2.24793,-0.6351 -0.92501,-0.60617 c -0.50874,-0.33337 -0.92501,-0.84579 -0.92501,-1.13844 0,-0.29266 -0.23887,-0.62368 -0.53123,-0.73586 -0.0172,-0.007 -0.0401,-0.0105 -0.0687,-0.0119 -0.62272,-0.0289 -6.29447,2.42308 -9.66399,4.04368 -0.34303,-0.0977 -0.64598,-0.1814 -1.02475,-0.29094 -4.74933,-1.37369 -6.39062,-2.20506 -8.8532,-4.4845 -1.10051,-1.01862 -2.10497,-1.85208 -2.23242,-1.85208 -0.0485,0 -0.16907,0.0579 -0.31472,0.13798 -0.21498,-2.48793 -0.94361,-5.8432 -1.88566,-7.10499 -0.38569,-0.51658 -1.19674,-1.55747 -1.95803,-2.42258 0.0349,-0.069 0.0651,-0.13706 0.0847,-0.20259 0.37245,-1.24312 0.35504,-1.58941 -0.11369,-2.30476 -0.5638,-0.86048 -1.81094,-2.95569 -2.5554,-2.99826 0.13279,-1.21386 -0.36835,-3.05668 -0.68524,-4.00958 -0.005,-0.70122 -0.60905,-2.23792 -1.18391,-2.98793 0.41849,-0.85646 0.62664,-1.70493 0.51316,-2.41639 -0.11639,-0.72975 -0.69096,-1.68535 -1.31363,-2.36369 0.51932,-0.58409 0.82823,-1.03174 0.80669,-1.24851 -0.006,-0.0589 -0.004,-0.18762 0.003,-0.35399 0.0339,0.031 0.0591,0.0546 0.0951,0.0873 1.5518,1.41211 2.47438,3.72915 2.15748,5.41827 l -0.2346,1.25005 h 1.78749 c 0.94927,0 1.45654,-0.0533 2.01021,-0.36946 0.46101,0.13118 1.00998,0.27427 1.63297,0.41548 3.95707,0.89688 7.89245,1.84861 9.20513,5.06894 1.43914,3.53068 2.2603,5.11545 2.65099,5.11545 0.167,0 0.41519,-0.74337 0.55139,-1.65158 1.02682,-6.84745 3.95619,-11.54499 13.06124,-20.94447 3.45316,-3.56497 6.51473,-7.06459 7.21659,-8.25014 1.38331,-2.33664 3.36373,-7.75305 3.73158,-10.20609 0.40312,-2.6884 1.35701,-2.60336 1.97453,0.17569 0.18848,0.84807 0.9531,2.57373 1.69913,3.83492 0.74608,1.26116 1.55076,2.92804 1.78853,3.70417 0.63153,2.06139 0.87621,2.16815 2.23501,0.97512 0.67026,-0.58849 1.43259,-1.15893 1.69394,-1.26709 0.34025,-0.14108 0.16783,-0.47781 -0.60719,-1.18703 -0.59523,-0.54469 -1.4535,-1.62528 -1.90739,-2.40141 -0.45386,-0.77597 -1.2657,-1.88751 -1.80404,-2.46959 -0.92741,-1.00283 -1.00789,-1.36628 -1.5322,-6.923115 -0.81716,-8.660458 -0.82242,-8.596908 0.81392,-9.629889 1.80457,-1.139161 2.80162,-2.455971 3.05305,-4.032311 0.11271,-0.707919 0.43442,-1.80816 0.71467,-2.445329 0.67845,-1.54255 0.64244,-2.19315 -0.12145,-2.19315 -0.34703,0 -1.22578,-0.303191 -1.95283,-0.673859 l -1.32188,-0.673862 -0.54934,0.83871 c -0.30226,0.461312 -1.48034,3.185602 -2.61741,6.053892 -1.90771,4.8123 -2.79058,6.16503 -3.24217,4.967658 -0.0951,-0.252058 0.12062,-1.88712 0.47904,-3.63337 0.85197,-4.150669 0.85257,-8.018888 0.003,-9.877438 -0.52901,-1.155912 -0.9207,-1.49434 -2.16472,-1.871202 -0.6239,-0.188989 -1.01658,-0.283588 -1.28315,-0.2837 h -0.002 c -0.26617,1.3e-4 -0.40619,0.0947 -0.52607,0.2837 -0.46493,0.733261 -0.35248,2.10534 0.35814,4.359942 0.82134,2.605468 1.45571,5.955509 1.45571,7.685839 0,0.817999 -0.14825,1.57889 -0.51729,2.464961 -1.67492,-2.268331 -2.62218,-7.188872 -2.99979,-7.594372 -0.37354,-0.400878 -0.58468,-0.58564 -0.82373,-0.591169 -0.1859,-0.004 -0.38888,0.0999 -0.69712,0.295071 -0.43064,0.27269 -1.21931,0.71642 -1.75287,0.98598 -1.10823,0.55988 -0.57245,0.67359 -0.64439,1.601968 0.2949,1.52219 4.25675,5.695431 5.52987,7.817101 -0.11517,0.179144 -0.2241,0.352385 -0.3519,0.54415 -1.47669,2.215661 -2.12838,4.195292 -2.85152,8.662514 -0.48413,2.9908 -0.47508,3.19985 0.18347,4.31602 0.16496,0.27961 0.29699,0.5715 0.39737,0.8749 -0.59168,0.096 -1.72868,0.69778 -2.76984,1.49394 -1.77797,1.35953 -2.22726,2.0841 -2.22726,3.59566 0,0.22188 0.0245,0.45884 0.0625,0.69866 -0.22574,-0.084 -0.45101,-0.12602 -0.70123,-0.12713 -0.25027,-0.001 -0.52564,0.0346 -0.85061,0.0977 -1.88475,0.36578 -4.60713,2.27721 -4.89841,3.37034 -0.27146,-0.0986 -0.55571,-0.14695 -0.85678,-0.14005 -0.3321,0.008 -0.68363,0.0781 -1.0573,0.20979 -0.89471,0.31536 -1.68354,0.83238 -2.33939,1.51257 -0.20415,-0.0935 -0.46032,-0.1442 -0.78031,-0.15864 -0.21796,-0.009 -0.46373,-0.005 -0.74054,0.0124 -0.90231,0.0559 -3.13873,-0.12475 -5.05913,0.0749 0.0835,-0.83143 10e-4,-1.56602 -0.25527,-2.18022 -0.0704,-0.16854 -0.1543,-0.33462 -0.24495,-0.49094 0.006,-0.0134 0.0133,-0.0269 0.0191,-0.0403 1.56546,-3.63511 1.66137,-10.11597 0.19172,-12.95426 -0.20762,-0.40092 -0.34994,-0.62262 -0.62839,-0.62786 -0.19097,-0.004 -0.45659,0.10263 -0.84026,0.31367 0.13301,-0.77896 0.11949,-1.820523 0.0434,-3.374471 -0.18341,-3.746648 -0.81526,-6.115193 -1.85674,-6.962365 -0.12825,-0.104339 -0.25826,-0.164489 -0.39997,-0.176739 -0.0473,-0.004 -0.0954,-0.003 -0.14573,0.004 -0.32049,0.0429 -0.71512,0.31637 -1.27281,0.843359 0.38936,-2.75477 -0.30588,-6.498219 -1.87584,-8.59224 -0.33856,-0.45157 -0.53547,-0.704459 -0.75189,-0.73174 -0.27827,-0.0351 -0.58886,0.30266 -1.27331,1.070729 -0.22783,0.255662 -0.46321,0.504151 -0.70488,0.744662 0.0675,-0.118991 0.12793,-0.235669 0.17518,-0.347781 0.33901,-0.804199 0.616,-2.25937 0.616,-3.233399 0,-2.078951 -1.32289,-6.667791 -2.05724,-7.13599 -0.0351,-0.0223 -0.0823,-0.0336 -0.14004,-0.0336 -0.10186,1.8e-5 -1.82782,0.462348 -3.76928,0.997868 0.29818,-2.806909 0.38452,-5.61648 0.22273,-8.273921 -0.0414,-0.679368 -0.10242,-1.313809 -0.17159,-1.921319 0.12441,-0.372409 0.0915,-0.633378 -0.0977,-0.799439 -0.10671,-0.75938 -0.23183,-1.439852 -0.37206,-2.005041 0.31549,0.0636 0.67778,0.12165 1.06865,0.16588 4.1529,0.46985 7.04019,2.017829 8.89921,4.77076 0.59663,0.883539 1.13757,1.671141 1.202,1.750801 0.0644,0.0797 0.42982,-0.137969 0.81182,-0.48369 1.0605,-0.959749 1.60838,-0.47821 2.66703,2.340938 0.53377,1.421461 1.11487,2.741782 1.29087,2.934192 0.55518,0.606899 1.03807,-0.609822 0.85008,-2.141989 -0.12652,-1.030931 0.0666,-2.031971 0.68162,-3.527952 0.47218,-1.148681 0.86252,-2.50035 0.86712,-3.00395 l 0.008,-0.915699 -4.577,-0.219112 c -4.04161,-0.193317 -4.87534,-0.345379 -7.12152,-1.30121 -2.14612,-0.91326 -4.61889,-1.420588 -6.17173,-1.398889 -0.29321,0.004 -0.54866,0.0297 -0.7679,0.0724 -0.21486,-0.565931 -0.44706,-0.8909 -0.67902,-0.8909 -0.12893,0 -0.92914,0.451519 -1.81592,1.017511 0.30168,-0.564693 0.62452,-1.186222 0.9679,-1.886712 2.66589,-5.43857 3.79304,-6.85499 6.52621,-8.20053 1.47892,-0.72807 3.03517,-1.18882 4.44574,-1.31672 1.96395,-0.17809 2.26055,-0.11343 3.12383,0.67903 1.5226,1.39768 2.9468,2.25314 4.76147,2.86029 l 1.69085,0.56586 0.68937,-1.13068 c 0.77637,-1.27329 0.84545,-1.71719 0.3452,-2.21744 -0.63177,-0.63174 -1.42449,-3.80935 -1.04489,-4.18889 0.5638,-0.56381 1.50225,0.25266 1.83967,1.60094 0.43125,1.7232 1.03442,2.07822 2.82721,1.66294 0.81783,-0.18942 3.74891,-0.28085 6.51383,-0.20308 2.76487,0.0778 5.02708,0.0396 5.02708,-0.0848 0,-0.12433 -0.71313,-0.73817 -1.58493,-1.36426 -2.54757,-1.82952 -6.14183,-2.87064 -12.90153,-3.73724 -1.86632,-0.23927 -2.55583,0.28328 -3.33262,2.52749 -0.41907,1.21077 -0.39555,1.46133 0.23461,2.48667 1.10072,1.79093 0.0516,2.61025 -1.36321,1.06454 -1.32424,-1.44683 -1.31345,-2.39323 0.0646,-5.64462 0.19958,-0.47087 0.0922,-0.61701 -0.45267,-0.61701 -1.29313,0 -1.81507,-0.40628 -2.76315,-2.1482 -1.21391,-2.2304 -2.81811,-3.01128 -6.82853,-3.32537 -3.35026,-0.2624 -14.10417,0.40666 -14.61926,0.9095 -0.20611,0.20122 -0.0986,0.81159 0.28371,1.61334 0.40442,0.84808 0.49647,1.40934 0.26768,1.63814 -0.58481,0.58479 -1.45235,-0.0171 -2.096,-1.45469 -1.03467,-2.311281 -3.52496,-4.142131 -7.04439,-5.179451 -1.69061,-0.4983 -4.334,-1.2862 -5.87457,-1.75079 -1.34748,-0.40636 -2.56033,-0.69895 -2.9285,-0.71314 z m 77.74564,17.111621 c -0.28805,-0.0445 -1.32831,0.32881 -2.51457,0.91674 -2.26478,1.12247 -4.1951,1.77875 -8.74779,2.97398 -0.92871,0.24383 -1.63242,0.61976 -1.56374,0.83509 0.0687,0.21533 1.10675,0.77625 2.30632,1.24695 1.27008,0.49836 2.18075,1.0688 2.18075,1.36529 0,0.28003 -0.56795,1.44415 -1.26246,2.587438 -0.6945,1.143302 -1.20398,2.256362 -1.1317,2.473241 0.19082,0.572431 4.77067,-3.493449 6.66419,-5.916439 2.31661,-2.96434 4.28993,-6.02849 4.14496,-6.43682 -0.009,-0.024 -0.0347,-0.039 -0.0754,-0.0455 z m -49.50809,6.03426 c -0.43915,0.008 -0.45789,0.1416 -0.36896,0.40565 0.0817,0.24253 0.50755,0.44484 0.9462,0.44959 0.43863,0.005 0.98698,0.26784 1.21851,0.58446 0.30218,0.41327 0.5882,0.48186 1.01338,0.24391 0.4412,-0.24689 0.70279,-0.1539 1.02577,0.36329 0.3166,0.50689 0.68699,0.64375 1.37099,0.50694 0.66402,-0.1328 1.00131,-0.0192 1.15858,0.39068 0.17764,0.462971 0.36513,0.501949 0.93999,0.1943 0.81296,-0.43507 1.40922,-0.20215 1.40922,0.55087 0,0.73819 0.6195,0.62307 1.05834,-0.19689 0.48686,-0.90975 1.1217,-0.89701 1.70325,0.0341 0.44611,0.71437 0.47972,0.716981 0.97256,0.0879 0.49342,-0.62993 0.53027,-0.62689 1.11363,0.0832 l 0.60306,0.734319 0.62579,-0.734319 c 0.66892,-0.785261 0.81675,-0.704471 1.86087,1.022159 0.32142,0.53154 0.96422,0.550191 7.23212,0.209291 3.78354,-0.20579 8.33671,-0.374952 10.11825,-0.376211 3.17164,-0.0021 3.2544,-0.0235 3.96875,-1.026811 1.25317,-1.759909 1.04807,-1.916869 -2.14717,-1.638139 -4.13528,0.36073 -17.14939,0.2721 -21.28861,-0.14521 -4.43746,-0.44738 -8.4663,-0.93225 -11.64167,-1.40043 -1.59406,-0.23503 -2.45372,-0.35108 -2.89285,-0.34261 z m -7.60471,4.415749 c 0.13716,0.21749 0.28634,0.46209 0.45837,0.752401 0.0426,0.0719 0.0871,0.13476 0.13075,0.203089 -0.14589,-0.009 -0.26394,-0.0643 -0.37258,-0.162259 -0.20569,-0.18538 -0.27871,-0.41235 -0.21654,-0.793231 z m 49.22854,10.02987 c -0.15772,-0.01101 -0.50388,0.272521 -0.83148,0.694021 -0.77013,0.990869 -0.76512,2.287719 0.008,2.287719 0.52123,0 1.28082,-2.556668 0.87903,-2.958478 -0.014,-0.014 -0.0325,-0.02151 -0.0548,-0.02331 z m 10.97814,4.992471 c -0.44791,-0.0113 -2.61329,1.327179 -2.61329,1.651571 0,0.139409 0.1904,0.444119 0.42323,0.676968 0.23286,0.23282 0.53472,0.42323 0.67077,0.42323 0.33891,0 1.79935,-2.516139 1.58491,-2.73059 -0.0135,-0.01339 -0.0358,-0.0204 -0.0656,-0.02119 z m -20.66697,1.56579 c -0.0116,1.59e-4 -0.0222,0.003 -0.0315,0.009 -0.35184,0.217451 -0.0404,2.38361 0.48319,3.362061 v 0.0011 c 0.31901,0.59609 1.37406,0.521391 1.37406,-0.0971 0,-0.681911 -1.46482,-3.27904 -1.82573,-3.274222 z M 27.810079,82.761558 c 2.00319,0.0326 3.88303,0.59745 5.028628,1.6676 2.096442,1.958372 1.139452,5.371772 -1.891868,6.748431 -2.43304,1.104961 -4.687771,0.891971 -7.844491,-0.741559 -1.15526,-0.597831 -3.22223,-1.41429 -4.47879,-1.80713 0.65619,-1.969752 1.96222,-3.574391 3.94291,-4.65242 1.437929,-0.782622 3.168251,-1.182402 4.841561,-1.214401 0.134458,-0.003 0.268499,-0.003 0.40205,-5.29e-4 z m -0.369491,0.991161 c -2.2909,0.0284 -4.67826,0.80945 -6.14175,2.183331 -1.06977,1.004279 -1.00184,1.488869 0.35244,2.504239 1.50286,1.12676 3.69208,2.205569 5.08599,2.5063 1.64625,0.355161 3.967601,-0.40658 5.29994,-1.738911 1.853829,-1.853829 1.45546,-3.643698 -1.06557,-4.788339 -0.908359,-0.41243 -1.971939,-0.627261 -3.074231,-0.66249 -0.151558,-0.005 -0.304088,-0.006 -0.456819,-0.004 z M 217.41297,114.09816 c -0.0811,-0.009 -0.23201,0.0434 -0.38758,0.13951 -0.49567,0.30637 0.10813,1.4578 1.02063,1.94615 1.08688,0.58168 1.1431,0.42984 0.29143,-0.786 -0.44172,-0.63061 -0.83293,-1.20229 -0.86918,-1.27022 -0.009,-0.017 -0.0283,-0.0265 -0.0553,-0.0294 z m -86.63554,40.19341 c -0.86858,0 -1.61644,0.41161 -1.61644,0.88934 0,0.36558 0.21871,0.37786 1.05834,0.061 1.10543,-0.41727 1.41855,-0.95033 0.5581,-0.95033 z m -68.58082,1.77146 c -0.702382,-0.0179 -1.420622,0.0558 -1.599912,0.23514 -0.290309,0.2903 -0.14038,0.86709 0.226862,0.87228 1.053708,0.0149 3.038649,-0.53224 2.877349,-0.79322 -0.115441,-0.18682 -0.801931,-0.29631 -1.504299,-0.3142 z m 137.8076,1.78438 c -1.86719,-0.0549 -3.4023,0.94284 -2.40191,1.56115 0.19537,0.12076 0.79068,-0.0857 1.32291,-0.45836 0.53227,-0.3727 1.20603,-0.76708 1.49707,-0.87644 0.31046,-0.11665 0.13761,-0.21 -0.41807,-0.22635 z m -65.36086,5.35162 c -0.55745,0.0174 -0.86087,0.29885 -0.67593,0.78084 0.13798,0.35962 0.67095,0.54258 1.5813,0.54258 1.63711,0 1.77522,-0.45355 0.32142,-1.05574 -0.46663,-0.19328 -0.89236,-0.2781 -1.22679,-0.26768 z m -70.474772,1.35649 c -0.384529,0 -0.624768,0.16548 -0.624768,0.4961 0,0.38933 0.396049,0.52546 1.499139,0.51626 1.477669,-0.0123 1.48675,-0.0194 0.61753,-0.51626 -0.578541,-0.33062 -1.107371,-0.4961 -1.491901,-0.4961 z m 137.851022,0.43101 c -0.40177,-0.007 -0.77619,0.0234 -1.07437,0.0982 -0.56864,0.14277 -0.8759,0.468 -0.8759,0.92813 0,0.56253 0.16348,0.66448 0.79375,0.49557 0.43653,-0.117 1.64684,-0.21492 2.68925,-0.21757 1.56794,-0.004 1.82552,-0.0885 1.49241,-0.48988 -0.36968,-0.44545 -1.81991,-0.7942 -3.02514,-0.81441 z m -44.28517,4.25709 c -0.52628,0.007 -1.19364,0.24501 -1.73064,0.68678 -0.40248,0.33113 -0.20378,0.43448 1.00513,0.52298 0.82854,0.0607 1.57273,0.0437 1.65415,-0.0377 0.0814,-0.0814 0.0425,-0.42072 -0.0853,-0.75396 -0.11067,-0.28847 -0.43405,-0.42328 -0.84336,-0.41807 z m -65.890022,0.73277 c -0.268568,-0.0131 -0.633278,0.0677 -1.113629,0.23513 -1.308891,0.45628 -1.230511,0.62175 0.478531,1.00717 1.093218,0.24659 1.26297,0.19793 1.26297,-0.36275 0,-0.57526 -0.180242,-0.85778 -0.627872,-0.87955 z m -71.69743,0.20619 c -0.41364,-0.009 -0.9439,0.13009 -1.41077,0.42169 -0.72398,0.45212 -0.93357,0.97359 -0.39171,0.97359 1.10815,0 2.51303,-0.51779 2.51303,-0.92605 0,-0.30202 -0.2969,-0.45997 -0.71055,-0.46923 z m 109.837732,0.10594 c -0.18628,-0.002 -0.36131,0.0198 -0.51727,0.0692 -1.05667,0.33538 -0.76459,0.75919 0.66352,0.96223 0.7276,0.10343 1.64078,0.31314 2.02882,0.46559 0.64214,0.25228 0.6591,0.22016 0.19068,-0.35502 -0.54448,-0.6686 -1.55844,-1.13292 -2.36575,-1.14204 z m 68.78083,1.28002 c -0.39865,-0.0141 -0.75018,0.0639 -0.94052,0.25424 -0.33414,0.33417 0.38328,0.67371 2.06293,0.97618 l 1.4061,0.25321 -0.66714,-0.73742 c -0.40127,-0.44342 -1.19695,-0.72274 -1.86137,-0.74621 z m -140.219871,0.36381 c -0.787522,-0.002 -1.704811,0.36555 -1.704811,0.68368 0,0.14134 0.91091,0.51038 2.02365,0.8201 1.11275,0.30972 2.104591,0.47993 2.204521,0.37878 0.280459,-0.2839 -1.85974,-1.88058 -2.52336,-1.88256 z"
       id="path2152"
       inkscape:connector-curvature="0" />
  </g>
</svg>
